G04*
G04 #@! TF.GenerationSoftware,Altium Limited,Altium Designer,22.8.2 (66)*
G04*
G04 Layer_Physical_Order=3*
G04 Layer_Color=16440176*
%FSLAX25Y25*%
%MOIN*%
G70*
G04*
G04 #@! TF.SameCoordinates,4F58F9C0-C404-4AA8-A12D-09E9B3034F0A*
G04*
G04*
G04 #@! TF.FilePolarity,Positive*
G04*
G01*
G75*
%ADD60C,0.05906*%
%ADD63R,0.03937X0.03937*%
%ADD67C,0.01772*%
%ADD68C,0.02756*%
G36*
X477852Y405911D02*
X477852Y405911D01*
X477852D01*
X478312Y405877D01*
X478707Y405799D01*
X479240Y405578D01*
X479720Y405257D01*
X479924Y405053D01*
X480110Y404866D01*
X480404Y404427D01*
X480606Y403940D01*
X480709Y403422D01*
X480709Y403158D01*
X480709Y216758D01*
X480715Y216386D01*
X480715Y216386D01*
X480715Y216002D01*
X480565Y215250D01*
X480272Y214542D01*
X479846Y213905D01*
X479329Y213388D01*
X478750Y213001D01*
X478107Y212734D01*
X477424Y212598D01*
X477076Y212598D01*
X291431D01*
X290652Y212753D01*
X289918Y213057D01*
X289257Y213499D01*
X288976Y213779D01*
X288400Y214356D01*
X288400Y214356D01*
Y214356D01*
X288052Y214712D01*
X287549Y215465D01*
X287191Y216330D01*
X287008Y217249D01*
X287008Y217717D01*
Y400452D01*
X287008Y400922D01*
X287008Y400922D01*
X287008Y400922D01*
X287008Y401452D01*
X287214Y402491D01*
X287620Y403469D01*
X288208Y404350D01*
X288583Y404724D01*
X288863Y405005D01*
X289524Y405447D01*
X290258Y405751D01*
X291037Y405905D01*
X291434Y405905D01*
X476437Y405905D01*
X477852Y405911D01*
X477852Y405911D01*
D02*
G37*
%LPC*%
G36*
X351391Y400468D02*
X350609D01*
X349854Y400266D01*
X349177Y399875D01*
X348833Y399531D01*
X348500Y399379D01*
X348167Y399531D01*
X347823Y399875D01*
X347146Y400266D01*
X346391Y400468D01*
X345609D01*
X344854Y400266D01*
X344177Y399875D01*
X343833Y399531D01*
X343500Y399379D01*
X343167Y399531D01*
X342823Y399875D01*
X342146Y400266D01*
X341391Y400468D01*
X340609D01*
X339854Y400266D01*
X339177Y399875D01*
X338833Y399531D01*
X338500Y399379D01*
X338167Y399531D01*
X337823Y399875D01*
X337146Y400266D01*
X336391Y400468D01*
X335609D01*
X334854Y400266D01*
X334177Y399875D01*
X333833Y399531D01*
X333500Y399379D01*
X333167Y399531D01*
X332823Y399875D01*
X332146Y400266D01*
X331391Y400468D01*
X330609D01*
X329854Y400266D01*
X329177Y399875D01*
X328833Y399531D01*
X328500Y399379D01*
X328167Y399531D01*
X327823Y399875D01*
X327146Y400266D01*
X326391Y400468D01*
X325609D01*
X324854Y400266D01*
X324177Y399875D01*
X323833Y399531D01*
X323500Y399379D01*
X323167Y399531D01*
X322823Y399875D01*
X322146Y400266D01*
X321391Y400468D01*
X320609D01*
X319854Y400266D01*
X319177Y399875D01*
X318625Y399323D01*
X318234Y398646D01*
X318032Y397891D01*
Y397109D01*
X318234Y396354D01*
X318625Y395677D01*
X319177Y395125D01*
X319854Y394734D01*
X320609Y394531D01*
X321391D01*
X322146Y394734D01*
X322823Y395125D01*
X323167Y395469D01*
X323500Y395621D01*
X323833Y395469D01*
X324177Y395125D01*
X324854Y394734D01*
X325609Y394531D01*
X326391D01*
X327146Y394734D01*
X327823Y395125D01*
X328167Y395469D01*
X328500Y395621D01*
X328833Y395469D01*
X329177Y395125D01*
X329854Y394734D01*
X330609Y394531D01*
X331391D01*
X332146Y394734D01*
X332823Y395125D01*
X333167Y395469D01*
X333500Y395621D01*
X333833Y395469D01*
X334177Y395125D01*
X334854Y394734D01*
X335609Y394531D01*
X336391D01*
X337146Y394734D01*
X337823Y395125D01*
X338167Y395469D01*
X338500Y395621D01*
X338833Y395469D01*
X339177Y395125D01*
X339854Y394734D01*
X340609Y394531D01*
X341391D01*
X342146Y394734D01*
X342823Y395125D01*
X343167Y395469D01*
X343500Y395621D01*
X343833Y395469D01*
X344177Y395125D01*
X344854Y394734D01*
X345609Y394531D01*
X346391D01*
X347146Y394734D01*
X347823Y395125D01*
X348167Y395469D01*
X348500Y395621D01*
X348833Y395469D01*
X349177Y395125D01*
X349854Y394734D01*
X350609Y394531D01*
X351391D01*
X352146Y394734D01*
X352823Y395125D01*
X353375Y395677D01*
X353766Y396354D01*
X353969Y397109D01*
Y397891D01*
X353766Y398646D01*
X353375Y399323D01*
X352823Y399875D01*
X352146Y400266D01*
X351391Y400468D01*
D02*
G37*
G36*
X475473Y388378D02*
X474527D01*
X473653Y388016D01*
X472984Y387347D01*
X472622Y386473D01*
Y385527D01*
X472984Y384653D01*
X473653Y383984D01*
X474527Y383622D01*
X475473D01*
X476347Y383984D01*
X477016Y384653D01*
X477378Y385527D01*
Y386473D01*
X477016Y387347D01*
X476347Y388016D01*
X475473Y388378D01*
D02*
G37*
G36*
X452176D02*
X451230D01*
X450356Y388016D01*
X449687Y387347D01*
X449325Y386473D01*
Y385527D01*
X449687Y384653D01*
X450356Y383984D01*
X451230Y383622D01*
X452176D01*
X453050Y383984D01*
X453719Y384653D01*
X454081Y385527D01*
Y386473D01*
X453719Y387347D01*
X453050Y388016D01*
X452176Y388378D01*
D02*
G37*
G36*
X428878D02*
X427933D01*
X427059Y388016D01*
X426390Y387347D01*
X426027Y386473D01*
Y385527D01*
X426390Y384653D01*
X427059Y383984D01*
X427933Y383622D01*
X428878D01*
X429752Y383984D01*
X430421Y384653D01*
X430783Y385527D01*
Y386473D01*
X430421Y387347D01*
X429752Y388016D01*
X428878Y388378D01*
D02*
G37*
G36*
X405581D02*
X404635D01*
X403761Y388016D01*
X403092Y387347D01*
X402730Y386473D01*
Y385527D01*
X403092Y384653D01*
X403761Y383984D01*
X404635Y383622D01*
X405581D01*
X406455Y383984D01*
X407124Y384653D01*
X407486Y385527D01*
Y386473D01*
X407124Y387347D01*
X406455Y388016D01*
X405581Y388378D01*
D02*
G37*
G36*
X382284D02*
X381338D01*
X380464Y388016D01*
X379795Y387347D01*
X379433Y386473D01*
Y385527D01*
X379795Y384653D01*
X380464Y383984D01*
X381338Y383622D01*
X382284D01*
X383158Y383984D01*
X383827Y384653D01*
X384189Y385527D01*
Y386473D01*
X383827Y387347D01*
X383158Y388016D01*
X382284Y388378D01*
D02*
G37*
G36*
X295020Y391453D02*
X293980D01*
X292974Y391183D01*
X292073Y390663D01*
X291337Y389927D01*
X290817Y389026D01*
X290547Y388020D01*
Y386980D01*
X290817Y385974D01*
X291337Y385073D01*
X292073Y384337D01*
X292974Y383817D01*
X293980Y383547D01*
X295020D01*
X296026Y383817D01*
X296927Y384337D01*
X297663Y385073D01*
X298183Y385974D01*
X298453Y386980D01*
Y388020D01*
X298183Y389026D01*
X297663Y389927D01*
X296927Y390663D01*
X296026Y391183D01*
X295020Y391453D01*
D02*
G37*
G36*
Y381453D02*
X293980D01*
X292974Y381183D01*
X292073Y380663D01*
X291337Y379927D01*
X290817Y379026D01*
X290547Y378020D01*
Y376980D01*
X290817Y375974D01*
X291337Y375073D01*
X292073Y374337D01*
X292974Y373817D01*
X293980Y373547D01*
X295020D01*
X296026Y373817D01*
X296927Y374337D01*
X297663Y375073D01*
X298183Y375974D01*
X298453Y376980D01*
Y378020D01*
X298183Y379026D01*
X297663Y379927D01*
X296927Y380663D01*
X296026Y381183D01*
X295020Y381453D01*
D02*
G37*
G36*
X449020Y368913D02*
X448074D01*
X447200Y368551D01*
X446531Y367882D01*
X446169Y367008D01*
Y366062D01*
X446531Y365188D01*
X447200Y364520D01*
X448074Y364158D01*
X449020D01*
X449894Y364520D01*
X450563Y365188D01*
X450925Y366062D01*
Y367008D01*
X450563Y367882D01*
X449894Y368551D01*
X449020Y368913D01*
D02*
G37*
G36*
X425520D02*
X424574D01*
X423700Y368551D01*
X423031Y367882D01*
X422669Y367008D01*
Y366062D01*
X423031Y365188D01*
X423700Y364520D01*
X424574Y364158D01*
X425520D01*
X426394Y364520D01*
X427063Y365188D01*
X427425Y366062D01*
Y367008D01*
X427063Y367882D01*
X426394Y368551D01*
X425520Y368913D01*
D02*
G37*
G36*
X403520D02*
X402574D01*
X401700Y368551D01*
X401031Y367882D01*
X400669Y367008D01*
Y366062D01*
X401031Y365188D01*
X401700Y364520D01*
X402574Y364158D01*
X403520D01*
X404394Y364520D01*
X405063Y365188D01*
X405425Y366062D01*
Y367008D01*
X405063Y367882D01*
X404394Y368551D01*
X403520Y368913D01*
D02*
G37*
G36*
X388268D02*
X387322D01*
X386448Y368551D01*
X385779Y367882D01*
X385417Y367008D01*
Y366062D01*
X385779Y365188D01*
X386448Y364520D01*
X387322Y364158D01*
X388268D01*
X389142Y364520D01*
X389811Y365188D01*
X390173Y366062D01*
Y367008D01*
X389811Y367882D01*
X389142Y368551D01*
X388268Y368913D01*
D02*
G37*
G36*
X298453Y371453D02*
X290547D01*
Y363547D01*
X298453D01*
Y371453D01*
D02*
G37*
G36*
X473426Y365878D02*
X472480D01*
X471606Y365516D01*
X470937Y364847D01*
X470575Y363973D01*
Y363027D01*
X470937Y362153D01*
X471606Y361484D01*
X472480Y361122D01*
X473426D01*
X474300Y361484D01*
X474969Y362153D01*
X475331Y363027D01*
Y363973D01*
X474969Y364847D01*
X474300Y365516D01*
X473426Y365878D01*
D02*
G37*
G36*
X476953Y355953D02*
X469047D01*
Y348047D01*
X476953D01*
Y355953D01*
D02*
G37*
G36*
X298453D02*
X290547D01*
Y348047D01*
X298453D01*
Y355953D01*
D02*
G37*
G36*
X380413Y355386D02*
X379663D01*
X378970Y355099D01*
X378439Y354568D01*
X378152Y353875D01*
Y353125D01*
X378439Y352432D01*
X378970Y351901D01*
X379516Y351675D01*
X379561Y351152D01*
X379432Y351099D01*
X378901Y350568D01*
X378614Y349875D01*
Y349125D01*
X378901Y348432D01*
X379432Y347901D01*
X380125Y347614D01*
X380875D01*
X381568Y347901D01*
X382099Y348432D01*
X382386Y349125D01*
Y349875D01*
X382099Y350568D01*
X381568Y351099D01*
X381022Y351325D01*
X380977Y351848D01*
X381106Y351901D01*
X381637Y352432D01*
X381924Y353125D01*
Y353875D01*
X381637Y354568D01*
X381106Y355099D01*
X380413Y355386D01*
D02*
G37*
G36*
X382859Y345789D02*
X382109D01*
X381416Y345502D01*
X380886Y344971D01*
X380598Y344278D01*
Y343528D01*
X380886Y342835D01*
X381416Y342304D01*
X382109Y342017D01*
X382859D01*
X383553Y342304D01*
X384083Y342835D01*
X384370Y343528D01*
Y344278D01*
X384083Y344971D01*
X383553Y345502D01*
X382859Y345789D01*
D02*
G37*
G36*
X362375Y345386D02*
X361625D01*
X360932Y345099D01*
X360401Y344568D01*
X360114Y343875D01*
Y343125D01*
X360401Y342432D01*
X360932Y341901D01*
X361625Y341614D01*
X362375D01*
X363068Y341901D01*
X363599Y342432D01*
X363886Y343125D01*
Y343875D01*
X363599Y344568D01*
X363068Y345099D01*
X362375Y345386D01*
D02*
G37*
G36*
X454375Y341886D02*
X453625D01*
X452932Y341599D01*
X452401Y341068D01*
X452114Y340375D01*
Y339625D01*
X452401Y338932D01*
X452932Y338401D01*
X453625Y338114D01*
X454375D01*
X455068Y338401D01*
X455599Y338932D01*
X455886Y339625D01*
Y340375D01*
X455599Y341068D01*
X455068Y341599D01*
X454375Y341886D01*
D02*
G37*
G36*
X473520Y345953D02*
X472480D01*
X471474Y345683D01*
X470573Y345163D01*
X469837Y344427D01*
X469317Y343526D01*
X469047Y342520D01*
Y341480D01*
X469317Y340474D01*
X469837Y339573D01*
X470573Y338837D01*
X471474Y338317D01*
X472480Y338047D01*
X473520D01*
X474526Y338317D01*
X475427Y338837D01*
X476163Y339573D01*
X476683Y340474D01*
X476953Y341480D01*
Y342520D01*
X476683Y343526D01*
X476163Y344427D01*
X475427Y345163D01*
X474526Y345683D01*
X473520Y345953D01*
D02*
G37*
G36*
X295020D02*
X293980D01*
X292974Y345683D01*
X292073Y345163D01*
X291337Y344427D01*
X290817Y343526D01*
X290547Y342520D01*
Y341480D01*
X290817Y340474D01*
X291337Y339573D01*
X292073Y338837D01*
X292974Y338317D01*
X293980Y338047D01*
X295020D01*
X296026Y338317D01*
X296927Y338837D01*
X297663Y339573D01*
X298183Y340474D01*
X298453Y341480D01*
Y342520D01*
X298183Y343526D01*
X297663Y344427D01*
X296927Y345163D01*
X296026Y345683D01*
X295020Y345953D01*
D02*
G37*
G36*
X448473Y340878D02*
X447527D01*
X446653Y340516D01*
X445984Y339847D01*
X445622Y338973D01*
Y338027D01*
X445984Y337153D01*
X446653Y336484D01*
X447527Y336122D01*
X448473D01*
X449347Y336484D01*
X450016Y337153D01*
X450378Y338027D01*
Y338973D01*
X450016Y339847D01*
X449347Y340516D01*
X448473Y340878D01*
D02*
G37*
G36*
X439473D02*
X438527D01*
X437653Y340516D01*
X436984Y339847D01*
X436622Y338973D01*
Y338027D01*
X436984Y337153D01*
X437653Y336484D01*
X438527Y336122D01*
X439473D01*
X440347Y336484D01*
X441016Y337153D01*
X441378Y338027D01*
Y338973D01*
X441016Y339847D01*
X440347Y340516D01*
X439473Y340878D01*
D02*
G37*
G36*
X429973D02*
X429027D01*
X428153Y340516D01*
X427484Y339847D01*
X427122Y338973D01*
Y338027D01*
X427484Y337153D01*
X428153Y336484D01*
X429027Y336122D01*
X429973D01*
X430847Y336484D01*
X431516Y337153D01*
X431878Y338027D01*
Y338973D01*
X431516Y339847D01*
X430847Y340516D01*
X429973Y340878D01*
D02*
G37*
G36*
X324883Y340173D02*
X323937D01*
X323062Y339811D01*
X322393Y339142D01*
X322031Y338268D01*
Y337322D01*
X322393Y336448D01*
X323062Y335779D01*
X323937Y335417D01*
X324883D01*
X325756Y335779D01*
X326425Y336448D01*
X326787Y337322D01*
Y338268D01*
X326425Y339142D01*
X325756Y339811D01*
X324883Y340173D01*
D02*
G37*
G36*
X305591Y336236D02*
X304645D01*
X303771Y335874D01*
X303102Y335205D01*
X302740Y334331D01*
Y333385D01*
X303102Y332511D01*
X303771Y331842D01*
X304645Y331480D01*
X305591D01*
X306465Y331842D01*
X307134Y332511D01*
X307496Y333385D01*
Y334331D01*
X307134Y335205D01*
X306465Y335874D01*
X305591Y336236D01*
D02*
G37*
G36*
X415827Y334661D02*
X414881D01*
X414007Y334299D01*
X413338Y333630D01*
X412976Y332756D01*
Y331810D01*
X413268Y331106D01*
X412844Y330823D01*
X412568Y331099D01*
X411875Y331386D01*
X411125D01*
X410432Y331099D01*
X409901Y330568D01*
X409614Y329875D01*
Y329125D01*
X409901Y328432D01*
X410432Y327901D01*
X411125Y327614D01*
X411875D01*
X412568Y327901D01*
X413099Y328432D01*
X413386Y329125D01*
Y329875D01*
X413169Y330399D01*
X413593Y330682D01*
X414007Y330268D01*
X414881Y329906D01*
X415827D01*
X416701Y330268D01*
X417370Y330937D01*
X417732Y331810D01*
Y332756D01*
X417370Y333630D01*
X416701Y334299D01*
X415827Y334661D01*
D02*
G37*
G36*
X473520Y335953D02*
X472480D01*
X471474Y335683D01*
X470573Y335163D01*
X469837Y334427D01*
X469317Y333526D01*
X469047Y332520D01*
Y331480D01*
X469317Y330474D01*
X469837Y329573D01*
X470573Y328837D01*
X471474Y328317D01*
X472480Y328047D01*
X473520D01*
X474526Y328317D01*
X475427Y328837D01*
X476163Y329573D01*
X476683Y330474D01*
X476953Y331480D01*
Y332520D01*
X476683Y333526D01*
X476163Y334427D01*
X475427Y335163D01*
X474526Y335683D01*
X473520Y335953D01*
D02*
G37*
G36*
X295020D02*
X293980D01*
X292974Y335683D01*
X292073Y335163D01*
X291337Y334427D01*
X290817Y333526D01*
X290547Y332520D01*
Y331480D01*
X290817Y330474D01*
X291337Y329573D01*
X292073Y328837D01*
X292974Y328317D01*
X293980Y328047D01*
X295020D01*
X296026Y328317D01*
X296927Y328837D01*
X297663Y329573D01*
X298183Y330474D01*
X298453Y331480D01*
Y332520D01*
X298183Y333526D01*
X297663Y334427D01*
X296927Y335163D01*
X296026Y335683D01*
X295020Y335953D01*
D02*
G37*
G36*
X324883Y329937D02*
X323937D01*
X323062Y329575D01*
X322393Y328906D01*
X322031Y328032D01*
Y327086D01*
X322393Y326212D01*
X323062Y325543D01*
X323937Y325181D01*
X324883D01*
X325756Y325543D01*
X326425Y326212D01*
X326787Y327086D01*
Y328032D01*
X326425Y328906D01*
X325756Y329575D01*
X324883Y329937D01*
D02*
G37*
G36*
X421875Y326386D02*
X421125D01*
X420432Y326099D01*
X419901Y325568D01*
X419614Y324875D01*
Y324125D01*
X419901Y323432D01*
X420432Y322901D01*
X421125Y322614D01*
X421875D01*
X422568Y322901D01*
X423099Y323432D01*
X423386Y324125D01*
Y324875D01*
X423099Y325568D01*
X422568Y326099D01*
X421875Y326386D01*
D02*
G37*
G36*
X473520Y325953D02*
X472480D01*
X471474Y325683D01*
X470573Y325163D01*
X469837Y324427D01*
X469317Y323526D01*
X469047Y322520D01*
Y321480D01*
X469317Y320474D01*
X469837Y319573D01*
X470573Y318837D01*
X471474Y318317D01*
X472480Y318047D01*
X473520D01*
X474526Y318317D01*
X475427Y318837D01*
X476163Y319573D01*
X476683Y320474D01*
X476953Y321480D01*
Y322520D01*
X476683Y323526D01*
X476163Y324427D01*
X475427Y325163D01*
X474526Y325683D01*
X473520Y325953D01*
D02*
G37*
G36*
X462678Y321669D02*
X461732D01*
X460858Y321307D01*
X460189Y320638D01*
X459827Y319764D01*
Y318818D01*
X460189Y317944D01*
X460858Y317275D01*
X461732Y316913D01*
X462678D01*
X463552Y317275D01*
X464221Y317944D01*
X464583Y318818D01*
Y319764D01*
X464221Y320638D01*
X463552Y321307D01*
X462678Y321669D01*
D02*
G37*
G36*
X422875Y317886D02*
X422125D01*
X421432Y317599D01*
X420901Y317068D01*
X420614Y316375D01*
Y315625D01*
X420901Y314932D01*
X421432Y314401D01*
X422125Y314114D01*
X422875D01*
X423568Y314401D01*
X424099Y314932D01*
X424386Y315625D01*
Y316375D01*
X424099Y317068D01*
X423568Y317599D01*
X422875Y317886D01*
D02*
G37*
G36*
X367875Y311886D02*
X367125D01*
X366432Y311599D01*
X365901Y311068D01*
X365614Y310375D01*
Y309625D01*
X365901Y308932D01*
X366432Y308401D01*
X367125Y308114D01*
X367875D01*
X368568Y308401D01*
X369099Y308932D01*
X369386Y309625D01*
Y310375D01*
X369099Y311068D01*
X368568Y311599D01*
X367875Y311886D01*
D02*
G37*
G36*
X427375Y306386D02*
X426625D01*
X425932Y306099D01*
X425401Y305568D01*
X425114Y304875D01*
Y304125D01*
X425401Y303432D01*
X425932Y302901D01*
X426625Y302614D01*
X427375D01*
X428068Y302901D01*
X428599Y303432D01*
X428886Y304125D01*
Y304875D01*
X428599Y305568D01*
X428068Y306099D01*
X427375Y306386D01*
D02*
G37*
G36*
X473520Y309953D02*
X472480D01*
X471474Y309683D01*
X470573Y309163D01*
X469837Y308427D01*
X469317Y307526D01*
X469047Y306520D01*
Y305480D01*
X469317Y304474D01*
X469837Y303573D01*
X470573Y302837D01*
X471474Y302317D01*
X472480Y302047D01*
X473520D01*
X474526Y302317D01*
X475427Y302837D01*
X476163Y303573D01*
X476683Y304474D01*
X476953Y305480D01*
Y306520D01*
X476683Y307526D01*
X476163Y308427D01*
X475427Y309163D01*
X474526Y309683D01*
X473520Y309953D01*
D02*
G37*
G36*
X298453D02*
X290547D01*
Y302047D01*
X298453D01*
Y309953D01*
D02*
G37*
G36*
X346930Y303953D02*
X345984D01*
X345110Y303591D01*
X344441Y302922D01*
X344079Y302048D01*
Y301102D01*
X344441Y300228D01*
X345110Y299559D01*
X345984Y299197D01*
X346930D01*
X347804Y299559D01*
X348473Y300228D01*
X348835Y301102D01*
Y302048D01*
X348473Y302922D01*
X347804Y303591D01*
X346930Y303953D01*
D02*
G37*
G36*
X338662D02*
X337716D01*
X336842Y303591D01*
X336173Y302922D01*
X335811Y302048D01*
Y301102D01*
X336173Y300228D01*
X336842Y299559D01*
X337716Y299197D01*
X338662D01*
X339536Y299559D01*
X340205Y300228D01*
X340567Y301102D01*
Y302048D01*
X340205Y302922D01*
X339536Y303591D01*
X338662Y303953D01*
D02*
G37*
G36*
X329607D02*
X328661D01*
X327787Y303591D01*
X327118Y302922D01*
X326756Y302048D01*
Y301102D01*
X327118Y300228D01*
X327787Y299559D01*
X328661Y299197D01*
X329607D01*
X330481Y299559D01*
X331150Y300228D01*
X331512Y301102D01*
Y302048D01*
X331150Y302922D01*
X330481Y303591D01*
X329607Y303953D01*
D02*
G37*
G36*
X444923Y303165D02*
X443977D01*
X443103Y302803D01*
X442434Y302134D01*
X442072Y301260D01*
Y300314D01*
X442434Y299440D01*
X443103Y298772D01*
X443977Y298410D01*
X444923D01*
X445797Y298772D01*
X446465Y299440D01*
X446828Y300314D01*
Y301260D01*
X446465Y302134D01*
X445797Y302803D01*
X444923Y303165D01*
D02*
G37*
G36*
X460375Y298386D02*
X459625D01*
X458932Y298099D01*
X458401Y297568D01*
X458114Y296875D01*
Y296125D01*
X458401Y295432D01*
X458932Y294901D01*
X459625Y294614D01*
X460375D01*
X461068Y294901D01*
X461599Y295432D01*
X461886Y296125D01*
Y296875D01*
X461599Y297568D01*
X461068Y298099D01*
X460375Y298386D01*
D02*
G37*
G36*
X427375D02*
X426625D01*
X425932Y298099D01*
X425401Y297568D01*
X425114Y296875D01*
Y296125D01*
X425401Y295432D01*
X425932Y294901D01*
X426625Y294614D01*
X427375D01*
X428068Y294901D01*
X428599Y295432D01*
X428886Y296125D01*
Y296875D01*
X428599Y297568D01*
X428068Y298099D01*
X427375Y298386D01*
D02*
G37*
G36*
X396044Y293386D02*
X395294D01*
X394601Y293099D01*
X394071Y292568D01*
X393971Y292329D01*
X393430D01*
X393331Y292568D01*
X392800Y293099D01*
X392107Y293386D01*
X391357D01*
X390664Y293099D01*
X390134Y292568D01*
X389846Y291875D01*
Y291125D01*
X390134Y290432D01*
X390664Y289901D01*
X391357Y289614D01*
X392107D01*
X392800Y289901D01*
X393331Y290432D01*
X393430Y290671D01*
X393971D01*
X394071Y290432D01*
X394601Y289901D01*
X395294Y289614D01*
X396044D01*
X396738Y289901D01*
X397268Y290432D01*
X397555Y291125D01*
Y291875D01*
X397268Y292568D01*
X396738Y293099D01*
X396044Y293386D01*
D02*
G37*
G36*
X376375D02*
X375625D01*
X374932Y293099D01*
X374401Y292568D01*
X374271Y292253D01*
X373729D01*
X373599Y292568D01*
X373068Y293099D01*
X372375Y293386D01*
X371625D01*
X370932Y293099D01*
X370401Y292568D01*
X370114Y291875D01*
Y291125D01*
X370401Y290432D01*
X370932Y289901D01*
X371625Y289614D01*
X372375D01*
X373068Y289901D01*
X373599Y290432D01*
X373729Y290747D01*
X374271D01*
X374401Y290432D01*
X374932Y289901D01*
X375625Y289614D01*
X376375D01*
X377068Y289901D01*
X377599Y290432D01*
X377886Y291125D01*
Y291875D01*
X377599Y292568D01*
X377068Y293099D01*
X376375Y293386D01*
D02*
G37*
G36*
X473520Y299953D02*
X472480D01*
X471474Y299683D01*
X470573Y299163D01*
X469837Y298427D01*
X469317Y297526D01*
X469047Y296520D01*
Y295480D01*
X469317Y294474D01*
X469837Y293573D01*
X470573Y292837D01*
X471474Y292317D01*
X472480Y292047D01*
X473520D01*
X474526Y292317D01*
X475427Y292837D01*
X476163Y293573D01*
X476683Y294474D01*
X476953Y295480D01*
Y296520D01*
X476683Y297526D01*
X476163Y298427D01*
X475427Y299163D01*
X474526Y299683D01*
X473520Y299953D01*
D02*
G37*
G36*
X319371Y293323D02*
X318425D01*
X317551Y292961D01*
X316882Y292292D01*
X316520Y291418D01*
Y290472D01*
X316882Y289598D01*
X317551Y288929D01*
X318425Y288567D01*
X319371D01*
X320245Y288929D01*
X320914Y289598D01*
X321276Y290472D01*
Y291418D01*
X320914Y292292D01*
X320245Y292961D01*
X319371Y293323D01*
D02*
G37*
G36*
X443386Y290961D02*
X442440D01*
X441566Y290599D01*
X440898Y289930D01*
X440535Y289056D01*
Y288110D01*
X440898Y287236D01*
X441566Y286567D01*
X442440Y286205D01*
X443386D01*
X444260Y286567D01*
X444929Y287236D01*
X445291Y288110D01*
Y289056D01*
X444929Y289930D01*
X444260Y290599D01*
X443386Y290961D01*
D02*
G37*
G36*
X435906D02*
X434960D01*
X434086Y290599D01*
X433417Y289930D01*
X433055Y289056D01*
Y288110D01*
X433417Y287236D01*
X434086Y286567D01*
X434960Y286205D01*
X435906D01*
X436780Y286567D01*
X437449Y287236D01*
X437811Y288110D01*
Y289056D01*
X437449Y289930D01*
X436780Y290599D01*
X435906Y290961D01*
D02*
G37*
G36*
X426457D02*
X425511D01*
X424637Y290599D01*
X423968Y289930D01*
X423606Y289056D01*
Y288110D01*
X423968Y287236D01*
X424637Y286567D01*
X425511Y286205D01*
X426457D01*
X427331Y286567D01*
X428000Y287236D01*
X428362Y288110D01*
Y289056D01*
X428000Y289930D01*
X427331Y290599D01*
X426457Y290961D01*
D02*
G37*
G36*
X440139Y284957D02*
X439389D01*
X438696Y284670D01*
X438165Y284139D01*
X438061Y283888D01*
X437383Y284169D01*
X436633D01*
X435940Y283882D01*
X435409Y283352D01*
X435122Y282659D01*
Y281908D01*
X435409Y281215D01*
X435940Y280685D01*
X436633Y280398D01*
X437383D01*
X437845Y280589D01*
X438109Y280270D01*
X438154Y280176D01*
X437878Y279509D01*
Y278759D01*
X438165Y278066D01*
X438696Y277535D01*
X439389Y277248D01*
X440139D01*
X440832Y277535D01*
X441362Y278066D01*
X441650Y278759D01*
Y279509D01*
X441362Y280202D01*
X440832Y280733D01*
X440593Y280832D01*
Y281373D01*
X440832Y281472D01*
X441362Y282003D01*
X441650Y282696D01*
Y283446D01*
X441362Y284139D01*
X440832Y284670D01*
X440139Y284957D01*
D02*
G37*
G36*
X428328Y284169D02*
X427578D01*
X426885Y283882D01*
X426354Y283352D01*
X426255Y283112D01*
X425714D01*
X425615Y283352D01*
X425084Y283882D01*
X424391Y284169D01*
X423641D01*
X422948Y283882D01*
X422417Y283352D01*
X422130Y282659D01*
Y281908D01*
X422417Y281215D01*
X422948Y280685D01*
X423641Y280398D01*
X424391D01*
X425084Y280685D01*
X425615Y281215D01*
X425714Y281455D01*
X426255D01*
X426354Y281215D01*
X426885Y280685D01*
X427578Y280398D01*
X428328D01*
X429021Y280685D01*
X429552Y281215D01*
X429839Y281908D01*
Y282659D01*
X429552Y283352D01*
X429021Y283882D01*
X428328Y284169D01*
D02*
G37*
G36*
X473520Y289953D02*
X472480D01*
X471474Y289683D01*
X470573Y289163D01*
X469837Y288427D01*
X469317Y287526D01*
X469047Y286520D01*
Y285480D01*
X469317Y284474D01*
X469837Y283573D01*
X470573Y282837D01*
X471474Y282317D01*
X472480Y282047D01*
X473520D01*
X474526Y282317D01*
X475427Y282837D01*
X476163Y283573D01*
X476683Y284474D01*
X476953Y285480D01*
Y286520D01*
X476683Y287526D01*
X476163Y288427D01*
X475427Y289163D01*
X474526Y289683D01*
X473520Y289953D01*
D02*
G37*
G36*
X295020D02*
X293980D01*
X292974Y289683D01*
X292073Y289163D01*
X291337Y288427D01*
X290817Y287526D01*
X290547Y286520D01*
Y285480D01*
X290817Y284474D01*
X291337Y283573D01*
X292073Y282837D01*
X292974Y282317D01*
X293980Y282047D01*
X295020D01*
X296026Y282317D01*
X296927Y282837D01*
X297663Y283573D01*
X298183Y284474D01*
X298453Y285480D01*
Y286520D01*
X298183Y287526D01*
X297663Y288427D01*
X296927Y289163D01*
X296026Y289683D01*
X295020Y289953D01*
D02*
G37*
G36*
X433052Y284169D02*
X432302D01*
X431609Y283882D01*
X431078Y283352D01*
X430791Y282659D01*
Y281908D01*
X431078Y281215D01*
X431609Y280685D01*
X432302Y280398D01*
X433052D01*
X433745Y280685D01*
X434276Y281215D01*
X434563Y281908D01*
Y282659D01*
X434276Y283352D01*
X433745Y283882D01*
X433052Y284169D01*
D02*
G37*
G36*
X382441Y283087D02*
X381495D01*
X380622Y282725D01*
X379953Y282056D01*
X379591Y281182D01*
Y280236D01*
X379814Y279697D01*
X379431Y279314D01*
X379115Y279445D01*
X378365D01*
X377672Y279158D01*
X377141Y278627D01*
X376854Y277934D01*
Y277184D01*
X377141Y276491D01*
X377672Y275960D01*
X378365Y275673D01*
X379115D01*
X379808Y275960D01*
X379921Y276073D01*
X380034Y275960D01*
X380727Y275673D01*
X380727D01*
X380758Y275667D01*
X381185Y275572D01*
Y274822D01*
X381472Y274129D01*
X381585Y274016D01*
X381472Y273903D01*
X381185Y273210D01*
Y272460D01*
X381472Y271766D01*
X382003Y271236D01*
X382696Y270949D01*
X383377D01*
X383591Y270744D01*
X383742Y270530D01*
X383547Y270060D01*
Y269310D01*
X383834Y268617D01*
X384144Y268307D01*
X383834Y267997D01*
X383547Y267304D01*
Y266554D01*
X383834Y265861D01*
X384365Y265330D01*
X385058Y265043D01*
X385808D01*
X386501Y265330D01*
X387032Y265861D01*
X387319Y266554D01*
Y267304D01*
X387032Y267997D01*
X386722Y268307D01*
X387032Y268617D01*
X387319Y269310D01*
Y270060D01*
X387032Y270753D01*
X386525Y271260D01*
X387032Y271766D01*
X387319Y272460D01*
Y273210D01*
X387032Y273903D01*
X386501Y274433D01*
X385808Y274721D01*
X385419D01*
X385040Y274803D01*
X384957Y275182D01*
Y275572D01*
X384670Y276265D01*
X384139Y276796D01*
X383446Y277083D01*
X383446D01*
X383415Y277089D01*
X382988Y277184D01*
Y277934D01*
X382768Y278466D01*
X383315Y278693D01*
X383984Y279362D01*
X384346Y280236D01*
Y281182D01*
X383984Y282056D01*
X383315Y282725D01*
X382441Y283087D01*
D02*
G37*
G36*
X347717D02*
X346771D01*
X345897Y282725D01*
X345228Y282056D01*
X344866Y281182D01*
Y280236D01*
X345228Y279362D01*
X345897Y278693D01*
X346771Y278331D01*
X347717D01*
X348591Y278693D01*
X348970Y279072D01*
X349325Y278716D01*
X350019Y278429D01*
X350769D01*
X351462Y278716D01*
X351992Y279247D01*
X352279Y279940D01*
Y280690D01*
X351992Y281383D01*
X351462Y281914D01*
X350769Y282201D01*
X350019D01*
X349782Y282103D01*
X349260Y282056D01*
X349026Y282290D01*
X348591Y282725D01*
X347717Y283087D01*
D02*
G37*
G36*
X394016D02*
X393070D01*
X392196Y282725D01*
X391527Y282056D01*
X391165Y281182D01*
Y280236D01*
X391527Y279362D01*
X392196Y278693D01*
X393070Y278331D01*
X394016D01*
X394890Y278693D01*
X395559Y279362D01*
X395921Y280236D01*
Y281182D01*
X395559Y282056D01*
X394890Y282725D01*
X394016Y283087D01*
D02*
G37*
G36*
X359292D02*
X358346D01*
X357472Y282725D01*
X356803Y282056D01*
X356441Y281182D01*
Y280236D01*
X356803Y279362D01*
X357472Y278693D01*
X358346Y278331D01*
X359292D01*
X360166Y278693D01*
X360835Y279362D01*
X361197Y280236D01*
Y281182D01*
X360835Y282056D01*
X360166Y282725D01*
X359292Y283087D01*
D02*
G37*
G36*
X412973Y279839D02*
X412223D01*
X411530Y279552D01*
X411000Y279021D01*
X410713Y278328D01*
Y277578D01*
X411000Y276885D01*
X411530Y276354D01*
X412223Y276067D01*
X412973D01*
X413667Y276354D01*
X414197Y276885D01*
X414484Y277578D01*
Y278328D01*
X414197Y279021D01*
X413667Y279552D01*
X412973Y279839D01*
D02*
G37*
G36*
X405591Y283087D02*
X404645D01*
X403771Y282725D01*
X403102Y282056D01*
X402740Y281182D01*
Y280236D01*
X402943Y279745D01*
X402475Y279552D01*
X401945Y279021D01*
X401657Y278328D01*
Y277578D01*
X401945Y276885D01*
X402475Y276354D01*
X403168Y276067D01*
X403918D01*
X404611Y276354D01*
X405142Y276885D01*
X405241Y277124D01*
X405782D01*
X405882Y276885D01*
X406412Y276354D01*
X407105Y276067D01*
X407855D01*
X408548Y276354D01*
X409079Y276885D01*
X409366Y277578D01*
Y278328D01*
X409079Y279021D01*
X408548Y279552D01*
X407855Y279839D01*
X407761D01*
X407496Y280236D01*
Y281182D01*
X407134Y282056D01*
X406465Y282725D01*
X405591Y283087D01*
D02*
G37*
G36*
X398800Y279839D02*
X398050D01*
X397357Y279552D01*
X396827Y279021D01*
X396539Y278328D01*
Y277578D01*
X396827Y276885D01*
X397357Y276354D01*
X398050Y276067D01*
X398800D01*
X399493Y276354D01*
X400024Y276885D01*
X400311Y277578D01*
Y278328D01*
X400024Y279021D01*
X399493Y279552D01*
X398800Y279839D01*
D02*
G37*
G36*
X421339Y276000D02*
X420393D01*
X419519Y275638D01*
X419022Y275140D01*
X418701Y275024D01*
X418380Y275140D01*
X417882Y275638D01*
X417008Y276000D01*
X416062D01*
X415188Y275638D01*
X414520Y274969D01*
X414157Y274095D01*
Y273149D01*
X414520Y272275D01*
X415188Y271606D01*
X416062Y271244D01*
X417008D01*
X417882Y271606D01*
X418380Y272104D01*
X418701Y272221D01*
X419022Y272104D01*
X419519Y271606D01*
X420393Y271244D01*
X421339D01*
X422213Y271606D01*
X422882Y272275D01*
X423244Y273149D01*
Y274095D01*
X422882Y274969D01*
X422213Y275638D01*
X421339Y276000D01*
D02*
G37*
G36*
X476953Y279953D02*
X469047D01*
Y272047D01*
X476953D01*
Y279953D01*
D02*
G37*
G36*
X295020D02*
X293980D01*
X292974Y279683D01*
X292073Y279163D01*
X291337Y278427D01*
X290817Y277526D01*
X290547Y276520D01*
Y275480D01*
X290817Y274474D01*
X291337Y273573D01*
X292073Y272837D01*
X292974Y272317D01*
X293980Y272047D01*
X295020D01*
X296026Y272317D01*
X296927Y272837D01*
X297663Y273573D01*
X298183Y274474D01*
X298453Y275480D01*
Y276520D01*
X298183Y277526D01*
X297663Y278427D01*
X296927Y279163D01*
X296026Y279683D01*
X295020Y279953D01*
D02*
G37*
G36*
X370867Y283087D02*
X369921D01*
X369047Y282725D01*
X368378Y282056D01*
X368016Y281182D01*
Y280236D01*
X368378Y279362D01*
X369047Y278693D01*
X369921Y278331D01*
X370867D01*
X370949Y278276D01*
Y277971D01*
X371236Y277278D01*
X371349Y277165D01*
X371236Y277052D01*
X370949Y276359D01*
Y275609D01*
X371236Y274916D01*
X371349Y274803D01*
X371236Y274690D01*
X370949Y273997D01*
Y273247D01*
X371236Y272554D01*
X371766Y272023D01*
X372460Y271736D01*
X373210D01*
X373903Y272023D01*
X374433Y272554D01*
X374721Y273247D01*
Y273997D01*
X374433Y274690D01*
X374321Y274803D01*
X374433Y274916D01*
X374721Y275609D01*
Y276359D01*
X374433Y277052D01*
X374321Y277165D01*
X374433Y277278D01*
X374721Y277971D01*
Y278722D01*
X374433Y279415D01*
X373903Y279945D01*
X373210Y280232D01*
X372774D01*
X372772Y280236D01*
Y281182D01*
X372410Y282056D01*
X371741Y282725D01*
X370867Y283087D01*
D02*
G37*
G36*
X394076Y274327D02*
X393326D01*
X392633Y274040D01*
X392102Y273509D01*
X391815Y272816D01*
Y272066D01*
X392102Y271373D01*
X392412Y271063D01*
X392102Y270753D01*
X391815Y270060D01*
Y269310D01*
X392102Y268617D01*
X392412Y268307D01*
X392102Y267997D01*
X391815Y267304D01*
Y266554D01*
X392102Y265861D01*
X392633Y265330D01*
X393326Y265043D01*
X394076D01*
X394769Y265330D01*
X395300Y265861D01*
X395587Y266554D01*
Y267304D01*
X395300Y267997D01*
X394990Y268307D01*
X395300Y268617D01*
X395587Y269310D01*
Y270060D01*
X395300Y270753D01*
X394990Y271063D01*
X395300Y271373D01*
X395587Y272066D01*
Y272816D01*
X395300Y273509D01*
X394769Y274040D01*
X394076Y274327D01*
D02*
G37*
G36*
X315434Y266945D02*
X314488D01*
X313614Y266583D01*
X312945Y265914D01*
X312583Y265040D01*
Y264094D01*
X312945Y263220D01*
X313614Y262551D01*
X314488Y262189D01*
X315434D01*
X316308Y262551D01*
X316977Y263220D01*
X317339Y264094D01*
Y265040D01*
X316977Y265914D01*
X316308Y266583D01*
X315434Y266945D01*
D02*
G37*
G36*
X365375Y264386D02*
X364625D01*
X363932Y264099D01*
X363401Y263568D01*
X363114Y262875D01*
Y262125D01*
X363401Y261432D01*
X363932Y260901D01*
X364625Y260614D01*
X365375D01*
X366068Y260901D01*
X366599Y261432D01*
X366886Y262125D01*
Y262875D01*
X366599Y263568D01*
X366068Y264099D01*
X365375Y264386D01*
D02*
G37*
G36*
X373473Y264878D02*
X372527D01*
X371653Y264516D01*
X370984Y263847D01*
X370622Y262973D01*
Y262027D01*
X370984Y261153D01*
X371653Y260484D01*
X372527Y260122D01*
X373473D01*
X374347Y260484D01*
X375016Y261153D01*
X375378Y262027D01*
Y262973D01*
X375016Y263847D01*
X374347Y264516D01*
X373473Y264878D01*
D02*
G37*
G36*
X422151Y267666D02*
X421401D01*
X420708Y267379D01*
X420177Y266849D01*
X419890Y266156D01*
Y265406D01*
X420177Y264712D01*
X420620Y264269D01*
X420662Y263944D01*
X420612Y263681D01*
X420156Y263225D01*
X419869Y262532D01*
Y261782D01*
X420156Y261089D01*
X420445Y260799D01*
X420637Y260473D01*
X420445Y260146D01*
X420156Y259857D01*
X419869Y259164D01*
Y258414D01*
X420156Y257721D01*
X420687Y257190D01*
X421380Y256903D01*
X422130D01*
X422823Y257190D01*
X423354Y257721D01*
X423641Y258414D01*
Y259164D01*
X423354Y259857D01*
X423064Y260146D01*
X422873Y260473D01*
X423064Y260799D01*
X423354Y261089D01*
X423641Y261782D01*
Y262532D01*
X423354Y263225D01*
X422910Y263668D01*
X422869Y263993D01*
X422919Y264257D01*
X423375Y264712D01*
X423662Y265406D01*
Y266156D01*
X423375Y266849D01*
X422844Y267379D01*
X422151Y267666D01*
D02*
G37*
G36*
X475276Y257496D02*
X474330D01*
X473456Y257134D01*
X472787Y256465D01*
X472425Y255591D01*
Y254645D01*
X472787Y253771D01*
X473456Y253102D01*
X474330Y252740D01*
X475276D01*
X476150Y253102D01*
X476819Y253771D01*
X477181Y254645D01*
Y255591D01*
X476819Y256465D01*
X476150Y257134D01*
X475276Y257496D01*
D02*
G37*
G36*
X453973Y253378D02*
X453027D01*
X452153Y253016D01*
X451528Y252391D01*
X450893Y252654D01*
X450143D01*
X449482Y252380D01*
X448847Y253016D01*
X447973Y253378D01*
X447027D01*
X446153Y253016D01*
X445484Y252347D01*
X445122Y251473D01*
Y250527D01*
X445484Y249653D01*
X446153Y248984D01*
X447027Y248622D01*
X447973D01*
X448847Y248984D01*
X449241Y249378D01*
X449450Y249169D01*
X450143Y248882D01*
X450893D01*
X451586Y249169D01*
X451777Y249360D01*
X452153Y248984D01*
X453027Y248622D01*
X453973D01*
X454847Y248984D01*
X455516Y249653D01*
X455878Y250527D01*
Y251473D01*
X455516Y252347D01*
X454847Y253016D01*
X453973Y253378D01*
D02*
G37*
G36*
X475276Y250803D02*
X474330D01*
X473456Y250441D01*
X472787Y249772D01*
X472425Y248898D01*
Y247952D01*
X472787Y247078D01*
X473456Y246409D01*
X474330Y246047D01*
X475276D01*
X476150Y246409D01*
X476819Y247078D01*
X477181Y247952D01*
Y248898D01*
X476819Y249772D01*
X476150Y250441D01*
X475276Y250803D01*
D02*
G37*
G36*
X294624Y255012D02*
X293376D01*
X292170Y254689D01*
X291090Y254065D01*
X290207Y253182D01*
X289583Y252101D01*
X289260Y250896D01*
Y249648D01*
X289583Y248442D01*
X290207Y247361D01*
X291090Y246479D01*
X292170Y245854D01*
X293376Y245532D01*
X294624D01*
X295830Y245854D01*
X296911Y246479D01*
X297793Y247361D01*
X298417Y248442D01*
X298740Y249648D01*
Y250896D01*
X298417Y252101D01*
X297793Y253182D01*
X296911Y254065D01*
X295830Y254689D01*
X294624Y255012D01*
D02*
G37*
G36*
X305020Y249106D02*
X304083D01*
X303177Y248864D01*
X302366Y248395D01*
X301703Y247732D01*
X301235Y246921D01*
X300992Y246016D01*
Y245079D01*
X301235Y244174D01*
X301703Y243362D01*
X302366Y242699D01*
X303177Y242231D01*
X304083Y241988D01*
X305020D01*
X305925Y242231D01*
X306736Y242699D01*
X307399Y243362D01*
X307868Y244174D01*
X308110Y245079D01*
Y246016D01*
X307868Y246921D01*
X307399Y247732D01*
X306736Y248395D01*
X305925Y248864D01*
X305020Y249106D01*
D02*
G37*
G36*
X336694Y243717D02*
X335748D01*
X334874Y243355D01*
X334205Y242686D01*
X333842Y241812D01*
Y240866D01*
X334205Y239992D01*
X334874Y239323D01*
X335748Y238961D01*
X336694D01*
X337567Y239323D01*
X338236Y239992D01*
X338598Y240866D01*
Y241812D01*
X338236Y242686D01*
X337567Y243355D01*
X336694Y243717D01*
D02*
G37*
G36*
X475276Y243323D02*
X474330D01*
X473456Y242961D01*
X472787Y242292D01*
X472425Y241418D01*
Y240472D01*
X472787Y239598D01*
X473456Y238929D01*
X474330Y238567D01*
X475276D01*
X476150Y238929D01*
X476819Y239598D01*
X477181Y240472D01*
Y241418D01*
X476819Y242292D01*
X476150Y242961D01*
X475276Y243323D01*
D02*
G37*
G36*
X360375Y240886D02*
X359625D01*
X358932Y240599D01*
X358401Y240068D01*
X358114Y239375D01*
Y238625D01*
X358401Y237932D01*
X358932Y237401D01*
X359625Y237114D01*
X360375D01*
X361068Y237401D01*
X361599Y237932D01*
X361886Y238625D01*
Y239375D01*
X361599Y240068D01*
X361068Y240599D01*
X360375Y240886D01*
D02*
G37*
G36*
X449194Y241256D02*
X448444D01*
X447751Y240969D01*
X447220Y240438D01*
X446933Y239745D01*
Y238995D01*
X447220Y238302D01*
X447727Y237795D01*
X447220Y237289D01*
X446933Y236596D01*
Y236383D01*
X446517Y236105D01*
X446438Y236138D01*
X445688D01*
X444995Y235851D01*
X444488Y235344D01*
X443982Y235851D01*
X443289Y236138D01*
X442538D01*
X442459Y236105D01*
X442043Y236383D01*
Y236596D01*
X441756Y237289D01*
X441250Y237795D01*
X441756Y238302D01*
X442043Y238995D01*
Y239745D01*
X441756Y240438D01*
X441226Y240969D01*
X440533Y241256D01*
X439782D01*
X439089Y240969D01*
X438559Y240438D01*
X438272Y239745D01*
Y238995D01*
X438559Y238302D01*
X439065Y237795D01*
X438559Y237289D01*
X438292Y236644D01*
X438065Y236539D01*
X437772Y236457D01*
X437568Y236662D01*
X436693Y237024D01*
X435747D01*
X434873Y236662D01*
X434204Y235993D01*
X433843Y235119D01*
Y234173D01*
X434204Y233299D01*
X434873Y232630D01*
X435747Y232268D01*
X436693D01*
X436915Y232359D01*
X437297Y231977D01*
X437091Y231477D01*
Y230727D01*
X437378Y230034D01*
X437908Y229504D01*
X438601Y229217D01*
X439352D01*
X440045Y229504D01*
X440575Y230034D01*
X440862Y230727D01*
Y231477D01*
X440575Y232171D01*
X440045Y232701D01*
X439352Y232988D01*
X438608D01*
X438481Y233095D01*
X438276Y233395D01*
X438598Y234173D01*
Y234459D01*
X439060Y234651D01*
X439089Y234622D01*
X439782Y234335D01*
X440533D01*
X440612Y234367D01*
X441028Y234090D01*
Y233877D01*
X441315Y233184D01*
X441845Y232653D01*
X442538Y232366D01*
X443289D01*
X443982Y232653D01*
X444488Y233160D01*
X444995Y232653D01*
X445688Y232366D01*
X446438D01*
X446827Y232527D01*
X447327Y232195D01*
Y231908D01*
X447614Y231215D01*
X447924Y230906D01*
X447614Y230596D01*
X447327Y229903D01*
Y229152D01*
X447614Y228459D01*
X448144Y227929D01*
X448838Y227642D01*
X449588D01*
X450281Y227929D01*
X450811Y228459D01*
X451098Y229152D01*
Y229903D01*
X450811Y230596D01*
X450502Y230906D01*
X450811Y231215D01*
X451098Y231908D01*
X451369Y232089D01*
X451889Y231874D01*
X452835D01*
X453709Y232236D01*
X454378Y232905D01*
X454740Y233779D01*
Y234725D01*
X454378Y235599D01*
X453709Y236268D01*
X452835Y236630D01*
X451889D01*
X451205Y236346D01*
X450737Y236580D01*
X450689Y236633D01*
X450418Y237289D01*
X449911Y237795D01*
X450418Y238302D01*
X450705Y238995D01*
Y239745D01*
X450418Y240438D01*
X449887Y240969D01*
X449194Y241256D01*
D02*
G37*
G36*
X405493Y236138D02*
X404743D01*
X404050Y235851D01*
X403519Y235320D01*
X403420Y235081D01*
X402879D01*
X402780Y235320D01*
X402249Y235851D01*
X401556Y236138D01*
X400806D01*
X400113Y235851D01*
X399582Y235320D01*
X399295Y234627D01*
Y233877D01*
X399582Y233184D01*
X400113Y232653D01*
X400806Y232366D01*
X401556D01*
X402249Y232653D01*
X402780Y233184D01*
X402879Y233423D01*
X403420D01*
X403519Y233184D01*
X404050Y232653D01*
X404743Y232366D01*
X405493D01*
X406186Y232653D01*
X406717Y233184D01*
X407004Y233877D01*
Y234627D01*
X406717Y235320D01*
X406186Y235851D01*
X405493Y236138D01*
D02*
G37*
G36*
X389020Y242953D02*
X387980D01*
X386974Y242683D01*
X386073Y242163D01*
X385337Y241427D01*
X384817Y240526D01*
X384547Y239520D01*
Y238480D01*
X384817Y237474D01*
X385337Y236573D01*
X386073Y235837D01*
X386974Y235317D01*
X387980Y235047D01*
X389020D01*
X390026Y235317D01*
X390927Y235837D01*
X391663Y236573D01*
X392183Y237474D01*
X392453Y238480D01*
Y239520D01*
X392183Y240526D01*
X391663Y241427D01*
X390927Y242163D01*
X390026Y242683D01*
X389020Y242953D01*
D02*
G37*
G36*
X382453D02*
X374547D01*
Y235047D01*
X382453D01*
Y242953D01*
D02*
G37*
G36*
X374785Y233382D02*
X374034D01*
X373341Y233095D01*
X373228Y232982D01*
X373115Y233095D01*
X372422Y233382D01*
X371672D01*
X370979Y233095D01*
X370448Y232564D01*
X370161Y231871D01*
Y231121D01*
X370448Y230428D01*
X370561Y230315D01*
X370448Y230202D01*
X370161Y229509D01*
Y228759D01*
X370448Y228066D01*
X370979Y227535D01*
X371672Y227248D01*
X372422D01*
X373115Y227535D01*
X373646Y228066D01*
X373933Y228759D01*
Y229148D01*
X374016Y229527D01*
X374395Y229610D01*
X374785D01*
X375478Y229897D01*
X376008Y230428D01*
X376295Y231121D01*
Y231871D01*
X376008Y232564D01*
X375478Y233095D01*
X374785Y233382D01*
D02*
G37*
G36*
X302344Y232594D02*
X301593D01*
X300900Y232307D01*
X300787Y232194D01*
X300675Y232307D01*
X299981Y232594D01*
X299231D01*
X298538Y232307D01*
X298008Y231777D01*
X297721Y231084D01*
Y230334D01*
X298008Y229640D01*
X298538Y229110D01*
X299231Y228823D01*
X299981D01*
X300675Y229110D01*
X300787Y229223D01*
X300900Y229110D01*
X301326Y228934D01*
X301329Y228931D01*
X301538Y228374D01*
X301535Y228347D01*
X301235Y227826D01*
X300992Y226921D01*
Y225984D01*
X301235Y225079D01*
X301703Y224268D01*
X302366Y223605D01*
X303177Y223136D01*
X304083Y222894D01*
X305020D01*
X305925Y223136D01*
X306736Y223605D01*
X307399Y224268D01*
X307868Y225079D01*
X308110Y225984D01*
Y226921D01*
X307868Y227826D01*
X307399Y228638D01*
X306736Y229301D01*
X305925Y229769D01*
X305020Y230012D01*
X304262D01*
X303966Y230246D01*
X303854Y230468D01*
Y231084D01*
X303567Y231777D01*
X303037Y232307D01*
X302344Y232594D01*
D02*
G37*
G36*
X421241Y235350D02*
X420491D01*
X419798Y235063D01*
X419267Y234533D01*
X418980Y233840D01*
Y233089D01*
X419267Y232396D01*
X419798Y231866D01*
X420491Y231579D01*
X421241D01*
X421934Y231866D01*
X422465Y232396D01*
X422752Y233089D01*
Y233840D01*
X422465Y234533D01*
X421934Y235063D01*
X421241Y235350D01*
D02*
G37*
G36*
X327934Y230626D02*
X327184D01*
X326491Y230339D01*
X326181Y230029D01*
X325871Y230339D01*
X325178Y230626D01*
X324428D01*
X323735Y230339D01*
X323204Y229808D01*
X322917Y229115D01*
Y228365D01*
X323204Y227672D01*
X323735Y227141D01*
X324322Y226898D01*
X324098Y226359D01*
Y225609D01*
X324385Y224916D01*
X324498Y224803D01*
X324385Y224690D01*
X324098Y223997D01*
Y223247D01*
X324385Y222554D01*
X324498Y222441D01*
X324385Y222328D01*
X324252Y222006D01*
X323997Y221571D01*
X323247D01*
X322554Y221284D01*
X322441Y221171D01*
X322328Y221284D01*
X321635Y221571D01*
X320885D01*
X320192Y221284D01*
X319661Y220753D01*
X319374Y220060D01*
Y219310D01*
X319661Y218617D01*
X320192Y218086D01*
X320885Y217799D01*
X321635D01*
X322328Y218086D01*
X322441Y218199D01*
X322554Y218086D01*
X323247Y217799D01*
X323997D01*
X324690Y218086D01*
X325221Y218617D01*
X325354Y218938D01*
X325609Y219374D01*
X326359D01*
X327052Y219661D01*
X327583Y220192D01*
X327870Y220885D01*
Y221635D01*
X327583Y222328D01*
X327470Y222441D01*
X327583Y222554D01*
X327870Y223247D01*
Y223997D01*
X327583Y224690D01*
X327470Y224803D01*
X327583Y224916D01*
X327870Y225609D01*
Y226359D01*
X327856Y226392D01*
X328166Y226951D01*
X328627Y227141D01*
X329158Y227672D01*
X329445Y228365D01*
Y229115D01*
X329158Y229808D01*
X328627Y230339D01*
X327934Y230626D01*
D02*
G37*
G36*
X361473Y234378D02*
X360527D01*
X359653Y234016D01*
X358984Y233347D01*
X358622Y232473D01*
Y231527D01*
X358984Y230653D01*
X359653Y229984D01*
X360527Y229622D01*
X361473D01*
X362347Y229984D01*
X363016Y230653D01*
X363378Y231527D01*
Y232473D01*
X363016Y233347D01*
X362347Y234016D01*
X361473Y234378D01*
D02*
G37*
G36*
X311792Y232201D02*
X311042D01*
X310349Y231914D01*
X309819Y231383D01*
X309531Y230690D01*
Y229940D01*
X309819Y229247D01*
X310349Y228716D01*
X311042Y228429D01*
X311792D01*
X312486Y228716D01*
X313016Y229247D01*
X313303Y229940D01*
Y230690D01*
X313016Y231383D01*
X312486Y231914D01*
X311792Y232201D01*
D02*
G37*
G36*
X353375Y228886D02*
X352625D01*
X351932Y228599D01*
X351401Y228068D01*
X351114Y227375D01*
Y226625D01*
X351401Y225932D01*
X351932Y225401D01*
X352625Y225114D01*
X353375D01*
X354068Y225401D01*
X354599Y225932D01*
X354886Y226625D01*
Y227375D01*
X354599Y228068D01*
X354068Y228599D01*
X353375Y228886D01*
D02*
G37*
G36*
X472914Y227575D02*
X471968D01*
X471094Y227213D01*
X470425Y226544D01*
X470063Y225670D01*
Y224724D01*
X470425Y223850D01*
X471094Y223181D01*
X471968Y222819D01*
X472914D01*
X473788Y223181D01*
X474457Y223850D01*
X474819Y224724D01*
Y225670D01*
X474457Y226544D01*
X473788Y227213D01*
X472914Y227575D01*
D02*
G37*
G36*
X461103D02*
X460157D01*
X459283Y227213D01*
X458614Y226544D01*
X458252Y225670D01*
Y224724D01*
X458614Y223850D01*
X459283Y223181D01*
X460157Y222819D01*
X461103D01*
X461977Y223181D01*
X462646Y223850D01*
X463008Y224724D01*
Y225670D01*
X462646Y226544D01*
X461977Y227213D01*
X461103Y227575D01*
D02*
G37*
G36*
X409528D02*
X408582D01*
X407708Y227213D01*
X407039Y226544D01*
X406677Y225670D01*
Y224724D01*
X407039Y223850D01*
X407708Y223181D01*
X408582Y222819D01*
X409528D01*
X410402Y223181D01*
X411071Y223850D01*
X411433Y224724D01*
Y225670D01*
X411071Y226544D01*
X410402Y227213D01*
X409528Y227575D01*
D02*
G37*
G36*
X394174D02*
X393228D01*
X392354Y227213D01*
X391685Y226544D01*
X391323Y225670D01*
Y224724D01*
X391685Y223850D01*
X392354Y223181D01*
X393228Y222819D01*
X394174D01*
X395048Y223181D01*
X395717Y223850D01*
X396079Y224724D01*
Y225670D01*
X395717Y226544D01*
X395048Y227213D01*
X394174Y227575D01*
D02*
G37*
G36*
X378819D02*
X377873D01*
X376999Y227213D01*
X376330Y226544D01*
X375969Y225670D01*
Y224724D01*
X376330Y223850D01*
X376999Y223181D01*
X377873Y222819D01*
X378819D01*
X379694Y223181D01*
X380362Y223850D01*
X380724Y224724D01*
Y225670D01*
X380362Y226544D01*
X379694Y227213D01*
X378819Y227575D01*
D02*
G37*
G36*
X449687Y225386D02*
X448937D01*
X448243Y225099D01*
X447713Y224568D01*
X447426Y223875D01*
Y223125D01*
X447713Y222432D01*
X448243Y221901D01*
X448937Y221614D01*
X449687D01*
X450380Y221901D01*
X450910Y222432D01*
X451197Y223125D01*
Y223875D01*
X450910Y224568D01*
X450380Y225099D01*
X449687Y225386D01*
D02*
G37*
G36*
X311497Y222063D02*
X310551D01*
X309677Y221701D01*
X309008Y221032D01*
X308646Y220158D01*
Y219212D01*
X309008Y218338D01*
X309677Y217669D01*
X310551Y217307D01*
X311497D01*
X312371Y217669D01*
X313040Y218338D01*
X313402Y219212D01*
Y220158D01*
X313040Y221032D01*
X312371Y221701D01*
X311497Y222063D01*
D02*
G37*
G36*
X302442D02*
X301496D01*
X300622Y221701D01*
X299953Y221032D01*
X299590Y220158D01*
Y219212D01*
X299953Y218338D01*
X300622Y217669D01*
X301496Y217307D01*
X302442D01*
X303315Y217669D01*
X303984Y218338D01*
X304346Y219212D01*
Y220158D01*
X303984Y221032D01*
X303315Y221701D01*
X302442Y222063D01*
D02*
G37*
G36*
X294624Y226468D02*
X293376D01*
X292170Y226146D01*
X291090Y225521D01*
X290207Y224639D01*
X289583Y223558D01*
X289260Y222352D01*
Y221104D01*
X289583Y219899D01*
X290207Y218818D01*
X291090Y217935D01*
X292170Y217311D01*
X293376Y216988D01*
X294624D01*
X295830Y217311D01*
X296911Y217935D01*
X297793Y218818D01*
X298417Y219899D01*
X298740Y221104D01*
Y222352D01*
X298417Y223558D01*
X297793Y224639D01*
X296911Y225521D01*
X295830Y226146D01*
X294624Y226468D01*
D02*
G37*
G36*
X444567Y218913D02*
X443621D01*
X442747Y218551D01*
X442079Y217882D01*
X441716Y217008D01*
Y216062D01*
X442079Y215188D01*
X442747Y214520D01*
X443621Y214158D01*
X444567D01*
X445441Y214520D01*
X446110Y215188D01*
X446472Y216062D01*
Y217008D01*
X446110Y217882D01*
X445441Y218551D01*
X444567Y218913D01*
D02*
G37*
G36*
X426064D02*
X425118D01*
X424243Y218551D01*
X423575Y217882D01*
X423213Y217008D01*
Y216062D01*
X423575Y215188D01*
X424243Y214520D01*
X425118Y214158D01*
X426064D01*
X426938Y214520D01*
X427606Y215188D01*
X427969Y216062D01*
Y217008D01*
X427606Y217882D01*
X426938Y218551D01*
X426064Y218913D01*
D02*
G37*
%LPD*%
D60*
X294500Y397500D02*
D03*
Y296000D02*
D03*
Y322000D02*
D03*
D63*
X316000Y397500D02*
D03*
D67*
X348425Y240551D02*
D03*
X414528Y263631D02*
D03*
X414567Y266142D02*
D03*
Y261417D02*
D03*
X412205Y264961D02*
D03*
X408268D02*
D03*
X403150D02*
D03*
X398819D02*
D03*
X405512Y268504D02*
D03*
D68*
X345276Y240945D02*
D03*
X340945D02*
D03*
X346599Y307547D02*
D03*
X337659D02*
D03*
X328720D02*
D03*
X430709Y311811D02*
D03*
X453952Y354500D02*
D03*
X316929Y387008D02*
D03*
X417256Y286681D02*
D03*
X417323Y300787D02*
D03*
X430407Y354741D02*
D03*
X410123Y358839D02*
D03*
X360510Y363514D02*
D03*
X385433Y358008D02*
D03*
X332283Y264567D02*
D03*
X348819Y222047D02*
D03*
X416500Y269000D02*
D03*
X406693Y255118D02*
D03*
X399606D02*
D03*
X406693Y260630D02*
D03*
X399606D02*
D03*
M02*
