G04*
G04 #@! TF.GenerationSoftware,Altium Limited,Altium Designer,22.8.2 (66)*
G04*
G04 Layer_Color=16711935*
%FSLAX25Y25*%
%MOIN*%
G70*
G04*
G04 #@! TF.SameCoordinates,4F58F9C0-C404-4AA8-A12D-09E9B3034F0A*
G04*
G04*
G04 #@! TF.FilePolarity,Negative*
G04*
G01*
G75*
%ADD49C,0.06706*%
%ADD50R,0.06706X0.06706*%
%ADD51C,0.04737*%
%ADD52R,0.04737X0.04737*%
%ADD53C,0.08280*%
%ADD54C,0.05918*%
%ADD55R,0.06706X0.06706*%
D49*
X294500Y397500D02*
D03*
Y387500D02*
D03*
Y377500D02*
D03*
Y276000D02*
D03*
Y286000D02*
D03*
Y296000D02*
D03*
X473000Y322000D02*
D03*
Y332000D02*
D03*
Y342000D02*
D03*
X294500Y322000D02*
D03*
Y332000D02*
D03*
Y342000D02*
D03*
X473000Y306000D02*
D03*
Y296000D02*
D03*
Y286000D02*
D03*
X388500Y239000D02*
D03*
D50*
X294500Y367500D02*
D03*
Y306000D02*
D03*
X473000Y352000D02*
D03*
X294500D02*
D03*
X473000Y276000D02*
D03*
D51*
X351000Y397500D02*
D03*
X346000D02*
D03*
X341000D02*
D03*
X336000D02*
D03*
X331000D02*
D03*
X326000D02*
D03*
X321000D02*
D03*
D52*
X316000D02*
D03*
D53*
X294000Y221728D02*
D03*
Y250272D02*
D03*
D54*
X304551Y226453D02*
D03*
Y245547D02*
D03*
D55*
X378500Y239000D02*
D03*
M02*
