M48
;Layer_Color=9474304
;FILE_FORMAT=2:5
INCH,LZ
;TYPE=PLATED
T1F00S00C0.00787
T2F00S00C0.01181
T3F00S00C0.02362
T4F00S00C0.02756
T5F00S00C0.03543
T6F00S00C0.05118
%
T01
X032126Y0219685
X0323622
X0325984Y022126
Y0223622
Y0225984
X0324803Y022874
X0327559
X0353Y0227
X0348425Y0240551
X036Y0239
X0372047Y0231496
Y0229134
X037441Y0231496
X0401181Y0234252
X0405118
X0420866Y0233465
X0438976Y0231102
X0440158Y0236221
Y023937
X0442913Y0234252
X0446063
X0448819Y0236221
Y023937
X0449213Y0232283
Y0229528
X0449312Y02235
X0450518Y0250768
X0421755Y0258789
Y0262157
X0421776Y0265781
X0414567Y0266142
X0414528Y0263631
X0414567Y0261417
X0412205Y0264961
X0408268
X040315
X0398819
X0393701Y0266929
Y0269685
Y0272441
X0385433Y0272835
X0383071
Y0275197
X0381102Y0277559
X037874
X0372835Y0278346
Y0275984
Y0273622
X0385433Y0269685
Y0266929
X0405512Y0268504
X0403543Y0277953
X040748
X0412598
X0398425
X0395669Y02915
X0391732
X0376
X0372
X03675Y031
X0350394Y0280315
X0365Y02625
X0424016Y0282283
X0427953
X0432677
X0437008
X0439764Y0283071
Y0279134
X0427Y02965
Y03045
X046Y02965
X0311417Y0230315
X0301969Y0230709
X0299606
X0362Y03435
X0382484Y0343903
X03805Y03495
X0380038Y03535
X04115Y03295
X04215Y03245
X04225Y0316
X0454Y034
T02
X0472441Y0225197
X0474803Y0240945
Y0248425
Y0255118
X04535Y0251
X04475
X0452362Y0234252
X0436221Y0234646
X0444095Y0216535
X0425591
X0409055Y0225197
X0393701
X0378346
X0361Y0232
X0348819Y0222047
X0345276Y0240945
X0340945
X0336221Y0241339
X0332283Y0264567
X0314961
X0318898Y0290945
X0329134Y0301575
X032872Y0307547
X0337659
X0338189Y0301575
X0346457
X0346599Y0307547
X0347244Y0280709
X0358819
X0370394
X0381968
X0393543
X0405118
X0417256Y0286681
X0425984Y0288583
X0435433
X0442913
X044445Y0300787
X0430709Y0311811
X0417323Y0300787
X0416535Y0273622
X0420866
X04165Y0269
X0406693Y026063
Y0255118
X0399606
Y026063
X0373Y02625
X046063Y0225197
X0311024Y0219685
X0301969
X0305118Y0333858
X032441Y0337795
Y0327559
X0316929Y0387008
X0381811Y0386
X0405108
X0403047Y0366535
X0410123Y0358839
X0425047Y0366535
X0430407Y0354741
X04295Y03385
X0439
X0448
X0453952Y03545
X0448547Y0366535
X0451703Y0386
X0428406
X0387795Y0366535
X0385433Y0358008
X036051Y0363514
X0415354Y0332283
X0462205Y0319291
X0472953Y03635
X0475Y0386
T03
X0316Y03975
X0321
X0326
X0331
X0336
X0341
X0346
X0351
T04
X0304551Y0226453
Y0245547
T05
X0473Y0276
Y0286
Y0296
Y0306
X03885Y0239
X03785
X02945Y0276
Y0286
Y0296
Y0306
Y0322
Y0332
Y0342
Y0352
Y03675
Y03775
Y03875
Y03975
X0473Y0352
Y0342
Y0332
Y0322
T06
X0294Y0221728
Y0250272
M30
