G04*
G04 #@! TF.GenerationSoftware,Altium Limited,Altium Designer,22.8.2 (66)*
G04*
G04 Layer_Physical_Order=4*
G04 Layer_Color=16711680*
%FSLAX25Y25*%
%MOIN*%
G70*
G04*
G04 #@! TF.SameCoordinates,4F58F9C0-C404-4AA8-A12D-09E9B3034F0A*
G04*
G04*
G04 #@! TF.FilePolarity,Positive*
G04*
G01*
G75*
%ADD10C,0.01000*%
%ADD60C,0.05906*%
%ADD61R,0.05906X0.05906*%
%ADD62C,0.03937*%
%ADD63R,0.03937X0.03937*%
%ADD64C,0.07480*%
%ADD65C,0.05118*%
%ADD66R,0.05906X0.05906*%
%ADD67C,0.01772*%
%ADD68C,0.02756*%
G36*
X303316Y275500D02*
X302324Y275484D01*
X300552Y275357D01*
X299773Y275246D01*
X299064Y275103D01*
X298427Y274928D01*
X297861Y274721D01*
X297365Y274483D01*
X296940Y274213D01*
X296587Y273911D01*
Y278089D01*
X296940Y277787D01*
X297365Y277517D01*
X297861Y277279D01*
X298427Y277072D01*
X299064Y276897D01*
X299773Y276754D01*
X300552Y276643D01*
X302324Y276516D01*
X303316Y276500D01*
Y275500D01*
D02*
G37*
G36*
Y285500D02*
X302324Y285484D01*
X300552Y285357D01*
X299773Y285246D01*
X299064Y285103D01*
X298427Y284928D01*
X297861Y284721D01*
X297365Y284483D01*
X296940Y284213D01*
X296587Y283911D01*
Y288089D01*
X296940Y287787D01*
X297365Y287517D01*
X297861Y287279D01*
X298427Y287072D01*
X299064Y286897D01*
X299773Y286754D01*
X300552Y286643D01*
X302324Y286516D01*
X303316Y286500D01*
Y285500D01*
D02*
G37*
G36*
X353500Y229503D02*
X353501Y229169D01*
X353603Y227668D01*
X353627Y227626D01*
X352373D01*
X352397Y227668D01*
X352419Y227742D01*
X352438Y227848D01*
X352454Y227987D01*
X352489Y228599D01*
X352500Y229503D01*
X353500D01*
D02*
G37*
G36*
X362503Y238500D02*
X362169Y238499D01*
X360668Y238397D01*
X360626Y238373D01*
Y239627D01*
X360668Y239603D01*
X360742Y239581D01*
X360848Y239562D01*
X360987Y239546D01*
X361599Y239511D01*
X362503Y239500D01*
Y238500D01*
D02*
G37*
G36*
X369497Y292000D02*
X369831Y292001D01*
X371332Y292103D01*
X371374Y292127D01*
Y290873D01*
X371332Y290897D01*
X371258Y290919D01*
X371152Y290938D01*
X371013Y290954D01*
X370401Y290989D01*
X369497Y291000D01*
Y292000D01*
D02*
G37*
G36*
X370003Y309500D02*
X369669Y309499D01*
X368168Y309397D01*
X368126Y309373D01*
Y310627D01*
X368168Y310603D01*
X368242Y310581D01*
X368348Y310562D01*
X368487Y310546D01*
X369099Y310511D01*
X370003Y310500D01*
Y309500D01*
D02*
G37*
G36*
X375500Y288997D02*
X375499Y289331D01*
X375397Y290832D01*
X375373Y290874D01*
X376627D01*
X376603Y290832D01*
X376581Y290758D01*
X376562Y290652D01*
X376546Y290513D01*
X376511Y289901D01*
X376500Y288997D01*
X375500D01*
D02*
G37*
G36*
X389562Y289800D02*
X390848Y291448D01*
X391787Y290616D01*
X391690Y290597D01*
X391583Y290551D01*
X391467Y290479D01*
X391341Y290380D01*
X391205Y290255D01*
X391060Y290103D01*
X390741Y289720D01*
X390384Y289230D01*
X389562Y289800D01*
D02*
G37*
G36*
X380539Y355524D02*
X380618Y354321D01*
X380643Y354215D01*
X380670Y354137D01*
X380702Y354087D01*
X379374D01*
X379405Y354137D01*
X379433Y354215D01*
X379458Y354321D01*
X379479Y354453D01*
X379512Y354800D01*
X379536Y355524D01*
X379538Y355820D01*
X380538D01*
X380539Y355524D01*
D02*
G37*
G36*
X379321Y351388D02*
X380454Y350398D01*
X380501Y350386D01*
X379614Y349499D01*
X379602Y349546D01*
X379565Y349613D01*
X379503Y349702D01*
X379416Y349812D01*
X379008Y350269D01*
X378377Y350916D01*
X379084Y351623D01*
X379321Y351388D01*
D02*
G37*
G36*
X381825Y343312D02*
X379986Y343527D01*
X379988Y344534D01*
X380302Y344497D01*
X381283Y344437D01*
X381460Y344444D01*
X381610Y344461D01*
X381732Y344486D01*
X381827Y344520D01*
X381894Y344564D01*
X381825Y343312D01*
D02*
G37*
G36*
X361374Y342873D02*
X361332Y342897D01*
X361258Y342919D01*
X361152Y342938D01*
X361013Y342954D01*
X360401Y342989D01*
X359497Y343000D01*
Y344000D01*
X359831Y344001D01*
X361332Y344103D01*
X361374Y344127D01*
Y342873D01*
D02*
G37*
G36*
X335500Y391659D02*
X335491Y392344D01*
X335357Y394078D01*
X335277Y394549D01*
X335179Y394968D01*
X335063Y395333D01*
X334929Y395645D01*
X334777Y395903D01*
X334607Y396109D01*
X337393D01*
X337223Y395903D01*
X337071Y395645D01*
X336937Y395333D01*
X336821Y394968D01*
X336723Y394549D01*
X336643Y394078D01*
X336536Y392975D01*
X336509Y392344D01*
X336500Y391659D01*
X335500D01*
D02*
G37*
G36*
X340500Y393142D02*
X340490Y393503D01*
X340458Y393853D01*
X340407Y394193D01*
X340334Y394521D01*
X340241Y394840D01*
X340126Y395147D01*
X339991Y395444D01*
X339836Y395730D01*
X339660Y396006D01*
X339462Y396271D01*
X342538D01*
X342340Y396006D01*
X342164Y395730D01*
X342008Y395444D01*
X341874Y395147D01*
X341759Y394840D01*
X341666Y394521D01*
X341593Y394193D01*
X341542Y393853D01*
X341510Y393503D01*
X341500Y393142D01*
X340500D01*
D02*
G37*
G36*
X347376Y392018D02*
X345150Y395724D01*
X347794Y396689D01*
X347603Y396206D01*
X347470Y395731D01*
X347396Y395263D01*
X347380Y394804D01*
X347424Y394352D01*
X347525Y393908D01*
X347685Y393472D01*
X347903Y393044D01*
X348180Y392623D01*
X348516Y392210D01*
X347376Y392018D01*
D02*
G37*
G36*
X347723Y402190D02*
X348236Y401684D01*
X350242Y399932D01*
X350531Y399736D01*
X350783Y399593D01*
X350998Y399501D01*
X351176Y399461D01*
X349038Y397659D01*
X349040Y397999D01*
X348992Y398353D01*
X348895Y398720D01*
X348748Y399101D01*
X348552Y399496D01*
X348305Y399905D01*
X348009Y400327D01*
X347664Y400763D01*
X346823Y401675D01*
X347723Y402190D01*
D02*
G37*
G36*
X451990Y340870D02*
X452183Y340769D01*
X452372Y340690D01*
X452555Y340633D01*
X452734Y340599D01*
X452907Y340587D01*
X453076Y340598D01*
X453239Y340631D01*
X453397Y340686D01*
X453551Y340763D01*
X453279Y339485D01*
X451744Y339874D01*
X451791Y340994D01*
X451990Y340870D01*
D02*
G37*
G36*
X474349Y339373D02*
X474124Y339249D01*
X473627Y338925D01*
X473354Y338724D01*
X472440Y337969D01*
X471383Y336985D01*
X470254Y337319D01*
X470544Y337579D01*
X470779Y337845D01*
X470957Y338119D01*
X471078Y338400D01*
X471144Y338689D01*
X471153Y338985D01*
X471106Y339288D01*
X471003Y339598D01*
X470844Y339916D01*
X470628Y340241D01*
X474349Y339373D01*
D02*
G37*
G36*
X412001Y331669D02*
X412103Y330168D01*
X412127Y330126D01*
X410873D01*
X410897Y330168D01*
X410919Y330242D01*
X410938Y330348D01*
X410954Y330487D01*
X410989Y331099D01*
X411000Y332003D01*
X412000D01*
X412001Y331669D01*
D02*
G37*
G36*
X470913Y329911D02*
X470560Y330213D01*
X470135Y330483D01*
X469639Y330721D01*
X469073Y330928D01*
X468435Y331103D01*
X467727Y331246D01*
X466948Y331357D01*
X465176Y331484D01*
X464184Y331500D01*
Y332500D01*
X465176Y332516D01*
X466948Y332643D01*
X467727Y332754D01*
X468435Y332897D01*
X469073Y333072D01*
X469639Y333279D01*
X470135Y333517D01*
X470560Y333787D01*
X470913Y334089D01*
Y329911D01*
D02*
G37*
G36*
X422434Y326927D02*
X422336Y326647D01*
X422191Y326146D01*
X422145Y325925D01*
X422115Y325723D01*
X422104Y325540D01*
X422109Y325377D01*
X422131Y325233D01*
X422171Y325109D01*
X422229Y325004D01*
X420992Y325225D01*
X421396Y326985D01*
X422434Y326927D01*
D02*
G37*
G36*
X472918Y319048D02*
X472504Y319045D01*
X472102Y319011D01*
X471713Y318947D01*
X471338Y318852D01*
X470974Y318727D01*
X470624Y318571D01*
X470287Y318385D01*
X469963Y318169D01*
X469651Y317922D01*
X469352Y317645D01*
X468645Y318352D01*
X468922Y318651D01*
X469169Y318963D01*
X469385Y319287D01*
X469571Y319624D01*
X469727Y319974D01*
X469852Y320338D01*
X469947Y320713D01*
X470011Y321102D01*
X470045Y321504D01*
X470048Y321918D01*
X472918Y319048D01*
D02*
G37*
G36*
X423168Y316603D02*
X423242Y316581D01*
X423348Y316562D01*
X423487Y316546D01*
X424099Y316511D01*
X425003Y316500D01*
Y315500D01*
X424669Y315499D01*
X423168Y315397D01*
X423126Y315373D01*
Y316627D01*
X423168Y316603D01*
D02*
G37*
G36*
X427668Y305103D02*
X427742Y305081D01*
X427848Y305062D01*
X427987Y305046D01*
X428599Y305011D01*
X429503Y305000D01*
Y304000D01*
X429169Y303999D01*
X427668Y303897D01*
X427626Y303873D01*
Y305127D01*
X427668Y305103D01*
D02*
G37*
G36*
X426374Y303873D02*
X426332Y303897D01*
X426258Y303919D01*
X426152Y303938D01*
X426013Y303954D01*
X425401Y303989D01*
X424497Y304000D01*
Y305000D01*
X424831Y305001D01*
X426332Y305103D01*
X426374Y305127D01*
Y303873D01*
D02*
G37*
G36*
X459374Y295873D02*
X459332Y295897D01*
X459258Y295919D01*
X459152Y295938D01*
X459013Y295954D01*
X458401Y295989D01*
X457497Y296000D01*
Y297000D01*
X457831Y297001D01*
X459332Y297103D01*
X459374Y297127D01*
Y295873D01*
D02*
G37*
G36*
X427668Y297103D02*
X427742Y297081D01*
X427848Y297062D01*
X427987Y297046D01*
X428599Y297011D01*
X429503Y297000D01*
Y296000D01*
X429169Y295999D01*
X427668Y295897D01*
X427626Y295873D01*
Y297127D01*
X427668Y297103D01*
D02*
G37*
G36*
X426374Y295873D02*
X426332Y295897D01*
X426258Y295919D01*
X426152Y295938D01*
X426013Y295954D01*
X425401Y295989D01*
X424497Y296000D01*
Y297000D01*
X424831Y297001D01*
X426332Y297103D01*
X426374Y297127D01*
Y295873D01*
D02*
G37*
G36*
X468347Y301384D02*
X469458Y300465D01*
X470005Y300086D01*
X470546Y299762D01*
X471081Y299491D01*
X471610Y299274D01*
X472132Y299112D01*
X472649Y299003D01*
X473160Y298948D01*
X470052Y295840D01*
X469997Y296351D01*
X469888Y296867D01*
X469726Y297390D01*
X469509Y297919D01*
X469239Y298454D01*
X468914Y298995D01*
X468535Y299541D01*
X468103Y300094D01*
X467616Y300653D01*
X467075Y301218D01*
X467782Y301925D01*
X468347Y301384D01*
D02*
G37*
G36*
X396337Y292103D02*
X396411Y292081D01*
X396517Y292062D01*
X396656Y292046D01*
X397268Y292011D01*
X398172Y292000D01*
Y291000D01*
X397838Y290999D01*
X396337Y290897D01*
X396295Y290873D01*
Y292127D01*
X396337Y292103D01*
D02*
G37*
G36*
X420240Y232838D02*
X420198Y232862D01*
X420124Y232883D01*
X420018Y232902D01*
X419879Y232919D01*
X419267Y232953D01*
X418363Y232965D01*
Y233965D01*
X418697Y233966D01*
X420198Y234067D01*
X420240Y234091D01*
Y232838D01*
D02*
G37*
G36*
X448686Y222873D02*
X448644Y222897D01*
X448570Y222919D01*
X448463Y222938D01*
X448324Y222954D01*
X447713Y222989D01*
X446809Y223000D01*
Y224000D01*
X447143Y224001D01*
X448644Y224103D01*
X448686Y224127D01*
Y222873D01*
D02*
G37*
D10*
X345558Y403648D02*
G03*
X344854Y403937I-704J-711D01*
G01*
X351000Y397796D02*
G03*
X350709Y398496I-1000J-5D01*
G01*
X311811Y403937D02*
G03*
X307087Y399213I0J-4724D01*
G01*
X350028Y346429D02*
G03*
X357099Y343500I7071J7071D01*
G01*
X307087Y393512D02*
G03*
X310016Y386441I10000J0D01*
G01*
X391118Y290886D02*
G03*
X388189Y283815I7071J-7071D01*
G01*
X464173Y316000D02*
G03*
X468999Y317999I0J6824D01*
G01*
X370169Y348831D02*
G03*
X382484Y343906I11903J11903D01*
G01*
X341054Y377946D02*
G03*
X341052Y377948I-707J-707D01*
G01*
X336000Y390142D02*
G03*
X341047Y377953I17243J-0D01*
G01*
X437744Y226429D02*
G03*
X444815Y223500I7071J7071D01*
G01*
X430709Y237607D02*
G03*
X433638Y230536I10000J0D01*
G01*
X430709Y265748D02*
G03*
X428203Y271797I-8554J0D01*
G01*
X411429Y288571D02*
G03*
X404358Y291500I-7071J-7071D01*
G01*
X414823Y285143D02*
G03*
X415717Y284249I2433J1538D01*
G01*
X414823Y285143D02*
G03*
X414685Y285315I-843J-537D01*
G01*
X415890Y284110D02*
G03*
X415717Y284249I-709J-705D01*
G01*
X408488Y236393D02*
G03*
X415559Y233465I7071J7071D01*
G01*
X388189Y260835D02*
G03*
X391118Y253764I10000J0D01*
G01*
X355087Y296500D02*
G03*
X351181Y294882I0J-5525D01*
G01*
X347375Y293307D02*
G03*
X351181Y294882I5J5377D01*
G01*
X333926Y293307D02*
G03*
X324500Y283881I0J-9426D01*
G01*
X318500Y276000D02*
G03*
X324500Y282000I0J6000D01*
G01*
X363000Y291500D02*
G03*
X353000Y281500I0J-10000D01*
G01*
X451004Y340996D02*
G03*
X453414Y340000I2410J2418D01*
G01*
X420997Y342061D02*
G03*
X411500Y332564I0J-9497D01*
G01*
X451002Y340998D02*
G03*
X448435Y342061I-2563J-2558D01*
G01*
X467429Y301571D02*
G03*
X460358Y304500I-7071J-7071D01*
G01*
X324000Y304500D02*
G03*
X314000Y294500I0J-10000D01*
G01*
X309500Y286000D02*
G03*
X314000Y290500I0J4500D01*
G01*
X429000Y332000D02*
G03*
X421500Y324500I0J-7500D01*
G01*
X380038Y355820D02*
G03*
X377109Y362891I-10000J0D01*
G01*
X346000Y397500D02*
G03*
X348475Y391525I8450J0D01*
G01*
X341000Y393142D02*
G03*
X343929Y386071I10000J0D01*
G01*
X466500Y335500D02*
G03*
X473000Y342000I0J6500D01*
G01*
X427000Y335500D02*
G03*
X417000Y325500I0J-10000D01*
G01*
X407000Y310000D02*
G03*
X417000Y320000I0J10000D01*
G01*
X366000Y239000D02*
G03*
X376000Y249000I0J10000D01*
G01*
X329000Y304500D02*
X427000Y304500D01*
X472000Y296000D02*
X473000D01*
X324000Y304500D02*
X329000D01*
X311811Y403937D02*
X344854D01*
X351000Y397500D02*
Y397791D01*
X345558Y403648D02*
X350709Y398496D01*
X351000Y397796D02*
X351000Y397791D01*
X307087Y393512D02*
Y399213D01*
X357099Y343500D02*
X362000D01*
X310016Y386441D02*
X350028Y346429D01*
X363000Y291500D02*
X372000D01*
X395669D02*
X404358D01*
X391118Y290886D02*
X391732Y291500D01*
X388189Y260835D02*
Y283815D01*
X422500Y316000D02*
X464173D01*
X468999Y317999D02*
X473000Y322000D01*
X341054Y377946D02*
X370169Y348831D01*
X341047Y377953D02*
X341052Y377948D01*
X444815Y223500D02*
X449312D01*
X433638Y230536D02*
X437744Y226429D01*
X430709Y237607D02*
Y265748D01*
X411429Y288571D02*
X414685Y285315D01*
X415890Y284110D02*
X428203Y271797D01*
X415559Y233465D02*
X420866D01*
X391118Y253764D02*
X408488Y236393D01*
X355087Y296500D02*
X364173D01*
X333926Y293307D02*
X347375D01*
X347375Y293307D02*
X347375Y293307D01*
X324500Y282000D02*
Y283881D01*
X294500Y276000D02*
X318500D01*
X364173Y296500D02*
X427000Y296500D01*
X460000D01*
X353000Y227000D02*
Y281500D01*
X420997Y342061D02*
X448435Y342061D01*
X451002Y340998D02*
X451004Y340996D01*
X453414Y340000D02*
X454000D01*
X411500Y329500D02*
Y332564D01*
X427000Y304500D02*
X460358D01*
X467429Y301571D02*
X473000Y296000D01*
X314000Y290500D02*
Y294500D01*
X294500Y286000D02*
X309500D01*
X429000Y332000D02*
X473000D01*
X360000Y239000D02*
X366000D01*
X336000Y390142D02*
Y397500D01*
X380038Y353500D02*
Y355820D01*
X348475Y391525D02*
X377109Y362891D01*
X343929Y386071D02*
X380500Y349500D01*
X341000Y393142D02*
Y397500D01*
X367500Y310000D02*
X407000D01*
X427000Y335500D02*
X466500D01*
X417000Y320000D02*
Y325500D01*
X376000Y249000D02*
Y291500D01*
D60*
X294500Y397500D02*
D03*
Y387500D02*
D03*
Y377500D02*
D03*
Y276000D02*
D03*
Y286000D02*
D03*
Y296000D02*
D03*
X473000Y322000D02*
D03*
Y332000D02*
D03*
Y342000D02*
D03*
X294500Y322000D02*
D03*
Y332000D02*
D03*
Y342000D02*
D03*
X473000Y306000D02*
D03*
Y296000D02*
D03*
Y286000D02*
D03*
X388500Y239000D02*
D03*
D61*
X294500Y367500D02*
D03*
Y306000D02*
D03*
X473000Y352000D02*
D03*
X294500D02*
D03*
X473000Y276000D02*
D03*
D62*
X351000Y397500D02*
D03*
X346000D02*
D03*
X341000D02*
D03*
X336000D02*
D03*
X331000D02*
D03*
X326000D02*
D03*
X321000D02*
D03*
D63*
X316000D02*
D03*
D64*
X294000Y221728D02*
D03*
Y250272D02*
D03*
D65*
X304551Y226453D02*
D03*
Y245547D02*
D03*
D66*
X378500Y239000D02*
D03*
D67*
X348425Y240551D02*
D03*
X382484Y343903D02*
D03*
X412598Y277953D02*
D03*
X405118Y234252D02*
D03*
X401181D02*
D03*
X385433Y272835D02*
D03*
Y266929D02*
D03*
Y269685D02*
D03*
X391732Y291500D02*
D03*
X395669D02*
D03*
X420866Y233465D02*
D03*
X449312Y223500D02*
D03*
X446063Y234252D02*
D03*
X442913D02*
D03*
X327559Y228740D02*
D03*
X324803D02*
D03*
X414528Y263631D02*
D03*
X414567Y266142D02*
D03*
Y261417D02*
D03*
X412205Y264961D02*
D03*
X408268D02*
D03*
X403150D02*
D03*
X398819D02*
D03*
X405512Y268504D02*
D03*
X350394Y280315D02*
D03*
X378740Y277559D02*
D03*
X381102D02*
D03*
X383071Y275197D02*
D03*
Y272835D02*
D03*
X372835Y278346D02*
D03*
Y275984D02*
D03*
Y273622D02*
D03*
X393701Y272441D02*
D03*
Y269685D02*
D03*
Y266929D02*
D03*
X398425Y277953D02*
D03*
X403543D02*
D03*
X407480D02*
D03*
X427953Y282283D02*
D03*
X424016D02*
D03*
X437008D02*
D03*
X432677D02*
D03*
X439764Y283071D02*
D03*
Y279134D02*
D03*
X449213Y232283D02*
D03*
Y229528D02*
D03*
X438976Y231102D02*
D03*
X448819Y239370D02*
D03*
Y236221D02*
D03*
X440158D02*
D03*
Y239370D02*
D03*
X374410Y231496D02*
D03*
X372047Y229134D02*
D03*
Y231496D02*
D03*
X450518Y250768D02*
D03*
X323622Y219685D02*
D03*
X321260D02*
D03*
X325984Y221260D02*
D03*
Y223622D02*
D03*
Y225984D02*
D03*
X311417Y230315D02*
D03*
X299606Y230709D02*
D03*
X301969D02*
D03*
X380038Y353500D02*
D03*
X380500Y349500D02*
D03*
X362000Y343500D02*
D03*
X460000Y296500D02*
D03*
X454000Y340000D02*
D03*
X367500Y310000D02*
D03*
X411500Y329500D02*
D03*
X353000Y227000D02*
D03*
X360000Y239000D02*
D03*
X372000Y291500D02*
D03*
X376000D02*
D03*
X422500Y316000D02*
D03*
X421500Y324500D02*
D03*
X427000Y296500D02*
D03*
Y304500D02*
D03*
X421776Y265781D02*
D03*
X421755Y262157D02*
D03*
Y258789D02*
D03*
X365000Y262500D02*
D03*
D68*
X345276Y240945D02*
D03*
X340945D02*
D03*
X336221Y241339D02*
D03*
X346457Y301575D02*
D03*
X346599Y307547D02*
D03*
X329134Y301575D02*
D03*
X338189D02*
D03*
X305118Y333858D02*
D03*
X460630Y225197D02*
D03*
X378346D02*
D03*
X393701D02*
D03*
X409055D02*
D03*
X337659Y307547D02*
D03*
X328720D02*
D03*
X415354Y332283D02*
D03*
X430709Y311811D02*
D03*
X472953Y363500D02*
D03*
X453952Y354500D02*
D03*
X316929Y387008D02*
D03*
X417256Y286681D02*
D03*
X417323Y300787D02*
D03*
X462205Y319291D02*
D03*
X430407Y354741D02*
D03*
X410123Y358839D02*
D03*
X448547Y366535D02*
D03*
X425047D02*
D03*
X403047D02*
D03*
X387795D02*
D03*
X475000Y386000D02*
D03*
X451703D02*
D03*
X428406D02*
D03*
X405108D02*
D03*
X381811D02*
D03*
X324410Y327559D02*
D03*
Y337795D02*
D03*
X360510Y363514D02*
D03*
X385433Y358008D02*
D03*
X444450Y300787D02*
D03*
X318898Y290945D02*
D03*
X332283Y264567D02*
D03*
X314961D02*
D03*
X348819Y222047D02*
D03*
X435433Y288583D02*
D03*
X442913D02*
D03*
X425984D02*
D03*
X420866Y273622D02*
D03*
X416535D02*
D03*
X405118Y280709D02*
D03*
X393543D02*
D03*
X381968D02*
D03*
X347244D02*
D03*
X370394D02*
D03*
X358819D02*
D03*
X472441Y225197D02*
D03*
X474803Y255118D02*
D03*
Y248425D02*
D03*
Y240945D02*
D03*
X452362Y234252D02*
D03*
X436221Y234646D02*
D03*
X444095Y216535D02*
D03*
X425591D02*
D03*
X311024Y219685D02*
D03*
X301969D02*
D03*
X429500Y338500D02*
D03*
X439000D02*
D03*
X448000D02*
D03*
X361000Y232000D02*
D03*
X373000Y262500D02*
D03*
X416500Y269000D02*
D03*
X406693Y255118D02*
D03*
X399606D02*
D03*
X406693Y260630D02*
D03*
X399606D02*
D03*
X453500Y251000D02*
D03*
X447500D02*
D03*
M02*
