G04*
G04 #@! TF.GenerationSoftware,Altium Limited,Altium Designer,22.8.2 (66)*
G04*
G04 Layer_Color=8421504*
%FSLAX25Y25*%
%MOIN*%
G70*
G04*
G04 #@! TF.SameCoordinates,4F58F9C0-C404-4AA8-A12D-09E9B3034F0A*
G04*
G04*
G04 #@! TF.FilePolarity,Positive*
G04*
G01*
G75*
%ADD18R,0.05512X0.04331*%
%ADD19R,0.02000X0.07700*%
%ADD20R,0.03937X0.03150*%
%ADD21R,0.04331X0.05512*%
%ADD22R,0.03150X0.03937*%
%ADD23R,0.01181X0.04724*%
%ADD24R,0.04724X0.01181*%
%ADD25R,0.07087X0.03937*%
%ADD26R,0.04921X0.01575*%
%ADD27O,0.06693X0.02362*%
%ADD28R,0.02756X0.03937*%
%ADD29R,0.05512X0.02362*%
%ADD30R,0.03543X0.03543*%
G04:AMPARAMS|DCode=31|XSize=26.38mil|YSize=11.81mil|CornerRadius=1.95mil|HoleSize=0mil|Usage=FLASHONLY|Rotation=0.000|XOffset=0mil|YOffset=0mil|HoleType=Round|Shape=RoundedRectangle|*
%AMROUNDEDRECTD31*
21,1,0.02638,0.00791,0,0,0.0*
21,1,0.02248,0.01181,0,0,0.0*
1,1,0.00390,0.01124,-0.00396*
1,1,0.00390,-0.01124,-0.00396*
1,1,0.00390,-0.01124,0.00396*
1,1,0.00390,0.01124,0.00396*
%
%ADD31ROUNDEDRECTD31*%
%ADD32R,0.09843X0.04724*%
%ADD33R,0.02756X0.05118*%
%ADD34R,0.03937X0.02362*%
%ADD35R,0.04331X0.06693*%
D18*
X310705Y290905D02*
D03*
X336295D02*
D03*
X310705Y279095D02*
D03*
X336295D02*
D03*
D19*
X433856Y314794D02*
D03*
X436456D02*
D03*
X439056D02*
D03*
X441656D02*
D03*
Y297994D02*
D03*
X439056D02*
D03*
X436456D02*
D03*
X433856D02*
D03*
D20*
X359000Y251453D02*
D03*
Y245547D02*
D03*
X458000Y324500D02*
D03*
Y318595D02*
D03*
X369500Y251453D02*
D03*
Y245547D02*
D03*
X328000Y264547D02*
D03*
Y270453D02*
D03*
X417256Y296394D02*
D03*
Y290488D02*
D03*
Y310394D02*
D03*
Y304488D02*
D03*
X417500Y328953D02*
D03*
Y323047D02*
D03*
X429500Y334953D02*
D03*
Y329047D02*
D03*
X439000Y334953D02*
D03*
Y329047D02*
D03*
X448000Y334953D02*
D03*
Y329047D02*
D03*
X305000Y337547D02*
D03*
Y343453D02*
D03*
X458000Y339953D02*
D03*
Y334047D02*
D03*
X349000Y251453D02*
D03*
Y245547D02*
D03*
X435000Y272500D02*
D03*
Y278405D02*
D03*
X425500Y243453D02*
D03*
Y237547D02*
D03*
Y229500D02*
D03*
Y223594D02*
D03*
X324250Y301642D02*
D03*
Y307547D02*
D03*
X333189Y301642D02*
D03*
Y307547D02*
D03*
X342129Y301642D02*
D03*
Y307547D02*
D03*
X351068Y301642D02*
D03*
Y307547D02*
D03*
X319000Y264547D02*
D03*
Y270453D02*
D03*
X349000Y276406D02*
D03*
Y270500D02*
D03*
X379000Y273453D02*
D03*
Y267547D02*
D03*
X444500Y238047D02*
D03*
Y243953D02*
D03*
X403000Y238047D02*
D03*
Y243953D02*
D03*
X410000Y274406D02*
D03*
Y268500D02*
D03*
X401000Y274453D02*
D03*
Y268547D02*
D03*
X426000Y278405D02*
D03*
Y272500D02*
D03*
D21*
X475000Y398795D02*
D03*
Y373205D02*
D03*
X463189Y398795D02*
D03*
Y373205D02*
D03*
X451703Y398795D02*
D03*
Y373205D02*
D03*
X439892Y398795D02*
D03*
Y373205D02*
D03*
X416595D02*
D03*
Y398795D02*
D03*
X428406Y373205D02*
D03*
Y398795D02*
D03*
X405108D02*
D03*
Y373205D02*
D03*
X393297Y398795D02*
D03*
Y373205D02*
D03*
X370000D02*
D03*
Y398795D02*
D03*
X381811Y373205D02*
D03*
Y398795D02*
D03*
D22*
X364047Y363500D02*
D03*
X369953D02*
D03*
X388547Y354500D02*
D03*
X394453D02*
D03*
X410000D02*
D03*
X415906D02*
D03*
X434047D02*
D03*
X439953D02*
D03*
X457547D02*
D03*
X463453D02*
D03*
X345563Y316142D02*
D03*
X351468D02*
D03*
X326453Y387000D02*
D03*
X320547D02*
D03*
X322000Y224000D02*
D03*
X316094D02*
D03*
X368953Y275000D02*
D03*
X363047D02*
D03*
X449453Y267500D02*
D03*
X443547D02*
D03*
X463500Y363500D02*
D03*
X469406D02*
D03*
X440000D02*
D03*
X445905D02*
D03*
X416500D02*
D03*
X422405D02*
D03*
X394500D02*
D03*
X400406D02*
D03*
X328063Y337642D02*
D03*
X333968D02*
D03*
X328063Y327642D02*
D03*
X333968D02*
D03*
X379274Y363500D02*
D03*
X385179D02*
D03*
X336024Y245488D02*
D03*
X341929D02*
D03*
X443547Y281000D02*
D03*
X449453D02*
D03*
D23*
X369130Y332087D02*
D03*
X371098D02*
D03*
X373067D02*
D03*
X375035D02*
D03*
X377004D02*
D03*
X378972D02*
D03*
X380941D02*
D03*
X382909D02*
D03*
X384878D02*
D03*
X386846D02*
D03*
X388815D02*
D03*
X390783D02*
D03*
X392752D02*
D03*
X394720D02*
D03*
X396689D02*
D03*
X398657D02*
D03*
Y286811D02*
D03*
X396689D02*
D03*
X394720D02*
D03*
X392752D02*
D03*
X390783D02*
D03*
X388815D02*
D03*
X386846D02*
D03*
X384878D02*
D03*
X382909D02*
D03*
X380941D02*
D03*
X378972D02*
D03*
X377004D02*
D03*
X375035D02*
D03*
X373067D02*
D03*
X371098D02*
D03*
X369130D02*
D03*
D24*
X406531Y324213D02*
D03*
Y322244D02*
D03*
Y320276D02*
D03*
Y318307D02*
D03*
Y316339D02*
D03*
Y314370D02*
D03*
Y312402D02*
D03*
Y310433D02*
D03*
Y308465D02*
D03*
Y306496D02*
D03*
Y304528D02*
D03*
Y302559D02*
D03*
Y300590D02*
D03*
Y298622D02*
D03*
Y296654D02*
D03*
Y294685D02*
D03*
X361256D02*
D03*
Y296654D02*
D03*
Y298622D02*
D03*
Y300590D02*
D03*
Y302559D02*
D03*
Y304528D02*
D03*
Y306496D02*
D03*
Y308465D02*
D03*
Y310433D02*
D03*
Y312402D02*
D03*
Y314370D02*
D03*
Y316339D02*
D03*
Y318307D02*
D03*
Y320276D02*
D03*
Y322244D02*
D03*
Y324213D02*
D03*
D25*
X345969Y327642D02*
D03*
Y337484D02*
D03*
D26*
X306598Y230882D02*
D03*
Y233441D02*
D03*
Y236000D02*
D03*
Y238559D02*
D03*
Y241118D02*
D03*
D27*
X343583Y237000D02*
D03*
Y232000D02*
D03*
Y227000D02*
D03*
Y222000D02*
D03*
X366417Y237000D02*
D03*
Y232000D02*
D03*
Y227000D02*
D03*
Y222000D02*
D03*
D28*
X322260Y232776D02*
D03*
X326000D02*
D03*
X329740D02*
D03*
Y242224D02*
D03*
X326000D02*
D03*
X322260D02*
D03*
D29*
X436520Y227240D02*
D03*
X444000Y230980D02*
D03*
Y223500D02*
D03*
D30*
X379000Y249047D02*
D03*
Y254953D02*
D03*
D31*
X449413Y257968D02*
D03*
Y256000D02*
D03*
Y254031D02*
D03*
X443587D02*
D03*
Y256000D02*
D03*
Y257968D02*
D03*
D32*
X462500Y252331D02*
D03*
Y243669D02*
D03*
D33*
X418000Y254051D02*
D03*
X421740D02*
D03*
X425480D02*
D03*
Y263500D02*
D03*
X418000D02*
D03*
D34*
X358685Y258760D02*
D03*
Y262500D02*
D03*
Y266240D02*
D03*
X369315D02*
D03*
Y262500D02*
D03*
Y258760D02*
D03*
D35*
X389500Y261169D02*
D03*
Y269831D02*
D03*
M02*
