G04*
G04 #@! TF.GenerationSoftware,Altium Limited,Altium Designer,22.8.2 (66)*
G04*
G04 Layer_Physical_Order=2*
G04 Layer_Color=36540*
%FSLAX25Y25*%
%MOIN*%
G70*
G04*
G04 #@! TF.SameCoordinates,4F58F9C0-C404-4AA8-A12D-09E9B3034F0A*
G04*
G04*
G04 #@! TF.FilePolarity,Positive*
G04*
G01*
G75*
%ADD60C,0.05906*%
%ADD61R,0.05906X0.05906*%
%ADD62C,0.03937*%
%ADD67C,0.01772*%
%ADD68C,0.02756*%
G36*
X477852Y405911D02*
X477852Y405911D01*
X477852D01*
X478312Y405877D01*
X478707Y405799D01*
X479240Y405578D01*
X479720Y405257D01*
X479924Y405053D01*
X480110Y404866D01*
X480404Y404427D01*
X480606Y403940D01*
X480709Y403422D01*
X480709Y403158D01*
X480709Y216758D01*
X480715Y216386D01*
X480715Y216386D01*
X480715Y216002D01*
X480565Y215250D01*
X480272Y214542D01*
X479846Y213905D01*
X479329Y213388D01*
X478750Y213001D01*
X478107Y212734D01*
X477424Y212598D01*
X477076Y212598D01*
X291431D01*
X290652Y212753D01*
X289918Y213057D01*
X289257Y213499D01*
X288976Y213779D01*
X288400Y214356D01*
X288400Y214356D01*
Y214356D01*
X288052Y214712D01*
X287549Y215465D01*
X287191Y216330D01*
X287008Y217249D01*
X287008Y217717D01*
Y400452D01*
X287008Y400922D01*
X287008Y400922D01*
X287008Y400922D01*
X287008Y401452D01*
X287214Y402491D01*
X287620Y403469D01*
X288208Y404350D01*
X288583Y404724D01*
X288863Y405005D01*
X289524Y405447D01*
X290258Y405751D01*
X291037Y405905D01*
X291434Y405905D01*
X476437Y405905D01*
X477852Y405911D01*
X477852Y405911D01*
D02*
G37*
%LPC*%
G36*
X351391Y400468D02*
X350609D01*
X349854Y400266D01*
X349177Y399875D01*
X348833Y399531D01*
X348500Y399379D01*
X348167Y399531D01*
X347823Y399875D01*
X347146Y400266D01*
X346391Y400468D01*
X345609D01*
X344854Y400266D01*
X344177Y399875D01*
X343833Y399531D01*
X343500Y399379D01*
X343167Y399531D01*
X342823Y399875D01*
X342146Y400266D01*
X341391Y400468D01*
X340609D01*
X339854Y400266D01*
X339177Y399875D01*
X338833Y399531D01*
X338500Y399379D01*
X338167Y399531D01*
X337823Y399875D01*
X337146Y400266D01*
X336391Y400468D01*
X335609D01*
X334854Y400266D01*
X334177Y399875D01*
X333833Y399531D01*
X333500Y399379D01*
X333167Y399531D01*
X332823Y399875D01*
X332146Y400266D01*
X331391Y400468D01*
X330609D01*
X329854Y400266D01*
X329177Y399875D01*
X328833Y399531D01*
X328500Y399379D01*
X328167Y399531D01*
X327823Y399875D01*
X327146Y400266D01*
X326391Y400468D01*
X325609D01*
X324854Y400266D01*
X324177Y399875D01*
X323625Y399323D01*
X323234Y398646D01*
X323031Y397891D01*
Y397109D01*
X323234Y396354D01*
X323625Y395677D01*
X324177Y395125D01*
X324854Y394734D01*
X325609Y394531D01*
X326391D01*
X327146Y394734D01*
X327823Y395125D01*
X328167Y395469D01*
X328500Y395621D01*
X328833Y395469D01*
X329177Y395125D01*
X329854Y394734D01*
X330609Y394531D01*
X331391D01*
X332146Y394734D01*
X332823Y395125D01*
X333167Y395469D01*
X333500Y395621D01*
X333833Y395469D01*
X334177Y395125D01*
X334854Y394734D01*
X335609Y394531D01*
X336391D01*
X337146Y394734D01*
X337823Y395125D01*
X338167Y395469D01*
X338500Y395621D01*
X338833Y395469D01*
X339177Y395125D01*
X339854Y394734D01*
X340609Y394531D01*
X341391D01*
X342146Y394734D01*
X342823Y395125D01*
X343167Y395469D01*
X343500Y395621D01*
X343833Y395469D01*
X344177Y395125D01*
X344854Y394734D01*
X345609Y394531D01*
X346391D01*
X347146Y394734D01*
X347823Y395125D01*
X348167Y395469D01*
X348500Y395621D01*
X348833Y395469D01*
X349177Y395125D01*
X349854Y394734D01*
X350609Y394531D01*
X351391D01*
X352146Y394734D01*
X352823Y395125D01*
X353375Y395677D01*
X353766Y396354D01*
X353969Y397109D01*
Y397891D01*
X353766Y398646D01*
X353375Y399323D01*
X352823Y399875D01*
X352146Y400266D01*
X351391Y400468D01*
D02*
G37*
G36*
X318969D02*
X313032D01*
Y394531D01*
X318969D01*
Y400468D01*
D02*
G37*
G36*
X295020Y401453D02*
X293980D01*
X292974Y401183D01*
X292073Y400663D01*
X291337Y399927D01*
X290817Y399026D01*
X290547Y398020D01*
Y396980D01*
X290817Y395974D01*
X291337Y395073D01*
X292073Y394337D01*
X292974Y393817D01*
X293980Y393547D01*
X295020D01*
X296026Y393817D01*
X296927Y394337D01*
X297663Y395073D01*
X298183Y395974D01*
X298453Y396980D01*
Y398020D01*
X298183Y399026D01*
X297663Y399927D01*
X296927Y400663D01*
X296026Y401183D01*
X295020Y401453D01*
D02*
G37*
G36*
X317402Y389386D02*
X316456D01*
X315582Y389024D01*
X314913Y388355D01*
X314551Y387481D01*
Y386535D01*
X314913Y385661D01*
X315582Y384992D01*
X316456Y384630D01*
X317402D01*
X318276Y384992D01*
X318945Y385661D01*
X319307Y386535D01*
Y387481D01*
X318945Y388355D01*
X318276Y389024D01*
X317402Y389386D01*
D02*
G37*
G36*
X295020Y391453D02*
X293980D01*
X292974Y391183D01*
X292073Y390663D01*
X291337Y389927D01*
X290817Y389026D01*
X290547Y388020D01*
Y386980D01*
X290817Y385974D01*
X291337Y385073D01*
X292073Y384337D01*
X292974Y383817D01*
X293980Y383547D01*
X295020D01*
X296026Y383817D01*
X296927Y384337D01*
X297663Y385073D01*
X298183Y385974D01*
X298453Y386980D01*
Y388020D01*
X298183Y389026D01*
X297663Y389927D01*
X296927Y390663D01*
X296026Y391183D01*
X295020Y391453D01*
D02*
G37*
G36*
Y381453D02*
X293980D01*
X292974Y381183D01*
X292073Y380663D01*
X291337Y379927D01*
X290817Y379026D01*
X290547Y378020D01*
Y376980D01*
X290817Y375974D01*
X291337Y375073D01*
X292073Y374337D01*
X292974Y373817D01*
X293980Y373547D01*
X295020D01*
X296026Y373817D01*
X296927Y374337D01*
X297663Y375073D01*
X298183Y375974D01*
X298453Y376980D01*
Y378020D01*
X298183Y379026D01*
X297663Y379927D01*
X296927Y380663D01*
X296026Y381183D01*
X295020Y381453D01*
D02*
G37*
G36*
X360983Y365893D02*
X360037D01*
X359163Y365530D01*
X358494Y364861D01*
X358132Y363987D01*
Y363041D01*
X358494Y362168D01*
X359163Y361499D01*
X360037Y361137D01*
X360983D01*
X361857Y361499D01*
X362526Y362168D01*
X362888Y363041D01*
Y363987D01*
X362526Y364861D01*
X361857Y365530D01*
X360983Y365893D01*
D02*
G37*
G36*
X410596Y361217D02*
X409650D01*
X408776Y360855D01*
X408108Y360186D01*
X407745Y359312D01*
Y358366D01*
X408108Y357492D01*
X408776Y356823D01*
X409650Y356461D01*
X410596D01*
X411470Y356823D01*
X412139Y357492D01*
X412501Y358366D01*
Y359312D01*
X412139Y360186D01*
X411470Y360855D01*
X410596Y361217D01*
D02*
G37*
G36*
X385906Y360386D02*
X384960D01*
X384086Y360024D01*
X383417Y359355D01*
X383055Y358481D01*
Y357535D01*
X383417Y356661D01*
X384086Y355992D01*
X384960Y355630D01*
X385906D01*
X386780Y355992D01*
X387449Y356661D01*
X387811Y357535D01*
Y358481D01*
X387449Y359355D01*
X386780Y360024D01*
X385906Y360386D01*
D02*
G37*
G36*
X430880Y357119D02*
X429934D01*
X429060Y356756D01*
X428391Y356088D01*
X428029Y355214D01*
Y354268D01*
X428391Y353394D01*
X429060Y352725D01*
X429934Y352363D01*
X430880D01*
X431754Y352725D01*
X432423Y353394D01*
X432785Y354268D01*
Y355214D01*
X432423Y356088D01*
X431754Y356756D01*
X430880Y357119D01*
D02*
G37*
G36*
X454425Y356878D02*
X453479D01*
X452605Y356516D01*
X451936Y355847D01*
X451574Y354973D01*
Y354027D01*
X451936Y353153D01*
X452605Y352484D01*
X453479Y352122D01*
X454425D01*
X455299Y352484D01*
X455968Y353153D01*
X456330Y354027D01*
Y354973D01*
X455968Y355847D01*
X455299Y356516D01*
X454425Y356878D01*
D02*
G37*
G36*
X298453Y355953D02*
X290547D01*
Y348047D01*
X298453D01*
Y355953D01*
D02*
G37*
G36*
X380413Y355386D02*
X379663D01*
X378970Y355099D01*
X378439Y354568D01*
X378152Y353875D01*
Y353125D01*
X378439Y352432D01*
X378970Y351901D01*
X379516Y351675D01*
X379561Y351152D01*
X379432Y351099D01*
X378901Y350568D01*
X378614Y349875D01*
Y349125D01*
X378901Y348432D01*
X379432Y347901D01*
X380125Y347614D01*
X380875D01*
X381568Y347901D01*
X382099Y348432D01*
X382386Y349125D01*
Y349875D01*
X382099Y350568D01*
X381568Y351099D01*
X381022Y351325D01*
X380977Y351848D01*
X381106Y351901D01*
X381637Y352432D01*
X381924Y353125D01*
Y353875D01*
X381637Y354568D01*
X381106Y355099D01*
X380413Y355386D01*
D02*
G37*
G36*
X382859Y345789D02*
X382109D01*
X381416Y345502D01*
X380886Y344971D01*
X380598Y344278D01*
Y343528D01*
X380886Y342835D01*
X381416Y342304D01*
X382109Y342017D01*
X382859D01*
X383553Y342304D01*
X384083Y342835D01*
X384370Y343528D01*
Y344278D01*
X384083Y344971D01*
X383553Y345502D01*
X382859Y345789D01*
D02*
G37*
G36*
X362375Y345386D02*
X361625D01*
X360932Y345099D01*
X360401Y344568D01*
X360114Y343875D01*
Y343125D01*
X360401Y342432D01*
X360932Y341901D01*
X361625Y341614D01*
X362375D01*
X363068Y341901D01*
X363599Y342432D01*
X363886Y343125D01*
Y343875D01*
X363599Y344568D01*
X363068Y345099D01*
X362375Y345386D01*
D02*
G37*
G36*
X454375Y341886D02*
X453625D01*
X452932Y341599D01*
X452401Y341068D01*
X452114Y340375D01*
Y339625D01*
X452401Y338932D01*
X452932Y338401D01*
X453625Y338114D01*
X454375D01*
X455068Y338401D01*
X455599Y338932D01*
X455886Y339625D01*
Y340375D01*
X455599Y341068D01*
X455068Y341599D01*
X454375Y341886D01*
D02*
G37*
G36*
X473520Y345953D02*
X472480D01*
X471474Y345683D01*
X470573Y345163D01*
X469837Y344427D01*
X469317Y343526D01*
X469047Y342520D01*
Y341480D01*
X469317Y340474D01*
X469837Y339573D01*
X470573Y338837D01*
X471474Y338317D01*
X472480Y338047D01*
X473520D01*
X474526Y338317D01*
X475427Y338837D01*
X476163Y339573D01*
X476683Y340474D01*
X476953Y341480D01*
Y342520D01*
X476683Y343526D01*
X476163Y344427D01*
X475427Y345163D01*
X474526Y345683D01*
X473520Y345953D01*
D02*
G37*
G36*
X295020D02*
X293980D01*
X292974Y345683D01*
X292073Y345163D01*
X291337Y344427D01*
X290817Y343526D01*
X290547Y342520D01*
Y341480D01*
X290817Y340474D01*
X291337Y339573D01*
X292073Y338837D01*
X292974Y338317D01*
X293980Y338047D01*
X295020D01*
X296026Y338317D01*
X296927Y338837D01*
X297663Y339573D01*
X298183Y340474D01*
X298453Y341480D01*
Y342520D01*
X298183Y343526D01*
X297663Y344427D01*
X296927Y345163D01*
X296026Y345683D01*
X295020Y345953D01*
D02*
G37*
G36*
X473520Y335953D02*
X472480D01*
X471474Y335683D01*
X470573Y335163D01*
X469837Y334427D01*
X469317Y333526D01*
X469047Y332520D01*
Y331480D01*
X469317Y330474D01*
X469837Y329573D01*
X470573Y328837D01*
X471474Y328317D01*
X472480Y328047D01*
X473520D01*
X474526Y328317D01*
X475427Y328837D01*
X476163Y329573D01*
X476683Y330474D01*
X476953Y331480D01*
Y332520D01*
X476683Y333526D01*
X476163Y334427D01*
X475427Y335163D01*
X474526Y335683D01*
X473520Y335953D01*
D02*
G37*
G36*
X411875Y331386D02*
X411125D01*
X410432Y331099D01*
X409901Y330568D01*
X409614Y329875D01*
Y329125D01*
X409901Y328432D01*
X410432Y327901D01*
X411125Y327614D01*
X411875D01*
X412568Y327901D01*
X413099Y328432D01*
X413386Y329125D01*
Y329875D01*
X413099Y330568D01*
X412568Y331099D01*
X411875Y331386D01*
D02*
G37*
G36*
X421875Y326386D02*
X421125D01*
X420432Y326099D01*
X419901Y325568D01*
X419614Y324875D01*
Y324125D01*
X419901Y323432D01*
X420432Y322901D01*
X421125Y322614D01*
X421875D01*
X422568Y322901D01*
X423099Y323432D01*
X423386Y324125D01*
Y324875D01*
X423099Y325568D01*
X422568Y326099D01*
X421875Y326386D01*
D02*
G37*
G36*
X473520Y325953D02*
X472480D01*
X471474Y325683D01*
X470573Y325163D01*
X469837Y324427D01*
X469317Y323526D01*
X469047Y322520D01*
Y321480D01*
X469317Y320474D01*
X469837Y319573D01*
X470573Y318837D01*
X471474Y318317D01*
X472480Y318047D01*
X473520D01*
X474526Y318317D01*
X475427Y318837D01*
X476163Y319573D01*
X476683Y320474D01*
X476953Y321480D01*
Y322520D01*
X476683Y323526D01*
X476163Y324427D01*
X475427Y325163D01*
X474526Y325683D01*
X473520Y325953D01*
D02*
G37*
G36*
X295020D02*
X293980D01*
X292974Y325683D01*
X292073Y325163D01*
X291337Y324427D01*
X290817Y323526D01*
X290547Y322520D01*
Y321480D01*
X290817Y320474D01*
X291337Y319573D01*
X292073Y318837D01*
X292974Y318317D01*
X293980Y318047D01*
X295020D01*
X296026Y318317D01*
X296927Y318837D01*
X297663Y319573D01*
X298183Y320474D01*
X298453Y321480D01*
Y322520D01*
X298183Y323526D01*
X297663Y324427D01*
X296927Y325163D01*
X296026Y325683D01*
X295020Y325953D01*
D02*
G37*
G36*
X422875Y317886D02*
X422125D01*
X421432Y317599D01*
X420901Y317068D01*
X420614Y316375D01*
Y315625D01*
X420901Y314932D01*
X421432Y314401D01*
X422125Y314114D01*
X422875D01*
X423568Y314401D01*
X424099Y314932D01*
X424386Y315625D01*
Y316375D01*
X424099Y317068D01*
X423568Y317599D01*
X422875Y317886D01*
D02*
G37*
G36*
X431182Y314189D02*
X430236D01*
X429362Y313827D01*
X428693Y313158D01*
X428331Y312284D01*
Y311338D01*
X428693Y310464D01*
X429362Y309795D01*
X430236Y309433D01*
X431182D01*
X432056Y309795D01*
X432725Y310464D01*
X433087Y311338D01*
Y312284D01*
X432725Y313158D01*
X432056Y313827D01*
X431182Y314189D01*
D02*
G37*
G36*
X367875Y311886D02*
X367125D01*
X366432Y311599D01*
X365901Y311068D01*
X365614Y310375D01*
Y309625D01*
X365901Y308932D01*
X366432Y308401D01*
X367125Y308114D01*
X367875D01*
X368568Y308401D01*
X369099Y308932D01*
X369386Y309625D01*
Y310375D01*
X369099Y311068D01*
X368568Y311599D01*
X367875Y311886D01*
D02*
G37*
G36*
X347072Y309925D02*
X346126D01*
X345252Y309563D01*
X344583Y308894D01*
X344221Y308020D01*
Y307074D01*
X344583Y306200D01*
X345252Y305531D01*
X346126Y305169D01*
X347072D01*
X347946Y305531D01*
X348615Y306200D01*
X348977Y307074D01*
Y308020D01*
X348615Y308894D01*
X347946Y309563D01*
X347072Y309925D01*
D02*
G37*
G36*
X338132D02*
X337186D01*
X336312Y309563D01*
X335643Y308894D01*
X335281Y308020D01*
Y307074D01*
X335643Y306200D01*
X336312Y305531D01*
X337186Y305169D01*
X338132D01*
X339006Y305531D01*
X339675Y306200D01*
X340037Y307074D01*
Y308020D01*
X339675Y308894D01*
X339006Y309563D01*
X338132Y309925D01*
D02*
G37*
G36*
X329193D02*
X328247D01*
X327373Y309563D01*
X326704Y308894D01*
X326342Y308020D01*
Y307074D01*
X326704Y306200D01*
X327373Y305531D01*
X328247Y305169D01*
X329193D01*
X330067Y305531D01*
X330735Y306200D01*
X331098Y307074D01*
Y308020D01*
X330735Y308894D01*
X330067Y309563D01*
X329193Y309925D01*
D02*
G37*
G36*
X427375Y306386D02*
X426625D01*
X425932Y306099D01*
X425401Y305568D01*
X425114Y304875D01*
Y304125D01*
X425401Y303432D01*
X425932Y302901D01*
X426625Y302614D01*
X427375D01*
X428068Y302901D01*
X428599Y303432D01*
X428886Y304125D01*
Y304875D01*
X428599Y305568D01*
X428068Y306099D01*
X427375Y306386D01*
D02*
G37*
G36*
X473520Y309953D02*
X472480D01*
X471474Y309683D01*
X470573Y309163D01*
X469837Y308427D01*
X469317Y307526D01*
X469047Y306520D01*
Y305480D01*
X469317Y304474D01*
X469837Y303573D01*
X470573Y302837D01*
X471474Y302317D01*
X472480Y302047D01*
X473520D01*
X474526Y302317D01*
X475427Y302837D01*
X476163Y303573D01*
X476683Y304474D01*
X476953Y305480D01*
Y306520D01*
X476683Y307526D01*
X476163Y308427D01*
X475427Y309163D01*
X474526Y309683D01*
X473520Y309953D01*
D02*
G37*
G36*
X417796Y303165D02*
X416850D01*
X415976Y302803D01*
X415307Y302134D01*
X414945Y301260D01*
Y300314D01*
X415307Y299440D01*
X415976Y298772D01*
X416850Y298410D01*
X417796D01*
X418670Y298772D01*
X419339Y299440D01*
X419701Y300314D01*
Y301260D01*
X419339Y302134D01*
X418670Y302803D01*
X417796Y303165D01*
D02*
G37*
G36*
X460375Y298386D02*
X459625D01*
X458932Y298099D01*
X458401Y297568D01*
X458114Y296875D01*
Y296125D01*
X458401Y295432D01*
X458932Y294901D01*
X459625Y294614D01*
X460375D01*
X461068Y294901D01*
X461599Y295432D01*
X461886Y296125D01*
Y296875D01*
X461599Y297568D01*
X461068Y298099D01*
X460375Y298386D01*
D02*
G37*
G36*
X427375D02*
X426625D01*
X425932Y298099D01*
X425401Y297568D01*
X425114Y296875D01*
Y296125D01*
X425401Y295432D01*
X425932Y294901D01*
X426625Y294614D01*
X427375D01*
X428068Y294901D01*
X428599Y295432D01*
X428886Y296125D01*
Y296875D01*
X428599Y297568D01*
X428068Y298099D01*
X427375Y298386D01*
D02*
G37*
G36*
X396044Y293386D02*
X395294D01*
X394601Y293099D01*
X394071Y292568D01*
X393971Y292329D01*
X393430D01*
X393331Y292568D01*
X392800Y293099D01*
X392107Y293386D01*
X391357D01*
X390664Y293099D01*
X390134Y292568D01*
X389846Y291875D01*
Y291125D01*
X390134Y290432D01*
X390664Y289901D01*
X391357Y289614D01*
X392107D01*
X392800Y289901D01*
X393331Y290432D01*
X393430Y290671D01*
X393971D01*
X394071Y290432D01*
X394601Y289901D01*
X395294Y289614D01*
X396044D01*
X396738Y289901D01*
X397268Y290432D01*
X397555Y291125D01*
Y291875D01*
X397268Y292568D01*
X396738Y293099D01*
X396044Y293386D01*
D02*
G37*
G36*
X376375D02*
X375625D01*
X374932Y293099D01*
X374401Y292568D01*
X374271Y292253D01*
X373729D01*
X373599Y292568D01*
X373068Y293099D01*
X372375Y293386D01*
X371625D01*
X370932Y293099D01*
X370401Y292568D01*
X370114Y291875D01*
Y291125D01*
X370401Y290432D01*
X370932Y289901D01*
X371625Y289614D01*
X372375D01*
X373068Y289901D01*
X373599Y290432D01*
X373729Y290747D01*
X374271D01*
X374401Y290432D01*
X374932Y289901D01*
X375625Y289614D01*
X376375D01*
X377068Y289901D01*
X377599Y290432D01*
X377886Y291125D01*
Y291875D01*
X377599Y292568D01*
X377068Y293099D01*
X376375Y293386D01*
D02*
G37*
G36*
X473520Y299953D02*
X472480D01*
X471474Y299683D01*
X470573Y299163D01*
X469837Y298427D01*
X469317Y297526D01*
X469047Y296520D01*
Y295480D01*
X469317Y294474D01*
X469837Y293573D01*
X470573Y292837D01*
X471474Y292317D01*
X472480Y292047D01*
X473520D01*
X474526Y292317D01*
X475427Y292837D01*
X476163Y293573D01*
X476683Y294474D01*
X476953Y295480D01*
Y296520D01*
X476683Y297526D01*
X476163Y298427D01*
X475427Y299163D01*
X474526Y299683D01*
X473520Y299953D01*
D02*
G37*
G36*
X295020D02*
X293980D01*
X292974Y299683D01*
X292073Y299163D01*
X291337Y298427D01*
X290817Y297526D01*
X290547Y296520D01*
Y295480D01*
X290817Y294474D01*
X291337Y293573D01*
X292073Y292837D01*
X292974Y292317D01*
X293980Y292047D01*
X295020D01*
X296026Y292317D01*
X296927Y292837D01*
X297663Y293573D01*
X298183Y294474D01*
X298453Y295480D01*
Y296520D01*
X298183Y297526D01*
X297663Y298427D01*
X296927Y299163D01*
X296026Y299683D01*
X295020Y299953D01*
D02*
G37*
G36*
X417729Y289059D02*
X416783D01*
X415909Y288697D01*
X415240Y288028D01*
X414878Y287154D01*
Y286208D01*
X415240Y285334D01*
X415909Y284665D01*
X416783Y284303D01*
X417729D01*
X418603Y284665D01*
X419272Y285334D01*
X419634Y286208D01*
Y287154D01*
X419272Y288028D01*
X418603Y288697D01*
X417729Y289059D01*
D02*
G37*
G36*
X473520Y289953D02*
X472480D01*
X471474Y289683D01*
X470573Y289163D01*
X469837Y288427D01*
X469317Y287526D01*
X469047Y286520D01*
Y285480D01*
X469317Y284474D01*
X469837Y283573D01*
X470573Y282837D01*
X471474Y282317D01*
X472480Y282047D01*
X473520D01*
X474526Y282317D01*
X475427Y282837D01*
X476163Y283573D01*
X476683Y284474D01*
X476953Y285480D01*
Y286520D01*
X476683Y287526D01*
X476163Y288427D01*
X475427Y289163D01*
X474526Y289683D01*
X473520Y289953D01*
D02*
G37*
G36*
X295020D02*
X293980D01*
X292974Y289683D01*
X292073Y289163D01*
X291337Y288427D01*
X290817Y287526D01*
X290547Y286520D01*
Y285480D01*
X290817Y284474D01*
X291337Y283573D01*
X292073Y282837D01*
X292974Y282317D01*
X293980Y282047D01*
X295020D01*
X296026Y282317D01*
X296927Y282837D01*
X297663Y283573D01*
X298183Y284474D01*
X298453Y285480D01*
Y286520D01*
X298183Y287526D01*
X297663Y288427D01*
X296927Y289163D01*
X296026Y289683D01*
X295020Y289953D01*
D02*
G37*
G36*
Y279953D02*
X293980D01*
X292974Y279683D01*
X292073Y279163D01*
X291337Y278427D01*
X290817Y277526D01*
X290547Y276520D01*
Y275480D01*
X290817Y274474D01*
X291337Y273573D01*
X292073Y272837D01*
X292974Y272317D01*
X293980Y272047D01*
X295020D01*
X296026Y272317D01*
X296927Y272837D01*
X297663Y273573D01*
X298183Y274474D01*
X298453Y275480D01*
Y276520D01*
X298183Y277526D01*
X297663Y278427D01*
X296927Y279163D01*
X296026Y279683D01*
X295020Y279953D01*
D02*
G37*
G36*
X416973Y271378D02*
X416027D01*
X415153Y271016D01*
X414484Y270347D01*
X414122Y269473D01*
Y268527D01*
X414277Y268154D01*
X414192Y268028D01*
X413499Y267741D01*
X412968Y267210D01*
X412783Y266762D01*
X412580Y266846D01*
X411830D01*
X411136Y266559D01*
X410606Y266029D01*
X410507Y265789D01*
X409966D01*
X409866Y266029D01*
X409336Y266559D01*
X408643Y266846D01*
X407893D01*
X407199Y266559D01*
X406669Y266029D01*
X406382Y265336D01*
Y264585D01*
X406669Y263892D01*
X407054Y263508D01*
X406847Y263008D01*
X406220D01*
X405346Y262646D01*
X404677Y261977D01*
X404315Y261103D01*
Y260157D01*
X404677Y259283D01*
X405346Y258614D01*
X406220Y258252D01*
X407166D01*
X408040Y258614D01*
X408709Y259283D01*
X409071Y260157D01*
Y261103D01*
X408709Y261977D01*
X408111Y262575D01*
X408179Y262911D01*
X408264Y263075D01*
X408643D01*
X409336Y263362D01*
X409866Y263892D01*
X409966Y264132D01*
X410507D01*
X410606Y263892D01*
X411136Y263362D01*
X411830Y263075D01*
X412580D01*
X412697Y263123D01*
X412929Y262563D01*
X412987Y262505D01*
X412968Y262486D01*
X412681Y261792D01*
Y261042D01*
X412968Y260349D01*
X413499Y259819D01*
X414192Y259531D01*
X414942D01*
X415635Y259819D01*
X416166Y260349D01*
X416453Y261042D01*
Y261792D01*
X416166Y262486D01*
X416107Y262544D01*
X416126Y262563D01*
X416413Y263256D01*
Y264006D01*
X416126Y264699D01*
X415959Y264867D01*
X416166Y265073D01*
X416453Y265767D01*
Y266517D01*
X416523Y266622D01*
X416973D01*
X417847Y266984D01*
X418516Y267653D01*
X418878Y268527D01*
Y269473D01*
X418516Y270347D01*
X417847Y271016D01*
X416973Y271378D01*
D02*
G37*
G36*
X405887Y270390D02*
X405137D01*
X404444Y270103D01*
X403913Y269572D01*
X403626Y268879D01*
Y268129D01*
X403913Y267436D01*
X404261Y267088D01*
X404270Y267079D01*
X403987Y266655D01*
X403975Y266660D01*
X403525Y266846D01*
X402774D01*
X402081Y266559D01*
X401551Y266029D01*
X401264Y265336D01*
Y264585D01*
X401551Y263892D01*
X402081Y263362D01*
X402774Y263075D01*
X403525D01*
X404218Y263362D01*
X404748Y263892D01*
X405035Y264585D01*
Y265336D01*
X404748Y266029D01*
X404401Y266376D01*
X404392Y266386D01*
X404675Y266809D01*
X404686Y266805D01*
X405137Y266618D01*
X405887D01*
X406580Y266905D01*
X407111Y267436D01*
X407398Y268129D01*
Y268879D01*
X407111Y269572D01*
X406580Y270103D01*
X405887Y270390D01*
D02*
G37*
G36*
X332756Y266945D02*
X331810D01*
X330937Y266583D01*
X330268Y265914D01*
X329906Y265040D01*
Y264094D01*
X330268Y263220D01*
X330937Y262551D01*
X331810Y262189D01*
X332756D01*
X333630Y262551D01*
X334299Y263220D01*
X334661Y264094D01*
Y265040D01*
X334299Y265914D01*
X333630Y266583D01*
X332756Y266945D01*
D02*
G37*
G36*
X399194Y266846D02*
X398444D01*
X397751Y266559D01*
X397220Y266029D01*
X396933Y265336D01*
Y264585D01*
X397220Y263892D01*
X397751Y263362D01*
X398216Y263169D01*
X398259Y262646D01*
X397590Y261977D01*
X397228Y261103D01*
Y260157D01*
X397590Y259283D01*
X398259Y258614D01*
X399133Y258252D01*
X400079D01*
X400953Y258614D01*
X401622Y259283D01*
X401984Y260157D01*
Y261103D01*
X401622Y261977D01*
X400953Y262646D01*
X400159Y262975D01*
X400053Y263296D01*
X400033Y263508D01*
X400418Y263892D01*
X400705Y264585D01*
Y265336D01*
X400418Y266029D01*
X399887Y266559D01*
X399194Y266846D01*
D02*
G37*
G36*
X407166Y257496D02*
X406220D01*
X405346Y257134D01*
X404677Y256465D01*
X404315Y255591D01*
Y254645D01*
X404677Y253771D01*
X405346Y253102D01*
X406220Y252740D01*
X407166D01*
X408040Y253102D01*
X408709Y253771D01*
X409071Y254645D01*
Y255591D01*
X408709Y256465D01*
X408040Y257134D01*
X407166Y257496D01*
D02*
G37*
G36*
X400079D02*
X399133D01*
X398259Y257134D01*
X397590Y256465D01*
X397228Y255591D01*
Y254645D01*
X397590Y253771D01*
X398259Y253102D01*
X399133Y252740D01*
X400079D01*
X400953Y253102D01*
X401622Y253771D01*
X401984Y254645D01*
Y255591D01*
X401622Y256465D01*
X400953Y257134D01*
X400079Y257496D01*
D02*
G37*
G36*
X294624Y255012D02*
X293376D01*
X292170Y254689D01*
X291090Y254065D01*
X290207Y253182D01*
X289583Y252101D01*
X289260Y250896D01*
Y249648D01*
X289583Y248442D01*
X290207Y247361D01*
X291090Y246479D01*
X292170Y245854D01*
X293376Y245532D01*
X294624D01*
X295830Y245854D01*
X296911Y246479D01*
X297793Y247361D01*
X298417Y248442D01*
X298740Y249648D01*
Y250896D01*
X298417Y252101D01*
X297793Y253182D01*
X296911Y254065D01*
X295830Y254689D01*
X294624Y255012D01*
D02*
G37*
G36*
X345749Y243323D02*
X344803D01*
X343929Y242961D01*
X343431Y242463D01*
X343110Y242346D01*
X342789Y242463D01*
X342292Y242961D01*
X341418Y243323D01*
X340472D01*
X339598Y242961D01*
X338929Y242292D01*
X338567Y241418D01*
Y240472D01*
X338929Y239598D01*
X339598Y238929D01*
X340472Y238567D01*
X341418D01*
X342292Y238929D01*
X342789Y239426D01*
X343110Y239543D01*
X343431Y239426D01*
X343929Y238929D01*
X344803Y238567D01*
X345749D01*
X346623Y238929D01*
X347002Y239308D01*
X347357Y238952D01*
X348050Y238665D01*
X348800D01*
X349493Y238952D01*
X350024Y239483D01*
X350311Y240176D01*
Y240926D01*
X350024Y241619D01*
X349493Y242150D01*
X348800Y242437D01*
X348050D01*
X347813Y242339D01*
X347291Y242292D01*
X347058Y242526D01*
X346623Y242961D01*
X345749Y243323D01*
D02*
G37*
G36*
X305020Y249106D02*
X304083D01*
X303177Y248864D01*
X302366Y248395D01*
X301703Y247732D01*
X301235Y246921D01*
X300992Y246016D01*
Y245079D01*
X301235Y244174D01*
X301703Y243362D01*
X302366Y242699D01*
X303177Y242231D01*
X304083Y241988D01*
X305020D01*
X305925Y242231D01*
X306736Y242699D01*
X307399Y243362D01*
X307868Y244174D01*
X308110Y245079D01*
Y246016D01*
X307868Y246921D01*
X307399Y247732D01*
X306736Y248395D01*
X305925Y248864D01*
X305020Y249106D01*
D02*
G37*
G36*
X360375Y240886D02*
X359625D01*
X358932Y240599D01*
X358401Y240068D01*
X358114Y239375D01*
Y238625D01*
X358401Y237932D01*
X358932Y237401D01*
X359625Y237114D01*
X360375D01*
X361068Y237401D01*
X361599Y237932D01*
X361886Y238625D01*
Y239375D01*
X361599Y240068D01*
X361068Y240599D01*
X360375Y240886D01*
D02*
G37*
G36*
X382453Y242953D02*
X374547D01*
Y235047D01*
X382453D01*
Y242953D01*
D02*
G37*
G36*
X421241Y235350D02*
X420491D01*
X419798Y235063D01*
X419267Y234533D01*
X418980Y233840D01*
Y233089D01*
X419267Y232396D01*
X419798Y231866D01*
X420491Y231579D01*
X421241D01*
X421934Y231866D01*
X422465Y232396D01*
X422752Y233089D01*
Y233840D01*
X422465Y234533D01*
X421934Y235063D01*
X421241Y235350D01*
D02*
G37*
G36*
X353375Y228886D02*
X352625D01*
X351932Y228599D01*
X351401Y228068D01*
X351114Y227375D01*
Y226625D01*
X351401Y225932D01*
X351932Y225401D01*
X352625Y225114D01*
X353375D01*
X354068Y225401D01*
X354599Y225932D01*
X354886Y226625D01*
Y227375D01*
X354599Y228068D01*
X354068Y228599D01*
X353375Y228886D01*
D02*
G37*
G36*
X305020Y230012D02*
X304083D01*
X303177Y229769D01*
X302366Y229301D01*
X301703Y228638D01*
X301235Y227826D01*
X300992Y226921D01*
Y225984D01*
X301235Y225079D01*
X301703Y224268D01*
X302366Y223605D01*
X303177Y223136D01*
X304083Y222894D01*
X305020D01*
X305925Y223136D01*
X306736Y223605D01*
X307399Y224268D01*
X307868Y225079D01*
X308110Y225984D01*
Y226921D01*
X307868Y227826D01*
X307399Y228638D01*
X306736Y229301D01*
X305925Y229769D01*
X305020Y230012D01*
D02*
G37*
G36*
X449687Y225386D02*
X448937D01*
X448243Y225099D01*
X447713Y224568D01*
X447426Y223875D01*
Y223125D01*
X447713Y222432D01*
X448243Y221901D01*
X448937Y221614D01*
X449687D01*
X450380Y221901D01*
X450910Y222432D01*
X451197Y223125D01*
Y223875D01*
X450910Y224568D01*
X450380Y225099D01*
X449687Y225386D01*
D02*
G37*
G36*
X349292Y224425D02*
X348346D01*
X347472Y224063D01*
X346803Y223394D01*
X346441Y222520D01*
Y221574D01*
X346803Y220700D01*
X347472Y220031D01*
X348346Y219669D01*
X349292D01*
X350166Y220031D01*
X350835Y220700D01*
X351197Y221574D01*
Y222520D01*
X350835Y223394D01*
X350166Y224063D01*
X349292Y224425D01*
D02*
G37*
G36*
X294624Y226468D02*
X293376D01*
X292170Y226146D01*
X291090Y225521D01*
X290207Y224639D01*
X289583Y223558D01*
X289260Y222352D01*
Y221104D01*
X289583Y219899D01*
X290207Y218818D01*
X291090Y217935D01*
X292170Y217311D01*
X293376Y216988D01*
X294624D01*
X295830Y217311D01*
X296911Y217935D01*
X297793Y218818D01*
X298417Y219899D01*
X298740Y221104D01*
Y222352D01*
X298417Y223558D01*
X297793Y224639D01*
X296911Y225521D01*
X295830Y226146D01*
X294624Y226468D01*
D02*
G37*
%LPD*%
D60*
X294500Y332000D02*
D03*
X388500Y239000D02*
D03*
D61*
X294500Y367500D02*
D03*
Y306000D02*
D03*
X473000Y352000D02*
D03*
Y276000D02*
D03*
D62*
X321000Y397500D02*
D03*
D67*
X412598Y277953D02*
D03*
X405118Y234252D02*
D03*
X401181D02*
D03*
X385433Y272835D02*
D03*
Y266929D02*
D03*
Y269685D02*
D03*
X446063Y234252D02*
D03*
X442913D02*
D03*
X327559Y228740D02*
D03*
X324803D02*
D03*
X350394Y280315D02*
D03*
X378740Y277559D02*
D03*
X381102D02*
D03*
X383071Y275197D02*
D03*
Y272835D02*
D03*
X372835Y278346D02*
D03*
Y275984D02*
D03*
Y273622D02*
D03*
X393701Y272441D02*
D03*
Y269685D02*
D03*
Y266929D02*
D03*
X398425Y277953D02*
D03*
X403543D02*
D03*
X407480D02*
D03*
X427953Y282283D02*
D03*
X424016D02*
D03*
X437008D02*
D03*
X432677D02*
D03*
X439764Y283071D02*
D03*
Y279134D02*
D03*
X449213Y232283D02*
D03*
Y229528D02*
D03*
X438976Y231102D02*
D03*
X448819Y239370D02*
D03*
Y236221D02*
D03*
X440158D02*
D03*
Y239370D02*
D03*
X374410Y231496D02*
D03*
X372047Y229134D02*
D03*
Y231496D02*
D03*
X450518Y250768D02*
D03*
X323622Y219685D02*
D03*
X321260D02*
D03*
X325984Y221260D02*
D03*
Y223622D02*
D03*
Y225984D02*
D03*
X311417Y230315D02*
D03*
X299606Y230709D02*
D03*
X301969D02*
D03*
X421776Y265781D02*
D03*
X421755Y262157D02*
D03*
Y258789D02*
D03*
X365000Y262500D02*
D03*
D68*
X336221Y241339D02*
D03*
X346457Y301575D02*
D03*
X329134D02*
D03*
X338189D02*
D03*
X305118Y333858D02*
D03*
X460630Y225197D02*
D03*
X378346D02*
D03*
X393701D02*
D03*
X409055D02*
D03*
X415354Y332283D02*
D03*
X472953Y363500D02*
D03*
X462205Y319291D02*
D03*
X448547Y366535D02*
D03*
X425047D02*
D03*
X403047D02*
D03*
X387795D02*
D03*
X475000Y386000D02*
D03*
X451703D02*
D03*
X428406D02*
D03*
X405108D02*
D03*
X381811D02*
D03*
X324410Y327559D02*
D03*
Y337795D02*
D03*
X444450Y300787D02*
D03*
X318898Y290945D02*
D03*
X314961Y264567D02*
D03*
X435433Y288583D02*
D03*
X442913D02*
D03*
X425984D02*
D03*
X420866Y273622D02*
D03*
X416535D02*
D03*
X405118Y280709D02*
D03*
X393543D02*
D03*
X381968D02*
D03*
X347244D02*
D03*
X370394D02*
D03*
X358819D02*
D03*
X472441Y225197D02*
D03*
X474803Y255118D02*
D03*
Y248425D02*
D03*
Y240945D02*
D03*
X452362Y234252D02*
D03*
X436221Y234646D02*
D03*
X444095Y216535D02*
D03*
X425591D02*
D03*
X311024Y219685D02*
D03*
X301969D02*
D03*
X429500Y338500D02*
D03*
X439000D02*
D03*
X448000D02*
D03*
X361000Y232000D02*
D03*
X373000Y262500D02*
D03*
X453500Y251000D02*
D03*
X447500D02*
D03*
M02*
