G04*
G04 #@! TF.GenerationSoftware,Altium Limited,Altium Designer,22.8.2 (66)*
G04*
G04 Layer_Physical_Order=1*
G04 Layer_Color=255*
%FSLAX25Y25*%
%MOIN*%
G70*
G04*
G04 #@! TF.SameCoordinates,4F58F9C0-C404-4AA8-A12D-09E9B3034F0A*
G04*
G04*
G04 #@! TF.FilePolarity,Positive*
G04*
G01*
G75*
%ADD10C,0.01000*%
%ADD18R,0.05512X0.04331*%
%ADD19R,0.02000X0.07700*%
%ADD20R,0.03937X0.03150*%
%ADD21R,0.04331X0.05512*%
%ADD22R,0.03150X0.03937*%
%ADD23R,0.01181X0.04724*%
%ADD24R,0.04724X0.01181*%
%ADD25R,0.07087X0.03937*%
%ADD26R,0.04921X0.01575*%
%ADD27O,0.06693X0.02362*%
%ADD28R,0.02756X0.03937*%
%ADD29R,0.05512X0.02362*%
%ADD30R,0.03543X0.03543*%
G04:AMPARAMS|DCode=31|XSize=26.38mil|YSize=11.81mil|CornerRadius=1.95mil|HoleSize=0mil|Usage=FLASHONLY|Rotation=0.000|XOffset=0mil|YOffset=0mil|HoleType=Round|Shape=RoundedRectangle|*
%AMROUNDEDRECTD31*
21,1,0.02638,0.00791,0,0,0.0*
21,1,0.02248,0.01181,0,0,0.0*
1,1,0.00390,0.01124,-0.00396*
1,1,0.00390,-0.01124,-0.00396*
1,1,0.00390,-0.01124,0.00396*
1,1,0.00390,0.01124,0.00396*
%
%ADD31ROUNDEDRECTD31*%
%ADD32R,0.09843X0.04724*%
%ADD33R,0.02756X0.05118*%
%ADD34R,0.03937X0.02362*%
%ADD35R,0.04331X0.06693*%
%ADD56C,0.01968*%
%ADD57C,0.01065*%
%ADD58C,0.01575*%
%ADD59C,0.01181*%
%ADD60C,0.05906*%
%ADD61R,0.05906X0.05906*%
%ADD62C,0.03937*%
%ADD63R,0.03937X0.03937*%
%ADD64C,0.07480*%
%ADD65C,0.05118*%
%ADD66R,0.05906X0.05906*%
%ADD67C,0.01772*%
%ADD68C,0.02756*%
G36*
X424945Y305641D02*
X425155Y305501D01*
X425359Y305386D01*
X425557Y305297D01*
X425748Y305233D01*
X425934Y305195D01*
X426113Y305182D01*
X426286Y305195D01*
X426453Y305233D01*
X426613Y305297D01*
X426210Y304098D01*
X424581Y304687D01*
X424729Y305807D01*
X424945Y305641D01*
D02*
G37*
G36*
X427668Y305103D02*
X427742Y305081D01*
X427848Y305062D01*
X427987Y305046D01*
X428599Y305011D01*
X429503Y305000D01*
Y304000D01*
X429169Y303999D01*
X427668Y303897D01*
X427626Y303873D01*
Y305127D01*
X427668Y305103D01*
D02*
G37*
G36*
X418395Y301653D02*
X416250D01*
X416267Y301695D01*
X416282Y301777D01*
X416295Y301901D01*
X416324Y302513D01*
X416339Y303898D01*
X418307D01*
X418395Y301653D01*
D02*
G37*
G36*
X443408Y299885D02*
X443375Y299907D01*
X443315Y299926D01*
X443228Y299944D01*
X443114Y299959D01*
X442806Y299982D01*
X441868Y300000D01*
Y301575D01*
X442143Y301576D01*
X443315Y301648D01*
X443375Y301668D01*
X443408Y301690D01*
Y299885D01*
D02*
G37*
G36*
X473002Y303047D02*
X472538Y303011D01*
X472047Y302901D01*
X471528Y302720D01*
X470981Y302465D01*
X470407Y302138D01*
X469805Y301738D01*
X469175Y301266D01*
X467833Y300103D01*
X467120Y299413D01*
X466413Y300120D01*
X467103Y300833D01*
X468266Y302175D01*
X468738Y302805D01*
X469138Y303407D01*
X469465Y303981D01*
X469720Y304528D01*
X469901Y305047D01*
X470011Y305538D01*
X470047Y306002D01*
X473002Y303047D01*
D02*
G37*
G36*
X462491Y296354D02*
X460715Y295977D01*
X460519Y297218D01*
X460616Y297163D01*
X460735Y297124D01*
X460874Y297101D01*
X461035Y297094D01*
X461217Y297103D01*
X461419Y297127D01*
X461643Y297167D01*
X462154Y297296D01*
X462441Y297384D01*
X462491Y296354D01*
D02*
G37*
G36*
X427668Y297103D02*
X427742Y297081D01*
X427848Y297062D01*
X427987Y297046D01*
X428599Y297011D01*
X429503Y297000D01*
Y296000D01*
X429169Y295999D01*
X427668Y295897D01*
X427626Y295873D01*
Y297127D01*
X427668Y297103D01*
D02*
G37*
G36*
X426374Y295873D02*
X426332Y295897D01*
X426258Y295919D01*
X426152Y295938D01*
X426013Y295954D01*
X425401Y295989D01*
X424497Y296000D01*
Y297000D01*
X424831Y297001D01*
X426332Y297103D01*
X426374Y297127D01*
Y295873D01*
D02*
G37*
G36*
X476916Y290120D02*
X477619Y289416D01*
X478000Y288497D01*
X478000Y288000D01*
X478000Y286693D01*
X478000Y284414D01*
X478000Y284414D01*
X478000Y284127D01*
X477888Y283564D01*
X477668Y283034D01*
X477349Y282556D01*
X476943Y282150D01*
X476466Y281832D01*
X475936Y281612D01*
X475373Y281500D01*
X475086Y281500D01*
X468207Y281500D01*
X468207Y281500D01*
X468040Y281492D01*
X467711Y281427D01*
X467402Y281298D01*
X467124Y281112D01*
X467000Y281000D01*
X466887Y280876D01*
X466701Y280597D01*
X466573Y280288D01*
X466508Y279960D01*
X466500Y279793D01*
X466500Y259220D01*
X466500Y259220D01*
X466500Y259216D01*
X466500Y259208D01*
X466500Y259200D01*
X466500Y259192D01*
X466499Y259188D01*
X466500Y258832D01*
X466228Y258173D01*
X465725Y257668D01*
X465067Y257395D01*
X464711Y257394D01*
X451902D01*
X451841Y257469D01*
X451083D01*
X451004Y257521D01*
X450537Y257614D01*
X449413D01*
Y257968D01*
X448913D01*
Y259582D01*
X448289D01*
X448000Y259525D01*
X447500Y259829D01*
Y264531D01*
X448953D01*
Y267500D01*
Y270468D01*
X447500D01*
Y278031D01*
X448953D01*
Y281000D01*
Y283968D01*
X447500D01*
Y289000D01*
X447500Y289000D01*
X447571Y289471D01*
X447728Y289850D01*
X448150Y290272D01*
X448702Y290500D01*
X449000Y290500D01*
X461540Y290492D01*
X461540Y290492D01*
X461540Y290492D01*
X461540Y290492D01*
X462003Y290500D01*
X475500Y290500D01*
X475500Y290500D01*
X475500Y290500D01*
X475997Y290500D01*
X476916Y290120D01*
D02*
G37*
G36*
X376033Y290615D02*
X375976Y290606D01*
X375922Y290582D01*
X375870Y290545D01*
X375821Y290494D01*
X375775Y290428D01*
X375731Y290349D01*
X375691Y290256D01*
X375653Y290148D01*
X375618Y290027D01*
X375585Y289891D01*
X374757Y290595D01*
X375122Y291385D01*
X376033Y290615D01*
D02*
G37*
G36*
X418268Y287616D02*
X416243D01*
X416249Y287649D01*
X416254Y287737D01*
X416272Y290401D01*
X418240D01*
X418268Y287616D01*
D02*
G37*
G36*
X424000Y290500D02*
X444699Y290500D01*
X445066Y290348D01*
X445348Y290066D01*
X445500Y289699D01*
Y283968D01*
X444047D01*
Y281000D01*
Y278031D01*
X445500D01*
Y276801D01*
X445348Y276433D01*
X445066Y276152D01*
X444699Y276000D01*
X438322Y276000D01*
X437968Y276354D01*
Y277906D01*
X435000D01*
X432031D01*
Y276000D01*
X429322Y276000D01*
X428968Y276353D01*
Y277906D01*
X426000D01*
X423032D01*
Y275945D01*
X423031Y275940D01*
X423032Y275075D01*
X423032Y275075D01*
Y270646D01*
X423031Y269859D01*
X423084Y264930D01*
X423101Y260441D01*
X423102Y260130D01*
X423102Y259941D01*
X423103Y259941D01*
X423103D01*
X423103Y259941D01*
X423591Y259870D01*
X423603Y258110D01*
X423119Y257610D01*
X422240D01*
Y254051D01*
X421240D01*
Y257610D01*
X420273D01*
X419921Y257965D01*
X419938Y259941D01*
X420378D01*
Y259948D01*
X420393D01*
X420462Y270509D01*
X420462Y270509D01*
X420462Y270509D01*
X420448Y270701D01*
X420310Y271057D01*
X420044Y271332D01*
X419691Y271481D01*
X419500Y271500D01*
X413332Y271500D01*
X412968Y271831D01*
X412968Y272000D01*
Y273905D01*
X410000D01*
X407031D01*
Y272000D01*
X406669Y271500D01*
X404263D01*
X403968Y271878D01*
X403968Y272000D01*
Y273953D01*
X401000D01*
X398031D01*
Y272000D01*
X397737Y271500D01*
X396000D01*
X395902Y271490D01*
X395722Y271416D01*
X395584Y271278D01*
X395510Y271097D01*
X395500Y271000D01*
Y265900D01*
X395424Y265717D01*
X395283Y265576D01*
X395099Y265500D01*
X392665D01*
Y269331D01*
X389500D01*
X386335D01*
Y265500D01*
X384500D01*
X384112Y265771D01*
X384069Y265908D01*
X384076Y266000D01*
X384076Y267067D01*
X384076D01*
X384066Y267298D01*
X384056Y267760D01*
Y268222D01*
X384066Y268684D01*
X384076Y268915D01*
X384084Y269132D01*
X384036Y269562D01*
X383905Y269975D01*
X383695Y270354D01*
X383563Y270526D01*
X383463Y270632D01*
X383232Y270808D01*
X382969Y270930D01*
X382685Y270992D01*
X382540Y271000D01*
X381968D01*
Y272953D01*
X379000D01*
X376031D01*
Y270986D01*
X375207Y270978D01*
X375207Y270978D01*
X375181Y270984D01*
X375130Y270992D01*
X375078Y270998D01*
X375026Y271000D01*
X375000Y271000D01*
X366900Y271000D01*
X366717Y271076D01*
X366576Y271217D01*
X366500Y271400D01*
Y271532D01*
X366917Y272031D01*
X368453D01*
Y275000D01*
Y277969D01*
X366378D01*
X366378Y277969D01*
X366370Y277970D01*
X366351Y277977D01*
X366316Y277980D01*
X366316Y277980D01*
X366249Y277974D01*
X366249D01*
X366136Y277969D01*
X365879Y277970D01*
X365845Y277971D01*
X365778Y277976D01*
X365778Y277976D01*
X365744Y277974D01*
X365674Y277972D01*
X365604Y277972D01*
X365535Y277974D01*
X365500Y277976D01*
X365500Y277976D01*
X365440Y277973D01*
X365321Y277970D01*
X365201Y277970D01*
X365082Y277973D01*
X365023Y277976D01*
X365022Y277976D01*
X364994Y277974D01*
X364938Y277973D01*
X364881Y277973D01*
X364825Y277974D01*
X364796Y277976D01*
X364796Y277976D01*
X364732Y277972D01*
X364603Y277969D01*
X364475Y277969D01*
X364346Y277972D01*
X364282Y277976D01*
X364282Y277976D01*
X364209Y277971D01*
X364101Y277969D01*
X363990D01*
X363918Y277969D01*
X363772Y277977D01*
X363700Y277983D01*
X363700Y277983D01*
X363650Y277987D01*
X363549Y277991D01*
X363449Y277991D01*
X363349Y277987D01*
X363299Y277983D01*
X363299Y277983D01*
X363231Y277977D01*
X363095Y277970D01*
X362976Y277969D01*
X362950D01*
X362823Y277972D01*
X362755Y277976D01*
X362723Y277975D01*
X362660Y277974D01*
X362596Y277975D01*
X362532Y277977D01*
X362500Y277978D01*
X362500Y277978D01*
X362461Y277977D01*
X362383Y277976D01*
X362305Y277976D01*
X362228Y277978D01*
X362189Y277980D01*
X362189Y277979D01*
X362144Y277983D01*
X362053Y277988D01*
X361963Y277990D01*
X361873Y277990D01*
X361828Y277989D01*
X361828Y277989D01*
X361823Y277989D01*
X361815Y277988D01*
X361806Y277988D01*
X361797Y277988D01*
X361792Y277988D01*
X361248Y277978D01*
X361142Y277977D01*
X360930Y277979D01*
X360718Y277988D01*
X360507Y278003D01*
X360401Y278014D01*
X360401Y278013D01*
X360313Y278009D01*
X360145Y277957D01*
X360004Y277851D01*
X359907Y277704D01*
X359879Y277620D01*
Y274779D01*
X359878Y274778D01*
Y274623D01*
X359759Y274337D01*
X359541Y274118D01*
X359255Y274000D01*
X351969D01*
Y275905D01*
X349000D01*
X346031D01*
Y274611D01*
X345954Y274534D01*
X345393Y274485D01*
X345228Y274650D01*
X345000Y275202D01*
X345000Y275500D01*
Y279499D01*
X345000Y279500D01*
X345037Y279984D01*
X345115Y280375D01*
X345341Y280921D01*
X345669Y281413D01*
X346087Y281831D01*
X346578Y282159D01*
X347125Y282385D01*
X347704Y282500D01*
X348000Y282500D01*
X416000Y282500D01*
X416567Y282454D01*
X417701Y282529D01*
X418799Y282825D01*
X419818Y283329D01*
X420719Y284022D01*
X421468Y284877D01*
X422035Y285863D01*
X422399Y286940D01*
X422500Y287500D01*
X422500Y288999D01*
X422500D01*
X422524Y289162D01*
X422571Y289471D01*
X422727Y289850D01*
X423149Y290272D01*
X423701Y290500D01*
X424000Y290500D01*
D02*
G37*
G36*
X477000Y280500D02*
X477000D01*
X477458Y280433D01*
X477784Y280298D01*
X478158Y279924D01*
X478360Y279436D01*
X478360Y279172D01*
X478360Y216359D01*
X478360Y216359D01*
X478360Y215890D01*
X478000Y215023D01*
X477337Y214359D01*
X476469Y214000D01*
X476000Y214000D01*
X373705D01*
X373125Y214115D01*
X372579Y214341D01*
X372088Y214670D01*
X371670Y215088D01*
X371341Y215579D01*
X371115Y216125D01*
X371000Y216705D01*
X371000Y218500D01*
X371000Y230585D01*
X371000Y231207D01*
X371000Y231207D01*
X371000Y231207D01*
X370994Y231264D01*
X370951Y231370D01*
X370951Y231370D01*
X370870Y231451D01*
X370870Y231451D01*
X370812Y231475D01*
X370794Y231500D01*
X366417D01*
Y232500D01*
X371095D01*
X371100Y232507D01*
X373000Y232500D01*
X373802D01*
X373901Y232480D01*
X381924D01*
X382023Y232500D01*
X382462D01*
Y232500D01*
X382744Y232528D01*
X383266Y232744D01*
X383666Y233144D01*
X383808Y233487D01*
X383883Y233666D01*
X383910Y233949D01*
X383910Y233949D01*
X383992Y234411D01*
X384026Y234582D01*
Y242877D01*
X384091Y243032D01*
X384420Y243357D01*
X384709Y243474D01*
X387230Y243480D01*
X393236Y243480D01*
X393538Y243355D01*
X393806Y243088D01*
X393951Y242739D01*
Y242004D01*
X393979Y241711D01*
X394204Y241169D01*
X394619Y240754D01*
X395161Y240529D01*
X395455Y240500D01*
X395703D01*
X395801Y240480D01*
X400032D01*
Y238547D01*
X403000D01*
X405969D01*
Y240480D01*
X414045Y240480D01*
X414916Y240120D01*
X415620Y239416D01*
X416000Y238497D01*
X416000Y238000D01*
X416000Y221500D01*
X416038Y221110D01*
X416337Y220389D01*
X416889Y219837D01*
X417610Y219538D01*
X418000Y219500D01*
X453000D01*
X453195Y219519D01*
X453556Y219669D01*
X453831Y219944D01*
X453981Y220305D01*
X454000Y220500D01*
Y227500D01*
X453981Y227695D01*
X453831Y228056D01*
X453556Y228331D01*
X453195Y228481D01*
X453000Y228500D01*
X448132D01*
X447756Y228799D01*
Y230480D01*
X444000D01*
X440244D01*
Y229907D01*
X440170Y229797D01*
X439814Y229516D01*
X439744Y229500D01*
X435102Y229500D01*
X434367Y229804D01*
X433805Y230367D01*
X433500Y231102D01*
Y238898D01*
X433805Y239633D01*
X434367Y240195D01*
X435055Y240480D01*
X441532D01*
Y238547D01*
X444500D01*
X447469D01*
Y240480D01*
X450950D01*
X451042Y240471D01*
X451256Y240383D01*
X451383Y240256D01*
X451471Y240042D01*
X451480Y239950D01*
X451480Y239702D01*
X451480Y239702D01*
X451480Y239702D01*
X451500Y239603D01*
Y239207D01*
X451508Y239040D01*
X451574Y238712D01*
X451701Y238402D01*
X451888Y238124D01*
X452000Y238000D01*
X452124Y237888D01*
X452402Y237702D01*
X452711Y237574D01*
X453040Y237508D01*
X453207Y237500D01*
X453603D01*
X453702Y237480D01*
X453702Y237480D01*
X453702Y237480D01*
X454000Y237480D01*
X468999D01*
X469099Y237480D01*
X469099Y237480D01*
X469099Y237480D01*
X469301Y237520D01*
X469489Y237558D01*
X469489Y237558D01*
X469489Y237558D01*
X469673Y237634D01*
X469673Y237634D01*
X469673Y237634D01*
X469836Y237743D01*
X470004Y237855D01*
X470004Y237855D01*
X470004Y237855D01*
X470145Y237996D01*
X470145Y237996D01*
X470145Y237996D01*
X470257Y238164D01*
X470366Y238327D01*
X470366Y238327D01*
X470366Y238327D01*
X470442Y238511D01*
X470442Y238511D01*
X470442Y238511D01*
X470479Y238697D01*
X470520Y238901D01*
X470520Y238901D01*
X470520Y238901D01*
X470519Y239000D01*
X470520Y239000D01*
X470520Y247199D01*
X470500Y247298D01*
Y249703D01*
X470520Y249801D01*
Y255670D01*
X470505Y255744D01*
X470500Y256206D01*
Y256207D01*
X470500D01*
X470500Y256207D01*
X470500Y256207D01*
X470475Y256459D01*
X470391Y256662D01*
X470282Y256925D01*
X469925Y257282D01*
X469459Y257475D01*
X469207Y257500D01*
X469039Y257500D01*
X468709Y257566D01*
X468398Y257694D01*
X468119Y257881D01*
X467881Y258119D01*
X467694Y258399D01*
X467566Y258709D01*
X467519Y258942D01*
X467519Y259177D01*
X467519Y259178D01*
X467519Y259179D01*
X467519Y259183D01*
X467519Y259184D01*
X467519Y259192D01*
X467519Y259194D01*
X467519Y259197D01*
X467519Y259205D01*
X467519Y259207D01*
X467519Y259208D01*
X467520Y259212D01*
X467519Y259216D01*
X467520Y259220D01*
X467520Y279060D01*
X467565Y279291D01*
X467694Y279602D01*
X467881Y279881D01*
X468000Y280000D01*
X468119Y280119D01*
X468398Y280306D01*
X468709Y280435D01*
X468940Y280480D01*
X475085Y280480D01*
X475372Y280480D01*
X475471Y280500D01*
X475571Y280500D01*
X475572Y280500D01*
X477000Y280500D01*
X477000Y280500D01*
D02*
G37*
G36*
X359916Y272119D02*
X360619Y271416D01*
X360971Y270568D01*
Y268421D01*
X359185D01*
Y266240D01*
X358685D01*
Y265740D01*
X355716D01*
Y264523D01*
X354707D01*
X354603Y264502D01*
X354585Y264500D01*
X352500D01*
X352305Y264481D01*
X351944Y264332D01*
X351669Y264056D01*
X351519Y263695D01*
X351500Y263500D01*
Y262116D01*
X351477Y262000D01*
Y254028D01*
X349500D01*
Y251453D01*
X349000D01*
Y250953D01*
X346031D01*
Y249500D01*
X335327D01*
X334887Y249457D01*
X334073Y249120D01*
X333451Y248497D01*
X333114Y247684D01*
X333071Y247244D01*
Y246804D01*
X332734Y245992D01*
X332113Y245371D01*
X331684Y245193D01*
X326500D01*
Y242224D01*
X325500D01*
Y245193D01*
X319882D01*
Y245000D01*
X315000Y245000D01*
X314707Y244971D01*
X314167Y244747D01*
X313753Y244333D01*
X313529Y243793D01*
X313500Y243500D01*
X313500Y243155D01*
X313366Y242479D01*
X313102Y241842D01*
X312719Y241269D01*
X312231Y240781D01*
X311658Y240398D01*
X311021Y240135D01*
X310559Y240043D01*
X310059Y240365D01*
Y240618D01*
X306598D01*
X303138D01*
Y240000D01*
X301000D01*
X300705Y240000D01*
X300125Y240115D01*
X299579Y240341D01*
X299088Y240670D01*
X298670Y241088D01*
X298341Y241579D01*
X298115Y242125D01*
X298000Y242705D01*
X298000Y243000D01*
Y247720D01*
X298417Y248442D01*
X298740Y249648D01*
Y250896D01*
X298425Y252071D01*
X299138Y253792D01*
X300233Y255430D01*
X301625Y256823D01*
X303263Y257917D01*
X305083Y258671D01*
X307015Y259055D01*
X334055D01*
X334393Y259072D01*
X335055Y259204D01*
X335679Y259462D01*
X336241Y259837D01*
X336718Y260315D01*
X337093Y260876D01*
X337352Y261500D01*
X337483Y262162D01*
X337500Y262500D01*
X337500Y268000D01*
X337500Y268443D01*
X337673Y269313D01*
X338012Y270131D01*
X338505Y270869D01*
X339131Y271495D01*
X339868Y271988D01*
X340687Y272327D01*
X341557Y272500D01*
X342000Y272500D01*
X342000Y272500D01*
X346031D01*
Y271000D01*
X349000D01*
X351969D01*
Y272500D01*
X358500D01*
X358997Y272500D01*
X359916Y272119D01*
D02*
G37*
G36*
X318681Y265551D02*
Y263583D01*
X315920Y263578D01*
Y265556D01*
X318681Y265551D01*
D02*
G37*
G36*
X372079Y261475D02*
X372043Y261483D01*
X371954Y261490D01*
X371062Y261509D01*
X369315Y261516D01*
Y263484D01*
X372079Y263525D01*
Y261475D01*
D02*
G37*
G36*
X398031Y270075D02*
Y269047D01*
X401000D01*
X403968D01*
Y270018D01*
X404020Y270160D01*
X404263Y270480D01*
X406669D01*
X406961Y270198D01*
X407031Y270041D01*
Y269000D01*
X410000D01*
X412968D01*
Y270121D01*
X413055Y270207D01*
X413469Y270480D01*
X418942Y270480D01*
X419439Y269980D01*
X419420Y267059D01*
X418500D01*
Y263500D01*
X418000D01*
Y263000D01*
X415622D01*
Y260000D01*
X413500D01*
X413207Y259971D01*
X412667Y259747D01*
X412253Y259333D01*
X412029Y258793D01*
X412000Y258500D01*
Y256616D01*
X411981Y256536D01*
X411984Y256518D01*
X411980Y256500D01*
Y253754D01*
X411848Y253433D01*
X411566Y253152D01*
X411246Y253020D01*
X397654Y253020D01*
X397150Y253228D01*
X396728Y253650D01*
X396500Y254202D01*
Y265802D01*
X396520Y265900D01*
Y270147D01*
X396576Y270283D01*
X396717Y270424D01*
X396853Y270480D01*
X397737D01*
X398031Y270075D01*
D02*
G37*
G36*
X376031Y269500D02*
Y268047D01*
X379000D01*
X381968D01*
Y269124D01*
X382469Y269408D01*
X382603Y269352D01*
X382876Y269078D01*
X383025Y268721D01*
Y268527D01*
X383025D01*
Y265956D01*
X383053Y265668D01*
X383273Y265136D01*
X383680Y264729D01*
X384212Y264509D01*
X384500Y264480D01*
X386335D01*
Y261669D01*
X389500D01*
X392665D01*
Y264480D01*
X395046D01*
X395047Y264480D01*
X395099D01*
X395106Y264482D01*
X395108Y264482D01*
X395480Y264130D01*
Y254202D01*
X395487Y254170D01*
X395272Y253650D01*
X394850Y253228D01*
X394346Y253019D01*
X382272Y253019D01*
X382111Y253078D01*
X381933Y253215D01*
X381772Y253431D01*
Y254453D01*
X376228D01*
Y254030D01*
X375728Y253781D01*
X375527Y253932D01*
X375466Y254253D01*
X375518Y254500D01*
X375518Y254500D01*
X375518Y262018D01*
X375560Y262330D01*
X375530Y262957D01*
X375347Y263559D01*
X375024Y264098D01*
X374580Y264542D01*
X374041Y264865D01*
X373440Y265047D01*
X372966Y265071D01*
X372812Y265078D01*
X372783Y265074D01*
X372284Y265444D01*
Y265740D01*
X369315D01*
Y266240D01*
X368815D01*
Y268421D01*
X367800D01*
X367593Y268921D01*
X367867Y269196D01*
X368602Y269500D01*
X369000D01*
X376031Y269500D01*
D02*
G37*
G36*
X452320Y254526D02*
X453127Y254335D01*
X453858Y254001D01*
X454508Y253530D01*
X455054Y252940D01*
X455475Y252256D01*
X455752Y251502D01*
X455853Y250861D01*
X455853Y250631D01*
X455853Y250618D01*
X455854Y250594D01*
X455854Y250569D01*
X455854Y250544D01*
X455854Y250532D01*
X455854Y249987D01*
X455854Y249987D01*
X455858Y249795D01*
X455717Y249435D01*
X455449Y249158D01*
X455096Y249004D01*
X454903Y249000D01*
X446801Y249000D01*
X446433Y249152D01*
X446152Y249433D01*
X446000Y249801D01*
Y254000D01*
X446173Y254428D01*
X446213Y254468D01*
X446754Y254491D01*
X447071Y254115D01*
Y253636D01*
X447164Y253170D01*
X447428Y252774D01*
X447823Y252510D01*
X448289Y252417D01*
X448913D01*
Y254031D01*
X449413D01*
Y254386D01*
X450537D01*
X451004Y254479D01*
X451083Y254532D01*
X452243D01*
X452245Y254532D01*
X452320Y254526D01*
D02*
G37*
G36*
X413552Y257052D02*
X415269Y257052D01*
X415622Y256698D01*
Y254551D01*
X418000D01*
Y254051D01*
X418500D01*
Y250492D01*
X424980D01*
Y254051D01*
X425480D01*
Y254551D01*
X427858D01*
Y256531D01*
X440800Y256531D01*
X440828Y256500D01*
X441917D01*
X441996Y256447D01*
X442463Y256354D01*
X443587D01*
Y255500D01*
X441265D01*
X441337Y255138D01*
X441419Y255016D01*
X441337Y254893D01*
X441265Y254532D01*
X443587D01*
Y254031D01*
X444087D01*
Y252417D01*
X444711D01*
X444980Y252196D01*
Y249801D01*
X445024Y249581D01*
X445038Y249451D01*
X445197Y249075D01*
X445210Y249043D01*
X445211Y249042D01*
X445311Y248806D01*
X445806Y248311D01*
X446042Y248211D01*
X446043Y248210D01*
X446074Y248198D01*
X446451Y248038D01*
X446581Y248024D01*
X446801Y247980D01*
X454903Y247980D01*
X454913Y247982D01*
X454922Y247981D01*
X455115Y247984D01*
X455187Y248000D01*
X457684D01*
X457782Y247980D01*
X458000Y247980D01*
X462746Y247980D01*
X468699D01*
X468731Y247987D01*
X469066Y247848D01*
X469348Y247566D01*
X469500Y247199D01*
X469500Y239000D01*
X469500Y239000D01*
X469500Y238900D01*
X469424Y238717D01*
X469283Y238576D01*
X469100Y238500D01*
X469000Y238500D01*
X454000D01*
X453702Y238500D01*
X453150Y238728D01*
X452728Y239150D01*
X452500Y239702D01*
X452500Y240000D01*
X452500D01*
X452471Y240293D01*
X452247Y240833D01*
X451833Y241247D01*
X451293Y241471D01*
X451000Y241500D01*
X447469D01*
Y243453D01*
X444500D01*
Y243953D01*
D01*
Y243453D01*
X441532D01*
Y241500D01*
X428469Y241500D01*
Y242953D01*
X425500D01*
X422532D01*
Y241500D01*
X405969Y241500D01*
Y243453D01*
X403000D01*
X400032D01*
Y241500D01*
X395801D01*
X395433Y241652D01*
X395152Y241933D01*
X395000Y242301D01*
Y243250D01*
X395000D01*
X395000Y243250D01*
X395000Y243250D01*
X394976Y243494D01*
X394888Y243705D01*
X394789Y243945D01*
X394444Y244289D01*
X393994Y244476D01*
X393750Y244500D01*
X387228Y244500D01*
X383901Y244492D01*
X383901Y244492D01*
X383726Y244474D01*
X383403Y244339D01*
X383156Y244090D01*
X383023Y243766D01*
X383006Y243591D01*
Y234582D01*
X382801Y234086D01*
X382421Y233706D01*
X381924Y233500D01*
X373901D01*
X373717Y233576D01*
X373576Y233717D01*
X373500Y233900D01*
Y250000D01*
X373500Y250000D01*
X373536Y250485D01*
X373805Y251135D01*
X374368Y251698D01*
X375105Y252003D01*
X375503Y252003D01*
X375617Y252003D01*
X375805D01*
X376124Y251728D01*
X376228Y251500D01*
Y249547D01*
X381772D01*
Y251500D01*
X381772Y251819D01*
X382197Y252000D01*
X412000Y252000D01*
X412195Y252019D01*
X412556Y252168D01*
X412831Y252444D01*
X412981Y252805D01*
X413000Y253000D01*
Y256500D01*
X413192Y256921D01*
X413239Y256968D01*
X413442Y257052D01*
X413552Y257052D01*
D02*
G37*
G36*
X466000Y256354D02*
X468816D01*
X469130Y256224D01*
X469370Y255984D01*
X469500Y255670D01*
Y249801D01*
X469348Y249433D01*
X469066Y249152D01*
X468699Y249000D01*
X462746D01*
X458000Y249000D01*
X457782Y249000D01*
X457379Y249167D01*
X457071Y249475D01*
X456904Y249878D01*
X456904Y250096D01*
X456904Y250263D01*
X456900Y250767D01*
X456744Y251760D01*
X456396Y252703D01*
X455871Y253559D01*
X455188Y254297D01*
X454373Y254886D01*
X453460Y255304D01*
X452481Y255535D01*
X451980Y255577D01*
X451980Y255577D01*
X451980Y255577D01*
X450879Y255577D01*
X450537Y255645D01*
X448289D01*
X448126Y255779D01*
Y256354D01*
X466000Y256354D01*
D02*
G37*
G36*
X337289Y242208D02*
X335152D01*
X335168Y242250D01*
X335182Y242333D01*
X335195Y242459D01*
X335223Y243085D01*
X335236Y244504D01*
X337205D01*
X337289Y242208D01*
D02*
G37*
G36*
X359501Y238268D02*
X359394Y238326D01*
X359267Y238366D01*
X359122Y238389D01*
X358958Y238393D01*
X358775Y238380D01*
X358574Y238350D01*
X358353Y238301D01*
X358114Y238235D01*
X357578Y238050D01*
X357517Y239091D01*
X359272Y239504D01*
X359501Y238268D01*
D02*
G37*
G36*
X330279Y239690D02*
X330311Y239509D01*
X330364Y239349D01*
X330439Y239211D01*
X330535Y239094D01*
X330652Y238998D01*
X330791Y238923D01*
X330950Y238870D01*
X331132Y238838D01*
X329818Y238058D01*
X329736Y238081D01*
X328138Y238827D01*
X328340Y238838D01*
X328521Y238870D01*
X328681Y238923D01*
X328819Y238998D01*
X328937Y239094D01*
X329033Y239211D01*
X329107Y239349D01*
X329160Y239509D01*
X329192Y239690D01*
X329203Y239893D01*
X330269D01*
X330279Y239690D01*
D02*
G37*
G36*
X322799D02*
X322831Y239509D01*
X322884Y239349D01*
X322959Y239211D01*
X323055Y239094D01*
X323172Y238998D01*
X323310Y238923D01*
X323470Y238870D01*
X323651Y238838D01*
X322338Y238058D01*
X322255Y238081D01*
X320657Y238827D01*
X320860Y238838D01*
X321041Y238870D01*
X321201Y238923D01*
X321339Y238998D01*
X321456Y239094D01*
X321552Y239211D01*
X321627Y239349D01*
X321680Y239509D01*
X321712Y239690D01*
X321723Y239893D01*
X322788D01*
X322799Y239690D01*
D02*
G37*
G36*
X345157Y248245D02*
X345490Y247913D01*
X345669Y247479D01*
Y247244D01*
X345669D01*
Y243730D01*
X345703Y243392D01*
X345961Y242769D01*
X346438Y242291D01*
X347062Y242033D01*
X347399Y242000D01*
X349037D01*
X349479Y241817D01*
X349817Y241479D01*
X350000Y241037D01*
Y235642D01*
X349878Y235347D01*
X349653Y235122D01*
X349358Y235000D01*
X347512D01*
X347369Y235500D01*
X347803Y236149D01*
X347872Y236500D01*
X343583D01*
Y237000D01*
X343083D01*
Y239224D01*
X341417D01*
X340566Y239055D01*
X339845Y238573D01*
X339476Y238021D01*
X338976Y238173D01*
X338976Y242225D01*
X339354Y242520D01*
X341429D01*
Y245488D01*
X341929D01*
Y245988D01*
X344504D01*
Y247991D01*
X345004Y248309D01*
X345157Y248245D01*
D02*
G37*
G36*
X330924Y235720D02*
X330760Y235710D01*
X330613Y235678D01*
X330484Y235624D01*
X330371Y235550D01*
X330276Y235454D01*
X330199Y235337D01*
X330138Y235198D01*
X330095Y235038D01*
X330069Y234857D01*
X330060Y234655D01*
X328995D01*
X328984Y234857D01*
X328952Y235038D01*
X328899Y235198D01*
X328824Y235337D01*
X328729Y235454D01*
X328611Y235550D01*
X328473Y235624D01*
X328313Y235678D01*
X328132Y235710D01*
X329528Y236510D01*
X330924Y235720D01*
D02*
G37*
G36*
X322441Y236466D02*
X324039Y235720D01*
X323837Y235710D01*
X323656Y235678D01*
X323496Y235624D01*
X323357Y235550D01*
X323240Y235454D01*
X323144Y235337D01*
X323070Y235198D01*
X323016Y235038D01*
X322984Y234857D01*
X322974Y234655D01*
X321908D01*
X321898Y234857D01*
X321866Y235038D01*
X321812Y235198D01*
X321738Y235337D01*
X321642Y235454D01*
X321525Y235550D01*
X321386Y235624D01*
X321226Y235678D01*
X321045Y235710D01*
X322358Y236490D01*
X322441Y236466D01*
D02*
G37*
G36*
X421512Y234090D02*
X421579Y234076D01*
X421680Y234064D01*
X421982Y234044D01*
X423325Y234024D01*
X423406Y233024D01*
X423075Y233022D01*
X421746Y232939D01*
X421634Y232914D01*
X421554Y232884D01*
X421506Y232852D01*
X421478Y234105D01*
X421512Y234090D01*
D02*
G37*
G36*
X352374Y226373D02*
X352332Y226397D01*
X352258Y226419D01*
X352152Y226438D01*
X352013Y226454D01*
X351401Y226489D01*
X350497Y226500D01*
Y227500D01*
X350831Y227501D01*
X352332Y227603D01*
X352374Y227627D01*
Y226373D01*
D02*
G37*
G36*
X448686Y222873D02*
X448644Y222897D01*
X448570Y222919D01*
X448463Y222938D01*
X448324Y222954D01*
X447713Y222989D01*
X446809Y223000D01*
Y224000D01*
X447143Y224001D01*
X448644Y224103D01*
X448686Y224127D01*
Y222873D01*
D02*
G37*
G36*
X326500Y229807D02*
X328049D01*
X328084Y229722D01*
X328222Y229584D01*
X328402Y229510D01*
X328500Y229500D01*
X330199D01*
X330566Y229348D01*
X330848Y229066D01*
X331000Y228699D01*
Y215602D01*
X330696Y214867D01*
X330133Y214304D01*
X329398Y214000D01*
X306127D01*
X304385Y214346D01*
X302745Y215026D01*
X301268Y216013D01*
X300013Y217268D01*
X299026Y218745D01*
X298469Y220091D01*
X298740Y221104D01*
Y222352D01*
X298417Y223558D01*
X298000Y224280D01*
X298000Y229997D01*
X298000Y230396D01*
X298305Y231132D01*
X298868Y231695D01*
X299604Y232000D01*
X300003Y232000D01*
X300003Y232000D01*
X303138Y232000D01*
Y231382D01*
X306598D01*
X310059D01*
Y231911D01*
X310811D01*
X311052Y231864D01*
X311697Y231596D01*
X312278Y231208D01*
X312772Y230715D01*
X313160Y230134D01*
X313427Y229488D01*
X313541Y228916D01*
X313563Y228454D01*
Y228454D01*
X313563D01*
X313563Y228454D01*
Y226969D01*
X313520D01*
Y221031D01*
X321500D01*
Y224000D01*
Y226969D01*
X319500D01*
Y229179D01*
X319561Y229326D01*
X319674Y229439D01*
X319821Y229500D01*
X323996Y229500D01*
X324056Y229506D01*
X324167Y229552D01*
X324251Y229637D01*
X324297Y229747D01*
X324303Y229807D01*
X324303Y229807D01*
X325500D01*
Y232776D01*
X326500D01*
Y229807D01*
D02*
G37*
G36*
X303200Y342953D02*
X302355Y342926D01*
X301557Y342845D01*
X300807Y342710D01*
X300104Y342522D01*
X299448Y342279D01*
X298840Y341982D01*
X298280Y341632D01*
X297767Y341228D01*
X297302Y340769D01*
X296884Y340257D01*
X296167Y344437D01*
X296359Y344345D01*
X296652Y344263D01*
X297045Y344190D01*
X297539Y344127D01*
X299627Y343996D01*
X302620Y343953D01*
X303200Y342953D01*
D02*
G37*
G36*
X306102Y336762D02*
X306203Y334708D01*
X304033Y334708D01*
X304052Y334752D01*
X304069Y334831D01*
X304084Y334947D01*
X304109Y335286D01*
X304134Y336762D01*
X306102Y336762D01*
D02*
G37*
G36*
X298441Y351500D02*
X298249Y351495D01*
X298076Y351480D01*
X297925Y351455D01*
X297793Y351420D01*
X297682Y351375D01*
X297591Y351320D01*
X297520Y351255D01*
X297469Y351180D01*
X297439Y351095D01*
X297429Y351000D01*
Y353000D01*
X297439Y352905D01*
X297469Y352820D01*
X297520Y352745D01*
X297591Y352680D01*
X297682Y352625D01*
X297793Y352580D01*
X297925Y352545D01*
X298076Y352520D01*
X298249Y352505D01*
X298441Y352500D01*
Y351500D01*
D02*
G37*
G36*
X327335Y326575D02*
X325261Y326475D01*
Y328643D01*
X325304Y328624D01*
X325384Y328607D01*
X325500Y328592D01*
X325843Y328568D01*
X327335Y328543D01*
Y326575D01*
D02*
G37*
G36*
X327472Y336811D02*
X325271Y336720D01*
Y338871D01*
X325313Y338854D01*
X325395Y338838D01*
X325517Y338824D01*
X326118Y338794D01*
X327472Y338779D01*
Y336811D01*
D02*
G37*
G36*
X302933Y375192D02*
X302309Y375593D01*
X301672Y375901D01*
X301021Y376116D01*
X300358Y376238D01*
X299681Y376267D01*
X298991Y376203D01*
X298287Y376046D01*
X297571Y375796D01*
X296841Y375453D01*
X296098Y375017D01*
X296947Y379152D01*
X303001Y376355D01*
X302933Y375192D01*
D02*
G37*
G36*
X302929Y385112D02*
X302286Y385507D01*
X301633Y385811D01*
X300971Y386026D01*
X300299Y386150D01*
X299619Y386184D01*
X298929Y386128D01*
X298229Y385982D01*
X297521Y385746D01*
X296803Y385419D01*
X296076Y385003D01*
X296965Y389126D01*
X302995Y386262D01*
X302929Y385112D01*
D02*
G37*
G36*
X320545Y386016D02*
X317841Y385974D01*
X317845Y388037D01*
X317882Y388028D01*
X317970Y388020D01*
X318548Y388000D01*
X320549Y387984D01*
X320545Y386016D01*
D02*
G37*
G36*
X325953Y391595D02*
X325940Y392241D01*
X325841Y393397D01*
X325755Y393907D01*
X325643Y394372D01*
X325507Y394790D01*
X325346Y395163D01*
X325160Y395491D01*
X324949Y395773D01*
X324714Y396010D01*
X327500Y396225D01*
X327396Y396065D01*
X327303Y395844D01*
X327221Y395560D01*
X327150Y395215D01*
X327090Y394807D01*
X327002Y393806D01*
X326953Y391840D01*
X325953Y391595D01*
D02*
G37*
G36*
X381398Y349454D02*
X381435Y349387D01*
X381497Y349298D01*
X381584Y349188D01*
X381992Y348731D01*
X382623Y348084D01*
X381916Y347377D01*
X381679Y347612D01*
X380546Y348602D01*
X380499Y348614D01*
X381386Y349501D01*
X381398Y349454D01*
D02*
G37*
G36*
X362663Y344108D02*
X362738Y344085D01*
X362846Y344065D01*
X362986Y344048D01*
X363363Y344021D01*
X364503Y344000D01*
Y343000D01*
X364170Y342999D01*
X362738Y342915D01*
X362663Y342892D01*
X362619Y342867D01*
Y344133D01*
X362663Y344108D01*
D02*
G37*
G36*
X383269Y342464D02*
X382409Y342407D01*
X382408Y342523D01*
X382389Y342799D01*
X382378Y342868D01*
X382365Y342925D01*
X382350Y342971D01*
X382332Y343005D01*
X382313Y343028D01*
X382291Y343039D01*
X383236Y343434D01*
X383269Y342464D01*
D02*
G37*
G36*
X367675Y309132D02*
X367554Y309094D01*
X367434Y309032D01*
X367314Y308943D01*
X367195Y308828D01*
X367075Y308688D01*
X366957Y308523D01*
X366838Y308331D01*
X366720Y308114D01*
X366485Y307602D01*
X365699Y308295D01*
X366630Y309832D01*
X367675Y309132D01*
D02*
G37*
G36*
X330500Y391659D02*
X330491Y392344D01*
X330357Y394078D01*
X330277Y394549D01*
X330179Y394968D01*
X330063Y395333D01*
X329929Y395645D01*
X329777Y395903D01*
X329607Y396109D01*
X332393D01*
X332223Y395903D01*
X332071Y395645D01*
X331938Y395333D01*
X331821Y394968D01*
X331723Y394549D01*
X331643Y394078D01*
X331536Y392975D01*
X331509Y392344D01*
X331500Y391659D01*
X330500D01*
D02*
G37*
G36*
X363457Y362530D02*
X361362Y362432D01*
Y364597D01*
X361406Y364578D01*
X361486Y364562D01*
X361603Y364547D01*
X361948Y364523D01*
X363457Y364499D01*
Y362530D01*
D02*
G37*
G36*
X381454Y351377D02*
X381217Y351612D01*
X380084Y352602D01*
X380037Y352614D01*
X380924Y353501D01*
X380936Y353454D01*
X380973Y353386D01*
X381035Y353298D01*
X381122Y353188D01*
X381530Y352731D01*
X382161Y352084D01*
X381454Y351377D01*
D02*
G37*
G36*
X384483Y364590D02*
X386419Y366597D01*
X387871Y365160D01*
X387844Y365140D01*
X387780Y365081D01*
X385887Y363209D01*
X384483Y364590D01*
D02*
G37*
G36*
X419997Y316500D02*
X420331Y316501D01*
X421832Y316603D01*
X421874Y316627D01*
Y315373D01*
X421832Y315397D01*
X421758Y315419D01*
X421652Y315438D01*
X421513Y315454D01*
X420901Y315489D01*
X419997Y315500D01*
Y316500D01*
D02*
G37*
G36*
X420047Y323547D02*
X420137Y323558D01*
X420220Y323589D01*
X420295Y323641D01*
X420363Y323714D01*
X420424Y323808D01*
X420477Y323922D01*
X420523Y324057D01*
X420562Y324214D01*
X420594Y324391D01*
X420619Y324588D01*
X421588Y323619D01*
X420952Y322770D01*
X420047Y323547D01*
D02*
G37*
G36*
X411000Y326997D02*
X410999Y327331D01*
X410897Y328832D01*
X410873Y328874D01*
X412127D01*
X412103Y328832D01*
X412081Y328758D01*
X412062Y328652D01*
X412046Y328513D01*
X412011Y327901D01*
X412000Y326997D01*
X411000D01*
D02*
G37*
G36*
X415610Y329159D02*
X414693Y331075D01*
X416683Y331918D01*
X416683Y331871D01*
X416699Y331791D01*
X416732Y331676D01*
X416847Y331346D01*
X417422Y329927D01*
X415610Y329159D01*
D02*
G37*
G36*
X428516Y334953D02*
X428462Y337594D01*
X430538D01*
X430528Y337556D01*
X430519Y337469D01*
X430504Y337142D01*
X430484Y334953D01*
X428516D01*
D02*
G37*
G36*
X409139Y355484D02*
X409069Y357952D01*
X411178D01*
X411165Y357913D01*
X411153Y357827D01*
X411142Y357695D01*
X411110Y356346D01*
X411108Y355484D01*
X409139D01*
D02*
G37*
G36*
X399721Y364601D02*
X401671Y366601D01*
X403113Y365159D01*
X403084Y365139D01*
X403016Y365080D01*
X401816Y363910D01*
X401113Y363209D01*
X399721Y364601D01*
D02*
G37*
G36*
X421721D02*
X423671Y366601D01*
X425113Y365159D01*
X425084Y365139D01*
X425016Y365080D01*
X423816Y363910D01*
X423113Y363209D01*
X421721Y364601D01*
D02*
G37*
G36*
X438016Y334953D02*
X437962Y337594D01*
X440038D01*
X440028Y337556D01*
X440019Y337469D01*
X440004Y337142D01*
X439984Y334953D01*
X438016D01*
D02*
G37*
G36*
X447016D02*
X446962Y337594D01*
X449038D01*
X449028Y337556D01*
X449019Y337469D01*
X449004Y337142D01*
X448984Y334953D01*
X447016D01*
D02*
G37*
G36*
X459343Y320192D02*
X461328Y320354D01*
X461392Y318179D01*
X461347Y318197D01*
X461269Y318213D01*
X461155Y318225D01*
X460826Y318240D01*
X459755Y318234D01*
X459401Y318224D01*
X459343Y320192D01*
D02*
G37*
G36*
X456496Y339465D02*
X456162Y339468D01*
X454659Y339388D01*
X454617Y339365D01*
X454635Y340618D01*
X454676Y340593D01*
X454750Y340571D01*
X454856Y340550D01*
X454995Y340532D01*
X455606Y340489D01*
X456510Y340465D01*
X456496Y339465D01*
D02*
G37*
G36*
X433823Y353740D02*
X431295Y353687D01*
X431305Y355786D01*
X431346Y355771D01*
X431434Y355758D01*
X431569Y355747D01*
X432576Y355716D01*
X433823Y355709D01*
Y353740D01*
D02*
G37*
G36*
X445221Y364601D02*
X447171Y366601D01*
X448613Y365159D01*
X448584Y365139D01*
X448516Y365080D01*
X447316Y363910D01*
X446613Y363209D01*
X445221Y364601D01*
D02*
G37*
G36*
X457547Y353516D02*
X454863Y353466D01*
Y355534D01*
X454900Y355524D01*
X454988Y355516D01*
X455320Y355502D01*
X457547Y355484D01*
Y353516D01*
D02*
G37*
G36*
X469406Y364484D02*
X472047Y364538D01*
Y362462D01*
X472009Y362472D01*
X471921Y362481D01*
X471594Y362496D01*
X469406Y362516D01*
Y364484D01*
D02*
G37*
%LPC*%
G36*
X473520Y289953D02*
X473500D01*
Y286500D01*
X476953D01*
Y286520D01*
X476683Y287526D01*
X476163Y288427D01*
X475427Y289163D01*
X474526Y289683D01*
X473520Y289953D01*
D02*
G37*
G36*
X472500D02*
X472480D01*
X471474Y289683D01*
X470573Y289163D01*
X469837Y288427D01*
X469317Y287526D01*
X469047Y286520D01*
Y286500D01*
X472500D01*
Y289953D01*
D02*
G37*
G36*
X476953Y285500D02*
X473500D01*
Y282047D01*
X473520D01*
X474526Y282317D01*
X475427Y282837D01*
X476163Y283573D01*
X476683Y284474D01*
X476953Y285480D01*
Y285500D01*
D02*
G37*
G36*
X472500D02*
X469047D01*
Y285480D01*
X469317Y284474D01*
X469837Y283573D01*
X470573Y282837D01*
X471474Y282317D01*
X472480Y282047D01*
X472500D01*
Y285500D01*
D02*
G37*
G36*
X452028Y283968D02*
X449953D01*
Y281500D01*
X452028D01*
Y283968D01*
D02*
G37*
G36*
Y280500D02*
X449953D01*
Y278031D01*
X452028D01*
Y280500D01*
D02*
G37*
G36*
Y270468D02*
X449953D01*
Y268000D01*
X452028D01*
Y270468D01*
D02*
G37*
G36*
Y267000D02*
X449953D01*
Y264531D01*
X452028D01*
Y267000D01*
D02*
G37*
G36*
X450537Y259582D02*
X449913D01*
Y258469D01*
X451735D01*
X451663Y258830D01*
X451399Y259226D01*
X451004Y259490D01*
X450537Y259582D01*
D02*
G37*
G36*
X443047Y283968D02*
X440973D01*
Y281500D01*
X443047D01*
Y283968D01*
D02*
G37*
G36*
X437968Y280980D02*
X435500D01*
Y278906D01*
X437968D01*
Y280980D01*
D02*
G37*
G36*
X428968D02*
X426500D01*
Y278906D01*
X428968D01*
Y280980D01*
D02*
G37*
G36*
X434500D02*
X432031D01*
Y278906D01*
X434500D01*
Y280980D01*
D02*
G37*
G36*
X425500D02*
X423032D01*
Y278906D01*
X425500D01*
Y280980D01*
D02*
G37*
G36*
X443047Y280500D02*
X440973D01*
Y278031D01*
X443047D01*
Y280500D01*
D02*
G37*
G36*
X351969Y278980D02*
X349500D01*
Y276905D01*
X351969D01*
Y278980D01*
D02*
G37*
G36*
X348500D02*
X346031D01*
Y276905D01*
X348500D01*
Y278980D01*
D02*
G37*
G36*
X371528Y277969D02*
X369453D01*
Y275500D01*
X371528D01*
Y277969D01*
D02*
G37*
G36*
X403968Y277028D02*
X401500D01*
Y274953D01*
X403968D01*
Y277028D01*
D02*
G37*
G36*
X400500D02*
X398031D01*
Y274953D01*
X400500D01*
Y277028D01*
D02*
G37*
G36*
X412968Y276980D02*
X410500D01*
Y274905D01*
X412968D01*
Y276980D01*
D02*
G37*
G36*
X409500D02*
X407031D01*
Y274905D01*
X409500D01*
Y276980D01*
D02*
G37*
G36*
X381968Y276028D02*
X379500D01*
Y273953D01*
X381968D01*
Y276028D01*
D02*
G37*
G36*
X378500D02*
X376031D01*
Y273953D01*
X378500D01*
Y276028D01*
D02*
G37*
G36*
X371528Y274500D02*
X369453D01*
Y272031D01*
X371528D01*
Y274500D01*
D02*
G37*
G36*
X392665Y274177D02*
X390000D01*
Y270331D01*
X392665D01*
Y274177D01*
D02*
G37*
G36*
X389000D02*
X386335D01*
Y270331D01*
X389000D01*
Y274177D01*
D02*
G37*
G36*
X476953Y279953D02*
X473500D01*
Y276500D01*
X476953D01*
Y279953D01*
D02*
G37*
G36*
X472500D02*
X469047D01*
Y276500D01*
X472500D01*
Y279953D01*
D02*
G37*
G36*
X476953Y275500D02*
X473500D01*
Y272047D01*
X476953D01*
Y275500D01*
D02*
G37*
G36*
X472500D02*
X469047D01*
Y272047D01*
X472500D01*
Y275500D01*
D02*
G37*
G36*
X389020Y242953D02*
X389000D01*
Y239500D01*
X392453D01*
Y239520D01*
X392183Y240526D01*
X391663Y241427D01*
X390927Y242163D01*
X390026Y242683D01*
X389020Y242953D01*
D02*
G37*
G36*
X388000D02*
X387980D01*
X386974Y242683D01*
X386073Y242163D01*
X385337Y241427D01*
X384817Y240526D01*
X384547Y239520D01*
Y239500D01*
X388000D01*
Y242953D01*
D02*
G37*
G36*
X447469Y237547D02*
X445000D01*
Y235472D01*
X447469D01*
Y237547D01*
D02*
G37*
G36*
X444000D02*
X441532D01*
Y235472D01*
X444000D01*
Y237547D01*
D02*
G37*
G36*
X405969D02*
X403500D01*
Y235472D01*
X405969D01*
Y237547D01*
D02*
G37*
G36*
X402500D02*
X400032D01*
Y235472D01*
X402500D01*
Y237547D01*
D02*
G37*
G36*
X392453Y238500D02*
X389000D01*
Y235047D01*
X389020D01*
X390026Y235317D01*
X390927Y235837D01*
X391663Y236573D01*
X392183Y237474D01*
X392453Y238480D01*
Y238500D01*
D02*
G37*
G36*
X388000D02*
X384547D01*
Y238480D01*
X384817Y237474D01*
X385337Y236573D01*
X386073Y235837D01*
X386974Y235317D01*
X387980Y235047D01*
X388000D01*
Y238500D01*
D02*
G37*
G36*
X447756Y233161D02*
X444500D01*
Y231480D01*
X447756D01*
Y233161D01*
D02*
G37*
G36*
X443500D02*
X440244D01*
Y231480D01*
X443500D01*
Y233161D01*
D02*
G37*
G36*
X351969Y270000D02*
X349500D01*
Y267925D01*
X351969D01*
Y270000D01*
D02*
G37*
G36*
X348500D02*
X346031D01*
Y267925D01*
X348500D01*
Y270000D01*
D02*
G37*
G36*
X358185Y268421D02*
X355716D01*
Y266740D01*
X358185D01*
Y268421D01*
D02*
G37*
G36*
X348500Y254028D02*
X346031D01*
Y251953D01*
X348500D01*
Y254028D01*
D02*
G37*
G36*
X305020Y249106D02*
X304083D01*
X303177Y248864D01*
X302366Y248395D01*
X301703Y247732D01*
X301235Y246921D01*
X300992Y246016D01*
Y245079D01*
X301235Y244174D01*
X301703Y243362D01*
X302366Y242699D01*
X303138Y242254D01*
Y241618D01*
X306598D01*
X310059D01*
Y242905D01*
X307588D01*
X307512Y243089D01*
X307424Y243406D01*
X307868Y244174D01*
X308110Y245079D01*
Y246016D01*
X307868Y246921D01*
X307399Y247732D01*
X306736Y248395D01*
X305925Y248864D01*
X305020Y249106D01*
D02*
G37*
G36*
X403968Y268047D02*
X401500D01*
Y265972D01*
X403968D01*
Y268047D01*
D02*
G37*
G36*
X400500D02*
X398031D01*
Y265972D01*
X400500D01*
Y268047D01*
D02*
G37*
G36*
X412968Y268000D02*
X410500D01*
Y265925D01*
X412968D01*
Y268000D01*
D02*
G37*
G36*
X409500D02*
X407031D01*
Y265925D01*
X409500D01*
Y268000D01*
D02*
G37*
G36*
X417500Y267059D02*
X415622D01*
Y264000D01*
X417500D01*
Y267059D01*
D02*
G37*
G36*
X372284Y268421D02*
X369815D01*
Y266740D01*
X372284D01*
Y268421D01*
D02*
G37*
G36*
X381968Y267047D02*
X379500D01*
Y264972D01*
X381968D01*
Y267047D01*
D02*
G37*
G36*
X378500D02*
X376031D01*
Y264972D01*
X378500D01*
Y267047D01*
D02*
G37*
G36*
X392665Y260669D02*
X390000D01*
Y256823D01*
X392665D01*
Y260669D01*
D02*
G37*
G36*
X389000D02*
X386335D01*
Y256823D01*
X389000D01*
Y260669D01*
D02*
G37*
G36*
X381772Y257724D02*
X379500D01*
Y255453D01*
X381772D01*
Y257724D01*
D02*
G37*
G36*
X378500D02*
X376228D01*
Y255453D01*
X378500D01*
Y257724D01*
D02*
G37*
G36*
X451735Y253532D02*
X449913D01*
Y252417D01*
X450537D01*
X451004Y252510D01*
X451399Y252774D01*
X451663Y253170D01*
X451735Y253532D01*
D02*
G37*
G36*
X443087D02*
X441265D01*
X441337Y253170D01*
X441601Y252774D01*
X441996Y252510D01*
X442463Y252417D01*
X443087D01*
Y253532D01*
D02*
G37*
G36*
X427858Y253551D02*
X425980D01*
Y250492D01*
X427858D01*
Y253551D01*
D02*
G37*
G36*
X417500D02*
X415622D01*
Y250492D01*
X417500D01*
Y253551D01*
D02*
G37*
G36*
X381772Y248547D02*
X379500D01*
Y246276D01*
X381772D01*
Y248547D01*
D02*
G37*
G36*
X378500D02*
X376228D01*
Y246276D01*
X378500D01*
Y248547D01*
D02*
G37*
G36*
X447469Y246528D02*
X445000D01*
Y244453D01*
X447469D01*
Y246528D01*
D02*
G37*
G36*
X405969D02*
X403500D01*
Y244453D01*
X405969D01*
Y246528D01*
D02*
G37*
G36*
X444000D02*
X441532D01*
Y244453D01*
X444000D01*
Y246528D01*
D02*
G37*
G36*
X402500D02*
X400032D01*
Y244453D01*
X402500D01*
Y246528D01*
D02*
G37*
G36*
X468421Y247031D02*
X463000D01*
Y244169D01*
X468421D01*
Y247031D01*
D02*
G37*
G36*
X462000D02*
X456579D01*
Y244169D01*
X462000D01*
Y247031D01*
D02*
G37*
G36*
X428469Y246028D02*
X426000D01*
Y243953D01*
X428469D01*
Y246028D01*
D02*
G37*
G36*
X425000D02*
X422532D01*
Y243953D01*
X425000D01*
Y246028D01*
D02*
G37*
G36*
X468421Y243169D02*
X463000D01*
Y240307D01*
X468421D01*
Y243169D01*
D02*
G37*
G36*
X462000D02*
X456579D01*
Y240307D01*
X462000D01*
Y243169D01*
D02*
G37*
G36*
X382453Y242953D02*
X379000D01*
Y239500D01*
X382453D01*
Y242953D01*
D02*
G37*
G36*
X378000D02*
X374547D01*
Y239500D01*
X378000D01*
Y242953D01*
D02*
G37*
G36*
X382453Y238500D02*
X379000D01*
Y235047D01*
X382453D01*
Y238500D01*
D02*
G37*
G36*
X378000D02*
X374547D01*
Y235047D01*
X378000D01*
Y238500D01*
D02*
G37*
G36*
X344504Y244988D02*
X342429D01*
Y242520D01*
X344504D01*
Y244988D01*
D02*
G37*
G36*
X345748Y239224D02*
X344083D01*
Y237500D01*
X347872D01*
X347803Y237851D01*
X347321Y238573D01*
X346599Y239055D01*
X345748Y239224D01*
D02*
G37*
G36*
X324575Y226969D02*
X322500D01*
Y224500D01*
X324575D01*
Y226969D01*
D02*
G37*
G36*
X310059Y230382D02*
X306598D01*
X303138D01*
Y229746D01*
X302366Y229301D01*
X301703Y228638D01*
X301235Y227826D01*
X300992Y226921D01*
Y225984D01*
X301235Y225079D01*
X301703Y224268D01*
X302366Y223605D01*
X303177Y223136D01*
X304083Y222894D01*
X305020D01*
X305925Y223136D01*
X306736Y223605D01*
X307399Y224268D01*
X307868Y225079D01*
X308110Y225984D01*
Y226921D01*
X307868Y227826D01*
X307424Y228594D01*
X307512Y228911D01*
X307588Y229095D01*
X310059D01*
Y230382D01*
D02*
G37*
G36*
X324575Y223500D02*
X322500D01*
Y221031D01*
X324575D01*
Y223500D01*
D02*
G37*
%LPD*%
D10*
X366216Y342833D02*
G03*
X364605Y343500I-1611J-1611D01*
G01*
X373067Y335314D02*
G03*
X372591Y336457I-1612J0D01*
G01*
X375817Y291317D02*
G03*
X375035Y289430I1887J-1887D01*
G01*
X373067Y289433D02*
G03*
X372360Y291140I-2414J0D01*
G01*
X395274Y291105D02*
G03*
X394720Y289768I1337J-1337D01*
G01*
X392752Y289597D02*
G03*
X392127Y291105I-2133J0D01*
G01*
X412788Y316712D02*
G03*
X414500Y316000I1727J1740D01*
G01*
X411903Y317597D02*
G03*
X410188Y318307I-1706J-1693D01*
G01*
X382482Y343907D02*
G03*
X382418Y343997I-848J-530D01*
G01*
X382909Y342410D02*
G03*
X382484Y343903I-2883J-13D01*
G01*
X384878Y343873D02*
G03*
X384878Y343878I-3037J-9D01*
G01*
D02*
G03*
X383994Y346006I-3037J-13D01*
G01*
X382909Y342405D02*
G03*
X382909Y342410I-2883J-8D01*
G01*
X380941Y340436D02*
G03*
X379423Y344076I-5160J-15D01*
G01*
X421009Y233524D02*
G03*
X420866Y233465I0J-202D01*
G01*
X416150Y296850D02*
G03*
X416154Y296846I1106J1112D01*
G01*
D02*
G03*
X417256Y296394I1102J1116D01*
G01*
X416150Y296850D02*
G03*
X416142Y296858I-715J-699D01*
G01*
X358349Y308465D02*
G03*
X357874Y308268I0J-672D01*
G01*
X424096Y305705D02*
G03*
X427000Y304500I2904J2895D01*
G01*
X420929Y308872D02*
G03*
X417256Y310394I-3673J-3673D01*
G01*
X366629Y356871D02*
G03*
X357858Y360500I-8771J-8785D01*
G01*
X366637Y356863D02*
G03*
X366629Y356871I-8779J-8777D01*
G01*
X338320Y281139D02*
G03*
X338084Y280760I710J-704D01*
G01*
X340130Y282944D02*
G03*
X339844Y282663I14962J-15529D01*
G01*
X355092Y288979D02*
G03*
X340130Y282944I0J-21564D01*
G01*
X304783Y384217D02*
G03*
X296858Y387500I-7925J-7925D01*
G01*
X333482Y355518D02*
G03*
X339554Y353000I6054J6019D01*
G01*
X408744Y322244D02*
G03*
X411500Y325000I0J2756D01*
G01*
X353707Y336793D02*
G03*
X352000Y337500I-1707J-1707D01*
G01*
X355500Y333586D02*
G03*
X354500Y336000I-3414J0D01*
G01*
X355500Y323000D02*
G03*
X357051Y319245I5320J-0D01*
G01*
X357065Y319231D02*
G03*
X357998Y318501I2897J2744D01*
G01*
X357065Y319231D02*
G03*
X357051Y319245I-724J-690D01*
G01*
X358060Y318464D02*
G03*
X357998Y318501I-544J-839D01*
G01*
X358060Y318464D02*
G03*
X358594Y318307I538J843D01*
G01*
X345968Y337500D02*
G03*
X345811Y337642I-157J-16D01*
G01*
X388815Y346810D02*
G03*
X387492Y350008I-4515J4D01*
G01*
X379274Y360685D02*
G03*
X381004Y356496I5935J-0D01*
G01*
X387492Y350008D02*
G03*
X387485Y350015I-3192J-3194D01*
G01*
X403084Y353084D02*
G03*
X404500Y356500I-3413J3416D01*
G01*
X409930Y363500D02*
G03*
X404500Y358070I0J-5429D01*
G01*
X358685Y258760D02*
G03*
X361373Y259873I0J3802D01*
G01*
D02*
G03*
X362500Y262593I-2720J2720D01*
G01*
X363047Y275000D02*
G03*
X362500Y273679I1321J-1321D01*
G01*
X411505Y301495D02*
G03*
X408938Y302559I-2563J-2555D01*
G01*
X435000Y303500D02*
G03*
X432586Y304500I-2414J-2414D01*
G01*
X436142Y301890D02*
G03*
X436144Y301855I999J43D01*
G01*
X436157Y301698D02*
G03*
X436157Y301699I-997J-75D01*
G01*
X436160Y301623D02*
G03*
X436157Y301698I-1000J0D01*
G01*
X415797Y311057D02*
G03*
X416732Y310394I942J337D01*
G01*
X415797Y311057D02*
G03*
X413902Y312402I-1895J-663D01*
G01*
X436142Y301890D02*
G03*
X435655Y302853I-1287J-46D01*
G01*
X435580Y302920D02*
G03*
X435655Y302853I703J711D01*
G01*
X415321Y323047D02*
G03*
X413999Y322498I0J-1868D01*
G01*
X411361Y320276D02*
G03*
X412066Y320566I0J1000D01*
G01*
X420047Y323047D02*
G03*
X421500Y324500I0J1453D01*
G01*
X460000Y296500D02*
G03*
X465975Y298975I0J8450D01*
G01*
X360000Y239000D02*
G03*
X354879Y236879I0J-7243D01*
G01*
X345858Y232000D02*
G03*
X352929Y234929I0J10000D01*
G01*
X368987Y337003D02*
G03*
X366583Y338000I-2398J-2386D01*
G01*
X356929Y341071D02*
G03*
X364343Y338000I7414J7414D01*
G01*
X366929Y345571D02*
G03*
X359858Y348500I-7071J-7071D01*
G01*
X375035Y335999D02*
G03*
X373994Y338506I-3560J-10D01*
G01*
X386846Y344849D02*
G03*
X385550Y347988I-4476J-12D01*
G01*
X365565Y353935D02*
G03*
X358172Y357000I-7394J-7385D01*
G01*
X345571Y363429D02*
G03*
X352642Y360500I7071J7071D01*
G01*
X331000Y382142D02*
G03*
X333929Y375071I10000J0D01*
G01*
X338071Y359929D02*
G03*
X345142Y357000I7071J7071D01*
G01*
X326453Y375689D02*
G03*
X329382Y368618I10000J0D01*
G01*
X376295Y339705D02*
G03*
X376289Y339711I-714J-701D01*
G01*
X377004Y337992D02*
G03*
X376295Y339705I-2441J-7D01*
G01*
X365504Y350496D02*
G03*
X359463Y353000I-6039J-6032D01*
G01*
X378972Y339468D02*
G03*
X378217Y341283I-2575J-7D01*
G01*
X391998Y347498D02*
G03*
X390783Y344556I2990J-2956D01*
G01*
X393500Y349000D02*
G03*
X394453Y351316I-2340J2317D01*
G01*
X392000Y347500D02*
G03*
X391998Y347498I2988J-2958D01*
G01*
X404004Y343004D02*
G03*
X404002Y343002I3633J-3661D01*
G01*
X397500Y336500D02*
G03*
X396689Y334536I1992J-1972D01*
G01*
X407636Y344500D02*
G03*
X404004Y343004I0J-5158D01*
G01*
X402503Y346503D02*
G03*
X402501Y346501I4845J-4880D01*
G01*
X407348Y348500D02*
G03*
X402503Y346503I0J-6877D01*
G01*
X396000Y340000D02*
G03*
X394720Y336905I3143J-3111D01*
G01*
X394500Y344500D02*
G03*
X392752Y340271I4297J-4252D01*
G01*
X358979Y288979D02*
G03*
X364086Y291086I0J7243D01*
G01*
X364088Y291088D02*
G03*
X365500Y294500I-3416J3412D01*
G01*
X364086Y291086D02*
G03*
X364088Y291088I-3414J3414D01*
G01*
X365500Y302500D02*
G03*
X365139Y302650I-361J-361D01*
G01*
X367627Y309623D02*
G03*
X367528Y309944I-992J-129D01*
G01*
X367500Y310000D02*
G03*
X365500Y305172I4828J-4828D01*
G01*
X361269Y302642D02*
G03*
X362759Y302638I758J4745D01*
G01*
X310705Y279095D02*
G03*
X310950Y278503I836J0D01*
G01*
X336051Y278504D02*
G03*
X336295Y279095I-592J591D01*
G01*
X336050Y278503D02*
G03*
X336051Y278504I-592J591D01*
G01*
X327571Y351429D02*
G03*
X334642Y348500I7071J7071D01*
G01*
X441123Y269964D02*
G03*
X435000Y272500I-6123J-6123D01*
G01*
X433288Y227240D02*
G03*
X426217Y224311I0J-10000D01*
G01*
X304429Y374571D02*
G03*
X297358Y377500I-7071J-7071D01*
G01*
X356929Y341071D02*
G03*
X349858Y344000I-7071J-7071D01*
G01*
X319571Y346929D02*
G03*
X326642Y344000I7071J7071D01*
G01*
X317429Y349071D02*
G03*
X310358Y352000I-7071J-7071D01*
G01*
X370000Y398795D02*
G03*
X369953Y398681I114J-114D01*
G01*
X439892Y363608D02*
G03*
X440000Y363500I108J0D01*
G01*
X436500Y348500D02*
G03*
X439953Y351953I0J3453D01*
G01*
X416595Y373205D02*
G03*
X416500Y373110I0J-94D01*
G01*
X463189Y363811D02*
G03*
X463500Y363500I311J0D01*
G01*
X459500Y344500D02*
G03*
X463500Y348500I0J4000D01*
G01*
X445500Y321000D02*
G03*
X448000Y323500I0J2500D01*
G01*
X443666Y321000D02*
G03*
X441815Y319149I0J-1851D01*
G01*
X295953Y343453D02*
G03*
X294500Y342000I0J-1453D01*
G01*
X394500Y372002D02*
G03*
X393297Y373205I-1203J0D01*
G01*
X415906Y354500D02*
G03*
X416500Y355095I0J594D01*
G01*
X326453Y397047D02*
G03*
X326000Y397500I-453J0D01*
G01*
X436500Y319000D02*
G03*
X434500Y321000I-2000J0D01*
G01*
X429500Y324000D02*
G03*
X432500Y321000I3000J0D01*
G01*
X441656Y314794D02*
G03*
X441815Y314953I0J159D01*
G01*
X439056Y327744D02*
G03*
X437706Y329094I-1350J0D01*
G01*
X425480Y263500D02*
G03*
X426000Y264020I0J520D01*
G01*
X316000Y224095D02*
G03*
X316094Y224000I94J0D01*
G01*
X316000Y228500D02*
G03*
X311059Y233441I-4941J0D01*
G01*
X362000Y343500D02*
X364605D01*
X373067Y332087D02*
Y335314D01*
X366216Y342833D02*
X372591Y336457D01*
X375035Y286811D02*
Y289430D01*
X375817Y291317D02*
X376000Y291500D01*
X372000D02*
X372360Y291140D01*
X373067Y286811D02*
Y289433D01*
X395274Y291105D02*
X395669Y291500D01*
X394720Y286811D02*
Y289768D01*
X392752Y286811D02*
Y289597D01*
X391732Y291500D02*
X392127Y291105D01*
X410188Y318307D02*
X410188D01*
X406531D02*
X410188D01*
X412788Y316712D02*
X412788Y316712D01*
X382482Y343907D02*
X382484Y343903D01*
X380500Y349500D02*
X383989Y346011D01*
X382909Y332087D02*
Y342405D01*
X384878Y332087D02*
Y343873D01*
X383989Y346011D02*
X383994Y346006D01*
X383989Y346011D02*
Y346011D01*
X352642Y360500D02*
X357858D01*
X366637Y356863D02*
X379423Y344076D01*
X380941Y332087D02*
Y340436D01*
X421009Y233524D02*
X425500D01*
Y237547D01*
Y229500D02*
Y233524D01*
X444000Y223500D02*
X449312D01*
X416150Y296850D02*
X416150Y296850D01*
X417256Y296394D02*
X417362Y296500D01*
X417256Y296394D02*
X417256Y296394D01*
X358349Y308465D02*
X361256D01*
X420929Y308872D02*
X424096Y305705D01*
X427000Y304500D02*
X427000D01*
X357000Y310500D02*
X359394D01*
X361256Y310433D01*
X338084Y280760D02*
X338551D01*
X338320Y281139D02*
X339844Y282663D01*
X336297Y279116D02*
X338551Y280760D01*
X339559Y353000D02*
X359458D01*
X339554Y353000D02*
X339559Y353000D01*
X304783Y384217D02*
X333482Y355518D01*
X406531Y322244D02*
X408744D01*
X345969Y337500D02*
X352000D01*
X353707Y336793D02*
X354500Y336000D01*
X355500Y323005D02*
Y333586D01*
X357998Y318501D02*
X357998Y318501D01*
X355500Y323000D02*
X355500Y323005D01*
X345968Y337500D02*
X345969D01*
X358594Y318307D02*
X358594D01*
X361256D01*
X333968Y337642D02*
X345811D01*
X379274Y360685D02*
X379274Y360691D01*
Y363500D01*
X381004Y356496D02*
X387485Y350015D01*
X394500Y344500D02*
X403084Y353084D01*
X404500Y356500D02*
X404500Y358070D01*
X409930Y363500D02*
X416500D01*
X362500Y262593D02*
Y273679D01*
X376000Y291138D02*
Y291500D01*
X372000Y291115D02*
Y291500D01*
X406531Y302559D02*
X408938D01*
X411505Y301495D02*
X416142Y296858D01*
X435000Y303500D02*
X435580Y302920D01*
X427000Y304500D02*
X432586D01*
X436144Y301855D02*
X436157Y301699D01*
X436157Y301698D01*
X436160Y301344D02*
Y301623D01*
X416732Y310394D02*
X416732D01*
X417256D01*
X406531Y312402D02*
X413902D01*
X436160Y301344D02*
X436456Y297994D01*
X414500Y316000D02*
X422500Y316000D01*
X411903Y317597D02*
X412788Y316712D01*
X412066Y320566D02*
X413999Y322498D01*
X406531Y320276D02*
X411361D01*
X415321Y323047D02*
X417500D01*
X420047D01*
X411500Y325000D02*
Y329500D01*
X465975Y298975D02*
X473000Y306000D01*
X352929Y234929D02*
X354879Y236879D01*
X343583Y232000D02*
X345858D01*
X368987Y337003D02*
X371008Y334982D01*
X366579Y338000D02*
X366583Y338000D01*
X364343Y338000D02*
X366579Y338000D01*
X368987Y337003D02*
X368987Y337003D01*
X375035Y332087D02*
Y335993D01*
X375035Y335999D01*
X366929Y345571D02*
X373994Y338506D01*
X380038Y353500D02*
X385550Y347988D01*
X386846Y332087D02*
Y344849D01*
X365566Y353934D02*
X372352Y347148D01*
X365565Y353935D02*
X365566Y353934D01*
X345142Y357000D02*
X358172D01*
X333929Y375071D02*
X345571Y363429D01*
X331000Y382142D02*
Y397500D01*
X329382Y368618D02*
X338071Y359929D01*
X326453Y387000D02*
Y397047D01*
Y375689D02*
Y387000D01*
X365504Y350496D02*
X376289Y339711D01*
X376295Y339705D02*
X376295Y339705D01*
X359458Y353000D02*
X359463Y353000D01*
X377004Y332087D02*
Y337992D01*
X378972Y332087D02*
Y339468D01*
X372352Y347148D02*
X378213Y341287D01*
X378217Y341283D01*
X388815Y332087D02*
Y333949D01*
X388815Y346810D02*
X388815Y333949D01*
X394453Y351316D02*
Y354500D01*
X392000Y347500D02*
X393500Y349000D01*
X390783Y332087D02*
Y344556D01*
X396689Y334536D02*
X396689Y334531D01*
X397500Y336500D02*
X404002Y343002D01*
X396689Y332087D02*
Y334531D01*
X394720Y332087D02*
Y336901D01*
X394720Y336905D02*
X394720Y336901D01*
X396000Y340000D02*
X402501Y346501D01*
X392752Y332087D02*
Y340266D01*
X392752Y340271D02*
X392752Y340266D01*
X407636Y344500D02*
X459500D01*
X407348Y348500D02*
X436500D01*
X355092Y288979D02*
X358979Y288979D01*
X365500Y302500D02*
Y305172D01*
Y294500D02*
Y302500D01*
X363118Y302650D02*
X365139D01*
X367500Y310000D02*
X367528Y309944D01*
X367627Y309623D02*
X367627Y309623D01*
X362759Y302638D02*
X363118Y302650D01*
X362759Y302638D02*
X362759D01*
X359394Y302487D02*
X361256Y302559D01*
X359394Y302487D02*
X359394D01*
X336050Y278503D02*
X336051Y278504D01*
X328000Y270453D02*
X336050Y278503D01*
X310950Y278503D02*
X319000Y270453D01*
X328000D02*
X328000Y270453D01*
X319000Y270453D02*
X328000D01*
X294500Y387500D02*
X296858D01*
X326642Y344000D02*
X349858D01*
X334642Y348500D02*
X359858D01*
X345969Y337484D02*
Y337500D01*
X304429Y374571D02*
X327571Y351429D01*
X443587Y257968D02*
Y267500D01*
X441123Y269964D02*
X443587Y267500D01*
X433288Y227240D02*
X436520D01*
X425500Y223594D02*
X426217Y224311D01*
X294500Y377500D02*
X297358D01*
X317429Y349071D02*
X319571Y346929D01*
X294500Y352000D02*
X310358D01*
X371008Y332177D02*
Y334982D01*
Y332177D02*
X371098Y332087D01*
X369953Y363500D02*
Y398681D01*
Y363500D02*
X379274D01*
X439892Y363608D02*
Y373205D01*
X440000Y354500D02*
Y363500D01*
X394453Y354500D02*
Y363500D01*
X416595Y373205D02*
Y398795D01*
X416500Y363500D02*
Y373110D01*
X463189Y363811D02*
Y373205D01*
X463500Y348500D02*
Y354500D01*
Y363500D01*
X454000Y340000D02*
X457354Y339953D01*
X458000D01*
X443666Y321000D02*
X445500D01*
X441815Y314953D02*
Y319149D01*
X295953Y343453D02*
X305000D01*
X439892Y373205D02*
Y398795D01*
X439953Y354500D02*
X440000D01*
X394500Y363500D02*
Y372002D01*
X393297Y373205D02*
Y398795D01*
X394453Y363500D02*
X394500D01*
X416500Y355095D02*
Y363500D01*
X439953Y351953D02*
Y354500D01*
X463189Y373205D02*
Y398795D01*
X463453Y354500D02*
X463500D01*
X343583Y227000D02*
X353000D01*
X333968Y327642D02*
X345969D01*
X345563Y327236D02*
X345969Y327642D01*
X345563Y316142D02*
Y327236D01*
X351468Y316142D02*
X351665Y316339D01*
X361256D01*
Y310500D02*
Y312402D01*
Y314370D01*
X427000Y296500D02*
X433356D01*
X417362D02*
X427000D01*
X458000Y324500D02*
Y334047D01*
X448000Y323500D02*
Y329000D01*
X432500Y321000D02*
X434500D01*
X429500Y324000D02*
Y329047D01*
X439056Y314794D02*
Y327744D01*
X436500Y314794D02*
Y319000D01*
X436456Y314794D02*
X436500D01*
X433856Y297000D02*
Y297994D01*
X433356Y296500D02*
X433856Y297000D01*
X436456Y297994D02*
X436500D01*
X443547Y257968D02*
X443587D01*
X426000Y264020D02*
Y272500D01*
X316000Y224095D02*
Y228500D01*
X306598Y233441D02*
X311059D01*
D18*
X310705Y290905D02*
D03*
X336295D02*
D03*
X310705Y279095D02*
D03*
X336295D02*
D03*
D19*
X433856Y314794D02*
D03*
X436456D02*
D03*
X439056D02*
D03*
X441656D02*
D03*
Y297994D02*
D03*
X439056D02*
D03*
X436456D02*
D03*
X433856D02*
D03*
D20*
X359000Y251453D02*
D03*
Y245547D02*
D03*
X458000Y324500D02*
D03*
Y318595D02*
D03*
X369500Y251453D02*
D03*
Y245547D02*
D03*
X328000Y264547D02*
D03*
Y270453D02*
D03*
X417256Y296394D02*
D03*
Y290488D02*
D03*
Y310394D02*
D03*
Y304488D02*
D03*
X417500Y328953D02*
D03*
Y323047D02*
D03*
X429500Y334953D02*
D03*
Y329047D02*
D03*
X439000Y334953D02*
D03*
Y329047D02*
D03*
X448000Y334953D02*
D03*
Y329047D02*
D03*
X305000Y337547D02*
D03*
Y343453D02*
D03*
X458000Y339953D02*
D03*
Y334047D02*
D03*
X349000Y251453D02*
D03*
Y245547D02*
D03*
X435000Y272500D02*
D03*
Y278405D02*
D03*
X425500Y243453D02*
D03*
Y237547D02*
D03*
Y229500D02*
D03*
Y223594D02*
D03*
X324250Y301642D02*
D03*
Y307547D02*
D03*
X333189Y301642D02*
D03*
Y307547D02*
D03*
X342129Y301642D02*
D03*
Y307547D02*
D03*
X351068Y301642D02*
D03*
Y307547D02*
D03*
X319000Y264547D02*
D03*
Y270453D02*
D03*
X349000Y276406D02*
D03*
Y270500D02*
D03*
X379000Y273453D02*
D03*
Y267547D02*
D03*
X444500Y238047D02*
D03*
Y243953D02*
D03*
X403000Y238047D02*
D03*
Y243953D02*
D03*
X410000Y274406D02*
D03*
Y268500D02*
D03*
X401000Y274453D02*
D03*
Y268547D02*
D03*
X426000Y278405D02*
D03*
Y272500D02*
D03*
D21*
X475000Y398795D02*
D03*
Y373205D02*
D03*
X463189Y398795D02*
D03*
Y373205D02*
D03*
X451703Y398795D02*
D03*
Y373205D02*
D03*
X439892Y398795D02*
D03*
Y373205D02*
D03*
X416595D02*
D03*
Y398795D02*
D03*
X428406Y373205D02*
D03*
Y398795D02*
D03*
X405108D02*
D03*
Y373205D02*
D03*
X393297Y398795D02*
D03*
Y373205D02*
D03*
X370000D02*
D03*
Y398795D02*
D03*
X381811Y373205D02*
D03*
Y398795D02*
D03*
D22*
X364047Y363500D02*
D03*
X369953D02*
D03*
X388547Y354500D02*
D03*
X394453D02*
D03*
X410000D02*
D03*
X415906D02*
D03*
X434047D02*
D03*
X439953D02*
D03*
X457547D02*
D03*
X463453D02*
D03*
X345563Y316142D02*
D03*
X351468D02*
D03*
X326453Y387000D02*
D03*
X320547D02*
D03*
X322000Y224000D02*
D03*
X316094D02*
D03*
X368953Y275000D02*
D03*
X363047D02*
D03*
X449453Y267500D02*
D03*
X443547D02*
D03*
X463500Y363500D02*
D03*
X469406D02*
D03*
X440000D02*
D03*
X445905D02*
D03*
X416500D02*
D03*
X422405D02*
D03*
X394500D02*
D03*
X400406D02*
D03*
X328063Y337642D02*
D03*
X333968D02*
D03*
X328063Y327642D02*
D03*
X333968D02*
D03*
X379274Y363500D02*
D03*
X385179D02*
D03*
X336024Y245488D02*
D03*
X341929D02*
D03*
X443547Y281000D02*
D03*
X449453D02*
D03*
D23*
X369130Y332087D02*
D03*
X371098D02*
D03*
X373067D02*
D03*
X375035D02*
D03*
X377004D02*
D03*
X378972D02*
D03*
X380941D02*
D03*
X382909D02*
D03*
X384878D02*
D03*
X386846D02*
D03*
X388815D02*
D03*
X390783D02*
D03*
X392752D02*
D03*
X394720D02*
D03*
X396689D02*
D03*
X398657D02*
D03*
Y286811D02*
D03*
X396689D02*
D03*
X394720D02*
D03*
X392752D02*
D03*
X390783D02*
D03*
X388815D02*
D03*
X386846D02*
D03*
X384878D02*
D03*
X382909D02*
D03*
X380941D02*
D03*
X378972D02*
D03*
X377004D02*
D03*
X375035D02*
D03*
X373067D02*
D03*
X371098D02*
D03*
X369130D02*
D03*
D24*
X406531Y324213D02*
D03*
Y322244D02*
D03*
Y320276D02*
D03*
Y318307D02*
D03*
Y316339D02*
D03*
Y314370D02*
D03*
Y312402D02*
D03*
Y310433D02*
D03*
Y308465D02*
D03*
Y306496D02*
D03*
Y304528D02*
D03*
Y302559D02*
D03*
Y300590D02*
D03*
Y298622D02*
D03*
Y296654D02*
D03*
Y294685D02*
D03*
X361256D02*
D03*
Y296654D02*
D03*
Y298622D02*
D03*
Y300590D02*
D03*
Y302559D02*
D03*
Y304528D02*
D03*
Y306496D02*
D03*
Y308465D02*
D03*
Y310433D02*
D03*
Y312402D02*
D03*
Y314370D02*
D03*
Y316339D02*
D03*
Y318307D02*
D03*
Y320276D02*
D03*
Y322244D02*
D03*
Y324213D02*
D03*
D25*
X345969Y327642D02*
D03*
Y337484D02*
D03*
D26*
X306598Y230882D02*
D03*
Y233441D02*
D03*
Y236000D02*
D03*
Y238559D02*
D03*
Y241118D02*
D03*
D27*
X343583Y237000D02*
D03*
Y232000D02*
D03*
Y227000D02*
D03*
Y222000D02*
D03*
X366417Y237000D02*
D03*
Y232000D02*
D03*
Y227000D02*
D03*
Y222000D02*
D03*
D28*
X322260Y232776D02*
D03*
X326000D02*
D03*
X329740D02*
D03*
Y242224D02*
D03*
X326000D02*
D03*
X322260D02*
D03*
D29*
X436520Y227240D02*
D03*
X444000Y230980D02*
D03*
Y223500D02*
D03*
D30*
X379000Y249047D02*
D03*
Y254953D02*
D03*
D31*
X449413Y257968D02*
D03*
Y256000D02*
D03*
Y254031D02*
D03*
X443587D02*
D03*
Y256000D02*
D03*
Y257968D02*
D03*
D32*
X462500Y252331D02*
D03*
Y243669D02*
D03*
D33*
X418000Y254051D02*
D03*
X421740D02*
D03*
X425480D02*
D03*
Y263500D02*
D03*
X418000D02*
D03*
D34*
X358685Y258760D02*
D03*
Y262500D02*
D03*
Y266240D02*
D03*
X369315D02*
D03*
Y262500D02*
D03*
Y258760D02*
D03*
D35*
X389500Y261169D02*
D03*
Y269831D02*
D03*
D56*
X348970Y301626D02*
G03*
X348958Y301626I28J-1968D01*
G01*
X305118Y336762D02*
G03*
X305080Y337148I-1969J0D01*
G01*
X431386Y312323D02*
G03*
X431387Y312325I-1390J1393D01*
G01*
X431128Y312107D02*
G03*
X431386Y312323I-1133J1610D01*
G01*
X355118Y310500D02*
G03*
X353246Y309724I0J-2648D01*
G01*
X347856Y222000D02*
G03*
X347957Y222003I0J1969D01*
G01*
X459372Y319208D02*
G03*
X458038Y318632I58J-1968D01*
G01*
X352062Y301646D02*
G03*
X355384Y303057I-199J5086D01*
G01*
X327335Y327559D02*
G03*
X327608Y327578I0J1969D01*
G01*
X355541Y303192D02*
G03*
X355384Y303057I1198J-1562D01*
G01*
X355541Y303192D02*
G03*
X356693Y305512I-1762J2320D01*
G01*
X354707Y262500D02*
G03*
X353500Y262000I0J-1707D01*
G01*
X354000Y251500D02*
G03*
X354114Y251453I114J114D01*
G01*
X353500Y252707D02*
G03*
X354000Y251500I1707J0D01*
G01*
X369500Y258313D02*
G03*
X369315Y258760I-632J0D01*
G01*
X336024Y245488D02*
X336221Y244504D01*
Y241339D02*
Y244504D01*
X346457Y301575D02*
X348958Y301626D01*
X348970Y301626D02*
X350084Y301642D01*
X342129D02*
X343113Y301575D01*
X346457D01*
X333189Y307547D02*
X342129D01*
X350084Y308138D02*
X351068Y307547D01*
X332205Y308138D02*
X333189Y307547D01*
X342129D02*
X351068D01*
X341145Y308138D02*
X342129Y307547D01*
X323266Y308138D02*
X324250Y307547D01*
X305080Y337148D02*
Y337148D01*
X305118Y336762D02*
X305118Y333858D01*
X305000Y337547D02*
X305080Y337148D01*
X324250Y301642D02*
X333189D01*
X323266Y301051D02*
X324250Y301642D01*
X333189D02*
X342129D01*
X332205Y301051D02*
X333189Y301642D01*
X350084Y301051D02*
X350264Y301165D01*
X351017Y301642D01*
X351068Y307547D02*
X353246Y309724D01*
X324250Y307547D02*
X333189D01*
X351078Y301703D02*
X352053Y301646D01*
X351017Y301642D02*
X351068D01*
X352053Y301646D02*
X352062D01*
X351017Y301642D02*
X351078Y301703D01*
X415354Y332283D02*
X416516Y329543D01*
X417500Y328953D01*
X431386Y312323D02*
X432171Y313108D01*
X430791Y311729D02*
X431386Y312323D01*
X347957Y222003D02*
X348819Y222047D01*
X343583Y222000D02*
X347856D01*
X430709Y311811D02*
X431128Y312107D01*
X469406Y363500D02*
X472953D01*
X453952Y354500D02*
X457547D01*
X316929Y387008D02*
X320547Y387000D01*
X458000Y318595D02*
X458038Y318632D01*
X327608Y327578D02*
X328063Y327642D01*
X324410Y327559D02*
X327335D01*
X310705Y290905D02*
X336295D01*
X451703Y386000D02*
Y398795D01*
Y373205D02*
Y386000D01*
X475000D02*
Y398795D01*
Y373205D02*
Y386000D01*
X428406D02*
Y398795D01*
Y373205D02*
Y386000D01*
X405108D02*
Y398795D01*
Y373205D02*
Y386000D01*
X381811D02*
Y398795D01*
Y373205D02*
Y386000D01*
X417256Y286681D02*
Y290488D01*
X417323Y300787D02*
Y303898D01*
X417256Y304488D02*
X417323Y303898D01*
X459372Y319208D02*
X462205Y319291D01*
X430709Y354724D02*
X433823D01*
X434047Y354500D01*
X410123Y355484D02*
Y358839D01*
X410000Y354500D02*
X410123Y355484D01*
X445905Y363894D02*
X448547Y366535D01*
X445905Y363500D02*
Y363894D01*
X422405D02*
X425047Y366535D01*
X422405Y363500D02*
Y363894D01*
X400406Y363500D02*
Y363894D01*
X403047Y366535D01*
X385179Y363894D02*
X387795Y366510D01*
Y366535D01*
X385179Y363500D02*
Y363894D01*
X327472Y337795D02*
X328063Y337642D01*
X324410Y337795D02*
X327472D01*
X363457Y363514D02*
X364047Y363500D01*
X360510Y363514D02*
X363457D01*
X388547Y354500D02*
Y354894D01*
X385433Y358008D02*
X388547Y354894D01*
X444450Y300787D02*
X444488D01*
X328020Y264567D02*
X331496D01*
X328000Y264547D02*
X328020Y264567D01*
X318980D02*
X319000Y264547D01*
X315748Y264567D02*
X318980D01*
X354707Y262500D02*
X358685D01*
X353500Y252707D02*
Y262000D01*
X354114Y251453D02*
X359000D01*
X429500Y334953D02*
Y338500D01*
X448000Y334953D02*
Y338500D01*
X439000Y334953D02*
Y338500D01*
X361000Y232000D02*
X366417D01*
X349000Y245547D02*
X369500D01*
X369500Y245547D01*
Y251453D02*
Y258313D01*
X365000Y262500D02*
X369315D01*
X373000D01*
D57*
X334500Y232677D02*
G03*
X330924Y236253I-3576J0D01*
G01*
X322260Y232776D02*
G03*
X322441Y232957I0J181D01*
G01*
X336365Y233450D02*
G03*
X331511Y238304I-4855J0D01*
G01*
X365000Y227000D02*
G03*
X358500Y220500I0J-6500D01*
G01*
X356500Y217000D02*
G03*
X358500Y219000I0J2000D01*
G01*
X336365Y221000D02*
G03*
X340365Y217000I4000J0D01*
G01*
X361865Y222000D02*
G03*
X360365Y220500I0J-1500D01*
G01*
X356500Y215135D02*
G03*
X360365Y219000I0J3865D01*
G01*
X334500Y221000D02*
G03*
X340365Y215135I5865J0D01*
G01*
X329528Y238304D02*
X331511D01*
X322047D02*
X329528D01*
X329740Y238517D02*
Y242224D01*
X329528Y238304D02*
X329740Y238517D01*
X308526Y238304D02*
X322047D01*
X322260Y238517D01*
Y242224D01*
X329528Y236253D02*
X330924D01*
X322441D02*
X329528D01*
Y232988D02*
Y236253D01*
Y232988D02*
X329740Y232776D01*
X308526Y236253D02*
X322441D01*
Y232957D02*
Y236253D01*
X306598Y238559D02*
X308526Y238304D01*
X306598Y236000D02*
X308526Y236253D01*
X366000Y227500D02*
X366417D01*
X365000Y227000D02*
X366417D01*
X336365Y221000D02*
Y233450D01*
X358500Y219000D02*
Y220500D01*
X340365Y217000D02*
X356500D01*
X361865Y222000D02*
X366417D01*
X334500Y221000D02*
Y232677D01*
X360365Y219000D02*
Y220500D01*
X340365Y215135D02*
X356500D01*
X329740Y232776D02*
Y233807D01*
D58*
X357087Y307480D02*
G03*
X356693Y306530I950J-950D01*
G01*
X355118Y310500D02*
X356000D01*
X432171Y313108D02*
X433856Y314794D01*
X356693Y305512D02*
Y306530D01*
X441656Y300575D02*
X441868Y300787D01*
X441656Y297994D02*
Y300575D01*
X441868Y300787D02*
X444450D01*
D59*
X357087Y307480D02*
X357874Y308268D01*
X356000Y310500D02*
X357000D01*
D60*
X294500Y397500D02*
D03*
Y387500D02*
D03*
Y377500D02*
D03*
Y276000D02*
D03*
Y286000D02*
D03*
Y296000D02*
D03*
X473000Y322000D02*
D03*
Y332000D02*
D03*
Y342000D02*
D03*
X294500Y322000D02*
D03*
Y332000D02*
D03*
Y342000D02*
D03*
X473000Y306000D02*
D03*
Y296000D02*
D03*
Y286000D02*
D03*
X388500Y239000D02*
D03*
D61*
X294500Y367500D02*
D03*
Y306000D02*
D03*
X473000Y352000D02*
D03*
X294500D02*
D03*
X473000Y276000D02*
D03*
D62*
X351000Y397500D02*
D03*
X346000D02*
D03*
X341000D02*
D03*
X336000D02*
D03*
X331000D02*
D03*
X326000D02*
D03*
X321000D02*
D03*
D63*
X316000D02*
D03*
D64*
X294000Y221728D02*
D03*
Y250272D02*
D03*
D65*
X304551Y226453D02*
D03*
Y245547D02*
D03*
D66*
X378500Y239000D02*
D03*
D67*
X348425Y240551D02*
D03*
X382484Y343903D02*
D03*
X412598Y277953D02*
D03*
X405118Y234252D02*
D03*
X401181D02*
D03*
X385433Y272835D02*
D03*
Y266929D02*
D03*
Y269685D02*
D03*
X391732Y291500D02*
D03*
X395669D02*
D03*
X420866Y233465D02*
D03*
X449312Y223500D02*
D03*
X446063Y234252D02*
D03*
X442913D02*
D03*
X327559Y228740D02*
D03*
X324803D02*
D03*
X414528Y263631D02*
D03*
X414567Y266142D02*
D03*
Y261417D02*
D03*
X412205Y264961D02*
D03*
X408268D02*
D03*
X403150D02*
D03*
X398819D02*
D03*
X405512Y268504D02*
D03*
X350394Y280315D02*
D03*
X378740Y277559D02*
D03*
X381102D02*
D03*
X383071Y275197D02*
D03*
Y272835D02*
D03*
X372835Y278346D02*
D03*
Y275984D02*
D03*
Y273622D02*
D03*
X393701Y272441D02*
D03*
Y269685D02*
D03*
Y266929D02*
D03*
X398425Y277953D02*
D03*
X403543D02*
D03*
X407480D02*
D03*
X427953Y282283D02*
D03*
X424016D02*
D03*
X437008D02*
D03*
X432677D02*
D03*
X439764Y283071D02*
D03*
Y279134D02*
D03*
X449213Y232283D02*
D03*
Y229528D02*
D03*
X438976Y231102D02*
D03*
X448819Y239370D02*
D03*
Y236221D02*
D03*
X440158D02*
D03*
Y239370D02*
D03*
X374410Y231496D02*
D03*
X372047Y229134D02*
D03*
Y231496D02*
D03*
X450518Y250768D02*
D03*
X323622Y219685D02*
D03*
X321260D02*
D03*
X325984Y221260D02*
D03*
Y223622D02*
D03*
Y225984D02*
D03*
X311417Y230315D02*
D03*
X299606Y230709D02*
D03*
X301969D02*
D03*
X380038Y353500D02*
D03*
X380500Y349500D02*
D03*
X362000Y343500D02*
D03*
X460000Y296500D02*
D03*
X454000Y340000D02*
D03*
X367500Y310000D02*
D03*
X411500Y329500D02*
D03*
X353000Y227000D02*
D03*
X360000Y239000D02*
D03*
X372000Y291500D02*
D03*
X376000D02*
D03*
X422500Y316000D02*
D03*
X421500Y324500D02*
D03*
X427000Y296500D02*
D03*
Y304500D02*
D03*
X421776Y265781D02*
D03*
X421755Y262157D02*
D03*
Y258789D02*
D03*
X365000Y262500D02*
D03*
D68*
X345276Y240945D02*
D03*
X340945D02*
D03*
X336221Y241339D02*
D03*
X346457Y301575D02*
D03*
X346599Y307547D02*
D03*
X329134Y301575D02*
D03*
X338189D02*
D03*
X305118Y333858D02*
D03*
X460630Y225197D02*
D03*
X378346D02*
D03*
X393701D02*
D03*
X409055D02*
D03*
X337659Y307547D02*
D03*
X328720D02*
D03*
X415354Y332283D02*
D03*
X430709Y311811D02*
D03*
X472953Y363500D02*
D03*
X453952Y354500D02*
D03*
X316929Y387008D02*
D03*
X417256Y286681D02*
D03*
X417323Y300787D02*
D03*
X462205Y319291D02*
D03*
X430407Y354741D02*
D03*
X410123Y358839D02*
D03*
X448547Y366535D02*
D03*
X425047D02*
D03*
X403047D02*
D03*
X387795D02*
D03*
X475000Y386000D02*
D03*
X451703D02*
D03*
X428406D02*
D03*
X405108D02*
D03*
X381811D02*
D03*
X324410Y327559D02*
D03*
Y337795D02*
D03*
X360510Y363514D02*
D03*
X385433Y358008D02*
D03*
X444450Y300787D02*
D03*
X318898Y290945D02*
D03*
X332283Y264567D02*
D03*
X314961D02*
D03*
X348819Y222047D02*
D03*
X435433Y288583D02*
D03*
X442913D02*
D03*
X425984D02*
D03*
X420866Y273622D02*
D03*
X416535D02*
D03*
X405118Y280709D02*
D03*
X393543D02*
D03*
X381968D02*
D03*
X347244D02*
D03*
X370394D02*
D03*
X358819D02*
D03*
X472441Y225197D02*
D03*
X474803Y255118D02*
D03*
Y248425D02*
D03*
Y240945D02*
D03*
X452362Y234252D02*
D03*
X436221Y234646D02*
D03*
X444095Y216535D02*
D03*
X425591D02*
D03*
X311024Y219685D02*
D03*
X301969D02*
D03*
X429500Y338500D02*
D03*
X439000D02*
D03*
X448000D02*
D03*
X361000Y232000D02*
D03*
X373000Y262500D02*
D03*
X416500Y269000D02*
D03*
X406693Y255118D02*
D03*
X399606D02*
D03*
X406693Y260630D02*
D03*
X399606D02*
D03*
X453500Y251000D02*
D03*
X447500D02*
D03*
M02*
