G04*
G04 #@! TF.GenerationSoftware,Altium Limited,Altium Designer,22.8.2 (66)*
G04*
G04 Layer_Color=65535*
%FSLAX25Y25*%
%MOIN*%
G70*
G04*
G04 #@! TF.SameCoordinates,4F58F9C0-C404-4AA8-A12D-09E9B3034F0A*
G04*
G04*
G04 #@! TF.FilePolarity,Positive*
G04*
G01*
G75*
%ADD10C,0.01000*%
%ADD11C,0.00984*%
%ADD12C,0.00394*%
%ADD13C,0.00787*%
%ADD14C,0.02362*%
%ADD15C,0.00600*%
%ADD16C,0.00709*%
%ADD17C,0.00500*%
D10*
X330239Y285000D02*
G03*
X330239Y285000I-6739J0D01*
G01*
X317201Y278307D02*
G03*
X317201Y278307I-394J0D01*
G01*
Y291693D02*
G03*
X317201Y291693I-394J0D01*
G01*
X330587D02*
G03*
X330587Y291693I-394J0D01*
G01*
Y278307D02*
G03*
X330587Y278307I-394J0D01*
G01*
X430276Y297339D02*
G03*
X430276Y297339I-394J0D01*
G01*
X362500Y253700D02*
G03*
X362500Y253700I-200J0D01*
G01*
X476181Y392693D02*
G03*
X476181Y392693I-394J0D01*
G01*
X462795D02*
G03*
X462795Y392693I-394J0D01*
G01*
Y379307D02*
G03*
X462795Y379307I-394J0D01*
G01*
X476181D02*
G03*
X476181Y379307I-394J0D01*
G01*
X475834Y386000D02*
G03*
X475834Y386000I-6739J0D01*
G01*
X452884Y392693D02*
G03*
X452884Y392693I-394J0D01*
G01*
X439498D02*
G03*
X439498Y392693I-394J0D01*
G01*
Y379307D02*
G03*
X439498Y379307I-394J0D01*
G01*
X452884D02*
G03*
X452884Y379307I-394J0D01*
G01*
X452536Y386000D02*
G03*
X452536Y386000I-6739J0D01*
G01*
X429239D02*
G03*
X429239Y386000I-6739J0D01*
G01*
X429587Y379307D02*
G03*
X429587Y379307I-394J0D01*
G01*
X416201D02*
G03*
X416201Y379307I-394J0D01*
G01*
Y392693D02*
G03*
X416201Y392693I-394J0D01*
G01*
X429587D02*
G03*
X429587Y392693I-394J0D01*
G01*
X406289D02*
G03*
X406289Y392693I-394J0D01*
G01*
X392903D02*
G03*
X392903Y392693I-394J0D01*
G01*
Y379307D02*
G03*
X392903Y379307I-394J0D01*
G01*
X406289D02*
G03*
X406289Y379307I-394J0D01*
G01*
X405942Y386000D02*
G03*
X405942Y386000I-6739J0D01*
G01*
X382645D02*
G03*
X382645Y386000I-6739J0D01*
G01*
X382992Y379307D02*
G03*
X382992Y379307I-394J0D01*
G01*
X369606D02*
G03*
X369606Y379307I-394J0D01*
G01*
Y392693D02*
G03*
X369606Y392693I-394J0D01*
G01*
X382992D02*
G03*
X382992Y392693I-394J0D01*
G01*
X454900Y316347D02*
G03*
X454900Y316347I-200J0D01*
G01*
X373000Y253700D02*
G03*
X373000Y253700I-200J0D01*
G01*
X458563Y239339D02*
G03*
X458563Y239339I-394J0D01*
G01*
X314642Y276142D02*
Y293858D01*
X332358Y276142D02*
Y293858D01*
X314642D02*
X332358D01*
X314642Y276142D02*
X332358D01*
X460236Y377142D02*
X477953D01*
X460236Y394858D02*
X477953D01*
X460236Y377142D02*
Y394858D01*
X477953Y377142D02*
Y394858D01*
X436939Y377142D02*
X454656D01*
X436939Y394858D02*
X454656D01*
X436939Y377142D02*
Y394858D01*
X454656Y377142D02*
Y394858D01*
X413642Y377142D02*
X431358D01*
X413642Y394858D02*
X431358D01*
X413642Y377142D02*
Y394858D01*
X431358Y377142D02*
Y394858D01*
X390345Y377142D02*
X408061D01*
X390345Y394858D02*
X408061D01*
X390345Y377142D02*
Y394858D01*
X408061Y377142D02*
Y394858D01*
X367047Y377142D02*
X384764D01*
X367047Y394858D02*
X384764D01*
X367047Y377142D02*
Y394858D01*
X384764Y377142D02*
Y394858D01*
D11*
X357122Y324213D02*
G03*
X357122Y324213I-492J0D01*
G01*
X366910Y218653D02*
G03*
X366910Y218653I-492J0D01*
G01*
X322752Y228346D02*
G03*
X322752Y228346I-492J0D01*
G01*
X444492Y220153D02*
G03*
X444492Y220153I-492J0D01*
G01*
X440004Y257673D02*
G03*
X440004Y257673I-492J0D01*
G01*
X414949Y254051D02*
G03*
X414949Y254051I-492J0D01*
G01*
X369807Y255413D02*
G03*
X369807Y255413I-492J0D01*
G01*
D12*
X345181Y323902D02*
G03*
X344787Y323902I-197J0D01*
G01*
D02*
G03*
X345181Y323902I197J0D01*
G01*
X386350Y258217D02*
G03*
X386350Y258217I-197J0D01*
G01*
X343016Y330988D02*
Y334138D01*
X348921Y330988D02*
Y334138D01*
X285614Y250173D02*
X287583D01*
X285614Y221827D02*
Y250173D01*
Y221827D02*
X287583D01*
X305535Y249780D02*
Y250173D01*
X299394D02*
X305535D01*
Y221827D02*
Y222220D01*
X299394Y221827D02*
X305535D01*
D13*
X310500Y241500D02*
G03*
X310500Y240713I0J-394D01*
G01*
D02*
G03*
X310500Y241500I0J394D01*
G01*
X364209Y326279D02*
Y329134D01*
Y289764D02*
Y292618D01*
X400724Y289764D02*
X403579D01*
X364209D02*
X367063D01*
X403579Y326279D02*
Y329134D01*
Y289764D02*
Y292618D01*
X400724Y329134D02*
X403579D01*
X364209D02*
X367063D01*
X289500Y362500D02*
X299500D01*
X289500D02*
Y402500D01*
X299500Y362500D02*
Y402500D01*
X289500D02*
X299500D01*
X289500Y311000D02*
X299500D01*
Y271000D02*
Y311000D01*
X289500Y271000D02*
Y311000D01*
Y271000D02*
X299500D01*
X468000Y357000D02*
X478000D01*
Y317000D02*
Y357000D01*
X468000Y317000D02*
Y357000D01*
Y317000D02*
X478000D01*
X289500Y357000D02*
X299500D01*
Y317000D02*
Y357000D01*
X289500Y317000D02*
Y357000D01*
Y317000D02*
X299500D01*
X312457Y393957D02*
X354543D01*
Y401043D01*
X312457D02*
X354543D01*
X312457Y393957D02*
Y401043D01*
X468000Y271000D02*
X478000D01*
X468000D02*
Y311000D01*
X478000Y271000D02*
Y311000D01*
X468000D02*
X478000D01*
X347520Y240327D02*
X362480D01*
X347520Y218673D02*
X362480D01*
X347520D02*
Y240327D01*
X362480Y218673D02*
Y240327D01*
X319996Y236221D02*
Y238779D01*
X332004Y236221D02*
Y238779D01*
X437504Y229996D02*
Y233146D01*
X439866D01*
X437504Y221335D02*
Y224484D01*
Y221335D02*
X439866D01*
X443941Y251866D02*
X449059D01*
X443941Y260134D02*
X449059D01*
X415835Y258185D02*
Y259366D01*
X427646Y258185D02*
Y259366D01*
X415835Y258185D02*
X427646D01*
X415835Y259366D02*
X427646D01*
X362228Y256594D02*
Y268406D01*
X365772Y256594D02*
Y268406D01*
X362228D02*
X365772D01*
X362228Y256594D02*
X365772D01*
X385563Y259791D02*
Y271209D01*
X393437Y259791D02*
Y271209D01*
X385563Y259791D02*
X386154D01*
X385563Y271209D02*
X386154D01*
X392846Y259791D02*
X393437D01*
X392846Y271209D02*
X393437D01*
X373500Y229000D02*
X393500D01*
Y234000D01*
X373500Y229000D02*
Y234000D01*
X393500D01*
X376833Y215667D02*
Y229000D01*
Y215667D02*
X378500Y214000D01*
X380167Y215667D01*
X380167Y215667D02*
Y229000D01*
X386833Y215667D02*
Y229000D01*
Y215667D02*
X388500Y214000D01*
X390167Y215667D01*
Y229000D01*
D14*
X359724Y222610D02*
G03*
X359724Y222610I-1181J0D01*
G01*
D15*
X431156Y299794D02*
Y312994D01*
X444356Y299794D02*
Y312994D01*
D16*
X304644Y375669D02*
X301693D01*
X301102Y375079D01*
Y373898D01*
X301693Y373308D01*
X304644D01*
X301102Y372127D02*
X303464D01*
X304644Y370946D01*
X303464Y369766D01*
X301102D01*
X302873D01*
Y372127D01*
X301102Y368585D02*
X304644D01*
Y366814D01*
X304054Y366224D01*
X302873D01*
X302283Y366814D01*
Y368585D01*
Y367404D02*
X301102Y366224D01*
X304644Y365043D02*
Y362681D01*
Y363862D01*
X301102D01*
X304644Y280394D02*
Y279213D01*
Y279803D01*
X301102D01*
Y280394D01*
Y279213D01*
Y275080D02*
Y277442D01*
X303464Y275080D01*
X304054D01*
X304644Y275671D01*
Y276852D01*
X304054Y277442D01*
Y271538D02*
X304644Y272129D01*
Y273309D01*
X304054Y273900D01*
X301693D01*
X301102Y273309D01*
Y272129D01*
X301693Y271538D01*
X304644Y331575D02*
X301102D01*
Y329804D01*
X301693Y329213D01*
X304054D01*
X304644Y329804D01*
Y331575D01*
X304054Y325671D02*
X304644Y326262D01*
Y327442D01*
X304054Y328033D01*
X301693D01*
X301102Y327442D01*
Y326262D01*
X301693Y325671D01*
X304644Y322129D02*
Y324490D01*
X302873D01*
Y323310D01*
Y324490D01*
X301102D01*
X304644Y320948D02*
Y318587D01*
X304054D01*
X301693Y320948D01*
X301102D01*
X304644Y317406D02*
Y315045D01*
X304054D01*
X301693Y317406D01*
X301102D01*
X354409Y392598D02*
Y389056D01*
X352048Y392598D01*
Y389056D01*
X350867Y392598D02*
Y389056D01*
X349096D01*
X348506Y389647D01*
Y390827D01*
X349096Y391418D01*
X350867D01*
X349687D02*
X348506Y392598D01*
X344964Y389056D02*
X347325D01*
Y390827D01*
X346144D01*
X347325D01*
Y392598D01*
X341422D02*
X343783D01*
X341422Y390237D01*
Y389647D01*
X342012Y389056D01*
X343193D01*
X343783Y389647D01*
X338470Y392598D02*
Y389056D01*
X340241Y390827D01*
X337879D01*
X462285Y271181D02*
X465827D01*
Y273542D01*
X462875Y277085D02*
X462285Y276494D01*
Y275314D01*
X462875Y274723D01*
X465237D01*
X465827Y275314D01*
Y276494D01*
X465237Y277085D01*
X462285Y278265D02*
X465827D01*
Y280036D01*
X465237Y280627D01*
X462875D01*
X462285Y280036D01*
Y278265D01*
Y285350D02*
X465827D01*
Y287121D01*
X465237Y287711D01*
X462875D01*
X462285Y287121D01*
Y285350D01*
X465827Y288892D02*
Y290073D01*
Y289482D01*
X463466D01*
Y288892D01*
X465827Y291844D02*
Y293615D01*
X465237Y294205D01*
X464646Y293615D01*
Y292434D01*
X464056Y291844D01*
X463466Y292434D01*
Y294205D01*
X467008Y295386D02*
X463466D01*
Y297157D01*
X464056Y297747D01*
X465237D01*
X465827Y297157D01*
Y295386D01*
Y298928D02*
Y300109D01*
Y299518D01*
X462285D01*
Y298928D01*
X463466Y302470D02*
Y303651D01*
X464056Y304241D01*
X465827D01*
Y302470D01*
X465237Y301880D01*
X464646Y302470D01*
Y304241D01*
X463466Y305422D02*
X465237D01*
X465827Y306012D01*
Y307783D01*
X466418D01*
X467008Y307193D01*
Y306603D01*
X465827Y307783D02*
X463466D01*
X463990Y323280D02*
X463466Y322755D01*
Y321706D01*
X463990Y321181D01*
X464515D01*
X465040Y321706D01*
Y322755D01*
X465565Y323280D01*
X466089D01*
X466614Y322755D01*
Y321706D01*
X466089Y321181D01*
X463466Y324330D02*
X466614D01*
X465565Y325379D01*
X466614Y326429D01*
X463466D01*
Y327478D02*
X466614D01*
Y329053D01*
X466089Y329577D01*
X463990D01*
X463466Y329053D01*
Y327478D01*
D17*
X356968Y343641D02*
X356468D01*
X355469Y342641D01*
X356468Y341642D01*
X356968D01*
X355469Y342641D02*
X353969D01*
Y340642D02*
Y339642D01*
Y340142D01*
X356968D01*
X356468Y340642D01*
X433000Y261499D02*
X430500D01*
X430000Y260999D01*
Y260000D01*
X430500Y259500D01*
X433000D01*
X430000Y257001D02*
X433000D01*
X431500Y258500D01*
Y256501D01*
X441414Y264531D02*
Y262032D01*
X441914Y261532D01*
X442914D01*
X443414Y262032D01*
Y264531D01*
X444413Y264031D02*
X444913Y264531D01*
X445913D01*
X446413Y264031D01*
Y263531D01*
X445913Y263032D01*
X445413D01*
X445913D01*
X446413Y262532D01*
Y262032D01*
X445913Y261532D01*
X444913D01*
X444413Y262032D01*
X424356Y290494D02*
X426856D01*
X427355Y290994D01*
Y291994D01*
X426856Y292494D01*
X424356D01*
X427355Y295493D02*
Y293494D01*
X425356Y295493D01*
X424856D01*
X424356Y294993D01*
Y293993D01*
X424856Y293494D01*
X358257Y338712D02*
Y336213D01*
X358756Y335713D01*
X359756D01*
X360256Y336213D01*
Y338712D01*
X361256Y335713D02*
X362255D01*
X361755D01*
Y338712D01*
X361256Y338212D01*
X422500Y222501D02*
X419500D01*
Y224001D01*
X420000Y224501D01*
X421000D01*
X421500Y224001D01*
Y222501D01*
Y223501D02*
X422500Y224501D01*
Y227500D02*
Y225500D01*
X420500Y227500D01*
X420000D01*
X419500Y227000D01*
Y226000D01*
X420000Y225500D01*
Y228499D02*
X419500Y228999D01*
Y229999D01*
X420000Y230499D01*
X420500D01*
X421000Y229999D01*
Y229499D01*
Y229999D01*
X421500Y230499D01*
X422000D01*
X422500Y229999D01*
Y228999D01*
X422000Y228499D01*
X422500Y236501D02*
X419500D01*
Y238001D01*
X420000Y238501D01*
X421000D01*
X421500Y238001D01*
Y236501D01*
Y237501D02*
X422500Y238501D01*
Y241500D02*
Y239500D01*
X420500Y241500D01*
X420000D01*
X419500Y241000D01*
Y240000D01*
X420000Y239500D01*
X422500Y244499D02*
Y242499D01*
X420500Y244499D01*
X420000D01*
X419500Y243999D01*
Y242999D01*
X420000Y242499D01*
X438000Y276499D02*
X441000D01*
Y274999D01*
X440500Y274500D01*
X439500D01*
X439000Y274999D01*
Y276499D01*
Y275499D02*
X438000Y274500D01*
Y271500D02*
Y273500D01*
X440000Y271500D01*
X440500D01*
X441000Y272000D01*
Y273000D01*
X440500Y273500D01*
X438000Y270501D02*
Y269501D01*
Y270001D01*
X441000D01*
X440500Y270501D01*
X442501Y270500D02*
Y273499D01*
X444001D01*
X444501Y273000D01*
Y272000D01*
X444001Y271500D01*
X442501D01*
X443501D02*
X444501Y270500D01*
X447500D02*
X445500D01*
X447500Y272500D01*
Y273000D01*
X447000Y273499D01*
X446000D01*
X445500Y273000D01*
X448499D02*
X448999Y273499D01*
X449999D01*
X450499Y273000D01*
Y271000D01*
X449999Y270500D01*
X448999D01*
X448499Y271000D01*
Y273000D01*
X360818Y278028D02*
Y281027D01*
X362318D01*
X362818Y280527D01*
Y279528D01*
X362318Y279028D01*
X360818D01*
X361818D02*
X362818Y278028D01*
X363817D02*
X364817D01*
X364317D01*
Y281027D01*
X363817Y280527D01*
X366316Y278528D02*
X366816Y278028D01*
X367816D01*
X368316Y278528D01*
Y280527D01*
X367816Y281027D01*
X366816D01*
X366316Y280527D01*
Y280027D01*
X366816Y279528D01*
X368316D01*
X352044Y252174D02*
X355043D01*
Y250675D01*
X354543Y250175D01*
X353543D01*
X353044Y250675D01*
Y252174D01*
Y251174D02*
X352044Y250175D01*
Y249175D02*
Y248175D01*
Y248675D01*
X355043D01*
X354543Y249175D01*
Y246676D02*
X355043Y246176D01*
Y245176D01*
X354543Y244676D01*
X354043D01*
X353543Y245176D01*
X353044Y244676D01*
X352544D01*
X352044Y245176D01*
Y246176D01*
X352544Y246676D01*
X353044D01*
X353543Y246176D01*
X354043Y246676D01*
X354543D01*
X353543Y246176D02*
Y245176D01*
X461099Y340363D02*
X464098D01*
Y338863D01*
X463598Y338364D01*
X462598D01*
X462099Y338863D01*
Y340363D01*
Y339363D02*
X461099Y338364D01*
Y337364D02*
Y336364D01*
Y336864D01*
X464098D01*
X463598Y337364D01*
X464098Y334865D02*
Y332865D01*
X463598D01*
X461599Y334865D01*
X461099D01*
X308501Y344296D02*
X311500D01*
Y342796D01*
X311000Y342297D01*
X310000D01*
X309500Y342796D01*
Y344296D01*
Y343296D02*
X308501Y342297D01*
Y341297D02*
Y340297D01*
Y340797D01*
X311500D01*
X311000Y341297D01*
X311500Y336799D02*
X311000Y337798D01*
X310000Y338798D01*
X309000D01*
X308501Y338298D01*
Y337298D01*
X309000Y336799D01*
X309500D01*
X310000Y337298D01*
Y338798D01*
X323249Y221000D02*
Y218001D01*
X321749D01*
X321249Y218500D01*
Y219500D01*
X321749Y220000D01*
X323249D01*
X322249D02*
X321249Y221000D01*
X320250D02*
X319250D01*
X319750D01*
Y218001D01*
X320250Y218500D01*
X315751Y218001D02*
X317751D01*
Y219500D01*
X316751Y219000D01*
X316251D01*
X315751Y219500D01*
Y220500D01*
X316251Y221000D01*
X317251D01*
X317751Y220500D01*
X319204Y390001D02*
Y393000D01*
X320704D01*
X321203Y392500D01*
Y391500D01*
X320704Y391000D01*
X319204D01*
X320204D02*
X321203Y390001D01*
X322203D02*
X323203D01*
X322703D01*
Y393000D01*
X322203Y392500D01*
X326202Y390001D02*
Y393000D01*
X324702Y391500D01*
X326701D01*
X445000Y328704D02*
X442000D01*
Y330204D01*
X442500Y330703D01*
X443500D01*
X444000Y330204D01*
Y328704D01*
Y329704D02*
X445000Y330703D01*
Y331703D02*
Y332703D01*
Y332203D01*
X442000D01*
X442500Y331703D01*
Y334202D02*
X442000Y334702D01*
Y335702D01*
X442500Y336202D01*
X443000D01*
X443500Y335702D01*
Y335202D01*
Y335702D01*
X444000Y336202D01*
X444500D01*
X445000Y335702D01*
Y334702D01*
X444500Y334202D01*
X435749Y328204D02*
X432751D01*
Y329703D01*
X433250Y330203D01*
X434250D01*
X434750Y329703D01*
Y328204D01*
Y329204D02*
X435749Y330203D01*
Y331203D02*
Y332203D01*
Y331703D01*
X432751D01*
X433250Y331203D01*
X435749Y335701D02*
Y333702D01*
X433750Y335701D01*
X433250D01*
X432751Y335202D01*
Y334202D01*
X433250Y333702D01*
X426500Y328704D02*
X423500D01*
Y330203D01*
X424000Y330703D01*
X425000D01*
X425500Y330203D01*
Y328704D01*
Y329703D02*
X426500Y330703D01*
Y331703D02*
Y332702D01*
Y332203D01*
X423500D01*
X424000Y331703D01*
X426500Y334202D02*
Y335202D01*
Y334702D01*
X423500D01*
X424000Y334202D01*
X345070Y318973D02*
Y321972D01*
X346570D01*
X347070Y321472D01*
Y320472D01*
X346570Y319973D01*
X345070D01*
X346070D02*
X347070Y318973D01*
X348069D02*
X349069D01*
X348569D01*
Y321972D01*
X348069Y321472D01*
X350568D02*
X351068Y321972D01*
X352068D01*
X352568Y321472D01*
Y319473D01*
X352068Y318973D01*
X351068D01*
X350568Y319473D01*
Y321472D01*
X414492Y323091D02*
X411493D01*
Y324591D01*
X411992Y325091D01*
X412992D01*
X413492Y324591D01*
Y323091D01*
Y324091D02*
X414492Y325091D01*
X413992Y326090D02*
X414492Y326590D01*
Y327590D01*
X413992Y328090D01*
X411992D01*
X411493Y327590D01*
Y326590D01*
X411992Y326090D01*
X412492D01*
X412992Y326590D01*
Y328090D01*
X420256Y309893D02*
X423255D01*
Y308393D01*
X422756Y307894D01*
X421756D01*
X421256Y308393D01*
Y309893D01*
Y308893D02*
X420256Y307894D01*
X422756Y306894D02*
X423255Y306394D01*
Y305394D01*
X422756Y304894D01*
X422256D01*
X421756Y305394D01*
X421256Y304894D01*
X420756D01*
X420256Y305394D01*
Y306394D01*
X420756Y306894D01*
X421256D01*
X421756Y306394D01*
X422256Y306894D01*
X422756D01*
X421756Y306394D02*
Y305394D01*
X420001Y295499D02*
X422999D01*
Y294000D01*
X422500Y293500D01*
X421500D01*
X421000Y294000D01*
Y295499D01*
Y294499D02*
X420001Y293500D01*
X422999Y292500D02*
Y290501D01*
X422500D01*
X420500Y292500D01*
X420001D01*
X324999Y265001D02*
X322001D01*
Y266500D01*
X322500Y267000D01*
X323500D01*
X324000Y266500D01*
Y265001D01*
Y266001D02*
X324999Y267000D01*
X322001Y269999D02*
X322500Y269000D01*
X323500Y268000D01*
X324500D01*
X324999Y268500D01*
Y269499D01*
X324500Y269999D01*
X324000D01*
X323500Y269499D01*
Y268000D01*
X462999Y351500D02*
Y348500D01*
X461500D01*
X461000Y349000D01*
Y350000D01*
X461500Y350500D01*
X462999D01*
X462000D02*
X461000Y351500D01*
X458001Y348500D02*
X460000D01*
Y350000D01*
X459000Y349500D01*
X458501D01*
X458001Y350000D01*
Y351000D01*
X458501Y351500D01*
X459500D01*
X460000Y351000D01*
X439499Y351500D02*
Y348500D01*
X438000D01*
X437500Y349000D01*
Y350000D01*
X438000Y350500D01*
X439499D01*
X438499D02*
X437500Y351500D01*
X435001D02*
Y348500D01*
X436500Y350000D01*
X434501D01*
X415499Y351500D02*
Y348500D01*
X414000D01*
X413500Y349000D01*
Y350000D01*
X414000Y350500D01*
X415499D01*
X414500D02*
X413500Y351500D01*
X412500Y349000D02*
X412000Y348500D01*
X411001D01*
X410501Y349000D01*
Y349500D01*
X411001Y350000D01*
X411501D01*
X411001D01*
X410501Y350500D01*
Y351000D01*
X411001Y351500D01*
X412000D01*
X412500Y351000D01*
X393999Y351500D02*
Y348500D01*
X392500D01*
X392000Y349000D01*
Y350000D01*
X392500Y350500D01*
X393999D01*
X393000D02*
X392000Y351500D01*
X389001D02*
X391000D01*
X389001Y349500D01*
Y349000D01*
X389501Y348500D01*
X390500D01*
X391000Y349000D01*
X369547Y360500D02*
Y357501D01*
X368047D01*
X367547Y358000D01*
Y359000D01*
X368047Y359500D01*
X369547D01*
X368547D02*
X367547Y360500D01*
X366548D02*
X365548D01*
X366048D01*
Y357501D01*
X366548Y358000D01*
X431708Y222835D02*
X429709D01*
X429209Y222335D01*
Y221335D01*
X429709Y220835D01*
X431708D01*
X432208Y221335D01*
Y222335D01*
X431209Y221835D02*
X432208Y222835D01*
Y222335D02*
X431708Y222835D01*
X432208Y223834D02*
Y224834D01*
Y224334D01*
X429209D01*
X429709Y223834D01*
X394500Y233999D02*
X397499D01*
Y232500D01*
X397000Y232000D01*
X396000D01*
X395500Y232500D01*
Y233999D01*
X397000Y231000D02*
X397499Y230500D01*
Y229501D01*
X397000Y229001D01*
X396500D01*
X396000Y229501D01*
X395500Y229001D01*
X395000D01*
X394500Y229501D01*
Y230500D01*
X395000Y231000D01*
X395500D01*
X396000Y230500D01*
X396500Y231000D01*
X397000D01*
X396000Y230500D02*
Y229501D01*
X300500Y402499D02*
X303500D01*
Y401000D01*
X303000Y400500D01*
X302000D01*
X301500Y401000D01*
Y402499D01*
X303500Y399500D02*
Y397501D01*
X303000D01*
X301000Y399500D01*
X300500D01*
X289501Y312000D02*
Y315000D01*
X291000D01*
X291500Y314500D01*
Y313500D01*
X291000Y313000D01*
X289501D01*
X294499Y315000D02*
X293499Y314500D01*
X292500Y313500D01*
Y312500D01*
X293000Y312000D01*
X293999D01*
X294499Y312500D01*
Y313000D01*
X293999Y313500D01*
X292500D01*
X473001Y358000D02*
Y360999D01*
X474500D01*
X475000Y360500D01*
Y359500D01*
X474500Y359000D01*
X473001D01*
X477999Y360999D02*
X476000D01*
Y359500D01*
X477000Y360000D01*
X477499D01*
X477999Y359500D01*
Y358500D01*
X477499Y358000D01*
X476500D01*
X476000Y358500D01*
X289501Y358000D02*
Y360999D01*
X291000D01*
X291500Y360500D01*
Y359500D01*
X291000Y359000D01*
X289501D01*
X292500Y360500D02*
X293000Y360999D01*
X293999D01*
X294499Y360500D01*
Y360000D01*
X293999Y359500D01*
X293499D01*
X293999D01*
X294499Y359000D01*
Y358500D01*
X293999Y358000D01*
X293000D01*
X292500Y358500D01*
X355501Y400999D02*
X358500D01*
Y399500D01*
X358000Y399000D01*
X357000D01*
X356500Y399500D01*
Y400999D01*
X355501Y396001D02*
Y398000D01*
X357500Y396001D01*
X358000D01*
X358500Y396501D01*
Y397500D01*
X358000Y398000D01*
X474001Y312000D02*
Y315000D01*
X475500D01*
X476000Y314500D01*
Y313500D01*
X475500Y313000D01*
X474001D01*
X477000Y312000D02*
X477999D01*
X477499D01*
Y315000D01*
X477000Y314500D01*
X471499Y249999D02*
X468501D01*
Y248000D01*
Y247000D02*
Y246001D01*
Y246500D01*
X471499D01*
X471000Y247000D01*
X304500Y257271D02*
X303500D01*
X304000D01*
Y254772D01*
X303500Y254272D01*
X303000D01*
X302501Y254772D01*
X305500Y254272D02*
X306499D01*
X305999D01*
Y257271D01*
X305500Y256771D01*
X352000Y255751D02*
Y256751D01*
Y256251D01*
X354999D01*
Y255751D01*
Y256751D01*
X352500Y260250D02*
X352000Y259750D01*
Y258750D01*
X352500Y258250D01*
X354500D01*
X354999Y258750D01*
Y259750D01*
X354500Y260250D01*
X354999Y263249D02*
Y261249D01*
X353000Y263249D01*
X352500D01*
X352000Y262749D01*
Y261749D01*
X352500Y261249D01*
X369249Y214001D02*
X368249D01*
X368749D01*
Y217000D01*
X369249D01*
X368249D01*
X364750Y214500D02*
X365250Y214001D01*
X366250D01*
X366750Y214500D01*
Y216500D01*
X366250Y217000D01*
X365250D01*
X364750Y216500D01*
X363751Y217000D02*
X362751D01*
X363251D01*
Y214001D01*
X363751Y214500D01*
X384964Y251969D02*
Y253968D01*
X383465D01*
Y252968D01*
Y253968D01*
X381965D01*
Y250969D02*
Y249969D01*
Y250469D01*
X384964D01*
X384464Y250969D01*
X381000Y258501D02*
X383999D01*
Y260000D01*
X383500Y260500D01*
X381500D01*
X381000Y260000D01*
Y258501D01*
Y263499D02*
Y261500D01*
X382500D01*
X382000Y262499D01*
Y262999D01*
X382500Y263499D01*
X383500D01*
X383999Y262999D01*
Y262000D01*
X383500Y261500D01*
X375515Y250924D02*
X372516D01*
Y249425D01*
X373016Y248925D01*
X375015D01*
X375515Y249425D01*
Y250924D01*
X372516Y246426D02*
X375515D01*
X374016Y247925D01*
Y245926D01*
X364885Y250924D02*
X361886D01*
Y249425D01*
X362386Y248925D01*
X364386D01*
X364885Y249425D01*
Y250924D01*
X364386Y247925D02*
X364885Y247426D01*
Y246426D01*
X364386Y245926D01*
X363886D01*
X363386Y246426D01*
Y246926D01*
Y246426D01*
X362886Y245926D01*
X362386D01*
X361886Y246426D01*
Y247426D01*
X362386Y247925D01*
X452001Y319001D02*
X454999D01*
Y320500D01*
X454500Y321000D01*
X452500D01*
X452001Y320500D01*
Y319001D01*
X454999Y323999D02*
Y322000D01*
X453000Y323999D01*
X452500D01*
X452001Y323499D01*
Y322500D01*
X452500Y322000D01*
X319501Y248499D02*
Y245500D01*
X321000D01*
X321500Y246000D01*
Y248000D01*
X321000Y248499D01*
X319501D01*
X322500Y245500D02*
X323499D01*
X323000D01*
Y248499D01*
X322500Y248000D01*
X431500Y274500D02*
X431999Y274999D01*
Y275999D01*
X431500Y276499D01*
X429500D01*
X429001Y275999D01*
Y274999D01*
X429500Y274500D01*
X429001Y271500D02*
Y273500D01*
X431000Y271500D01*
X431500D01*
X431999Y272000D01*
Y273000D01*
X431500Y273500D01*
X429001Y270501D02*
Y269501D01*
Y270001D01*
X431999D01*
X431500Y270501D01*
X395500Y269548D02*
X395001Y269048D01*
Y268048D01*
X395500Y267548D01*
X397500D01*
X398000Y268048D01*
Y269048D01*
X397500Y269548D01*
X398000Y272547D02*
Y270548D01*
X396000Y272547D01*
X395500D01*
X395001Y272047D01*
Y271047D01*
X395500Y270548D01*
Y273547D02*
X395001Y274046D01*
Y275046D01*
X395500Y275546D01*
X397500D01*
X398000Y275046D01*
Y274046D01*
X397500Y273547D01*
X395500D01*
X404500Y269656D02*
X404001Y269156D01*
Y268157D01*
X404500Y267657D01*
X406500D01*
X406999Y268157D01*
Y269156D01*
X406500Y269656D01*
X406999Y270656D02*
Y271655D01*
Y271156D01*
X404001D01*
X404500Y270656D01*
X406500Y273155D02*
X406999Y273655D01*
Y274655D01*
X406500Y275154D01*
X404500D01*
X404001Y274655D01*
Y273655D01*
X404500Y273155D01*
X405000D01*
X405500Y273655D01*
Y275154D01*
X409000Y242749D02*
X409500Y243249D01*
Y244249D01*
X409000Y244749D01*
X407000D01*
X406500Y244249D01*
Y243249D01*
X407000Y242749D01*
X406500Y241750D02*
Y240750D01*
Y241250D01*
X409500D01*
X409000Y241750D01*
Y239251D02*
X409500Y238751D01*
Y237751D01*
X409000Y237251D01*
X408500D01*
X408000Y237751D01*
X407500Y237251D01*
X407000D01*
X406500Y237751D01*
Y238751D01*
X407000Y239251D01*
X407500D01*
X408000Y238751D01*
X408500Y239251D01*
X409000D01*
X408000Y238751D02*
Y237751D01*
X445251Y286500D02*
X444751Y287000D01*
X443751D01*
X443251Y286500D01*
Y284500D01*
X443751Y284000D01*
X444751D01*
X445251Y284500D01*
X446250Y284000D02*
X447250D01*
X446750D01*
Y287000D01*
X446250Y286500D01*
X448749Y287000D02*
X450749D01*
Y286500D01*
X448749Y284500D01*
Y284000D01*
X450000Y242797D02*
X450499Y243297D01*
Y244296D01*
X450000Y244796D01*
X448000D01*
X447501Y244296D01*
Y243297D01*
X448000Y242797D01*
X447501Y241797D02*
Y240797D01*
Y241297D01*
X450499D01*
X450000Y241797D01*
X450499Y237298D02*
X450000Y238298D01*
X449000Y239298D01*
X448000D01*
X447501Y238798D01*
Y237798D01*
X448000Y237298D01*
X448500D01*
X449000Y237798D01*
Y239298D01*
X373016Y266755D02*
X372516Y266255D01*
Y265255D01*
X373016Y264755D01*
X375015D01*
X375515Y265255D01*
Y266255D01*
X375015Y266755D01*
X375515Y267754D02*
Y268754D01*
Y268254D01*
X372516D01*
X373016Y267754D01*
X372516Y272253D02*
Y270253D01*
X374016D01*
X373516Y271253D01*
Y271753D01*
X374016Y272253D01*
X375015D01*
X375515Y271753D01*
Y270753D01*
X375015Y270253D01*
X343500Y271751D02*
X343001Y271251D01*
Y270251D01*
X343500Y269751D01*
X345500D01*
X346000Y270251D01*
Y271251D01*
X345500Y271751D01*
X346000Y272750D02*
Y273750D01*
Y273250D01*
X343001D01*
X343500Y272750D01*
X346000Y276749D02*
X343001D01*
X344500Y275249D01*
Y277249D01*
X337180Y250988D02*
X336680Y251488D01*
X335680D01*
X335180Y250988D01*
Y248989D01*
X335680Y248489D01*
X336680D01*
X337180Y248989D01*
X338179Y248489D02*
X339179D01*
X338679D01*
Y251488D01*
X338179Y250988D01*
X340679D02*
X341178Y251488D01*
X342178D01*
X342678Y250988D01*
Y250488D01*
X342178Y249988D01*
X341678D01*
X342178D01*
X342678Y249488D01*
Y248989D01*
X342178Y248489D01*
X341178D01*
X340679Y248989D01*
X379747Y369110D02*
X379247Y369610D01*
X378247D01*
X377747Y369110D01*
Y367111D01*
X378247Y366611D01*
X379247D01*
X379747Y367111D01*
X380746Y366611D02*
X381746D01*
X381246D01*
Y369610D01*
X380746Y369110D01*
X385245Y366611D02*
X383245D01*
X385245Y368610D01*
Y369110D01*
X384745Y369610D01*
X383745D01*
X383245Y369110D01*
X329719Y333141D02*
X329219Y333641D01*
X328219D01*
X327719Y333141D01*
Y331142D01*
X328219Y330642D01*
X329219D01*
X329719Y331142D01*
X330719Y330642D02*
X331718D01*
X331218D01*
Y333641D01*
X330719Y333141D01*
X333218Y330642D02*
X334218D01*
X333718D01*
Y333641D01*
X333218Y333141D01*
X329219Y343141D02*
X328719Y343641D01*
X327720D01*
X327220Y343141D01*
Y341142D01*
X327720Y340642D01*
X328719D01*
X329219Y341142D01*
X330219Y340642D02*
X331218D01*
X330719D01*
Y343641D01*
X330219Y343141D01*
X332718D02*
X333218Y343641D01*
X334218D01*
X334717Y343141D01*
Y341142D01*
X334218Y340642D01*
X333218D01*
X332718Y341142D01*
Y343141D01*
X398000Y358000D02*
X398500Y357501D01*
X399499D01*
X399999Y358000D01*
Y360000D01*
X399499Y360500D01*
X398500D01*
X398000Y360000D01*
X397000D02*
X396500Y360500D01*
X395501D01*
X395001Y360000D01*
Y358000D01*
X395501Y357501D01*
X396500D01*
X397000Y358000D01*
Y358500D01*
X396500Y359000D01*
X395001D01*
X420000Y358000D02*
X420500Y357501D01*
X421499D01*
X421999Y358000D01*
Y360000D01*
X421499Y360500D01*
X420500D01*
X420000Y360000D01*
X419000Y358000D02*
X418500Y357501D01*
X417501D01*
X417001Y358000D01*
Y358500D01*
X417501Y359000D01*
X417001Y359500D01*
Y360000D01*
X417501Y360500D01*
X418500D01*
X419000Y360000D01*
Y359500D01*
X418500Y359000D01*
X419000Y358500D01*
Y358000D01*
X418500Y359000D02*
X417501D01*
X443500Y358000D02*
X444000Y357501D01*
X444999D01*
X445499Y358000D01*
Y360000D01*
X444999Y360500D01*
X444000D01*
X443500Y360000D01*
X442500Y357501D02*
X440501D01*
Y358000D01*
X442500Y360000D01*
Y360500D01*
X313567Y268792D02*
X313067Y268292D01*
Y267292D01*
X313567Y266792D01*
X315567D01*
X316066Y267292D01*
Y268292D01*
X315567Y268792D01*
X313067Y271791D02*
X313567Y270791D01*
X314567Y269791D01*
X315567D01*
X316066Y270291D01*
Y271291D01*
X315567Y271791D01*
X315067D01*
X314567Y271291D01*
Y269791D01*
X465000Y358000D02*
X465500Y357501D01*
X466499D01*
X466999Y358000D01*
Y360000D01*
X466499Y360500D01*
X465500D01*
X465000Y360000D01*
X462001Y357501D02*
X464000D01*
Y359000D01*
X463000Y358500D01*
X462501D01*
X462001Y359000D01*
Y360000D01*
X462501Y360500D01*
X463500D01*
X464000Y360000D01*
X356468Y305142D02*
X356968Y305641D01*
Y306641D01*
X356468Y307141D01*
X354469D01*
X353969Y306641D01*
Y305641D01*
X354469Y305142D01*
X353969Y302642D02*
X356968D01*
X355469Y304142D01*
Y302143D01*
X347468Y305142D02*
X347968Y305641D01*
Y306641D01*
X347468Y307141D01*
X345469D01*
X344969Y306641D01*
Y305641D01*
X345469Y305142D01*
X347468Y304142D02*
X347968Y303642D01*
Y302642D01*
X347468Y302143D01*
X346968D01*
X346468Y302642D01*
Y303142D01*
Y302642D01*
X345969Y302143D01*
X345469D01*
X344969Y302642D01*
Y303642D01*
X345469Y304142D01*
X338468Y305142D02*
X338968Y305641D01*
Y306641D01*
X338468Y307141D01*
X336469D01*
X335969Y306641D01*
Y305641D01*
X336469Y305142D01*
X335969Y302143D02*
Y304142D01*
X337968Y302143D01*
X338468D01*
X338968Y302642D01*
Y303642D01*
X338468Y304142D01*
X329468Y304642D02*
X329968Y305142D01*
Y306141D01*
X329468Y306641D01*
X327469D01*
X326969Y306141D01*
Y305142D01*
X327469Y304642D01*
X326969Y303642D02*
Y302642D01*
Y303142D01*
X329968D01*
X329468Y303642D01*
X373001Y399295D02*
Y396296D01*
X374500D01*
X375000Y396796D01*
Y397295D01*
X374500Y397795D01*
X373001D01*
X374500D01*
X375000Y398295D01*
Y398795D01*
X374500Y399295D01*
X373001D01*
X377999D02*
X376999Y398795D01*
X376000Y397795D01*
Y396796D01*
X376500Y396296D01*
X377499D01*
X377999Y396796D01*
Y397295D01*
X377499Y397795D01*
X376000D01*
X396204Y399000D02*
Y396001D01*
X397703D01*
X398203Y396500D01*
Y397000D01*
X397703Y397500D01*
X396204D01*
X397703D01*
X398203Y398000D01*
Y398500D01*
X397703Y399000D01*
X396204D01*
X401202D02*
X399203D01*
Y397500D01*
X400202Y398000D01*
X400702D01*
X401202Y397500D01*
Y396500D01*
X400702Y396001D01*
X399702D01*
X399203Y396500D01*
X419501Y399000D02*
Y396001D01*
X421000D01*
X421500Y396500D01*
Y397000D01*
X421000Y397500D01*
X419501D01*
X421000D01*
X421500Y398000D01*
Y398500D01*
X421000Y399000D01*
X419501D01*
X423999Y396001D02*
Y399000D01*
X422500Y397500D01*
X424499D01*
X442798Y399000D02*
Y396001D01*
X444298D01*
X444797Y396500D01*
Y397000D01*
X444298Y397500D01*
X442798D01*
X444298D01*
X444797Y398000D01*
Y398500D01*
X444298Y399000D01*
X442798D01*
X445797Y398500D02*
X446297Y399000D01*
X447297D01*
X447796Y398500D01*
Y398000D01*
X447297Y397500D01*
X446797D01*
X447297D01*
X447796Y397000D01*
Y396500D01*
X447297Y396001D01*
X446297D01*
X445797Y396500D01*
X310312Y282540D02*
X313311D01*
Y284040D01*
X312811Y284540D01*
X312311D01*
X311811Y284040D01*
Y282540D01*
Y284040D01*
X311311Y284540D01*
X310811D01*
X310312Y284040D01*
Y282540D01*
X313311Y287539D02*
Y285539D01*
X311311Y287539D01*
X310811D01*
X310312Y287039D01*
Y286039D01*
X310811Y285539D01*
X466501Y398795D02*
Y395796D01*
X468000D01*
X468500Y396296D01*
Y396795D01*
X468000Y397295D01*
X466501D01*
X468000D01*
X468500Y397795D01*
Y398295D01*
X468000Y398795D01*
X466501D01*
X469500Y395796D02*
X470499D01*
X470000D01*
Y398795D01*
X469500Y398295D01*
M02*
