M48
;Layer_Color=9474304
;FILE_FORMAT=2:5
INCH,LZ
;TYPE=PLATED
T1F00S00C0.00787
T2F00S00C0.01181
T3F00S00C0.02362
T4F00S00C0.03543
T5F00S00C0.03937
T6F00S00C0.04173
%
T01
X0472Y02565
X04925Y02825
X04895Y02945
X04655Y02565
X04285
X0422
X0425Y0267
X04295
Y0272
X0436Y03035
X04415Y03105
X0418Y02985
X0372Y0302868
X03745Y0281
X03765Y02785
X03785Y0276
X03805Y02735
X0337355Y0243952
X0339355Y0241452
X0341355Y0238952
X0343355Y0236452
X0419Y03355
X048Y0326
X04895Y03525
Y03565
X04965Y039
X0494Y0393
X05Y03935
T02
X0476Y0229
Y0234
X0486
Y0229
X05
Y0234
X04825Y02785
X04735
X04815Y0292
Y02985
Y03075
X0451Y03005
X0435Y02935
X0424Y0295
X04295Y0278
X04385
X04515Y0275
X04555
X0461Y024
X0465
X0423
X0419
X04125Y02755
X0408
X0365Y02765
X035Y02715
X0338
X0333Y0303
Y0309
X0342835Y0308968
X0342858Y0303163
X03525Y0303
X0352223Y0309013
X03615Y0303
X0370406Y02495
X038026Y025624
X03605Y03125
X03305Y03305
Y03395
X0332Y0359
X0356
X03803
X03908Y03725
X04145
X04205Y0359
X04045
X0411608Y0394795
X0387405
X0363203
X0339
X0343Y03725
X0367
X04385
X0435811Y0394705
X04485Y0408
X04555Y0338
X0463Y0335
X0427906Y0334405
X0428Y032
X04725Y0339
X04865Y0327
X04895Y0371
X05065
Y0377
X05035Y03865
X0507Y0408
X0494
X0476
T03
X0328Y0231
Y0236
Y0241
Y0246
Y0251
Y0256
Y0261
Y0266
T04
X0505Y02625
Y02725
Y02825
Y02925
Y03025
Y0324
Y0334
Y0344
Y0354
T05
X0455752Y03595
X04715
T06
X04525Y03975
X04625
X04725
M30
