G04*
G04 #@! TF.GenerationSoftware,Altium Limited,Altium Designer,22.8.2 (66)*
G04*
G04 Layer_Physical_Order=1*
G04 Layer_Color=255*
%FSLAX25Y25*%
%MOIN*%
G70*
G04*
G04 #@! TF.SameCoordinates,353F7BBD-D662-4BEA-BAB2-8ECF1C4A7E15*
G04*
G04*
G04 #@! TF.FilePolarity,Positive*
G04*
G01*
G75*
%ADD10C,0.01000*%
%ADD17R,0.07700X0.02000*%
%ADD18R,0.04331X0.05512*%
%ADD19R,0.03937X0.03150*%
%ADD20R,0.03150X0.03937*%
%ADD21C,0.06000*%
%ADD22R,0.04331X0.06693*%
%ADD23R,0.07087X0.03937*%
%ADD24R,0.00903X0.02375*%
%ADD25R,0.03543X0.03543*%
%ADD26R,0.09843X0.04724*%
%ADD27R,0.01181X0.04724*%
%ADD28R,0.04724X0.01181*%
%ADD29R,0.02362X0.05512*%
G04:AMPARAMS|DCode=30|XSize=26.38mil|YSize=11.81mil|CornerRadius=1.95mil|HoleSize=0mil|Usage=FLASHONLY|Rotation=0.000|XOffset=0mil|YOffset=0mil|HoleType=Round|Shape=RoundedRectangle|*
%AMROUNDEDRECTD30*
21,1,0.02638,0.00791,0,0,0.0*
21,1,0.02248,0.01181,0,0,0.0*
1,1,0.00390,0.01124,-0.00396*
1,1,0.00390,-0.01124,-0.00396*
1,1,0.00390,-0.01124,0.00396*
1,1,0.00390,0.01124,0.00396*
%
%ADD30ROUNDEDRECTD30*%
%ADD31R,0.05512X0.02362*%
%ADD47C,0.01968*%
%ADD48C,0.01575*%
%ADD49C,0.01181*%
%ADD50C,0.05906*%
%ADD51C,0.06299*%
%ADD52R,0.05906X0.05906*%
%ADD53C,0.03937*%
%ADD54R,0.03937X0.03937*%
%ADD55C,0.02756*%
%ADD56C,0.01772*%
G36*
X472469Y400649D02*
X469351Y397532D01*
X468611Y400682D01*
X469318Y401389D01*
X472469Y400649D01*
D02*
G37*
G36*
X494620Y393633D02*
X493380D01*
X493500Y394263D01*
X494500D01*
X494620Y393633D01*
D02*
G37*
G36*
X453000Y392501D02*
X452000D01*
X450295Y395251D01*
X454705D01*
X453000Y392501D01*
D02*
G37*
G36*
X497120Y390633D02*
X495880D01*
X496000Y391263D01*
X497000D01*
X497120Y390633D01*
D02*
G37*
G36*
X497000Y388737D02*
X496000D01*
X495880Y389367D01*
X497120D01*
X497000Y388737D01*
D02*
G37*
G36*
X490763Y357000D02*
Y356000D01*
X490133Y355880D01*
Y357120D01*
X490763Y357000D01*
D02*
G37*
G36*
X455722Y356547D02*
X452795Y355836D01*
X452088Y356543D01*
X452799Y359471D01*
X455722Y356547D01*
D02*
G37*
G36*
X490700Y351799D02*
X489845Y351239D01*
X489361Y351625D01*
X490372Y352344D01*
X490700Y351799D01*
D02*
G37*
G36*
X504971Y346953D02*
X502047Y344029D01*
X501336Y346957D01*
X502043Y347664D01*
X504971Y346953D01*
D02*
G37*
G36*
X419500Y334237D02*
X418500D01*
X418380Y334867D01*
X419620D01*
X419500Y334237D01*
D02*
G37*
G36*
X504971Y331047D02*
X502043Y330336D01*
X501336Y331043D01*
X502047Y333970D01*
X504971Y331047D01*
D02*
G37*
G36*
X479367Y325380D02*
X478737Y325500D01*
Y326500D01*
X479367Y326620D01*
Y325380D01*
D02*
G37*
G36*
X504971Y321047D02*
X502043Y320336D01*
X501336Y321043D01*
X502047Y323971D01*
X504971Y321047D01*
D02*
G37*
G36*
X440867Y309880D02*
X440237Y310000D01*
Y311000D01*
X440867Y311120D01*
Y309880D01*
D02*
G37*
G36*
X442746Y309961D02*
X442039Y309254D01*
X441509Y309614D01*
X442386Y310491D01*
X442746Y309961D01*
D02*
G37*
G36*
X435844Y304372D02*
X435125Y303361D01*
X434739Y303845D01*
X435299Y304700D01*
X435844Y304372D01*
D02*
G37*
G36*
X371991Y303754D02*
X371114Y302877D01*
X370877Y303371D01*
X371461Y304114D01*
X371991Y303754D01*
D02*
G37*
G36*
X437155Y302702D02*
X436183Y302259D01*
X435761Y302647D01*
X436848Y303244D01*
X437155Y302702D01*
D02*
G37*
G36*
X372500Y301605D02*
X371500D01*
X371380Y302235D01*
X372620D01*
X372500Y301605D01*
D02*
G37*
G36*
X502891Y300433D02*
X500318Y302000D01*
Y303000D01*
X502891Y304567D01*
Y300433D01*
D02*
G37*
G36*
X417315Y297939D02*
X416689Y298079D01*
X416798Y299079D01*
X417425Y299174D01*
X417315Y297939D01*
D02*
G37*
G36*
X490746Y295039D02*
X490386Y294509D01*
X489509Y295386D01*
X490039Y295746D01*
X490746Y295039D01*
D02*
G37*
G36*
X436195Y294327D02*
X436991Y292763D01*
X436018Y292572D01*
X435828Y294600D01*
X436195Y294327D01*
D02*
G37*
G36*
X502891Y290433D02*
X500318Y292000D01*
Y293000D01*
X502891Y294567D01*
Y290433D01*
D02*
G37*
G36*
X493763Y283000D02*
Y282000D01*
X493133Y281880D01*
Y283120D01*
X493763Y283000D01*
D02*
G37*
G36*
X375746Y281539D02*
X375386Y281009D01*
X374509Y281886D01*
X375039Y282246D01*
X375746Y281539D01*
D02*
G37*
G36*
X502891Y280433D02*
X500318Y282000D01*
Y283000D01*
X502891Y284567D01*
Y280433D01*
D02*
G37*
G36*
X377746Y279039D02*
X377386Y278509D01*
X376509Y279386D01*
X377039Y279746D01*
X377746Y279039D01*
D02*
G37*
G36*
X379746Y276539D02*
X379386Y276009D01*
X378509Y276886D01*
X379039Y277246D01*
X379746Y276539D01*
D02*
G37*
G36*
X381746Y274039D02*
X381386Y273509D01*
X380509Y274386D01*
X381039Y274746D01*
X381746Y274039D01*
D02*
G37*
G36*
X489905Y280595D02*
X498766D01*
X498770Y280599D01*
X498897Y280603D01*
X502500Y277000D01*
X510497D01*
X510850Y276646D01*
X510845Y268459D01*
X510672Y268190D01*
X510493Y268020D01*
X499422Y268020D01*
X492933Y274509D01*
X492602Y274730D01*
X492212Y274808D01*
X481443D01*
X481229Y274964D01*
X481047Y275192D01*
X481032Y275235D01*
Y276406D01*
X478063D01*
X475095D01*
Y275559D01*
X474633Y275367D01*
X473500Y276500D01*
X473069D01*
X472971Y276520D01*
X471638D01*
X471539Y276500D01*
X461000D01*
X459000Y274500D01*
Y272000D01*
X457074Y270074D01*
X456612Y270266D01*
Y270480D01*
X453644D01*
X450675D01*
Y269978D01*
X450213Y269787D01*
X444000Y276000D01*
X437055D01*
Y277406D01*
X434087D01*
Y277906D01*
D01*
Y277406D01*
X431118D01*
Y276000D01*
X418000D01*
X416968Y274969D01*
X416606D01*
Y274606D01*
X416000Y274000D01*
Y270500D01*
X414500Y269000D01*
X412968D01*
Y270453D01*
X410000D01*
X407031D01*
Y269000D01*
X406500D01*
X404529Y270971D01*
Y277000D01*
X404500Y277148D01*
Y280000D01*
X405500Y281000D01*
X489500D01*
X489905Y280595D01*
D02*
G37*
G36*
X431118Y272500D02*
X434087D01*
Y272000D01*
X434587D01*
Y269425D01*
X434954D01*
X435160Y268970D01*
X429009Y261943D01*
X427826Y261944D01*
X427733Y261968D01*
X426670D01*
X426590Y262021D01*
X426124Y262114D01*
X425000D01*
Y262469D01*
X424500D01*
Y264083D01*
X423876D01*
X423500Y264391D01*
Y269032D01*
X424587D01*
Y272000D01*
X425087D01*
Y272500D01*
X427661D01*
Y274000D01*
X431118D01*
Y272500D01*
D02*
G37*
G36*
X442500Y255662D02*
X431783D01*
X430541Y259847D01*
X426898D01*
X426590Y260053D01*
X426124Y260145D01*
X424138D01*
X424036Y260418D01*
X424387Y260855D01*
X426124D01*
X426590Y260947D01*
X426610Y260961D01*
X426670Y260949D01*
X427701D01*
X427826Y260924D01*
X429008Y260923D01*
X429042Y260930D01*
X429076Y260925D01*
X429236Y260968D01*
X429398Y261000D01*
X429427Y261020D01*
X429461Y261029D01*
X429592Y261129D01*
X429607Y261139D01*
X430691Y261139D01*
X431198Y261500D01*
X442500D01*
Y255662D01*
D02*
G37*
G36*
X474683Y273788D02*
X475095Y273575D01*
X475095Y273288D01*
Y271500D01*
X478063D01*
X481032D01*
Y273288D01*
X481032Y273575D01*
X481443Y273788D01*
X492212D01*
X499000Y267000D01*
X510493Y267000D01*
X510850Y266593D01*
X510850Y257514D01*
X510360Y257024D01*
Y257000D01*
X492500D01*
X486904Y262596D01*
X486805D01*
X486721Y262721D01*
X486390Y262942D01*
X486000Y263020D01*
X475000D01*
X474610Y262942D01*
X474279Y262721D01*
X473518Y261960D01*
X470848D01*
X470841Y261968D01*
X470083D01*
X470004Y262021D01*
X469537Y262114D01*
X468413D01*
Y262469D01*
X467913D01*
Y264083D01*
X467289D01*
X467000Y264320D01*
Y270031D01*
X468563D01*
Y273000D01*
X469063D01*
Y273500D01*
X471638D01*
Y275500D01*
X472971D01*
X474683Y273788D01*
D02*
G37*
G36*
X486000Y256132D02*
X475117D01*
X473982Y260064D01*
X469946D01*
X469537Y260145D01*
X467289D01*
X467221Y260201D01*
Y260383D01*
X467698Y260855D01*
X469537D01*
X469971Y260941D01*
X473941D01*
X475000Y262000D01*
X486000D01*
Y256132D01*
D02*
G37*
G36*
X330645Y257610D02*
X329957Y255787D01*
X328252Y257952D01*
X330025Y258403D01*
X330645Y257610D01*
D02*
G37*
G36*
X465985Y259032D02*
X466744D01*
X466823Y258979D01*
X467289Y258886D01*
X469537D01*
X470004Y258979D01*
X470083Y259032D01*
X470841D01*
X470852Y259045D01*
X473215D01*
X474088Y256020D01*
X473842Y255579D01*
X473815Y255555D01*
X473748Y255520D01*
X464549D01*
X464146Y255922D01*
Y256918D01*
X464129Y257001D01*
X464177Y257010D01*
X464572Y257274D01*
X464836Y257670D01*
X464929Y258136D01*
Y258927D01*
X465050Y259074D01*
X465950D01*
X465985Y259032D01*
D02*
G37*
G36*
X422729Y259430D02*
X422743Y259358D01*
X422678Y259032D01*
X423330D01*
X423410Y258979D01*
X423876Y258886D01*
X425000D01*
Y258531D01*
X425500D01*
Y256918D01*
X426124D01*
X426590Y257010D01*
X426986Y257274D01*
X427250Y257670D01*
X427342Y258136D01*
Y258828D01*
X429780D01*
X430642Y255920D01*
X430343Y255520D01*
X420731D01*
X420722Y256924D01*
X420718Y256942D01*
X420763Y257010D01*
X421159Y257274D01*
X421423Y257670D01*
X421516Y258136D01*
Y258927D01*
X421431Y259350D01*
X421459Y259453D01*
X421691Y259838D01*
X422491Y259843D01*
X422729Y259430D01*
D02*
G37*
G36*
X459814Y261000D02*
X460917D01*
X460996Y260947D01*
X461463Y260854D01*
X462587D01*
Y260000D01*
X460265D01*
X460337Y259638D01*
X460419Y259516D01*
X460337Y259393D01*
X460265Y259032D01*
X462587D01*
Y258531D01*
X463087D01*
Y256918D01*
X463126D01*
Y255500D01*
X464126Y254500D01*
X509845D01*
X509999Y254350D01*
X510000D01*
X510850Y253500D01*
X510850Y240850D01*
X510000Y240000D01*
X499328D01*
X498330Y243045D01*
X496131Y243026D01*
X495772Y243383D01*
Y243728D01*
X495772Y243866D01*
Y246000D01*
X490228D01*
Y243866D01*
X490124Y243751D01*
X489499Y243729D01*
X488228Y245000D01*
X468500D01*
X465969Y247532D01*
Y249500D01*
X463000D01*
Y250000D01*
D01*
Y249500D01*
X460032D01*
Y247532D01*
X455500Y243000D01*
X428500D01*
X424500Y247000D01*
X424332D01*
X423969Y247331D01*
X423969Y247500D01*
Y249406D01*
X421000D01*
X418032D01*
Y247500D01*
X418032Y247331D01*
X417668Y247000D01*
X414528D01*
Y249000D01*
X411953D01*
Y249500D01*
X411453D01*
Y252468D01*
X409378D01*
X409000Y252763D01*
Y254500D01*
X415500Y261000D01*
X417504D01*
X417583Y260947D01*
X418049Y260854D01*
X419173D01*
Y260000D01*
X416852D01*
X416924Y259638D01*
X417005Y259516D01*
X416924Y259393D01*
X416852Y259032D01*
X419173D01*
Y258531D01*
X419673D01*
Y256918D01*
X419703D01*
X419718Y254500D01*
X452000D01*
X459069Y261000D01*
X459796Y261020D01*
X459814Y261000D01*
D02*
G37*
G36*
X330645Y252609D02*
X329957Y250787D01*
X328252Y252952D01*
X330025Y253403D01*
X330645Y252609D01*
D02*
G37*
G36*
X331085Y246500D02*
Y245500D01*
X329406Y244622D01*
Y247378D01*
X331085Y246500D01*
D02*
G37*
G36*
X427500Y242000D02*
X428402D01*
X428500Y241980D01*
X455500D01*
X455598Y242000D01*
X456500D01*
X459570Y245070D01*
X460032Y244878D01*
Y244595D01*
X463000D01*
X465969D01*
Y244878D01*
X466430Y245070D01*
X475500Y236000D01*
X477835D01*
Y231669D01*
X484165D01*
Y236000D01*
X499000D01*
X500500Y237500D01*
X510000D01*
X510843Y236657D01*
X510856D01*
Y227000D01*
X510175Y226318D01*
X509832Y225994D01*
Y225994D01*
X415506D01*
X414662Y226838D01*
Y242000D01*
X417573Y244685D01*
X417995Y244500D01*
X421000D01*
X423969D01*
Y244878D01*
X424430Y245070D01*
X427500Y242000D01*
D02*
G37*
G36*
X337346Y244838D02*
X336469Y243961D01*
X336109Y244492D01*
X336816Y245199D01*
X337346Y244838D01*
D02*
G37*
G36*
X339086Y240608D02*
X338062Y240500D01*
X337939Y241500D01*
X338495Y241662D01*
X339086Y240608D01*
D02*
G37*
G36*
X331085Y241500D02*
Y240500D01*
X329406Y239622D01*
Y242378D01*
X331085Y241500D01*
D02*
G37*
G36*
X341346Y238067D02*
X340816Y237706D01*
X340109Y238413D01*
X340469Y238943D01*
X341346Y238067D01*
D02*
G37*
G36*
X343346Y235566D02*
X342816Y235206D01*
X342109Y235913D01*
X342469Y236443D01*
X343346Y235566D01*
D02*
G37*
G36*
X331085Y236500D02*
Y235500D01*
X329406Y234622D01*
Y237378D01*
X331085Y236500D01*
D02*
G37*
G36*
Y231500D02*
Y230500D01*
X329406Y229622D01*
Y232378D01*
X331085Y231500D01*
D02*
G37*
%LPC*%
G36*
X437055Y280480D02*
X434587D01*
Y278405D01*
X437055D01*
Y280480D01*
D02*
G37*
G36*
X433587D02*
X431118D01*
Y278405D01*
X433587D01*
Y280480D01*
D02*
G37*
G36*
X481032Y279480D02*
X478563D01*
Y277406D01*
X481032D01*
Y279480D01*
D02*
G37*
G36*
X477563D02*
X475095D01*
Y277406D01*
X477563D01*
Y279480D01*
D02*
G37*
G36*
X505520Y276453D02*
X505500D01*
Y273000D01*
X508953D01*
Y273020D01*
X508683Y274026D01*
X508163Y274927D01*
X507427Y275663D01*
X506526Y276183D01*
X505520Y276453D01*
D02*
G37*
G36*
X504500D02*
X504480D01*
X503474Y276183D01*
X502573Y275663D01*
X501837Y274927D01*
X501317Y274026D01*
X501047Y273020D01*
Y273000D01*
X504500D01*
Y276453D01*
D02*
G37*
G36*
X456612Y273555D02*
X454144D01*
Y271480D01*
X456612D01*
Y273555D01*
D02*
G37*
G36*
X453144D02*
X450675D01*
Y271480D01*
X453144D01*
Y273555D01*
D02*
G37*
G36*
X412968Y273528D02*
X410500D01*
Y271453D01*
X412968D01*
Y273528D01*
D02*
G37*
G36*
X409500D02*
X407031D01*
Y271453D01*
X409500D01*
Y273528D01*
D02*
G37*
G36*
X508953Y272000D02*
X505500D01*
Y268547D01*
X505520D01*
X506526Y268817D01*
X507427Y269337D01*
X508163Y270073D01*
X508683Y270974D01*
X508953Y271980D01*
Y272000D01*
D02*
G37*
G36*
X504500D02*
X501047D01*
Y271980D01*
X501317Y270974D01*
X501837Y270073D01*
X502573Y269337D01*
X503474Y268817D01*
X504480Y268547D01*
X504500D01*
Y272000D01*
D02*
G37*
G36*
X433587Y271500D02*
X431118D01*
Y269425D01*
X433587D01*
Y271500D01*
D02*
G37*
G36*
X427661Y271500D02*
X425587D01*
Y269032D01*
X427661D01*
Y271500D01*
D02*
G37*
G36*
X426124Y264083D02*
X425500D01*
Y262968D01*
X427322D01*
X427250Y263330D01*
X426986Y263726D01*
X426590Y263990D01*
X426124Y264083D01*
D02*
G37*
G36*
X471638Y272500D02*
X469563D01*
Y270031D01*
X471638D01*
Y272500D01*
D02*
G37*
G36*
X481032Y270500D02*
X478563D01*
Y268425D01*
X481032D01*
Y270500D01*
D02*
G37*
G36*
X477563D02*
X475095D01*
Y268425D01*
X477563D01*
Y270500D01*
D02*
G37*
G36*
X508953Y266453D02*
X505500D01*
Y263000D01*
X508953D01*
Y266453D01*
D02*
G37*
G36*
X504500D02*
X501047D01*
Y263000D01*
X504500D01*
Y266453D01*
D02*
G37*
G36*
X469537Y264083D02*
X468913D01*
Y262968D01*
X470735D01*
X470663Y263330D01*
X470399Y263726D01*
X470004Y263990D01*
X469537Y264083D01*
D02*
G37*
G36*
X508953Y262000D02*
X505500D01*
Y258547D01*
X508953D01*
Y262000D01*
D02*
G37*
G36*
X504500D02*
X501047D01*
Y258547D01*
X504500D01*
Y262000D01*
D02*
G37*
G36*
X470735Y258032D02*
X468913D01*
Y256918D01*
X469537D01*
X470004Y257010D01*
X470399Y257274D01*
X470663Y257670D01*
X470735Y258032D01*
D02*
G37*
G36*
X467913D02*
X466092D01*
X466164Y257670D01*
X466428Y257274D01*
X466823Y257010D01*
X467289Y256918D01*
X467913D01*
Y258032D01*
D02*
G37*
G36*
X424500D02*
X422678D01*
X422750Y257670D01*
X423014Y257274D01*
X423410Y257010D01*
X423876Y256918D01*
X424500D01*
Y258032D01*
D02*
G37*
G36*
X462087D02*
X460265D01*
X460337Y257670D01*
X460601Y257274D01*
X460996Y257010D01*
X461463Y256918D01*
X462087D01*
Y258032D01*
D02*
G37*
G36*
X418673D02*
X416852D01*
X416924Y257670D01*
X417188Y257274D01*
X417583Y257010D01*
X418049Y256918D01*
X418673D01*
Y258032D01*
D02*
G37*
G36*
X486421Y253701D02*
X481000D01*
Y250839D01*
X486421D01*
Y253701D01*
D02*
G37*
G36*
X480000D02*
X474579D01*
Y250839D01*
X480000D01*
Y253701D01*
D02*
G37*
G36*
X465969Y252575D02*
X463500D01*
Y250500D01*
X465969D01*
Y252575D01*
D02*
G37*
G36*
X462500D02*
X460032D01*
Y250500D01*
X462500D01*
Y252575D01*
D02*
G37*
G36*
X423969Y252480D02*
X421500D01*
Y250406D01*
X423969D01*
Y252480D01*
D02*
G37*
G36*
X420500D02*
X418032D01*
Y250406D01*
X420500D01*
Y252480D01*
D02*
G37*
G36*
X443008Y253201D02*
X437587D01*
Y250339D01*
X443008D01*
Y253201D01*
D02*
G37*
G36*
X436587D02*
X431165D01*
Y250339D01*
X436587D01*
Y253201D01*
D02*
G37*
G36*
X412453Y252468D02*
Y250000D01*
X414528D01*
Y252468D01*
X412453D01*
D02*
G37*
G36*
X505527Y250500D02*
X505500D01*
Y247000D01*
X509000D01*
Y247027D01*
X508727Y248044D01*
X508201Y248956D01*
X507456Y249701D01*
X506544Y250227D01*
X505527Y250500D01*
D02*
G37*
G36*
X504500D02*
X504473D01*
X503456Y250227D01*
X502544Y249701D01*
X501799Y248956D01*
X501273Y248044D01*
X501000Y247027D01*
Y247000D01*
X504500D01*
Y250500D01*
D02*
G37*
G36*
X495772Y249272D02*
X493500D01*
Y247000D01*
X495772D01*
Y249272D01*
D02*
G37*
G36*
X492500D02*
X490228D01*
Y247000D01*
X492500D01*
Y249272D01*
D02*
G37*
G36*
X486421Y249839D02*
X481000D01*
Y246976D01*
X486421D01*
Y249839D01*
D02*
G37*
G36*
X480000D02*
X474579D01*
Y246976D01*
X480000D01*
Y249839D01*
D02*
G37*
G36*
X443008Y249339D02*
X437587D01*
Y246476D01*
X443008D01*
Y249339D01*
D02*
G37*
G36*
X436587D02*
X431165D01*
Y246476D01*
X436587D01*
Y249339D01*
D02*
G37*
G36*
X509000Y246000D02*
X505500D01*
Y242500D01*
X505527D01*
X506544Y242773D01*
X507456Y243299D01*
X508201Y244044D01*
X508727Y244956D01*
X509000Y245973D01*
Y246000D01*
D02*
G37*
G36*
X504500D02*
X501000D01*
Y245973D01*
X501273Y244956D01*
X501799Y244044D01*
X502544Y243299D01*
X503456Y242773D01*
X504473Y242500D01*
X504500D01*
Y246000D01*
D02*
G37*
G36*
X465969Y243595D02*
X463500D01*
Y241520D01*
X465969D01*
Y243595D01*
D02*
G37*
G36*
X462500D02*
X460032D01*
Y241520D01*
X462500D01*
Y243595D01*
D02*
G37*
G36*
X423969Y243500D02*
X421500D01*
Y241425D01*
X423969D01*
Y243500D01*
D02*
G37*
G36*
X420500D02*
X418032D01*
Y241425D01*
X420500D01*
Y243500D01*
D02*
G37*
G36*
X505527Y235500D02*
X505500D01*
Y232000D01*
X509000D01*
Y232027D01*
X508727Y233044D01*
X508201Y233956D01*
X507456Y234701D01*
X506544Y235227D01*
X505527Y235500D01*
D02*
G37*
G36*
X504500D02*
X504473D01*
X503456Y235227D01*
X502544Y234701D01*
X501799Y233956D01*
X501273Y233044D01*
X501000Y232027D01*
Y232000D01*
X504500D01*
Y235500D01*
D02*
G37*
G36*
X509000Y231000D02*
X505500D01*
Y227500D01*
X505527D01*
X506544Y227773D01*
X507456Y228299D01*
X508201Y229044D01*
X508727Y229956D01*
X509000Y230973D01*
Y231000D01*
D02*
G37*
G36*
X504500D02*
X501000D01*
Y230973D01*
X501273Y229956D01*
X501799Y229044D01*
X502544Y228299D01*
X503456Y227773D01*
X504473Y227500D01*
X504500D01*
Y231000D01*
D02*
G37*
G36*
X484165Y230669D02*
X481500D01*
Y226823D01*
X484165D01*
Y230669D01*
D02*
G37*
G36*
X480500D02*
X477835D01*
Y226823D01*
X480500D01*
Y230669D01*
D02*
G37*
%LPD*%
D10*
X500438Y386500D02*
X501500D01*
X462587Y262469D02*
Y272429D01*
X496500Y386500D02*
Y395500D01*
X498469Y397469D01*
Y399475D02*
Y401969D01*
Y397469D02*
Y399475D01*
X436148Y303002D02*
X437750Y301400D01*
X436000Y303500D02*
X436148Y303352D01*
X434791Y304500D02*
X435791Y303500D01*
X436148Y303002D02*
Y303352D01*
X424000Y304500D02*
X434791D01*
X435791Y303500D02*
X436000D01*
X437750Y301400D02*
X440600D01*
X441500Y310500D02*
X446000Y306000D01*
X435000Y310500D02*
X441500D01*
X431500Y314000D02*
X435000Y310500D01*
X489500Y294500D02*
X497500Y302500D01*
X494000Y393000D02*
Y396336D01*
X496452Y398787D01*
X500148Y394648D02*
X500438Y394938D01*
Y399475D01*
X500000Y393500D02*
X500148Y393648D01*
Y394648D01*
X498469Y401969D02*
X498500Y402000D01*
X498469Y381575D02*
Y386500D01*
X493894Y377000D02*
X498469Y381575D01*
X328328Y256000D02*
X334328Y262000D01*
X338000D01*
X338394D01*
X417921Y298579D02*
X418000Y298500D01*
X412854Y298579D02*
X417921D01*
X412776Y298657D02*
X412854Y298579D01*
X472500Y326000D02*
X480000D01*
X424000Y314000D02*
X431500D01*
X422230Y323500D02*
X430000D01*
X438500Y315000D01*
X496000D01*
X446000Y300129D02*
Y306000D01*
X496000Y315000D02*
X505000Y324000D01*
X491000Y320000D02*
X505000Y334000D01*
X442500Y320000D02*
X491000D01*
X434000Y328500D02*
X442500Y320000D01*
X424000Y328500D02*
X434000D01*
X423606D02*
X424000D01*
X414547Y296689D02*
X427236Y284000D01*
X486500D01*
X489500Y352291D02*
Y352500D01*
X490500Y346953D02*
Y351291D01*
X489500Y352291D02*
X490500Y351291D01*
X489500Y356500D02*
X492500D01*
X505000Y344000D01*
X490500Y333000D02*
Y341047D01*
X412776Y320311D02*
X419042D01*
X422230Y323500D01*
X412776Y322280D02*
X417386D01*
X423606Y328500D01*
X412866Y324339D02*
X415671D01*
X419000Y327667D01*
X412776Y324248D02*
X412866Y324339D01*
X419000Y327667D02*
Y335500D01*
X339146Y241452D02*
X339355D01*
X328000Y241000D02*
X338694D01*
X339146Y241452D01*
X335307Y246000D02*
X337355Y243952D01*
X328000Y246000D02*
X335307D01*
X328000Y231000D02*
X337903D01*
X343355Y236452D01*
X338403Y236000D02*
X341355Y238952D01*
X328000Y236000D02*
X338403D01*
X376500Y278500D02*
X379311Y281311D01*
Y288815D01*
X492500Y282500D02*
X505000D01*
X495000Y292500D02*
X505000D01*
X486500Y284000D02*
X495000Y292500D01*
X497500Y302500D02*
X505000D01*
X412776Y296689D02*
X414547D01*
X467300Y296200D02*
X469511Y298411D01*
X466200Y298800D02*
X472000Y304600D01*
Y307500D01*
X457400Y296200D02*
X467300D01*
X469511Y298411D02*
X471911D01*
X457400Y298800D02*
X466200D01*
X471911Y298411D02*
X472000Y298500D01*
X333055Y255727D02*
X340727D01*
X328328Y251000D02*
X333055Y255727D01*
X340727D02*
X344659Y259660D01*
X397086Y260586D02*
Y278414D01*
X393181Y282319D02*
Y286479D01*
Y282319D02*
X397086Y278414D01*
X380500Y273500D02*
X389154Y282154D01*
Y288815D01*
X378500Y276000D02*
X387185Y284685D01*
Y288815D01*
X374500Y281000D02*
X377252Y283752D01*
Y288724D01*
X403000Y255500D02*
Y277000D01*
X397000Y249500D02*
X403000Y255500D01*
X395059Y284941D02*
X403000Y277000D01*
X395059Y284941D02*
Y288815D01*
X389154D02*
X389244Y288724D01*
X393181Y286479D02*
Y288724D01*
X393091Y288815D02*
X393181Y288724D01*
Y286479D02*
X393181Y286479D01*
X387740Y251240D02*
X397086Y260586D01*
X377252Y288724D02*
X377343Y288815D01*
X415866Y265047D02*
X418445Y262469D01*
X410000Y265047D02*
X415866D01*
X418445Y262469D02*
X419173D01*
X461858D02*
X462587D01*
X453644Y265074D02*
X459252D01*
X461858Y262469D01*
X453392Y265175D02*
X453424Y265143D01*
X384165Y243595D02*
X397000D01*
X384000Y243760D02*
X384165Y243595D01*
X455500Y327020D02*
X460787D01*
X461807Y326000D01*
X466595D01*
X359658Y298657D02*
X367500D01*
X341500Y265106D02*
Y280500D01*
X359658Y298657D01*
X344659Y277660D02*
X363689Y296689D01*
X367500D01*
X344659Y259660D02*
Y277660D01*
X359095Y262795D02*
Y272000D01*
X358594Y262295D02*
X359095Y262795D01*
X358594Y236705D02*
Y262295D01*
X358299Y262000D02*
X358594Y262295D01*
X349915Y262000D02*
X358299D01*
X359095Y272000D02*
Y281095D01*
X338394Y262000D02*
X341500Y265106D01*
X328000Y251000D02*
X328328D01*
X328000Y256000D02*
X328328D01*
X448020Y330760D02*
Y351768D01*
X455752Y359500D01*
X370395Y304472D02*
X372000Y302868D01*
Y294000D02*
Y302868D01*
X359095Y281095D02*
X372000Y294000D01*
X367590Y304472D02*
X370395D01*
X367500Y304563D02*
X367590Y304472D01*
X397000Y249500D02*
X406047D01*
X466595Y403406D02*
X472500Y397500D01*
X466595Y403406D02*
Y408000D01*
X458453D02*
X466595D01*
X396000Y352000D02*
Y361019D01*
Y352000D02*
X398996Y349004D01*
Y334091D02*
Y349004D01*
X469511Y290489D02*
X471011D01*
X472000Y289500D01*
X457400Y293600D02*
X466400D01*
X469511Y290489D01*
X412776Y314405D02*
X423595D01*
X424000Y314000D01*
X440913Y299113D02*
X444983D01*
X440600Y298800D02*
X440913Y299113D01*
X444983D02*
X446000Y300129D01*
X412776Y304563D02*
X423937D01*
X424000Y304500D01*
X417500Y351000D02*
X428500D01*
X457000Y379500D02*
X491000D01*
X428500Y351000D02*
X457000Y379500D01*
X404902Y338402D02*
X417500Y351000D01*
X381500Y355000D02*
X395059Y341441D01*
X360000Y365000D02*
X370000Y355000D01*
X381500D01*
X409563Y265484D02*
X410000Y265047D01*
X419173Y271992D02*
X419181Y272000D01*
X419173Y262469D02*
Y271992D01*
X462587Y272429D02*
X463158Y273000D01*
X452500Y380000D02*
Y397500D01*
X428000Y355500D02*
X452500Y380000D01*
X417000Y355500D02*
X428000D01*
X403024Y334181D02*
Y341524D01*
X417000Y355500D01*
X404902Y334091D02*
Y338402D01*
X389500Y352000D02*
X396937Y344563D01*
Y336427D02*
Y344563D01*
X389500Y352000D02*
Y358500D01*
X393091Y334091D02*
Y338409D01*
X380507Y350993D02*
X393091Y338409D01*
X348507Y350993D02*
X380507D01*
X493500Y377000D02*
X493894D01*
X493106D02*
X493500D01*
X492031Y378075D02*
X493106Y377000D01*
X492031Y378075D02*
Y378468D01*
X491000Y379500D02*
X492031Y378468D01*
X402933Y334091D02*
X403024Y334181D01*
X400965Y334091D02*
Y344465D01*
X420425Y363925D02*
X423425D01*
X400965Y344465D02*
X420425Y363925D01*
X423425D02*
X424500Y365000D01*
X396000Y361019D02*
X399981Y365000D01*
X396937Y336427D02*
X396937Y336427D01*
Y334181D02*
Y336427D01*
X383000Y365000D02*
X389500Y358500D01*
X396937Y334181D02*
X397028Y334091D01*
X376250Y365000D02*
X383000D01*
X334500D02*
X348507Y350993D01*
X328394Y365000D02*
X334500D01*
X352519D02*
X360000D01*
X395059Y334091D02*
Y341441D01*
X399981Y365000D02*
X400375D01*
X352125D02*
X352519D01*
X328000D02*
X328394D01*
X424500Y368000D02*
X427531Y371031D01*
X427925D01*
X429000Y372106D02*
Y372500D01*
X424500Y365000D02*
Y368000D01*
X427925Y371031D02*
X429000Y372106D01*
X424000Y377654D02*
X427685Y373969D01*
X427925D01*
X429000Y372500D02*
Y372894D01*
X424000Y377654D02*
Y381909D01*
X427925Y373969D02*
X429000Y372894D01*
X424000Y381909D02*
Y407500D01*
X403656Y371031D02*
X404050D01*
X405125Y372106D01*
Y372894D01*
X400375Y365000D02*
Y367750D01*
X403656Y371031D01*
X399797Y377828D02*
Y382000D01*
Y377828D02*
X403656Y373969D01*
X404050D01*
X405125Y372894D01*
X399797Y382000D02*
Y407591D01*
X376250Y367500D02*
X379782Y371031D01*
X380175D02*
X381250Y372106D01*
X376250Y365000D02*
Y367500D01*
X379782Y371031D02*
X380175D01*
X381250Y372106D02*
Y372500D01*
X375594Y378155D02*
X379782Y373969D01*
X380175D01*
X381250Y372894D01*
Y372500D02*
Y372894D01*
X375594Y378155D02*
Y382000D01*
Y407591D01*
X353593Y368325D02*
X357375Y372106D01*
Y372500D01*
X353593Y366075D02*
Y368325D01*
X352519Y365000D02*
X353593Y366075D01*
X353057Y377212D02*
Y380335D01*
Y377212D02*
X357375Y372894D01*
Y372500D02*
Y372894D01*
X351392Y382000D02*
X353057Y380335D01*
X351392Y382000D02*
Y407591D01*
X328394Y365000D02*
X329468Y366075D01*
Y368075D01*
X333500Y372106D01*
Y372500D01*
X327189Y382000D02*
X328854Y380335D01*
Y377539D02*
Y380335D01*
Y377539D02*
X333500Y372894D01*
Y372500D02*
Y372894D01*
X327189Y382000D02*
Y407591D01*
X340342Y339843D02*
X352000D01*
X340000Y339500D02*
X340342Y339843D01*
X340000Y330500D02*
X340500Y330000D01*
X352000D01*
X351594Y318500D02*
Y329594D01*
X352000Y330000D01*
Y339843D02*
X359157D01*
X362500Y336500D01*
Y322506D02*
Y336500D01*
Y322506D02*
X364604Y320402D01*
X367409D02*
X367500Y320311D01*
X364604Y320402D02*
X367409D01*
X358575Y318433D02*
X365638D01*
X357500Y318500D02*
X358575Y318433D01*
X365638D02*
X367500Y318342D01*
D17*
X440600Y301400D02*
D03*
Y298800D02*
D03*
Y296200D02*
D03*
Y293600D02*
D03*
X457400D02*
D03*
Y296200D02*
D03*
Y298800D02*
D03*
Y301400D02*
D03*
D18*
X358594Y236705D02*
D03*
Y262295D02*
D03*
X370406Y236705D02*
D03*
Y262295D02*
D03*
X424000Y381909D02*
D03*
Y407500D02*
D03*
X435811Y381909D02*
D03*
Y407500D02*
D03*
X411608Y407591D02*
D03*
Y382000D02*
D03*
X399797Y407591D02*
D03*
Y382000D02*
D03*
X375594D02*
D03*
Y407591D02*
D03*
X387405Y382000D02*
D03*
Y407591D02*
D03*
X363203D02*
D03*
Y382000D02*
D03*
X351392Y407591D02*
D03*
Y382000D02*
D03*
X327189D02*
D03*
Y407591D02*
D03*
X339000Y382000D02*
D03*
Y407591D02*
D03*
D19*
X490500Y333000D02*
D03*
Y327095D02*
D03*
X349915Y267905D02*
D03*
Y262000D02*
D03*
X424000Y304500D02*
D03*
Y298594D02*
D03*
Y314000D02*
D03*
Y319905D02*
D03*
Y334405D02*
D03*
Y328500D02*
D03*
X490500Y346953D02*
D03*
Y341047D02*
D03*
X328000Y359095D02*
D03*
Y365000D02*
D03*
X352125Y359095D02*
D03*
Y365000D02*
D03*
X376250Y359095D02*
D03*
Y365000D02*
D03*
X400375Y359095D02*
D03*
Y365000D02*
D03*
X424500Y359095D02*
D03*
Y365000D02*
D03*
X338000Y262000D02*
D03*
Y267905D02*
D03*
X493500Y377000D02*
D03*
Y371094D02*
D03*
X453644Y265074D02*
D03*
Y270980D02*
D03*
X410000Y265047D02*
D03*
Y270953D02*
D03*
X397000Y249500D02*
D03*
Y243595D02*
D03*
X328500Y303095D02*
D03*
Y309000D02*
D03*
X357000Y303095D02*
D03*
Y309000D02*
D03*
X347500Y303095D02*
D03*
Y309000D02*
D03*
X338000Y303095D02*
D03*
Y309000D02*
D03*
X502500Y377000D02*
D03*
Y371094D02*
D03*
X463000Y244094D02*
D03*
Y250000D02*
D03*
X421000Y244000D02*
D03*
Y249905D02*
D03*
X478063Y276905D02*
D03*
Y271000D02*
D03*
X434087Y277906D02*
D03*
Y272000D02*
D03*
D20*
X351594Y318500D02*
D03*
X357500D02*
D03*
X411953Y249500D02*
D03*
X406047D02*
D03*
X466595Y408000D02*
D03*
X472500D02*
D03*
X477906Y307500D02*
D03*
X472000D02*
D03*
X477906Y298500D02*
D03*
X472000D02*
D03*
X477906Y289500D02*
D03*
X472000D02*
D03*
X466595Y326000D02*
D03*
X472500D02*
D03*
X469063Y273000D02*
D03*
X463158D02*
D03*
X425087Y272000D02*
D03*
X419181D02*
D03*
X365000D02*
D03*
X359095D02*
D03*
X334095Y339500D02*
D03*
X340000D02*
D03*
X334095Y330500D02*
D03*
X340000D02*
D03*
X429000Y372500D02*
D03*
X434905D02*
D03*
X405125D02*
D03*
X411030D02*
D03*
X381250D02*
D03*
X387156D02*
D03*
X357375D02*
D03*
X363281D02*
D03*
X333500D02*
D03*
X339405D02*
D03*
X452547Y408000D02*
D03*
X458453D02*
D03*
X472500Y335000D02*
D03*
X466595D02*
D03*
X503500Y408000D02*
D03*
X497594D02*
D03*
D21*
X505000Y231500D02*
D03*
Y246500D02*
D03*
D22*
X481000Y231169D02*
D03*
Y239831D02*
D03*
D23*
X352000Y339843D02*
D03*
Y330000D02*
D03*
D24*
X496500Y399475D02*
D03*
X498469D02*
D03*
X500438D02*
D03*
Y386500D02*
D03*
X498469D02*
D03*
X496500D02*
D03*
D25*
X493000Y240595D02*
D03*
Y246500D02*
D03*
D26*
X480500Y259000D02*
D03*
Y250339D02*
D03*
X437087Y258500D02*
D03*
Y249839D02*
D03*
D27*
X375374Y334091D02*
D03*
X377343D02*
D03*
X379311D02*
D03*
X381279D02*
D03*
X383248D02*
D03*
X385216D02*
D03*
X387185D02*
D03*
X389154D02*
D03*
X391122D02*
D03*
X393091D02*
D03*
X395059D02*
D03*
X397028D02*
D03*
X398996D02*
D03*
X400965D02*
D03*
X402933D02*
D03*
X404902D02*
D03*
Y288815D02*
D03*
X402933D02*
D03*
X400965D02*
D03*
X398996D02*
D03*
X397028D02*
D03*
X395059D02*
D03*
X393091D02*
D03*
X391122D02*
D03*
X389154D02*
D03*
X387185D02*
D03*
X385216D02*
D03*
X383248D02*
D03*
X381279D02*
D03*
X379311D02*
D03*
X377343D02*
D03*
X375374D02*
D03*
D28*
X412776Y326217D02*
D03*
Y324248D02*
D03*
Y322280D02*
D03*
Y320311D02*
D03*
Y318342D02*
D03*
Y316374D02*
D03*
Y314405D02*
D03*
Y312437D02*
D03*
Y310469D02*
D03*
Y308500D02*
D03*
Y306532D02*
D03*
Y304563D02*
D03*
Y302594D02*
D03*
Y300626D02*
D03*
Y298657D02*
D03*
Y296689D02*
D03*
X367500D02*
D03*
Y298657D02*
D03*
Y300626D02*
D03*
Y302594D02*
D03*
Y304563D02*
D03*
Y306532D02*
D03*
Y308500D02*
D03*
Y310469D02*
D03*
Y312437D02*
D03*
Y314405D02*
D03*
Y316374D02*
D03*
Y318342D02*
D03*
Y320311D02*
D03*
Y322280D02*
D03*
Y324248D02*
D03*
Y326217D02*
D03*
D29*
X387740Y251240D02*
D03*
X380260D02*
D03*
X384000Y243760D02*
D03*
D30*
X425000Y262469D02*
D03*
Y260500D02*
D03*
Y258531D02*
D03*
X419173D02*
D03*
Y260500D02*
D03*
Y262469D02*
D03*
X462587D02*
D03*
Y260500D02*
D03*
Y258531D02*
D03*
X468413D02*
D03*
Y260500D02*
D03*
Y262469D02*
D03*
D31*
X448020Y330760D02*
D03*
X455500Y334500D02*
D03*
Y327020D02*
D03*
D47*
X363000Y304248D02*
Y309355D01*
X361847Y303095D02*
X363000Y304248D01*
X356906Y303095D02*
X357000Y303000D01*
Y303095D02*
X361847D01*
X481764Y240595D02*
X493000D01*
X481000Y239831D02*
X481764Y240595D01*
X338000Y267905D02*
Y271500D01*
X479861Y291849D02*
X481349D01*
X481500Y292000D01*
X477906Y289894D02*
X479861Y291849D01*
X477906Y298500D02*
X481500D01*
X477906Y307500D02*
X481500D01*
X424000Y319905D02*
X424047Y319953D01*
X427953D02*
X428000Y320000D01*
X424047Y319953D02*
X427953D01*
X328106Y309000D02*
X328500D01*
X337606D01*
X338000D01*
X347500D02*
X356606D01*
X357000D01*
X349958Y267948D02*
Y271458D01*
X350000Y271500D01*
X451213Y300500D02*
X452113Y301400D01*
X451000Y300500D02*
X451213D01*
X328047Y359047D02*
X331953D01*
X328000Y359095D02*
X328047Y359047D01*
X331953D02*
X332000Y359000D01*
X352125Y359095D02*
X352172Y359047D01*
X355953D02*
X356000Y359000D01*
X352172Y359047D02*
X355953D01*
X376297D02*
X380253D01*
X380300Y359000D01*
X376250Y359095D02*
X376297Y359047D01*
X420500Y359000D02*
X420547Y359047D01*
X424453D01*
X400375Y359095D02*
X400422Y359047D01*
X404453D02*
X404500Y359000D01*
X400422Y359047D02*
X404453D01*
X338000Y309000D02*
X347500D01*
X424453Y359047D02*
X424500Y359095D01*
X363281Y372500D02*
X367000D01*
X387156D02*
X390800D01*
X411030D02*
X414500D01*
X434905D02*
X438500D01*
X472500Y335000D02*
Y339000D01*
X486500Y327000D02*
X486547Y327047D01*
X490453D01*
X463000Y335000D02*
X466595D01*
X455500Y334500D02*
Y338000D01*
X502500Y371094D02*
X502547Y371047D01*
X506453D02*
X506500Y371000D01*
X502547Y371047D02*
X506453D01*
X489595Y371094D02*
X493500D01*
X489500Y371000D02*
X489595Y371094D01*
X502000Y386500D02*
X503500D01*
Y408000D02*
X507000D01*
X494000D02*
X497594D01*
X472500D02*
X476000D01*
X330500Y330500D02*
X334095D01*
X330500Y339500D02*
X334095D01*
X435811Y381909D02*
Y407500D01*
X411608Y382000D02*
Y407591D01*
X387156Y381750D02*
X387405Y382000D01*
Y407591D01*
X347500Y303000D02*
X347594Y303095D01*
X347406D02*
X347500Y303000D01*
X338094Y303095D02*
X347106D01*
X347406D02*
X347500D01*
X347106D02*
X347406D01*
X337906D02*
X338000D01*
X337606D02*
X337906D01*
X338000Y303000D02*
X338094Y303095D01*
X337906D02*
X338000Y303000D01*
X328594Y303095D02*
X337606D01*
X328106D02*
X328500D01*
X356906D02*
X357000D01*
X356606D02*
X356906D01*
X347594D02*
X356606D01*
X339405Y372500D02*
X343000D01*
X502500Y377000D02*
X506500D01*
X424000Y334405D02*
X427906D01*
X448500Y408000D02*
X452547D01*
X363203Y382000D02*
Y407591D01*
X339000Y382000D02*
Y407591D01*
X337906Y267812D02*
X338000Y267905D01*
X365000Y272000D02*
Y276500D01*
X370406Y236705D02*
Y262295D01*
X380260Y251240D02*
Y256240D01*
X380217Y251198D02*
X380260Y251240D01*
X424000Y295000D02*
Y298594D01*
X477906Y289500D02*
Y289894D01*
X497500Y403500D02*
Y407905D01*
X490453Y327047D02*
X490500Y327095D01*
X349915Y267905D02*
X349958Y267948D01*
X434087Y277906D02*
X434480D01*
X410000Y270953D02*
X410394D01*
X453644Y270980D02*
X454037D01*
X370406Y262295D02*
Y262886D01*
X462606Y244094D02*
X463000D01*
X463394D01*
X369224Y264067D02*
X370406Y262886D01*
X472500Y408000D02*
X472628Y407872D01*
X497500Y407905D02*
X497594Y408000D01*
X327623Y261377D02*
X328000Y261000D01*
X502500Y377000D02*
X503091Y376409D01*
X357984Y309984D02*
X360437Y312437D01*
X363000D01*
D48*
X452113Y301400D02*
X457400D01*
X501500Y386500D02*
X502000D01*
X440550Y293550D02*
X440600Y293600D01*
X435050Y293550D02*
X440550D01*
X435000Y293500D02*
X435050Y293550D01*
X363000Y309469D02*
X364000Y310469D01*
X363000Y309355D02*
Y309469D01*
Y312437D02*
X364000D01*
D49*
X497500Y403000D02*
X498500Y402000D01*
X497500Y403000D02*
Y403500D01*
X462500Y397500D02*
Y397654D01*
X435811Y407500D02*
X436311Y408000D01*
X434905Y381004D02*
X435811Y381909D01*
X411030Y381422D02*
X411608Y382000D01*
X363203D02*
X363281Y381922D01*
X339000Y382000D02*
X339405Y381594D01*
X364000Y310469D02*
X367500D01*
X364000Y312437D02*
X367500D01*
Y314405D02*
Y316374D01*
Y312437D02*
Y314405D01*
D50*
X455752Y359500D02*
D03*
X471500D02*
D03*
X505000Y324000D02*
D03*
Y334000D02*
D03*
Y344000D02*
D03*
Y272500D02*
D03*
Y282500D02*
D03*
Y292500D02*
D03*
Y302500D02*
D03*
D51*
X452500Y397500D02*
D03*
X462500D02*
D03*
X472500D02*
D03*
D52*
X505000Y354000D02*
D03*
Y262500D02*
D03*
D53*
X328000Y231000D02*
D03*
Y236000D02*
D03*
Y241000D02*
D03*
Y246000D02*
D03*
Y251000D02*
D03*
Y256000D02*
D03*
Y261000D02*
D03*
D54*
Y266000D02*
D03*
D55*
X333000Y303000D02*
D03*
X342858Y303163D02*
D03*
X352500Y303000D02*
D03*
X352223Y309013D02*
D03*
X342835Y308968D02*
D03*
X333000Y309000D02*
D03*
X361500Y303000D02*
D03*
X360500Y312500D02*
D03*
X338000Y271500D02*
D03*
X481500Y292000D02*
D03*
Y298500D02*
D03*
Y307500D02*
D03*
X428000Y320000D02*
D03*
X424000Y295000D02*
D03*
X350000Y271500D02*
D03*
X451000Y300500D02*
D03*
X332000Y359000D02*
D03*
X356000D02*
D03*
X380300D02*
D03*
X420500D02*
D03*
X404500D02*
D03*
X367000Y372500D02*
D03*
X390800D02*
D03*
X414500D02*
D03*
X438500D02*
D03*
X472500Y339000D02*
D03*
X486500Y327000D02*
D03*
X463000Y335000D02*
D03*
X455500Y338000D02*
D03*
X506500Y371000D02*
D03*
X489500D02*
D03*
X503500Y386500D02*
D03*
X507000Y408000D02*
D03*
X494000D02*
D03*
X476000D02*
D03*
X330500Y330500D02*
D03*
Y339500D02*
D03*
X435811Y394705D02*
D03*
X411608Y394795D02*
D03*
X387405D02*
D03*
X343000Y372500D02*
D03*
X506500Y377000D02*
D03*
X427906Y334405D02*
D03*
X448500Y408000D02*
D03*
X363203Y394795D02*
D03*
X339000D02*
D03*
X365000Y276500D02*
D03*
X370406Y249500D02*
D03*
X380260Y256240D02*
D03*
X482500Y278500D02*
D03*
X473500D02*
D03*
X455500Y275000D02*
D03*
X451500D02*
D03*
X438500Y278000D02*
D03*
X429500D02*
D03*
X408000Y275500D02*
D03*
X412500D02*
D03*
X486000Y229000D02*
D03*
Y234000D02*
D03*
X423000Y240000D02*
D03*
X419000D02*
D03*
X500000Y229000D02*
D03*
Y234000D02*
D03*
X465000Y240000D02*
D03*
X476000Y229000D02*
D03*
Y234000D02*
D03*
X461000Y240000D02*
D03*
X435000Y293500D02*
D03*
D56*
X496500Y390000D02*
D03*
X472000Y256500D02*
D03*
X465500D02*
D03*
X429500Y272000D02*
D03*
Y267000D02*
D03*
X425000D02*
D03*
X428500Y256500D02*
D03*
X422000D02*
D03*
X436000Y303500D02*
D03*
X441500Y310500D02*
D03*
X489500Y294500D02*
D03*
X494000Y393000D02*
D03*
X500000Y393500D02*
D03*
X372000Y302868D02*
D03*
X418000Y298500D02*
D03*
X480000Y326000D02*
D03*
X489500Y352500D02*
D03*
Y356500D02*
D03*
X419000Y335500D02*
D03*
X341355Y238952D02*
D03*
X339355Y241452D02*
D03*
X343355Y236452D02*
D03*
X337355Y243952D02*
D03*
X376500Y278500D02*
D03*
X492500Y282500D02*
D03*
X380500Y273500D02*
D03*
X378500Y276000D02*
D03*
X374500Y281000D02*
D03*
M02*
