G04*
G04 #@! TF.GenerationSoftware,Altium Limited,Altium Designer,22.8.2 (66)*
G04*
G04 Layer_Color=8388736*
%FSLAX25Y25*%
%MOIN*%
G70*
G04*
G04 #@! TF.SameCoordinates,353F7BBD-D662-4BEA-BAB2-8ECF1C4A7E15*
G04*
G04*
G04 #@! TF.FilePolarity,Negative*
G04*
G01*
G75*
%ADD10C,0.01000*%
%ADD17R,0.07700X0.02000*%
%ADD24R,0.00903X0.02375*%
%ADD27R,0.01181X0.04724*%
%ADD28R,0.04724X0.01181*%
G04:AMPARAMS|DCode=30|XSize=26.38mil|YSize=11.81mil|CornerRadius=1.95mil|HoleSize=0mil|Usage=FLASHONLY|Rotation=0.000|XOffset=0mil|YOffset=0mil|HoleType=Round|Shape=RoundedRectangle|*
%AMROUNDEDRECTD30*
21,1,0.02638,0.00791,0,0,0.0*
21,1,0.02248,0.01181,0,0,0.0*
1,1,0.00390,0.01124,-0.00396*
1,1,0.00390,-0.01124,-0.00396*
1,1,0.00390,-0.01124,0.00396*
1,1,0.00390,0.01124,0.00396*
%
%ADD30ROUNDEDRECTD30*%
%ADD32R,0.05131X0.06312*%
%ADD33R,0.04737X0.03950*%
%ADD34R,0.03950X0.04737*%
%ADD35C,0.06800*%
%ADD36R,0.05131X0.07493*%
%ADD37R,0.07887X0.04737*%
%ADD38R,0.04343X0.04343*%
%ADD39R,0.10642X0.05524*%
%ADD40R,0.03162X0.06312*%
%ADD41R,0.06312X0.03162*%
%ADD42C,0.06706*%
%ADD43C,0.07099*%
%ADD44R,0.06706X0.06706*%
%ADD45C,0.04737*%
%ADD46R,0.04737X0.04737*%
D10*
X319000Y225000D02*
G03*
X324000Y220000I5000J0D01*
G01*
X510850Y220000D02*
G03*
X515850Y225000I-0J5000D01*
G01*
X515850Y411850D02*
G03*
X510850Y416850I-5000J0D01*
G01*
X324000Y416850D02*
G03*
X319000Y411850I0J-5000D01*
G01*
X324000Y220000D02*
X510850Y220000D01*
X515850Y225000D02*
X515850Y411850D01*
X324000Y416850D02*
X510850Y416850D01*
X319000Y225000D02*
X319000Y411850D01*
D17*
X440600Y301400D02*
D03*
Y298800D02*
D03*
Y296200D02*
D03*
Y293600D02*
D03*
X457400D02*
D03*
Y296200D02*
D03*
Y298800D02*
D03*
Y301400D02*
D03*
D24*
X496500Y399475D02*
D03*
X498469D02*
D03*
X500438D02*
D03*
Y386500D02*
D03*
X498469D02*
D03*
X496500D02*
D03*
D27*
X375374Y334091D02*
D03*
X377343D02*
D03*
X379311D02*
D03*
X381279D02*
D03*
X383248D02*
D03*
X385216D02*
D03*
X387185D02*
D03*
X389154D02*
D03*
X391122D02*
D03*
X393091D02*
D03*
X395059D02*
D03*
X397028D02*
D03*
X398996D02*
D03*
X400965D02*
D03*
X402933D02*
D03*
X404902D02*
D03*
Y288815D02*
D03*
X402933D02*
D03*
X400965D02*
D03*
X398996D02*
D03*
X397028D02*
D03*
X395059D02*
D03*
X393091D02*
D03*
X391122D02*
D03*
X389154D02*
D03*
X387185D02*
D03*
X385216D02*
D03*
X383248D02*
D03*
X381279D02*
D03*
X379311D02*
D03*
X377343D02*
D03*
X375374D02*
D03*
D28*
X412776Y326217D02*
D03*
Y324248D02*
D03*
Y322280D02*
D03*
Y320311D02*
D03*
Y318342D02*
D03*
Y316374D02*
D03*
Y314405D02*
D03*
Y312437D02*
D03*
Y310469D02*
D03*
Y308500D02*
D03*
Y306532D02*
D03*
Y304563D02*
D03*
Y302594D02*
D03*
Y300626D02*
D03*
Y298657D02*
D03*
Y296689D02*
D03*
X367500D02*
D03*
Y298657D02*
D03*
Y300626D02*
D03*
Y302594D02*
D03*
Y304563D02*
D03*
Y306532D02*
D03*
Y308500D02*
D03*
Y310469D02*
D03*
Y312437D02*
D03*
Y314405D02*
D03*
Y316374D02*
D03*
Y318342D02*
D03*
Y320311D02*
D03*
Y322280D02*
D03*
Y324248D02*
D03*
Y326217D02*
D03*
D30*
X425000Y262469D02*
D03*
Y260500D02*
D03*
Y258531D02*
D03*
X419173D02*
D03*
Y260500D02*
D03*
Y262469D02*
D03*
X462587D02*
D03*
Y260500D02*
D03*
Y258531D02*
D03*
X468413D02*
D03*
Y260500D02*
D03*
Y262469D02*
D03*
D32*
X358594Y236705D02*
D03*
Y262295D02*
D03*
X370406Y236705D02*
D03*
Y262295D02*
D03*
X424000Y381909D02*
D03*
Y407500D02*
D03*
X435811Y381909D02*
D03*
Y407500D02*
D03*
X411608Y407591D02*
D03*
Y382000D02*
D03*
X399797Y407591D02*
D03*
Y382000D02*
D03*
X375594D02*
D03*
Y407591D02*
D03*
X387405Y382000D02*
D03*
Y407591D02*
D03*
X363203D02*
D03*
Y382000D02*
D03*
X351392Y407591D02*
D03*
Y382000D02*
D03*
X327189D02*
D03*
Y407591D02*
D03*
X339000Y382000D02*
D03*
Y407591D02*
D03*
D33*
X490500Y333000D02*
D03*
Y327095D02*
D03*
X349915Y267905D02*
D03*
Y262000D02*
D03*
X424000Y304500D02*
D03*
Y298594D02*
D03*
Y314000D02*
D03*
Y319905D02*
D03*
Y334405D02*
D03*
Y328500D02*
D03*
X490500Y346953D02*
D03*
Y341047D02*
D03*
X328000Y359095D02*
D03*
Y365000D02*
D03*
X352125Y359095D02*
D03*
Y365000D02*
D03*
X376250Y359095D02*
D03*
Y365000D02*
D03*
X400375Y359095D02*
D03*
Y365000D02*
D03*
X424500Y359095D02*
D03*
Y365000D02*
D03*
X338000Y262000D02*
D03*
Y267905D02*
D03*
X493500Y377000D02*
D03*
Y371094D02*
D03*
X453644Y265074D02*
D03*
Y270980D02*
D03*
X410000Y265047D02*
D03*
Y270953D02*
D03*
X397000Y249500D02*
D03*
Y243595D02*
D03*
X328500Y303095D02*
D03*
Y309000D02*
D03*
X357000Y303095D02*
D03*
Y309000D02*
D03*
X347500Y303095D02*
D03*
Y309000D02*
D03*
X338000Y303095D02*
D03*
Y309000D02*
D03*
X502500Y377000D02*
D03*
Y371094D02*
D03*
X463000Y244094D02*
D03*
Y250000D02*
D03*
X421000Y244000D02*
D03*
Y249905D02*
D03*
X478063Y276905D02*
D03*
Y271000D02*
D03*
X434087Y277906D02*
D03*
Y272000D02*
D03*
D34*
X351594Y318500D02*
D03*
X357500D02*
D03*
X411953Y249500D02*
D03*
X406047D02*
D03*
X466595Y408000D02*
D03*
X472500D02*
D03*
X477906Y307500D02*
D03*
X472000D02*
D03*
X477906Y298500D02*
D03*
X472000D02*
D03*
X477906Y289500D02*
D03*
X472000D02*
D03*
X466595Y326000D02*
D03*
X472500D02*
D03*
X469063Y273000D02*
D03*
X463158D02*
D03*
X425087Y272000D02*
D03*
X419181D02*
D03*
X365000D02*
D03*
X359095D02*
D03*
X334095Y339500D02*
D03*
X340000D02*
D03*
X334095Y330500D02*
D03*
X340000D02*
D03*
X429000Y372500D02*
D03*
X434905D02*
D03*
X405125D02*
D03*
X411030D02*
D03*
X381250D02*
D03*
X387156D02*
D03*
X357375D02*
D03*
X363281D02*
D03*
X333500D02*
D03*
X339405D02*
D03*
X452547Y408000D02*
D03*
X458453D02*
D03*
X472500Y335000D02*
D03*
X466595D02*
D03*
X503500Y408000D02*
D03*
X497594D02*
D03*
D35*
X505000Y231500D02*
D03*
Y246500D02*
D03*
D36*
X481000Y231169D02*
D03*
Y239831D02*
D03*
D37*
X352000Y339843D02*
D03*
Y330000D02*
D03*
D38*
X493000Y240595D02*
D03*
Y246500D02*
D03*
D39*
X480500Y259000D02*
D03*
Y250339D02*
D03*
X437087Y258500D02*
D03*
Y249839D02*
D03*
D40*
X387740Y251240D02*
D03*
X380260D02*
D03*
X384000Y243760D02*
D03*
D41*
X448020Y330760D02*
D03*
X455500Y334500D02*
D03*
Y327020D02*
D03*
D42*
X455752Y359500D02*
D03*
X471500D02*
D03*
X505000Y324000D02*
D03*
Y334000D02*
D03*
Y344000D02*
D03*
Y272500D02*
D03*
Y282500D02*
D03*
Y292500D02*
D03*
Y302500D02*
D03*
D43*
X452500Y397500D02*
D03*
X462500D02*
D03*
X472500D02*
D03*
D44*
X505000Y354000D02*
D03*
Y262500D02*
D03*
D45*
X328000Y231000D02*
D03*
Y236000D02*
D03*
Y241000D02*
D03*
Y246000D02*
D03*
Y251000D02*
D03*
Y256000D02*
D03*
Y261000D02*
D03*
D46*
Y266000D02*
D03*
M02*
