G04*
G04 #@! TF.GenerationSoftware,Altium Limited,Altium Designer,22.8.2 (66)*
G04*
G04 Layer_Color=65535*
%FSLAX25Y25*%
%MOIN*%
G70*
G04*
G04 #@! TF.SameCoordinates,353F7BBD-D662-4BEA-BAB2-8ECF1C4A7E15*
G04*
G04*
G04 #@! TF.FilePolarity,Positive*
G04*
G01*
G75*
%ADD10C,0.01000*%
%ADD11C,0.00394*%
%ADD12C,0.00600*%
%ADD13C,0.00787*%
%ADD14C,0.00984*%
%ADD15C,0.00709*%
%ADD16C,0.00500*%
D10*
X440339Y305374D02*
G03*
X440339Y305374I-394J0D01*
G01*
X358201Y242807D02*
G03*
X358201Y242807I-394J0D01*
G01*
X371587D02*
G03*
X371587Y242807I-394J0D01*
G01*
Y256193D02*
G03*
X371587Y256193I-394J0D01*
G01*
X358201D02*
G03*
X358201Y256193I-394J0D01*
G01*
X371239Y249500D02*
G03*
X371239Y249500I-6739J0D01*
G01*
X436645Y394705D02*
G03*
X436645Y394705I-6739J0D01*
G01*
X436992Y388012D02*
G03*
X436992Y388012I-394J0D01*
G01*
X423606D02*
G03*
X423606Y388012I-394J0D01*
G01*
Y401398D02*
G03*
X423606Y401398I-394J0D01*
G01*
X436992D02*
G03*
X436992Y401398I-394J0D01*
G01*
X412789Y401488D02*
G03*
X412789Y401488I-394J0D01*
G01*
X399404D02*
G03*
X399404Y401488I-394J0D01*
G01*
Y388102D02*
G03*
X399404Y388102I-394J0D01*
G01*
X412789D02*
G03*
X412789Y388102I-394J0D01*
G01*
X412442Y394795D02*
G03*
X412442Y394795I-6739J0D01*
G01*
X388239D02*
G03*
X388239Y394795I-6739J0D01*
G01*
X388587Y388102D02*
G03*
X388587Y388102I-394J0D01*
G01*
X375201D02*
G03*
X375201Y388102I-394J0D01*
G01*
Y401488D02*
G03*
X375201Y401488I-394J0D01*
G01*
X388587D02*
G03*
X388587Y401488I-394J0D01*
G01*
X364384D02*
G03*
X364384Y401488I-394J0D01*
G01*
X350998D02*
G03*
X350998Y401488I-394J0D01*
G01*
Y388102D02*
G03*
X350998Y388102I-394J0D01*
G01*
X364384D02*
G03*
X364384Y388102I-394J0D01*
G01*
X364036Y394795D02*
G03*
X364036Y394795I-6739J0D01*
G01*
X339834D02*
G03*
X339834Y394795I-6739J0D01*
G01*
X340181Y388102D02*
G03*
X340181Y388102I-394J0D01*
G01*
X326795D02*
G03*
X326795Y388102I-394J0D01*
G01*
Y401488D02*
G03*
X326795Y401488I-394J0D01*
G01*
X340181D02*
G03*
X340181Y401488I-394J0D01*
G01*
X487400Y324847D02*
G03*
X487400Y324847I-200J0D01*
G01*
X476563Y246008D02*
G03*
X476563Y246008I-394J0D01*
G01*
X433150Y245508D02*
G03*
X433150Y245508I-394J0D01*
G01*
X355642Y258358D02*
X373358D01*
X355642Y240642D02*
X373358D01*
Y258358D01*
X355642Y240642D02*
Y258358D01*
X421047Y385846D02*
X438764D01*
X421047Y403563D02*
X438764D01*
X421047Y385846D02*
Y403563D01*
X438764Y385846D02*
Y403563D01*
X396845Y385937D02*
X414561D01*
X396845Y403653D02*
X414561D01*
X396845Y385937D02*
Y403653D01*
X414561Y385937D02*
Y403653D01*
X372642Y385937D02*
X390358D01*
X372642Y403653D02*
X390358D01*
X372642Y385937D02*
Y403653D01*
X390358Y385937D02*
Y403653D01*
X348439Y385937D02*
X366156D01*
X348439Y403653D02*
X366156D01*
X348439Y385937D02*
Y403653D01*
X366156Y385937D02*
Y403653D01*
X324236Y385937D02*
X341953D01*
X324236Y403653D02*
X341953D01*
X324236Y385937D02*
Y403653D01*
X341953Y385937D02*
Y403653D01*
D11*
X484543Y242783D02*
G03*
X484543Y242783I-197J0D01*
G01*
X350819Y326260D02*
G03*
X351213Y326260I197J0D01*
G01*
D02*
G03*
X350819Y326260I-197J0D01*
G01*
X445909Y359500D02*
G03*
X481343Y359500I17717J0D01*
G01*
D02*
G03*
X445909Y359500I-17717J0D01*
G01*
X354953Y333347D02*
Y336496D01*
X349047Y333347D02*
Y336496D01*
D12*
X496900Y383144D02*
G03*
X496900Y383144I-400J0D01*
G01*
X442400Y290900D02*
X455600D01*
X442400Y304100D02*
X455600D01*
X494619Y387187D02*
Y398787D01*
X502319Y387187D02*
Y398787D01*
D13*
X452651Y387473D02*
G03*
X472340Y387456I9849J5237D01*
G01*
X447492Y397650D02*
G03*
X447492Y397650I-114J0D01*
G01*
X477063Y229791D02*
X477654D01*
X477063Y241209D02*
X477654D01*
X484346Y229791D02*
X484937D01*
X484346Y241209D02*
X484937D01*
X477063Y229791D02*
Y241209D01*
X484937Y229791D02*
Y241209D01*
X451673Y403602D02*
X473327D01*
X451673Y387461D02*
X452658D01*
X472342D02*
X473327D01*
X451181Y391988D02*
X451673Y387461D01*
X473327D02*
X473819Y391988D01*
X500000Y359000D02*
X510000D01*
Y319000D02*
Y359000D01*
X500000Y319000D02*
Y359000D01*
Y319000D02*
X510000D01*
X370453Y328284D02*
Y331138D01*
Y291768D02*
Y294622D01*
X406968Y291768D02*
X409823D01*
X370453D02*
X373307D01*
X409823Y328284D02*
Y331138D01*
Y291768D02*
Y294622D01*
X406968Y331138D02*
X409823D01*
X370453D02*
X373307D01*
X324457Y227457D02*
Y269543D01*
Y227457D02*
X331543D01*
Y269543D01*
X324457D02*
X331543D01*
X500000Y307500D02*
X510000D01*
Y257500D02*
Y307500D01*
X500000Y257500D02*
Y307500D01*
Y257500D02*
X510000D01*
X389906Y244744D02*
Y247106D01*
X386756Y244744D02*
X389906D01*
X378095D02*
Y247106D01*
Y244744D02*
X381244D01*
X419527Y256366D02*
X424646D01*
X419527Y264634D02*
X424646D01*
X462941D02*
X468059D01*
X462941Y256366D02*
X468059D01*
X449004Y333516D02*
Y336665D01*
X451366D01*
X449004Y324854D02*
Y328004D01*
Y324854D02*
X451366D01*
D14*
X363366Y326217D02*
G03*
X363366Y326217I-492J0D01*
G01*
X391579Y251240D02*
G03*
X391579Y251240I-492J0D01*
G01*
X415590Y262173D02*
G03*
X415590Y262173I-492J0D01*
G01*
X459004D02*
G03*
X459004Y262173I-492J0D01*
G01*
X455992Y323673D02*
G03*
X455992Y323673I-492J0D01*
G01*
D15*
X332709Y242291D02*
X335857D01*
X332709Y240192D01*
X335857D01*
X332709Y239143D02*
X335857D01*
Y237568D01*
X335332Y237044D01*
X334283D01*
X333758Y237568D01*
Y239143D01*
Y238093D02*
X332709Y237044D01*
X335857Y233895D02*
Y235994D01*
X334283D01*
Y234945D01*
Y235994D01*
X332709D01*
Y230747D02*
Y232846D01*
X334808Y230747D01*
X335332D01*
X335857Y231271D01*
Y232321D01*
X335332Y232846D01*
X332709Y228123D02*
X335857D01*
X334283Y229697D01*
Y227598D01*
X494068Y270709D02*
X497611D01*
Y273070D01*
X494068Y276612D02*
Y274251D01*
X497611D01*
Y276612D01*
X495840Y274251D02*
Y275431D01*
X494068Y277793D02*
X497611D01*
Y279564D01*
X497020Y280154D01*
X494659D01*
X494068Y279564D01*
Y277793D01*
Y284877D02*
X497611D01*
Y286648D01*
X497020Y287239D01*
X494659D01*
X494068Y286648D01*
Y284877D01*
X497611Y288420D02*
Y289600D01*
Y289010D01*
X495249D01*
Y288420D01*
X497611Y291371D02*
Y293142D01*
X497020Y293733D01*
X496430Y293142D01*
Y291962D01*
X495840Y291371D01*
X495249Y291962D01*
Y293733D01*
X498791Y294913D02*
X495249D01*
Y296685D01*
X495840Y297275D01*
X497020D01*
X497611Y296685D01*
Y294913D01*
Y298456D02*
Y299636D01*
Y299046D01*
X494068D01*
Y298456D01*
X495249Y301998D02*
Y303179D01*
X495840Y303769D01*
X497611D01*
Y301998D01*
X497020Y301407D01*
X496430Y301998D01*
Y303769D01*
X495249Y304949D02*
X497020D01*
X497611Y305540D01*
Y307311D01*
X498201D01*
X498791Y306721D01*
Y306130D01*
X497611Y307311D02*
X495249D01*
X496168Y350808D02*
X495643Y350283D01*
Y349233D01*
X496168Y348709D01*
X496692D01*
X497217Y349233D01*
Y350283D01*
X497742Y350808D01*
X498267D01*
X498791Y350283D01*
Y349233D01*
X498267Y348709D01*
X495643Y351857D02*
X498791D01*
X497742Y352907D01*
X498791Y353956D01*
X495643D01*
Y355006D02*
X498791D01*
Y356580D01*
X498267Y357105D01*
X496168D01*
X495643Y356580D01*
Y355006D01*
D16*
X380500Y238500D02*
Y236500D01*
X381000Y236000D01*
X381999D01*
X382499Y236500D01*
Y238500D01*
X381999Y239000D01*
X381000D01*
X381500Y238000D02*
X380500Y239000D01*
X381000D02*
X380500Y238500D01*
X377501Y239000D02*
X379500D01*
X377501Y237000D01*
Y236500D01*
X378001Y236000D01*
X379000D01*
X379500Y236500D01*
X344500Y332501D02*
X345000D01*
X346000Y333500D01*
X345000Y334500D01*
X344500D01*
X346000Y333500D02*
X347499D01*
Y335500D02*
Y336499D01*
Y335999D01*
X344500D01*
X345000Y335500D01*
X417501Y269000D02*
Y266500D01*
X418001Y266001D01*
X419000D01*
X419500Y266500D01*
Y269000D01*
X422499D02*
X420500D01*
Y267500D01*
X421499Y268000D01*
X421999D01*
X422499Y267500D01*
Y266500D01*
X421999Y266001D01*
X421000D01*
X420500Y266500D01*
X461001Y269000D02*
Y266500D01*
X461501Y266001D01*
X462500D01*
X463000Y266500D01*
Y269000D01*
X465499Y266001D02*
Y269000D01*
X464000Y267500D01*
X465999D01*
X489001Y383001D02*
X491500D01*
X491999Y383501D01*
Y384500D01*
X491500Y385000D01*
X489001D01*
X489500Y386000D02*
X489001Y386500D01*
Y387499D01*
X489500Y387999D01*
X490000D01*
X490500Y387499D01*
Y387000D01*
Y387499D01*
X491000Y387999D01*
X491500D01*
X491999Y387499D01*
Y386500D01*
X491500Y386000D01*
X433501Y310999D02*
Y308500D01*
X434001Y308000D01*
X435000D01*
X435500Y308500D01*
Y310999D01*
X438499Y308000D02*
X436500D01*
X438499Y310000D01*
Y310500D01*
X437999Y310999D01*
X437000D01*
X436500Y310500D01*
X364501Y341499D02*
Y339000D01*
X365001Y338500D01*
X366000D01*
X366500Y339000D01*
Y341499D01*
X367500Y338500D02*
X368499D01*
X368000D01*
Y341499D01*
X367500Y341000D01*
X501001Y239000D02*
X503001D01*
X502001D01*
Y236000D01*
X504000D02*
Y239000D01*
X505500D01*
X506000Y238500D01*
Y237500D01*
X505500Y237000D01*
X504000D01*
X508999Y236000D02*
X506999D01*
X508999Y238000D01*
Y238500D01*
X508499Y239000D01*
X507499D01*
X506999Y238500D01*
X501501Y253999D02*
X503501D01*
X502501D01*
Y251000D01*
X504500D02*
Y253999D01*
X506000D01*
X506499Y253500D01*
Y252500D01*
X506000Y252000D01*
X504500D01*
X507499Y251000D02*
X508499D01*
X507999D01*
Y253999D01*
X507499Y253500D01*
X400000Y250499D02*
X402999D01*
Y248999D01*
X402500Y248499D01*
X401500D01*
X401000Y248999D01*
Y250499D01*
Y249499D02*
X400000Y248499D01*
Y245500D02*
Y247500D01*
X402000Y245500D01*
X402500D01*
X402999Y246000D01*
Y247000D01*
X402500Y247500D01*
X400000Y243001D02*
X402999D01*
X401500Y244501D01*
Y242501D01*
X413087Y271952D02*
X416086D01*
Y270452D01*
X415586Y269952D01*
X414587D01*
X414087Y270452D01*
Y271952D01*
Y270952D02*
X413087Y269952D01*
Y266953D02*
Y268952D01*
X415086Y266953D01*
X415586D01*
X416086Y267453D01*
Y268453D01*
X415586Y268952D01*
Y265953D02*
X416086Y265454D01*
Y264454D01*
X415586Y263954D01*
X415086D01*
X414587Y264454D01*
Y264954D01*
Y264454D01*
X414087Y263954D01*
X413587D01*
X413087Y264454D01*
Y265454D01*
X413587Y265953D01*
X456644Y272073D02*
X459643D01*
Y270574D01*
X459143Y270074D01*
X458144D01*
X457644Y270574D01*
Y272073D01*
Y271074D02*
X456644Y270074D01*
Y267075D02*
Y269074D01*
X458643Y267075D01*
X459143D01*
X459643Y267575D01*
Y268574D01*
X459143Y269074D01*
X456644Y264076D02*
Y266075D01*
X458643Y264076D01*
X459143D01*
X459643Y264576D01*
Y265575D01*
X459143Y266075D01*
X418501Y275001D02*
Y277999D01*
X420001D01*
X420501Y277500D01*
Y276500D01*
X420001Y276000D01*
X418501D01*
X419501D02*
X420501Y275001D01*
X423499D02*
X421500D01*
X423499Y277000D01*
Y277500D01*
X423000Y277999D01*
X422000D01*
X421500Y277500D01*
X424499Y275001D02*
X425499D01*
X424999D01*
Y277999D01*
X424499Y277500D01*
X462001Y276000D02*
Y278999D01*
X463501D01*
X464001Y278500D01*
Y277500D01*
X463501Y277000D01*
X462001D01*
X463001D02*
X464001Y276000D01*
X467000D02*
X465000D01*
X467000Y278000D01*
Y278500D01*
X466500Y278999D01*
X465500D01*
X465000Y278500D01*
X467999D02*
X468499Y278999D01*
X469499D01*
X469999Y278500D01*
Y276500D01*
X469499Y276000D01*
X468499D01*
X467999Y276500D01*
Y278500D01*
X473249Y323000D02*
Y320001D01*
X471749D01*
X471249Y320500D01*
Y321500D01*
X471749Y322000D01*
X473249D01*
X472249D02*
X471249Y323000D01*
X470250D02*
X469250D01*
X469750D01*
Y320001D01*
X470250Y320500D01*
X467751Y322500D02*
X467251Y323000D01*
X466251D01*
X465751Y322500D01*
Y320500D01*
X466251Y320001D01*
X467251D01*
X467751Y320500D01*
Y321000D01*
X467251Y321500D01*
X465751D01*
X496500Y377749D02*
X499500D01*
Y376249D01*
X499000Y375749D01*
X498000D01*
X497500Y376249D01*
Y377749D01*
Y376749D02*
X496500Y375749D01*
Y374750D02*
Y373750D01*
Y374250D01*
X499500D01*
X499000Y374750D01*
Y372251D02*
X499500Y371751D01*
Y370751D01*
X499000Y370251D01*
X498500D01*
X498000Y370751D01*
X497500Y370251D01*
X497000D01*
X496500Y370751D01*
Y371751D01*
X497000Y372251D01*
X497500D01*
X498000Y371751D01*
X498500Y372251D01*
X499000D01*
X498000Y371751D02*
Y370751D01*
X471251Y292500D02*
Y295499D01*
X472751D01*
X473251Y295000D01*
Y294000D01*
X472751Y293500D01*
X471251D01*
X472251D02*
X473251Y292500D01*
X474250D02*
X475250D01*
X474750D01*
Y295499D01*
X474250Y295000D01*
X476749Y295499D02*
X478749D01*
Y295000D01*
X476749Y293000D01*
Y292500D01*
X471251Y301501D02*
Y304500D01*
X472751D01*
X473251Y304000D01*
Y303000D01*
X472751Y302500D01*
X471251D01*
X472251D02*
X473251Y301501D01*
X474250D02*
X475250D01*
X474750D01*
Y304500D01*
X474250Y304000D01*
X478749Y304500D02*
X477749Y304000D01*
X476749Y303000D01*
Y302000D01*
X477249Y301501D01*
X478249D01*
X478749Y302000D01*
Y302500D01*
X478249Y303000D01*
X476749D01*
X471251Y310501D02*
Y313499D01*
X472751D01*
X473251Y313000D01*
Y312000D01*
X472751Y311500D01*
X471251D01*
X472251D02*
X473251Y310501D01*
X474250D02*
X475250D01*
X474750D01*
Y313499D01*
X474250Y313000D01*
X478749Y313499D02*
X476749D01*
Y312000D01*
X477749Y312500D01*
X478249D01*
X478749Y312000D01*
Y311000D01*
X478249Y310501D01*
X477249D01*
X476749Y311000D01*
X466251Y411501D02*
Y414500D01*
X467751D01*
X468251Y414000D01*
Y413000D01*
X467751Y412500D01*
X466251D01*
X467251D02*
X468251Y411501D01*
X469250D02*
X470250D01*
X469750D01*
Y414500D01*
X469250Y414000D01*
X473249Y411501D02*
Y414500D01*
X471749Y413000D01*
X473749D01*
X412749Y246499D02*
Y243500D01*
X411249D01*
X410749Y244000D01*
Y245000D01*
X411249Y245500D01*
X412749D01*
X411749D02*
X410749Y246499D01*
X409750D02*
X408750D01*
X409250D01*
Y243500D01*
X409750Y244000D01*
X407251D02*
X406751Y243500D01*
X405751D01*
X405251Y244000D01*
Y244500D01*
X405751Y245000D01*
X406251D01*
X405751D01*
X405251Y245500D01*
Y246000D01*
X405751Y246499D01*
X406751D01*
X407251Y246000D01*
X341001Y268749D02*
X344000D01*
Y267249D01*
X343500Y266749D01*
X342500D01*
X342000Y267249D01*
Y268749D01*
Y267749D02*
X341001Y266749D01*
Y265750D02*
Y264750D01*
Y265250D01*
X344000D01*
X343500Y265750D01*
X341001Y261251D02*
Y263251D01*
X343000Y261251D01*
X343500D01*
X344000Y261751D01*
Y262751D01*
X343500Y263251D01*
X427500Y365249D02*
X430500D01*
Y363749D01*
X430000Y363250D01*
X429000D01*
X428500Y363749D01*
Y365249D01*
Y364249D02*
X427500Y363250D01*
Y362250D02*
Y361250D01*
Y361750D01*
X430500D01*
X430000Y362250D01*
X427500Y359751D02*
Y358751D01*
Y359251D01*
X430500D01*
X430000Y359751D01*
X397499Y358251D02*
X394500D01*
Y359751D01*
X395000Y360251D01*
X396000D01*
X396500Y359751D01*
Y358251D01*
Y359251D02*
X397499Y360251D01*
Y361250D02*
Y362250D01*
Y361750D01*
X394500D01*
X395000Y361250D01*
Y363749D02*
X394500Y364249D01*
Y365249D01*
X395000Y365749D01*
X397000D01*
X397499Y365249D01*
Y364249D01*
X397000Y363749D01*
X395000D01*
X373000Y360001D02*
X370001D01*
Y361500D01*
X370500Y362000D01*
X371500D01*
X372000Y361500D01*
Y360001D01*
Y361000D02*
X373000Y362000D01*
X372500Y363000D02*
X373000Y363500D01*
Y364499D01*
X372500Y364999D01*
X370500D01*
X370001Y364499D01*
Y363500D01*
X370500Y363000D01*
X371000D01*
X371500Y363500D01*
Y364999D01*
X349000Y359501D02*
X346001D01*
Y361000D01*
X346500Y361500D01*
X347500D01*
X348000Y361000D01*
Y359501D01*
Y360501D02*
X349000Y361500D01*
X346500Y362500D02*
X346001Y363000D01*
Y363999D01*
X346500Y364499D01*
X347000D01*
X347500Y363999D01*
X348000Y364499D01*
X348500D01*
X349000Y363999D01*
Y363000D01*
X348500Y362500D01*
X348000D01*
X347500Y363000D01*
X347000Y362500D01*
X346500D01*
X347500Y363000D02*
Y363999D01*
X324999Y360001D02*
X322001D01*
Y361500D01*
X322500Y362000D01*
X323500D01*
X324000Y361500D01*
Y360001D01*
Y361000D02*
X324999Y362000D01*
X322001Y363000D02*
Y364999D01*
X322500D01*
X324500Y363000D01*
X324999D01*
X487500Y341501D02*
X484501D01*
Y343000D01*
X485000Y343500D01*
X486000D01*
X486500Y343000D01*
Y341501D01*
Y342500D02*
X487500Y343500D01*
X484501Y346499D02*
X485000Y345499D01*
X486000Y344500D01*
X487000D01*
X487500Y345000D01*
Y345999D01*
X487000Y346499D01*
X486500D01*
X486000Y345999D01*
Y344500D01*
X352001Y321500D02*
Y324500D01*
X353500D01*
X354000Y324000D01*
Y323000D01*
X353500Y322500D01*
X352001D01*
X353000D02*
X354000Y321500D01*
X356999Y324500D02*
X355000D01*
Y323000D01*
X355999Y323500D01*
X356499D01*
X356999Y323000D01*
Y322000D01*
X356499Y321500D01*
X355500D01*
X355000Y322000D01*
X420999Y328501D02*
X418001D01*
Y330000D01*
X418500Y330500D01*
X419500D01*
X420000Y330000D01*
Y328501D01*
Y329501D02*
X420999Y330500D01*
Y332999D02*
X418001D01*
X419500Y331500D01*
Y333499D01*
X420999Y314501D02*
X418001D01*
Y316000D01*
X418500Y316500D01*
X419500D01*
X420000Y316000D01*
Y314501D01*
Y315500D02*
X420999Y316500D01*
X418500Y317500D02*
X418001Y318000D01*
Y318999D01*
X418500Y319499D01*
X419000D01*
X419500Y318999D01*
Y318499D01*
Y318999D01*
X420000Y319499D01*
X420500D01*
X420999Y318999D01*
Y318000D01*
X420500Y317500D01*
X427001Y303999D02*
X429999D01*
Y302500D01*
X429500Y302000D01*
X428500D01*
X428000Y302500D01*
Y303999D01*
Y302999D02*
X427001Y302000D01*
Y299001D02*
Y301000D01*
X429000Y299001D01*
X429500D01*
X429999Y299501D01*
Y300500D01*
X429500Y301000D01*
X353000Y267499D02*
X355999D01*
Y266000D01*
X355500Y265500D01*
X354500D01*
X354000Y266000D01*
Y267499D01*
Y266500D02*
X353000Y265500D01*
Y264500D02*
Y263501D01*
Y264001D01*
X355999D01*
X355500Y264500D01*
X446500Y339000D02*
Y341000D01*
X446000Y341499D01*
X445001D01*
X444501Y341000D01*
Y339000D01*
X445001Y338500D01*
X446000D01*
X445500Y339500D02*
X446500Y338500D01*
X446000D02*
X446500Y339000D01*
X447500Y338500D02*
X448499D01*
X447999D01*
Y341499D01*
X447500Y341000D01*
X324501Y271001D02*
Y274000D01*
X326000D01*
X326500Y273500D01*
Y272500D01*
X326000Y272000D01*
X324501D01*
X327500Y273500D02*
X328000Y274000D01*
X328999D01*
X329499Y273500D01*
Y273000D01*
X328999Y272500D01*
X328500D01*
X328999D01*
X329499Y272000D01*
Y271500D01*
X328999Y271001D01*
X328000D01*
X327500Y271500D01*
X500001Y308501D02*
Y311500D01*
X501500D01*
X502000Y311000D01*
Y310000D01*
X501500Y309500D01*
X500001D01*
X504999Y308501D02*
X503000D01*
X504999Y310500D01*
Y311000D01*
X504499Y311500D01*
X503500D01*
X503000Y311000D01*
X500001Y360000D02*
Y363000D01*
X501500D01*
X502000Y362500D01*
Y361500D01*
X501500Y361000D01*
X500001D01*
X503000Y360000D02*
X503999D01*
X503500D01*
Y363000D01*
X503000Y362500D01*
X442000Y355501D02*
X445000D01*
Y357501D01*
X442500Y360500D02*
X442000Y360000D01*
Y359000D01*
X442500Y358500D01*
X443000D01*
X443500Y359000D01*
Y360000D01*
X444000Y360500D01*
X444500D01*
X445000Y360000D01*
Y359000D01*
X444500Y358500D01*
X445000Y361499D02*
Y362499D01*
Y361999D01*
X442000D01*
X442500Y361499D01*
X445999Y256999D02*
X443001D01*
Y255000D01*
Y252001D02*
Y254000D01*
X445000Y252001D01*
X445500D01*
X445999Y252501D01*
Y253500D01*
X445500Y254000D01*
X489500Y256499D02*
X486501D01*
Y254500D01*
Y253500D02*
Y252501D01*
Y253000D01*
X489500D01*
X489000Y253500D01*
X466249Y389500D02*
X465249D01*
X465749D01*
Y392499D01*
X466249D01*
X465249D01*
X461750Y390000D02*
X462250Y389500D01*
X463250D01*
X463750Y390000D01*
Y392000D01*
X463250Y392499D01*
X462250D01*
X461750Y392000D01*
X460751Y392499D02*
X459751D01*
X460251D01*
Y389500D01*
X460751Y390000D01*
X499500Y243500D02*
Y245499D01*
X498000D01*
Y244500D01*
Y245499D01*
X496500D01*
Y242500D02*
Y241501D01*
Y242001D01*
X499500D01*
X499000Y242500D01*
X472501Y238501D02*
X475499D01*
Y240000D01*
X475000Y240500D01*
X473000D01*
X472501Y240000D01*
Y238501D01*
X475499Y243499D02*
Y241500D01*
X473500Y243499D01*
X473000D01*
X472501Y242999D01*
Y242000D01*
X473000Y241500D01*
X484501Y329001D02*
X487500D01*
Y330500D01*
X487000Y331000D01*
X485000D01*
X484501Y330500D01*
Y329001D01*
X487500Y332000D02*
Y332999D01*
Y332500D01*
X484501D01*
X485000Y332000D01*
X439500Y274000D02*
X439999Y274499D01*
Y275499D01*
X439500Y275999D01*
X437500D01*
X437001Y275499D01*
Y274499D01*
X437500Y274000D01*
X437001Y271001D02*
Y273000D01*
X439000Y271001D01*
X439500D01*
X439999Y271500D01*
Y272500D01*
X439500Y273000D01*
X437001Y270001D02*
Y269001D01*
Y269501D01*
X439999D01*
X439500Y270001D01*
X483500Y274499D02*
X483999Y274999D01*
Y275999D01*
X483500Y276499D01*
X481500D01*
X481001Y275999D01*
Y274999D01*
X481500Y274499D01*
X481001Y271500D02*
Y273500D01*
X483000Y271500D01*
X483500D01*
X483999Y272000D01*
Y273000D01*
X483500Y273500D01*
Y270501D02*
X483999Y270001D01*
Y269001D01*
X483500Y268501D01*
X481500D01*
X481001Y269001D01*
Y270001D01*
X481500Y270501D01*
X483500D01*
X415500Y244751D02*
X415000Y244251D01*
Y243251D01*
X415500Y242751D01*
X417500D01*
X418000Y243251D01*
Y244251D01*
X417500Y244751D01*
X418000Y245750D02*
Y246750D01*
Y246250D01*
X415000D01*
X415500Y245750D01*
X417500Y248249D02*
X418000Y248749D01*
Y249749D01*
X417500Y250249D01*
X415500D01*
X415000Y249749D01*
Y248749D01*
X415500Y248249D01*
X416000D01*
X416500Y248749D01*
Y250249D01*
X457500Y245251D02*
X457000Y244751D01*
Y243751D01*
X457500Y243251D01*
X459500D01*
X460000Y243751D01*
Y244751D01*
X459500Y245251D01*
X460000Y246250D02*
Y247250D01*
Y246750D01*
X457000D01*
X457500Y246250D01*
Y248749D02*
X457000Y249249D01*
Y250249D01*
X457500Y250749D01*
X458000D01*
X458500Y250249D01*
X459000Y250749D01*
X459500D01*
X460000Y250249D01*
Y249249D01*
X459500Y248749D01*
X459000D01*
X458500Y249249D01*
X458000Y248749D01*
X457500D01*
X458500Y249249D02*
Y250249D01*
X510500Y375249D02*
X510999Y375749D01*
Y376749D01*
X510500Y377249D01*
X508500D01*
X508001Y376749D01*
Y375749D01*
X508500Y375249D01*
X508001Y374250D02*
Y373250D01*
Y373750D01*
X510999D01*
X510500Y374250D01*
X510999Y371751D02*
Y369751D01*
X510500D01*
X508500Y371751D01*
X508001D01*
X498751Y413500D02*
X498251Y414000D01*
X497251D01*
X496751Y413500D01*
Y411500D01*
X497251Y411000D01*
X498251D01*
X498751Y411500D01*
X499750Y411000D02*
X500750D01*
X500250D01*
Y414000D01*
X499750Y413500D01*
X504249Y414000D02*
X503249Y413500D01*
X502249Y412500D01*
Y411500D01*
X502749Y411000D01*
X503749D01*
X504249Y411500D01*
Y412000D01*
X503749Y412500D01*
X502249D01*
X471249Y329500D02*
X471749Y329000D01*
X472749D01*
X473249Y329500D01*
Y331500D01*
X472749Y331999D01*
X471749D01*
X471249Y331500D01*
X470250Y331999D02*
X469250D01*
X469750D01*
Y329000D01*
X470250Y329500D01*
X465751Y329000D02*
X467751D01*
Y330500D01*
X466751Y330000D01*
X466251D01*
X465751Y330500D01*
Y331500D01*
X466251Y331999D01*
X467251D01*
X467751Y331500D01*
X453751Y414000D02*
X453251Y414500D01*
X452251D01*
X451751Y414000D01*
Y412000D01*
X452251Y411501D01*
X453251D01*
X453751Y412000D01*
X454750Y411501D02*
X455750D01*
X455250D01*
Y414500D01*
X454750Y414000D01*
X457249D02*
X457749Y414500D01*
X458749D01*
X459249Y414000D01*
Y413500D01*
X458749Y413000D01*
X458249D01*
X458749D01*
X459249Y412500D01*
Y412000D01*
X458749Y411501D01*
X457749D01*
X457249Y412000D01*
X338249Y366500D02*
X338749Y366001D01*
X339749D01*
X340249Y366500D01*
Y368500D01*
X339749Y369000D01*
X338749D01*
X338249Y368500D01*
X337250Y369000D02*
X336250D01*
X336750D01*
Y366001D01*
X337250Y366500D01*
X332751Y369000D02*
X334751D01*
X332751Y367000D01*
Y366500D01*
X333251Y366001D01*
X334251D01*
X334751Y366500D01*
X361750D02*
X362249Y366001D01*
X363249D01*
X363749Y366500D01*
Y368500D01*
X363249Y369000D01*
X362249D01*
X361750Y368500D01*
X360750Y369000D02*
X359750D01*
X360250D01*
Y366001D01*
X360750Y366500D01*
X358251Y369000D02*
X357251D01*
X357751D01*
Y366001D01*
X358251Y366500D01*
X386249D02*
X386749Y366001D01*
X387749D01*
X388249Y366500D01*
Y368500D01*
X387749Y369000D01*
X386749D01*
X386249Y368500D01*
X385250Y369000D02*
X384250D01*
X384750D01*
Y366001D01*
X385250Y366500D01*
X382751D02*
X382251Y366001D01*
X381251D01*
X380751Y366500D01*
Y368500D01*
X381251Y369000D01*
X382251D01*
X382751Y368500D01*
Y366500D01*
X408500D02*
X409000Y366001D01*
X409999D01*
X410499Y366500D01*
Y368500D01*
X409999Y369000D01*
X409000D01*
X408500Y368500D01*
X407500D02*
X407000Y369000D01*
X406001D01*
X405501Y368500D01*
Y366500D01*
X406001Y366001D01*
X407000D01*
X407500Y366500D01*
Y367000D01*
X407000Y367500D01*
X405501D01*
X432500Y367000D02*
X433000Y366500D01*
X433999D01*
X434499Y367000D01*
Y369000D01*
X433999Y369499D01*
X433000D01*
X432500Y369000D01*
X431500Y367000D02*
X431000Y366500D01*
X430001D01*
X429501Y367000D01*
Y367500D01*
X430001Y368000D01*
X429501Y368500D01*
Y369000D01*
X430001Y369499D01*
X431000D01*
X431500Y369000D01*
Y368500D01*
X431000Y368000D01*
X431500Y367500D01*
Y367000D01*
X431000Y368000D02*
X430001D01*
X337000Y324500D02*
X337500Y324001D01*
X338499D01*
X338999Y324500D01*
Y326500D01*
X338499Y326999D01*
X337500D01*
X337000Y326500D01*
X336000Y324001D02*
X334001D01*
Y324500D01*
X336000Y326500D01*
Y326999D01*
X336500Y345500D02*
X336000Y346000D01*
X335001D01*
X334501Y345500D01*
Y343500D01*
X335001Y343001D01*
X336000D01*
X336500Y343500D01*
X339499Y346000D02*
X338499Y345500D01*
X337500Y344500D01*
Y343500D01*
X338000Y343001D01*
X338999D01*
X339499Y343500D01*
Y344000D01*
X338999Y344500D01*
X337500D01*
X363000Y266500D02*
X363500Y266001D01*
X364499D01*
X364999Y266500D01*
Y268500D01*
X364499Y269000D01*
X363500D01*
X363000Y268500D01*
X360001Y266001D02*
X362000D01*
Y267500D01*
X361000Y267000D01*
X360501D01*
X360001Y267500D01*
Y268500D01*
X360501Y269000D01*
X361500D01*
X362000Y268500D01*
X339000Y298500D02*
X339499Y299000D01*
Y299999D01*
X339000Y300499D01*
X337000D01*
X336501Y299999D01*
Y299000D01*
X337000Y298500D01*
X336501Y296001D02*
X339499D01*
X338000Y297500D01*
Y295501D01*
X348500Y298500D02*
X349000Y299000D01*
Y299999D01*
X348500Y300499D01*
X346500D01*
X346001Y299999D01*
Y299000D01*
X346500Y298500D01*
X348500Y297500D02*
X349000Y297000D01*
Y296001D01*
X348500Y295501D01*
X348000D01*
X347500Y296001D01*
Y296500D01*
Y296001D01*
X347000Y295501D01*
X346500D01*
X346001Y296001D01*
Y297000D01*
X346500Y297500D01*
X358000Y298500D02*
X358500Y299000D01*
Y299999D01*
X358000Y300499D01*
X356000D01*
X355501Y299999D01*
Y299000D01*
X356000Y298500D01*
X355501Y295501D02*
Y297500D01*
X357500Y295501D01*
X358000D01*
X358500Y296001D01*
Y297000D01*
X358000Y297500D01*
X323000Y306000D02*
X322500Y305500D01*
Y304501D01*
X323000Y304001D01*
X325000D01*
X325500Y304501D01*
Y305500D01*
X325000Y306000D01*
X325500Y307000D02*
Y307999D01*
Y307500D01*
X322500D01*
X323000Y307000D01*
X335499Y381501D02*
Y384500D01*
X334000D01*
X333500Y384000D01*
Y383500D01*
X334000Y383000D01*
X335499D01*
X334000D01*
X333500Y382500D01*
Y382000D01*
X334000Y381501D01*
X335499D01*
X330501D02*
X331501Y382000D01*
X332500Y383000D01*
Y384000D01*
X332000Y384500D01*
X331001D01*
X330501Y384000D01*
Y383500D01*
X331001Y383000D01*
X332500D01*
X359999Y381501D02*
Y384500D01*
X358500D01*
X358000Y384000D01*
Y383500D01*
X358500Y383000D01*
X359999D01*
X358500D01*
X358000Y382500D01*
Y382000D01*
X358500Y381501D01*
X359999D01*
X355001D02*
X357000D01*
Y383000D01*
X356000Y382500D01*
X355501D01*
X355001Y383000D01*
Y384000D01*
X355501Y384500D01*
X356500D01*
X357000Y384000D01*
X383999Y381501D02*
Y384500D01*
X382500D01*
X382000Y384000D01*
Y383500D01*
X382500Y383000D01*
X383999D01*
X382500D01*
X382000Y382500D01*
Y382000D01*
X382500Y381501D01*
X383999D01*
X379501Y384500D02*
Y381501D01*
X381000Y383000D01*
X379001D01*
X408499Y381000D02*
Y383999D01*
X407000D01*
X406500Y383500D01*
Y383000D01*
X407000Y382500D01*
X408499D01*
X407000D01*
X406500Y382000D01*
Y381500D01*
X407000Y381000D01*
X408499D01*
X405500Y381500D02*
X405000Y381000D01*
X404001D01*
X403501Y381500D01*
Y382000D01*
X404001Y382500D01*
X404500D01*
X404001D01*
X403501Y383000D01*
Y383500D01*
X404001Y383999D01*
X405000D01*
X405500Y383500D01*
X432499Y381000D02*
Y383999D01*
X431000D01*
X430500Y383500D01*
Y383000D01*
X431000Y382500D01*
X432499D01*
X431000D01*
X430500Y382000D01*
Y381500D01*
X431000Y381000D01*
X432499D01*
X427501Y383999D02*
X429500D01*
X427501Y382000D01*
Y381500D01*
X428001Y381000D01*
X429000D01*
X429500Y381500D01*
X367094Y235796D02*
Y238795D01*
X365594D01*
X365094Y238295D01*
Y237795D01*
X365594Y237295D01*
X367094D01*
X365594D01*
X365094Y236795D01*
Y236296D01*
X365594Y235796D01*
X367094D01*
X364095Y238795D02*
X363095D01*
X363595D01*
Y235796D01*
X364095Y236296D01*
M02*
