G04*
G04 #@! TF.GenerationSoftware,Altium Limited,Altium Designer,22.8.2 (66)*
G04*
G04 Layer_Physical_Order=2*
G04 Layer_Color=36540*
%FSLAX25Y25*%
%MOIN*%
G70*
G04*
G04 #@! TF.SameCoordinates,353F7BBD-D662-4BEA-BAB2-8ECF1C4A7E15*
G04*
G04*
G04 #@! TF.FilePolarity,Positive*
G04*
G01*
G75*
%ADD50C,0.05906*%
%ADD51C,0.06299*%
%ADD52R,0.05906X0.05906*%
%ADD53C,0.03937*%
%ADD55C,0.02756*%
%ADD56C,0.01772*%
G36*
X509022Y413235D02*
X509739Y412938D01*
X510384Y412507D01*
X510932Y411959D01*
X511363Y411314D01*
X511660Y410597D01*
X511811Y409837D01*
Y409449D01*
Y228346D01*
Y227959D01*
X511660Y227198D01*
X511363Y226482D01*
X510932Y225837D01*
X510384Y225288D01*
X509739Y224857D01*
X509022Y224561D01*
X508262Y224410D01*
X326384D01*
X325623Y224561D01*
X324907Y224857D01*
X324262Y225288D01*
X323714Y225837D01*
X323283Y226482D01*
X322986Y227198D01*
X322835Y227959D01*
Y228346D01*
Y409449D01*
Y409837D01*
X322986Y410597D01*
X323283Y411314D01*
X323714Y411959D01*
X324262Y412507D01*
X324907Y412938D01*
X325623Y413235D01*
X326384Y413386D01*
X508262D01*
X509022Y413235D01*
D02*
G37*
%LPC*%
G36*
X494473Y410378D02*
X493527D01*
X492653Y410016D01*
X491984Y409347D01*
X491622Y408473D01*
Y407527D01*
X491984Y406653D01*
X492653Y405984D01*
X493527Y405622D01*
X494473D01*
X495347Y405984D01*
X496016Y406653D01*
X496378Y407527D01*
Y408473D01*
X496016Y409347D01*
X495347Y410016D01*
X494473Y410378D01*
D02*
G37*
G36*
X476473D02*
X475527D01*
X474653Y410016D01*
X473984Y409347D01*
X473622Y408473D01*
Y407527D01*
X473984Y406653D01*
X474653Y405984D01*
X475527Y405622D01*
X476473D01*
X477347Y405984D01*
X478016Y406653D01*
X478378Y407527D01*
Y408473D01*
X478016Y409347D01*
X477347Y410016D01*
X476473Y410378D01*
D02*
G37*
G36*
X473046Y401650D02*
X471954D01*
X470898Y401367D01*
X469952Y400820D01*
X469179Y400048D01*
X468633Y399102D01*
X468350Y398046D01*
Y396954D01*
X468633Y395898D01*
X469179Y394952D01*
X469952Y394180D01*
X470898Y393633D01*
X471954Y393350D01*
X473046D01*
X474102Y393633D01*
X475048Y394180D01*
X475820Y394952D01*
X476367Y395898D01*
X476650Y396954D01*
Y398046D01*
X476367Y399102D01*
X475820Y400048D01*
X475048Y400820D01*
X474102Y401367D01*
X473046Y401650D01*
D02*
G37*
G36*
X453046D02*
X451954D01*
X450898Y401367D01*
X449952Y400820D01*
X449180Y400048D01*
X448633Y399102D01*
X448350Y398046D01*
Y396954D01*
X448633Y395898D01*
X449180Y394952D01*
X449952Y394180D01*
X450898Y393633D01*
X451954Y393350D01*
X453046D01*
X454102Y393633D01*
X455048Y394180D01*
X455821Y394952D01*
X456367Y395898D01*
X456650Y396954D01*
Y398046D01*
X456367Y399102D01*
X455821Y400048D01*
X455048Y400820D01*
X454102Y401367D01*
X453046Y401650D01*
D02*
G37*
G36*
X500375Y395386D02*
X499625D01*
X498932Y395099D01*
X498401Y394568D01*
X498114Y393875D01*
Y393125D01*
X498401Y392432D01*
X498932Y391901D01*
X499625Y391614D01*
X500375D01*
X501068Y391901D01*
X501599Y392432D01*
X501886Y393125D01*
Y393875D01*
X501599Y394568D01*
X501068Y395099D01*
X500375Y395386D01*
D02*
G37*
G36*
X494375Y394886D02*
X493625D01*
X492932Y394599D01*
X492401Y394068D01*
X492114Y393375D01*
Y392625D01*
X492401Y391932D01*
X492932Y391401D01*
X493625Y391114D01*
X494375D01*
X494380Y391116D01*
X494763Y390734D01*
X494614Y390375D01*
Y389625D01*
X494901Y388932D01*
X495432Y388401D01*
X496125Y388114D01*
X496875D01*
X497568Y388401D01*
X498099Y388932D01*
X498386Y389625D01*
Y390375D01*
X498099Y391068D01*
X497568Y391599D01*
X496875Y391886D01*
X496125D01*
X496120Y391884D01*
X495737Y392267D01*
X495886Y392625D01*
Y393375D01*
X495599Y394068D01*
X495068Y394599D01*
X494375Y394886D01*
D02*
G37*
G36*
X506973Y373378D02*
X506027D01*
X505153Y373016D01*
X504484Y372347D01*
X504122Y371473D01*
Y370527D01*
X504484Y369653D01*
X505153Y368984D01*
X506027Y368622D01*
X506973D01*
X507847Y368984D01*
X508516Y369653D01*
X508878Y370527D01*
Y371473D01*
X508516Y372347D01*
X507847Y373016D01*
X506973Y373378D01*
D02*
G37*
G36*
X489973D02*
X489027D01*
X488153Y373016D01*
X487484Y372347D01*
X487122Y371473D01*
Y370527D01*
X487484Y369653D01*
X488153Y368984D01*
X489027Y368622D01*
X489973D01*
X490847Y368984D01*
X491516Y369653D01*
X491878Y370527D01*
Y371473D01*
X491516Y372347D01*
X490847Y373016D01*
X489973Y373378D01*
D02*
G37*
G36*
X420973Y361378D02*
X420027D01*
X419153Y361016D01*
X418484Y360347D01*
X418122Y359473D01*
Y358527D01*
X418484Y357653D01*
X419153Y356984D01*
X420027Y356622D01*
X420973D01*
X421847Y356984D01*
X422516Y357653D01*
X422878Y358527D01*
Y359473D01*
X422516Y360347D01*
X421847Y361016D01*
X420973Y361378D01*
D02*
G37*
G36*
X404973D02*
X404027D01*
X403153Y361016D01*
X402484Y360347D01*
X402122Y359473D01*
Y358527D01*
X402484Y357653D01*
X403153Y356984D01*
X404027Y356622D01*
X404973D01*
X405847Y356984D01*
X406516Y357653D01*
X406878Y358527D01*
Y359473D01*
X406516Y360347D01*
X405847Y361016D01*
X404973Y361378D01*
D02*
G37*
G36*
X380773D02*
X379827D01*
X378953Y361016D01*
X378284Y360347D01*
X377922Y359473D01*
Y358527D01*
X378284Y357653D01*
X378953Y356984D01*
X379827Y356622D01*
X380773D01*
X381647Y356984D01*
X382316Y357653D01*
X382678Y358527D01*
Y359473D01*
X382316Y360347D01*
X381647Y361016D01*
X380773Y361378D01*
D02*
G37*
G36*
X356473D02*
X355527D01*
X354653Y361016D01*
X353984Y360347D01*
X353622Y359473D01*
Y358527D01*
X353984Y357653D01*
X354653Y356984D01*
X355527Y356622D01*
X356473D01*
X357347Y356984D01*
X358016Y357653D01*
X358378Y358527D01*
Y359473D01*
X358016Y360347D01*
X357347Y361016D01*
X356473Y361378D01*
D02*
G37*
G36*
X332473D02*
X331527D01*
X330653Y361016D01*
X329984Y360347D01*
X329622Y359473D01*
Y358527D01*
X329984Y357653D01*
X330653Y356984D01*
X331527Y356622D01*
X332473D01*
X333347Y356984D01*
X334016Y357653D01*
X334378Y358527D01*
Y359473D01*
X334016Y360347D01*
X333347Y361016D01*
X332473Y361378D01*
D02*
G37*
G36*
X472020Y363453D02*
X470980D01*
X469974Y363183D01*
X469073Y362663D01*
X468337Y361927D01*
X467817Y361026D01*
X467547Y360020D01*
Y358980D01*
X467817Y357974D01*
X468337Y357073D01*
X469073Y356337D01*
X469974Y355817D01*
X470980Y355547D01*
X472020D01*
X473026Y355817D01*
X473927Y356337D01*
X474663Y357073D01*
X475183Y357974D01*
X475453Y358980D01*
Y360020D01*
X475183Y361026D01*
X474663Y361927D01*
X473927Y362663D01*
X473026Y363183D01*
X472020Y363453D01*
D02*
G37*
G36*
X456272D02*
X455232D01*
X454226Y363183D01*
X453325Y362663D01*
X452589Y361927D01*
X452069Y361026D01*
X451799Y360020D01*
Y358980D01*
X452069Y357974D01*
X452589Y357073D01*
X453325Y356337D01*
X454226Y355817D01*
X455232Y355547D01*
X456272D01*
X457278Y355817D01*
X458179Y356337D01*
X458915Y357073D01*
X459435Y357974D01*
X459705Y358980D01*
Y360020D01*
X459435Y361026D01*
X458915Y361927D01*
X458179Y362663D01*
X457278Y363183D01*
X456272Y363453D01*
D02*
G37*
G36*
X489875Y358386D02*
X489125D01*
X488432Y358099D01*
X487901Y357568D01*
X487614Y356875D01*
Y356125D01*
X487901Y355432D01*
X488432Y354901D01*
X488747Y354771D01*
Y354229D01*
X488432Y354099D01*
X487901Y353568D01*
X487614Y352875D01*
Y352125D01*
X487901Y351432D01*
X488432Y350901D01*
X489125Y350614D01*
X489875D01*
X490568Y350901D01*
X491099Y351432D01*
X491386Y352125D01*
Y352875D01*
X491099Y353568D01*
X490568Y354099D01*
X490253Y354229D01*
Y354771D01*
X490568Y354901D01*
X491099Y355432D01*
X491386Y356125D01*
Y356875D01*
X491099Y357568D01*
X490568Y358099D01*
X489875Y358386D01*
D02*
G37*
G36*
X505520Y347953D02*
X504480D01*
X503474Y347683D01*
X502573Y347163D01*
X501837Y346427D01*
X501317Y345526D01*
X501047Y344520D01*
Y343480D01*
X501317Y342474D01*
X501837Y341573D01*
X502573Y340837D01*
X503474Y340317D01*
X504480Y340047D01*
X505520D01*
X506526Y340317D01*
X507427Y340837D01*
X508163Y341573D01*
X508683Y342474D01*
X508953Y343480D01*
Y344520D01*
X508683Y345526D01*
X508163Y346427D01*
X507427Y347163D01*
X506526Y347683D01*
X505520Y347953D01*
D02*
G37*
G36*
X472973Y341378D02*
X472027D01*
X471153Y341016D01*
X470484Y340347D01*
X470122Y339473D01*
Y338527D01*
X470484Y337653D01*
X471153Y336984D01*
X472027Y336622D01*
X472973D01*
X473847Y336984D01*
X474516Y337653D01*
X474878Y338527D01*
Y339473D01*
X474516Y340347D01*
X473847Y341016D01*
X472973Y341378D01*
D02*
G37*
G36*
X419375Y337386D02*
X418625D01*
X417932Y337099D01*
X417401Y336568D01*
X417114Y335875D01*
Y335125D01*
X417401Y334432D01*
X417932Y333901D01*
X418625Y333614D01*
X419375D01*
X420068Y333901D01*
X420599Y334432D01*
X420886Y335125D01*
Y335875D01*
X420599Y336568D01*
X420068Y337099D01*
X419375Y337386D01*
D02*
G37*
G36*
X505520Y337953D02*
X504480D01*
X503474Y337683D01*
X502573Y337163D01*
X501837Y336427D01*
X501317Y335526D01*
X501047Y334520D01*
Y333480D01*
X501317Y332474D01*
X501837Y331573D01*
X502573Y330837D01*
X503474Y330317D01*
X504480Y330047D01*
X505520D01*
X506526Y330317D01*
X507427Y330837D01*
X508163Y331573D01*
X508683Y332474D01*
X508953Y333480D01*
Y334520D01*
X508683Y335526D01*
X508163Y336427D01*
X507427Y337163D01*
X506526Y337683D01*
X505520Y337953D01*
D02*
G37*
G36*
X480375Y327886D02*
X479625D01*
X478932Y327599D01*
X478401Y327068D01*
X478114Y326375D01*
Y325625D01*
X478401Y324932D01*
X478932Y324401D01*
X479625Y324114D01*
X480375D01*
X481068Y324401D01*
X481599Y324932D01*
X481886Y325625D01*
Y326375D01*
X481599Y327068D01*
X481068Y327599D01*
X480375Y327886D01*
D02*
G37*
G36*
X505520Y327953D02*
X504480D01*
X503474Y327683D01*
X502573Y327163D01*
X501837Y326427D01*
X501317Y325526D01*
X501047Y324520D01*
Y323480D01*
X501317Y322474D01*
X501837Y321573D01*
X502573Y320837D01*
X503474Y320317D01*
X504480Y320047D01*
X505520D01*
X506526Y320317D01*
X507427Y320837D01*
X508163Y321573D01*
X508683Y322474D01*
X508953Y323480D01*
Y324520D01*
X508683Y325526D01*
X508163Y326427D01*
X507427Y327163D01*
X506526Y327683D01*
X505520Y327953D01*
D02*
G37*
G36*
X428473Y322378D02*
X427527D01*
X426653Y322016D01*
X425984Y321347D01*
X425622Y320473D01*
Y319527D01*
X425984Y318653D01*
X426653Y317984D01*
X427527Y317622D01*
X428473D01*
X429347Y317984D01*
X430016Y318653D01*
X430378Y319527D01*
Y320473D01*
X430016Y321347D01*
X429347Y322016D01*
X428473Y322378D01*
D02*
G37*
G36*
X360973Y314878D02*
X360027D01*
X359153Y314516D01*
X358484Y313847D01*
X358122Y312973D01*
Y312027D01*
X358484Y311153D01*
X359153Y310484D01*
X360027Y310122D01*
X360973D01*
X361847Y310484D01*
X362516Y311153D01*
X362878Y312027D01*
Y312973D01*
X362516Y313847D01*
X361847Y314516D01*
X360973Y314878D01*
D02*
G37*
G36*
X441875Y312386D02*
X441125D01*
X440432Y312099D01*
X439901Y311568D01*
X439614Y310875D01*
Y310125D01*
X439901Y309432D01*
X440432Y308901D01*
X441125Y308614D01*
X441875D01*
X442568Y308901D01*
X443099Y309432D01*
X443386Y310125D01*
Y310875D01*
X443099Y311568D01*
X442568Y312099D01*
X441875Y312386D01*
D02*
G37*
G36*
X352696Y311391D02*
X351750D01*
X350876Y311029D01*
X350207Y310360D01*
X349845Y309486D01*
Y308540D01*
X350207Y307666D01*
X350876Y306997D01*
X351750Y306635D01*
X352696D01*
X353570Y306997D01*
X354239Y307666D01*
X354601Y308540D01*
Y309486D01*
X354239Y310360D01*
X353570Y311029D01*
X352696Y311391D01*
D02*
G37*
G36*
X333473Y311378D02*
X332527D01*
X331653Y311016D01*
X330984Y310347D01*
X330622Y309473D01*
Y308527D01*
X330984Y307653D01*
X331653Y306984D01*
X332527Y306622D01*
X333473D01*
X334347Y306984D01*
X335016Y307653D01*
X335378Y308527D01*
Y309473D01*
X335016Y310347D01*
X334347Y311016D01*
X333473Y311378D01*
D02*
G37*
G36*
X343308Y311346D02*
X342362D01*
X341488Y310984D01*
X340819Y310315D01*
X340457Y309441D01*
Y308495D01*
X340819Y307621D01*
X341488Y306952D01*
X342362Y306590D01*
X343308D01*
X344182Y306952D01*
X344851Y307621D01*
X345213Y308495D01*
Y309441D01*
X344851Y310315D01*
X344182Y310984D01*
X343308Y311346D01*
D02*
G37*
G36*
X436375Y305386D02*
X435625D01*
X434932Y305099D01*
X434401Y304568D01*
X434114Y303875D01*
Y303125D01*
X434401Y302432D01*
X434932Y301901D01*
X435625Y301614D01*
X436375D01*
X437068Y301901D01*
X437599Y302432D01*
X437886Y303125D01*
Y303875D01*
X437599Y304568D01*
X437068Y305099D01*
X436375Y305386D01*
D02*
G37*
G36*
X372375Y304754D02*
X371625D01*
X370932Y304467D01*
X370401Y303936D01*
X370114Y303243D01*
Y302493D01*
X370401Y301800D01*
X370932Y301269D01*
X371625Y300982D01*
X372375D01*
X373068Y301269D01*
X373599Y301800D01*
X373886Y302493D01*
Y303243D01*
X373599Y303936D01*
X373068Y304467D01*
X372375Y304754D01*
D02*
G37*
G36*
X505520Y306453D02*
X504480D01*
X503474Y306183D01*
X502573Y305663D01*
X501837Y304927D01*
X501317Y304026D01*
X501047Y303020D01*
Y301980D01*
X501317Y300974D01*
X501837Y300073D01*
X502573Y299337D01*
X503474Y298817D01*
X504480Y298547D01*
X505520D01*
X506526Y298817D01*
X507427Y299337D01*
X508163Y300073D01*
X508683Y300974D01*
X508953Y301980D01*
Y303020D01*
X508683Y304026D01*
X508163Y304927D01*
X507427Y305663D01*
X506526Y306183D01*
X505520Y306453D01*
D02*
G37*
G36*
X451473Y302878D02*
X450527D01*
X449653Y302516D01*
X448984Y301847D01*
X448622Y300973D01*
Y300027D01*
X448984Y299153D01*
X449653Y298484D01*
X450527Y298122D01*
X451473D01*
X452347Y298484D01*
X453016Y299153D01*
X453378Y300027D01*
Y300973D01*
X453016Y301847D01*
X452347Y302516D01*
X451473Y302878D01*
D02*
G37*
G36*
X418375Y300386D02*
X417625D01*
X416932Y300099D01*
X416401Y299568D01*
X416114Y298875D01*
Y298125D01*
X416401Y297432D01*
X416932Y296901D01*
X417625Y296614D01*
X418375D01*
X419068Y296901D01*
X419599Y297432D01*
X419886Y298125D01*
Y298875D01*
X419599Y299568D01*
X419068Y300099D01*
X418375Y300386D01*
D02*
G37*
G36*
X424473Y297378D02*
X423527D01*
X422653Y297016D01*
X421984Y296347D01*
X421622Y295473D01*
Y294527D01*
X421984Y293653D01*
X422653Y292984D01*
X423527Y292622D01*
X424473D01*
X425347Y292984D01*
X426016Y293653D01*
X426378Y294527D01*
Y295473D01*
X426016Y296347D01*
X425347Y297016D01*
X424473Y297378D01*
D02*
G37*
G36*
X489875Y296386D02*
X489125D01*
X488432Y296099D01*
X487901Y295568D01*
X487614Y294875D01*
Y294125D01*
X487901Y293432D01*
X488432Y292901D01*
X489125Y292614D01*
X489875D01*
X490568Y292901D01*
X491099Y293432D01*
X491386Y294125D01*
Y294875D01*
X491099Y295568D01*
X490568Y296099D01*
X489875Y296386D01*
D02*
G37*
G36*
X505520Y296453D02*
X504480D01*
X503474Y296183D01*
X502573Y295663D01*
X501837Y294927D01*
X501317Y294026D01*
X501047Y293020D01*
Y291980D01*
X501317Y290974D01*
X501837Y290073D01*
X502573Y289337D01*
X503474Y288817D01*
X504480Y288547D01*
X505520D01*
X506526Y288817D01*
X507427Y289337D01*
X508163Y290073D01*
X508683Y290974D01*
X508953Y291980D01*
Y293020D01*
X508683Y294026D01*
X508163Y294927D01*
X507427Y295663D01*
X506526Y296183D01*
X505520Y296453D01*
D02*
G37*
G36*
X492875Y284386D02*
X492125D01*
X491432Y284099D01*
X490901Y283568D01*
X490614Y282875D01*
Y282125D01*
X490901Y281432D01*
X491432Y280901D01*
X492125Y280614D01*
X492875D01*
X493568Y280901D01*
X494099Y281432D01*
X494386Y282125D01*
Y282875D01*
X494099Y283568D01*
X493568Y284099D01*
X492875Y284386D01*
D02*
G37*
G36*
X505520Y286453D02*
X504480D01*
X503474Y286183D01*
X502573Y285663D01*
X501837Y284927D01*
X501317Y284026D01*
X501047Y283020D01*
Y281980D01*
X501317Y280974D01*
X501837Y280073D01*
X502573Y279337D01*
X503474Y278817D01*
X504480Y278547D01*
X505520D01*
X506526Y278817D01*
X507427Y279337D01*
X508163Y280073D01*
X508683Y280974D01*
X508953Y281980D01*
Y283020D01*
X508683Y284026D01*
X508163Y284927D01*
X507427Y285663D01*
X506526Y286183D01*
X505520Y286453D01*
D02*
G37*
G36*
X374875Y282886D02*
X374125D01*
X373432Y282599D01*
X372901Y282068D01*
X372614Y281375D01*
Y280625D01*
X372901Y279932D01*
X373432Y279401D01*
X374125Y279114D01*
X374454D01*
X374614Y278875D01*
Y278125D01*
X374901Y277432D01*
X375432Y276901D01*
X376125Y276614D01*
X376454D01*
X376614Y276375D01*
Y275625D01*
X376901Y274932D01*
X377432Y274401D01*
X378125Y274114D01*
X378454D01*
X378614Y273875D01*
Y273125D01*
X378901Y272432D01*
X379432Y271901D01*
X380125Y271614D01*
X380875D01*
X381568Y271901D01*
X382099Y272432D01*
X382386Y273125D01*
Y273875D01*
X382099Y274568D01*
X381568Y275099D01*
X380875Y275386D01*
X380546D01*
X380386Y275625D01*
Y276375D01*
X380099Y277068D01*
X379568Y277599D01*
X378875Y277886D01*
X378546D01*
X378386Y278125D01*
Y278875D01*
X378099Y279568D01*
X377568Y280099D01*
X376875Y280386D01*
X376546D01*
X376386Y280625D01*
Y281375D01*
X376099Y282068D01*
X375568Y282599D01*
X374875Y282886D01*
D02*
G37*
G36*
X429875Y273886D02*
X429125D01*
X428432Y273599D01*
X427901Y273068D01*
X427614Y272375D01*
Y271625D01*
X427901Y270932D01*
X428432Y270401D01*
X429125Y270114D01*
X429875D01*
X430568Y270401D01*
X431099Y270932D01*
X431386Y271625D01*
Y272375D01*
X431099Y273068D01*
X430568Y273599D01*
X429875Y273886D01*
D02*
G37*
G36*
X350473Y273878D02*
X349527D01*
X348653Y273516D01*
X347984Y272847D01*
X347622Y271973D01*
Y271027D01*
X347984Y270153D01*
X348653Y269484D01*
X349527Y269122D01*
X350473D01*
X351347Y269484D01*
X352016Y270153D01*
X352378Y271027D01*
Y271973D01*
X352016Y272847D01*
X351347Y273516D01*
X350473Y273878D01*
D02*
G37*
G36*
X338473D02*
X337527D01*
X336653Y273516D01*
X335984Y272847D01*
X335622Y271973D01*
Y271027D01*
X335984Y270153D01*
X336653Y269484D01*
X337527Y269122D01*
X338473D01*
X339347Y269484D01*
X340016Y270153D01*
X340378Y271027D01*
Y271973D01*
X340016Y272847D01*
X339347Y273516D01*
X338473Y273878D01*
D02*
G37*
G36*
X429875Y268886D02*
X429125D01*
X428432Y268599D01*
X427901Y268068D01*
X427614Y267375D01*
Y266625D01*
X427901Y265932D01*
X428432Y265401D01*
X429125Y265114D01*
X429875D01*
X430568Y265401D01*
X431099Y265932D01*
X431386Y266625D01*
Y267375D01*
X431099Y268068D01*
X430568Y268599D01*
X429875Y268886D01*
D02*
G37*
G36*
X425375D02*
X424625D01*
X423932Y268599D01*
X423401Y268068D01*
X423114Y267375D01*
Y266625D01*
X423401Y265932D01*
X423932Y265401D01*
X424625Y265114D01*
X425375D01*
X426068Y265401D01*
X426599Y265932D01*
X426886Y266625D01*
Y267375D01*
X426599Y268068D01*
X426068Y268599D01*
X425375Y268886D01*
D02*
G37*
G36*
X330968Y268969D02*
X325031D01*
Y263032D01*
X330968D01*
Y268969D01*
D02*
G37*
G36*
X508953Y266453D02*
X501047D01*
Y258547D01*
X508953D01*
Y266453D01*
D02*
G37*
G36*
X337730Y245838D02*
X336980D01*
X336287Y245551D01*
X335756Y245021D01*
X335469Y244327D01*
Y243577D01*
X335756Y242884D01*
X336287Y242354D01*
X336980Y242066D01*
X337310D01*
X337469Y241827D01*
Y241077D01*
X337756Y240384D01*
X338287Y239854D01*
X338980Y239566D01*
X339310D01*
X339469Y239327D01*
Y238577D01*
X339756Y237884D01*
X340287Y237353D01*
X340980Y237066D01*
X341309D01*
X341469Y236827D01*
Y236077D01*
X341756Y235384D01*
X342287Y234854D01*
X342980Y234566D01*
X343730D01*
X344423Y234854D01*
X344954Y235384D01*
X345241Y236077D01*
Y236827D01*
X344954Y237521D01*
X344423Y238051D01*
X343730Y238338D01*
X343401D01*
X343241Y238577D01*
Y239327D01*
X342954Y240020D01*
X342423Y240551D01*
X341730Y240838D01*
X341401D01*
X341241Y241077D01*
Y241827D01*
X340954Y242520D01*
X340423Y243051D01*
X339730Y243338D01*
X339401D01*
X339241Y243577D01*
Y244327D01*
X338954Y245021D01*
X338423Y245551D01*
X337730Y245838D01*
D02*
G37*
G36*
X328391Y258968D02*
X327609D01*
X326854Y258766D01*
X326177Y258375D01*
X325625Y257823D01*
X325234Y257146D01*
X325031Y256391D01*
Y255609D01*
X325234Y254854D01*
X325625Y254177D01*
X325969Y253833D01*
X326121Y253500D01*
X325969Y253167D01*
X325625Y252823D01*
X325234Y252146D01*
X325031Y251391D01*
Y250609D01*
X325234Y249854D01*
X325625Y249177D01*
X325969Y248833D01*
X326121Y248500D01*
X325969Y248167D01*
X325625Y247823D01*
X325234Y247146D01*
X325031Y246391D01*
Y245609D01*
X325234Y244854D01*
X325625Y244177D01*
X325969Y243833D01*
X326121Y243500D01*
X325969Y243167D01*
X325625Y242823D01*
X325234Y242146D01*
X325031Y241391D01*
Y240609D01*
X325234Y239854D01*
X325625Y239177D01*
X325969Y238833D01*
X326121Y238500D01*
X325969Y238167D01*
X325625Y237823D01*
X325234Y237146D01*
X325031Y236391D01*
Y235609D01*
X325234Y234854D01*
X325625Y234177D01*
X325969Y233833D01*
X326121Y233500D01*
X325969Y233167D01*
X325625Y232823D01*
X325234Y232146D01*
X325031Y231391D01*
Y230609D01*
X325234Y229854D01*
X325625Y229177D01*
X326177Y228625D01*
X326854Y228234D01*
X327609Y228031D01*
X328391D01*
X329146Y228234D01*
X329823Y228625D01*
X330375Y229177D01*
X330766Y229854D01*
X330968Y230609D01*
Y231391D01*
X330766Y232146D01*
X330375Y232823D01*
X330031Y233167D01*
X329879Y233500D01*
X330031Y233833D01*
X330375Y234177D01*
X330766Y234854D01*
X330968Y235609D01*
Y236391D01*
X330766Y237146D01*
X330375Y237823D01*
X330031Y238167D01*
X329879Y238500D01*
X330031Y238833D01*
X330375Y239177D01*
X330766Y239854D01*
X330968Y240609D01*
Y241391D01*
X330766Y242146D01*
X330375Y242823D01*
X330031Y243167D01*
X329879Y243500D01*
X330031Y243833D01*
X330375Y244177D01*
X330766Y244854D01*
X330968Y245609D01*
Y246391D01*
X330766Y247146D01*
X330375Y247823D01*
X330031Y248167D01*
X329879Y248500D01*
X330031Y248833D01*
X330375Y249177D01*
X330766Y249854D01*
X330968Y250609D01*
Y251391D01*
X330766Y252146D01*
X330375Y252823D01*
X330031Y253167D01*
X329879Y253500D01*
X330031Y253833D01*
X330375Y254177D01*
X330766Y254854D01*
X330968Y255609D01*
Y256391D01*
X330766Y257146D01*
X330375Y257823D01*
X329823Y258375D01*
X329146Y258766D01*
X328391Y258968D01*
D02*
G37*
%LPD*%
D50*
X505000Y272500D02*
D03*
D51*
X462500Y397500D02*
D03*
D52*
X505000Y354000D02*
D03*
D53*
X328000Y261000D02*
D03*
D55*
X333000Y303000D02*
D03*
X342858Y303163D02*
D03*
X352500Y303000D02*
D03*
X361500D02*
D03*
X481500Y292000D02*
D03*
Y298500D02*
D03*
Y307500D02*
D03*
X367000Y372500D02*
D03*
X390800D02*
D03*
X414500D02*
D03*
X438500D02*
D03*
X486500Y327000D02*
D03*
X463000Y335000D02*
D03*
X455500Y338000D02*
D03*
X503500Y386500D02*
D03*
X507000Y408000D02*
D03*
X330500Y330500D02*
D03*
Y339500D02*
D03*
X435811Y394705D02*
D03*
X411608Y394795D02*
D03*
X387405D02*
D03*
X343000Y372500D02*
D03*
X506500Y377000D02*
D03*
X427906Y334405D02*
D03*
X448500Y408000D02*
D03*
X363203Y394795D02*
D03*
X339000D02*
D03*
X365000Y276500D02*
D03*
X370406Y249500D02*
D03*
X380260Y256240D02*
D03*
X482500Y278500D02*
D03*
X473500D02*
D03*
X455500Y275000D02*
D03*
X451500D02*
D03*
X438500Y278000D02*
D03*
X429500D02*
D03*
X408000Y275500D02*
D03*
X412500D02*
D03*
X486000Y229000D02*
D03*
Y234000D02*
D03*
X423000Y240000D02*
D03*
X419000D02*
D03*
X500000Y229000D02*
D03*
Y234000D02*
D03*
X465000Y240000D02*
D03*
X476000Y229000D02*
D03*
Y234000D02*
D03*
X461000Y240000D02*
D03*
X435000Y293500D02*
D03*
D56*
X472000Y256500D02*
D03*
X465500D02*
D03*
X428500D02*
D03*
X422000D02*
D03*
M02*
