G04*
G04 #@! TF.GenerationSoftware,Altium Limited,Altium Designer,22.8.2 (66)*
G04*
G04 Layer_Physical_Order=3*
G04 Layer_Color=16440176*
%FSLAX25Y25*%
%MOIN*%
G70*
G04*
G04 #@! TF.SameCoordinates,353F7BBD-D662-4BEA-BAB2-8ECF1C4A7E15*
G04*
G04*
G04 #@! TF.FilePolarity,Positive*
G04*
G01*
G75*
%ADD50C,0.05906*%
%ADD54R,0.03937X0.03937*%
%ADD55C,0.02756*%
%ADD56C,0.01772*%
G36*
X509022Y413235D02*
X509739Y412938D01*
X510384Y412507D01*
X510932Y411959D01*
X511363Y411314D01*
X511660Y410597D01*
X511811Y409837D01*
Y409449D01*
Y228346D01*
Y227959D01*
X511660Y227198D01*
X511363Y226482D01*
X510932Y225837D01*
X510384Y225288D01*
X509739Y224857D01*
X509022Y224561D01*
X508262Y224410D01*
X326384D01*
X325623Y224561D01*
X324907Y224857D01*
X324262Y225288D01*
X323714Y225837D01*
X323283Y226482D01*
X322986Y227198D01*
X322835Y227959D01*
Y228346D01*
Y409449D01*
Y409837D01*
X322986Y410597D01*
X323283Y411314D01*
X323714Y411959D01*
X324262Y412507D01*
X324907Y412938D01*
X325623Y413235D01*
X326384Y413386D01*
X508262D01*
X509022Y413235D01*
D02*
G37*
%LPC*%
G36*
X507473Y410378D02*
X506527D01*
X505653Y410016D01*
X504984Y409347D01*
X504622Y408473D01*
Y407527D01*
X504984Y406653D01*
X505653Y405984D01*
X506527Y405622D01*
X507473D01*
X508347Y405984D01*
X509016Y406653D01*
X509378Y407527D01*
Y408473D01*
X509016Y409347D01*
X508347Y410016D01*
X507473Y410378D01*
D02*
G37*
G36*
X448973D02*
X448027D01*
X447153Y410016D01*
X446484Y409347D01*
X446122Y408473D01*
Y407527D01*
X446484Y406653D01*
X447153Y405984D01*
X448027Y405622D01*
X448973D01*
X449847Y405984D01*
X450516Y406653D01*
X450878Y407527D01*
Y408473D01*
X450516Y409347D01*
X449847Y410016D01*
X448973Y410378D01*
D02*
G37*
G36*
X473046Y401650D02*
X471954D01*
X470898Y401367D01*
X469952Y400820D01*
X469179Y400048D01*
X468633Y399102D01*
X468350Y398046D01*
Y396954D01*
X468633Y395898D01*
X469179Y394952D01*
X469952Y394180D01*
X470898Y393633D01*
X471954Y393350D01*
X473046D01*
X474102Y393633D01*
X475048Y394180D01*
X475820Y394952D01*
X476367Y395898D01*
X476650Y396954D01*
Y398046D01*
X476367Y399102D01*
X475820Y400048D01*
X475048Y400820D01*
X474102Y401367D01*
X473046Y401650D01*
D02*
G37*
G36*
X463046D02*
X461954D01*
X460898Y401367D01*
X459952Y400820D01*
X459179Y400048D01*
X458633Y399102D01*
X458350Y398046D01*
Y396954D01*
X458633Y395898D01*
X459179Y394952D01*
X459952Y394180D01*
X460898Y393633D01*
X461954Y393350D01*
X463046D01*
X464102Y393633D01*
X465048Y394180D01*
X465821Y394952D01*
X466367Y395898D01*
X466650Y396954D01*
Y398046D01*
X466367Y399102D01*
X465821Y400048D01*
X465048Y400820D01*
X464102Y401367D01*
X463046Y401650D01*
D02*
G37*
G36*
X453046D02*
X451954D01*
X450898Y401367D01*
X449952Y400820D01*
X449180Y400048D01*
X448633Y399102D01*
X448350Y398046D01*
Y396954D01*
X448633Y395898D01*
X449180Y394952D01*
X449952Y394180D01*
X450898Y393633D01*
X451954Y393350D01*
X453046D01*
X454102Y393633D01*
X455048Y394180D01*
X455821Y394952D01*
X456367Y395898D01*
X456650Y396954D01*
Y398046D01*
X456367Y399102D01*
X455821Y400048D01*
X455048Y400820D01*
X454102Y401367D01*
X453046Y401650D01*
D02*
G37*
G36*
X412081Y397173D02*
X411135D01*
X410261Y396811D01*
X409592Y396142D01*
X409230Y395268D01*
Y394322D01*
X409592Y393448D01*
X410261Y392779D01*
X411135Y392417D01*
X412081D01*
X412955Y392779D01*
X413624Y393448D01*
X413986Y394322D01*
Y395268D01*
X413624Y396142D01*
X412955Y396811D01*
X412081Y397173D01*
D02*
G37*
G36*
X387878D02*
X386932D01*
X386058Y396811D01*
X385390Y396142D01*
X385028Y395268D01*
Y394322D01*
X385390Y393448D01*
X386058Y392779D01*
X386932Y392417D01*
X387878D01*
X388753Y392779D01*
X389421Y393448D01*
X389783Y394322D01*
Y395268D01*
X389421Y396142D01*
X388753Y396811D01*
X387878Y397173D01*
D02*
G37*
G36*
X363676D02*
X362730D01*
X361856Y396811D01*
X361187Y396142D01*
X360825Y395268D01*
Y394322D01*
X361187Y393448D01*
X361856Y392779D01*
X362730Y392417D01*
X363676D01*
X364550Y392779D01*
X365219Y393448D01*
X365581Y394322D01*
Y395268D01*
X365219Y396142D01*
X364550Y396811D01*
X363676Y397173D01*
D02*
G37*
G36*
X339473D02*
X338527D01*
X337653Y396811D01*
X336984Y396142D01*
X336622Y395268D01*
Y394322D01*
X336984Y393448D01*
X337653Y392779D01*
X338527Y392417D01*
X339473D01*
X340347Y392779D01*
X341016Y393448D01*
X341378Y394322D01*
Y395268D01*
X341016Y396142D01*
X340347Y396811D01*
X339473Y397173D01*
D02*
G37*
G36*
X436284Y397083D02*
X435338D01*
X434464Y396721D01*
X433795Y396052D01*
X433433Y395178D01*
Y394232D01*
X433795Y393358D01*
X434464Y392689D01*
X435338Y392327D01*
X436284D01*
X437158Y392689D01*
X437827Y393358D01*
X438189Y394232D01*
Y395178D01*
X437827Y396052D01*
X437158Y396721D01*
X436284Y397083D01*
D02*
G37*
G36*
X500375Y395386D02*
X499625D01*
X498932Y395099D01*
X498401Y394568D01*
X498114Y393875D01*
Y393125D01*
X498401Y392432D01*
X498932Y391901D01*
X499625Y391614D01*
X500375D01*
X501068Y391901D01*
X501599Y392432D01*
X501886Y393125D01*
Y393875D01*
X501599Y394568D01*
X501068Y395099D01*
X500375Y395386D01*
D02*
G37*
G36*
X494375Y394886D02*
X493625D01*
X492932Y394599D01*
X492401Y394068D01*
X492114Y393375D01*
Y392625D01*
X492401Y391932D01*
X492932Y391401D01*
X493625Y391114D01*
X494375D01*
X495068Y391401D01*
X495599Y391932D01*
X495886Y392625D01*
Y393375D01*
X495599Y394068D01*
X495068Y394599D01*
X494375Y394886D01*
D02*
G37*
G36*
X503973Y388878D02*
X503027D01*
X502153Y388516D01*
X501484Y387847D01*
X501122Y386973D01*
Y386027D01*
X501484Y385153D01*
X502153Y384484D01*
X503027Y384122D01*
X503973D01*
X504847Y384484D01*
X505516Y385153D01*
X505878Y386027D01*
Y386973D01*
X505516Y387847D01*
X504847Y388516D01*
X503973Y388878D01*
D02*
G37*
G36*
X506973Y379378D02*
X506027D01*
X505153Y379016D01*
X504484Y378347D01*
X504122Y377473D01*
Y376527D01*
X504484Y375653D01*
X505153Y374984D01*
X506027Y374622D01*
X506973D01*
X507847Y374984D01*
X508516Y375653D01*
X508878Y376527D01*
Y377473D01*
X508516Y378347D01*
X507847Y379016D01*
X506973Y379378D01*
D02*
G37*
G36*
X438973Y374878D02*
X438027D01*
X437153Y374516D01*
X436484Y373847D01*
X436122Y372973D01*
Y372027D01*
X436484Y371153D01*
X437153Y370484D01*
X438027Y370122D01*
X438973D01*
X439847Y370484D01*
X440516Y371153D01*
X440878Y372027D01*
Y372973D01*
X440516Y373847D01*
X439847Y374516D01*
X438973Y374878D01*
D02*
G37*
G36*
X414973D02*
X414027D01*
X413153Y374516D01*
X412484Y373847D01*
X412122Y372973D01*
Y372027D01*
X412484Y371153D01*
X413153Y370484D01*
X414027Y370122D01*
X414973D01*
X415847Y370484D01*
X416516Y371153D01*
X416878Y372027D01*
Y372973D01*
X416516Y373847D01*
X415847Y374516D01*
X414973Y374878D01*
D02*
G37*
G36*
X391273D02*
X390327D01*
X389453Y374516D01*
X388784Y373847D01*
X388422Y372973D01*
Y372027D01*
X388784Y371153D01*
X389453Y370484D01*
X390327Y370122D01*
X391273D01*
X392147Y370484D01*
X392816Y371153D01*
X393178Y372027D01*
Y372973D01*
X392816Y373847D01*
X392147Y374516D01*
X391273Y374878D01*
D02*
G37*
G36*
X367473D02*
X366527D01*
X365653Y374516D01*
X364984Y373847D01*
X364622Y372973D01*
Y372027D01*
X364984Y371153D01*
X365653Y370484D01*
X366527Y370122D01*
X367473D01*
X368347Y370484D01*
X369016Y371153D01*
X369378Y372027D01*
Y372973D01*
X369016Y373847D01*
X368347Y374516D01*
X367473Y374878D01*
D02*
G37*
G36*
X343473D02*
X342527D01*
X341653Y374516D01*
X340984Y373847D01*
X340622Y372973D01*
Y372027D01*
X340984Y371153D01*
X341653Y370484D01*
X342527Y370122D01*
X343473D01*
X344347Y370484D01*
X345016Y371153D01*
X345378Y372027D01*
Y372973D01*
X345016Y373847D01*
X344347Y374516D01*
X343473Y374878D01*
D02*
G37*
G36*
X456272Y363453D02*
X455232D01*
X454226Y363183D01*
X453325Y362663D01*
X452589Y361927D01*
X452069Y361026D01*
X451799Y360020D01*
Y358980D01*
X452069Y357974D01*
X452589Y357073D01*
X453325Y356337D01*
X454226Y355817D01*
X455232Y355547D01*
X456272D01*
X457278Y355817D01*
X458179Y356337D01*
X458915Y357073D01*
X459435Y357974D01*
X459705Y358980D01*
Y360020D01*
X459435Y361026D01*
X458915Y361927D01*
X458179Y362663D01*
X457278Y363183D01*
X456272Y363453D01*
D02*
G37*
G36*
X489875Y358386D02*
X489125D01*
X488432Y358099D01*
X487901Y357568D01*
X487614Y356875D01*
Y356125D01*
X487901Y355432D01*
X488432Y354901D01*
X488747Y354771D01*
Y354229D01*
X488432Y354099D01*
X487901Y353568D01*
X487614Y352875D01*
Y352125D01*
X487901Y351432D01*
X488432Y350901D01*
X489125Y350614D01*
X489875D01*
X490568Y350901D01*
X491099Y351432D01*
X491386Y352125D01*
Y352875D01*
X491099Y353568D01*
X490568Y354099D01*
X490253Y354229D01*
Y354771D01*
X490568Y354901D01*
X491099Y355432D01*
X491386Y356125D01*
Y356875D01*
X491099Y357568D01*
X490568Y358099D01*
X489875Y358386D01*
D02*
G37*
G36*
X508953Y357953D02*
X501047D01*
Y350047D01*
X508953D01*
Y357953D01*
D02*
G37*
G36*
X505520Y347953D02*
X504480D01*
X503474Y347683D01*
X502573Y347163D01*
X501837Y346427D01*
X501317Y345526D01*
X501047Y344520D01*
Y343480D01*
X501317Y342474D01*
X501837Y341573D01*
X502573Y340837D01*
X503474Y340317D01*
X504480Y340047D01*
X505520D01*
X506526Y340317D01*
X507427Y340837D01*
X508163Y341573D01*
X508683Y342474D01*
X508953Y343480D01*
Y344520D01*
X508683Y345526D01*
X508163Y346427D01*
X507427Y347163D01*
X506526Y347683D01*
X505520Y347953D01*
D02*
G37*
G36*
X330973Y341878D02*
X330027D01*
X329153Y341516D01*
X328484Y340847D01*
X328122Y339973D01*
Y339027D01*
X328484Y338153D01*
X329153Y337484D01*
X330027Y337122D01*
X330973D01*
X331847Y337484D01*
X332516Y338153D01*
X332878Y339027D01*
Y339973D01*
X332516Y340847D01*
X331847Y341516D01*
X330973Y341878D01*
D02*
G37*
G36*
X455973Y340378D02*
X455027D01*
X454153Y340016D01*
X453484Y339347D01*
X453122Y338473D01*
Y337527D01*
X453484Y336653D01*
X454153Y335984D01*
X455027Y335622D01*
X455973D01*
X456847Y335984D01*
X457516Y336653D01*
X457878Y337527D01*
Y338473D01*
X457516Y339347D01*
X456847Y340016D01*
X455973Y340378D01*
D02*
G37*
G36*
X419375Y337386D02*
X418625D01*
X417932Y337099D01*
X417401Y336568D01*
X417114Y335875D01*
Y335125D01*
X417401Y334432D01*
X417932Y333901D01*
X418625Y333614D01*
X419375D01*
X420068Y333901D01*
X420599Y334432D01*
X420886Y335125D01*
Y335875D01*
X420599Y336568D01*
X420068Y337099D01*
X419375Y337386D01*
D02*
G37*
G36*
X463473Y337378D02*
X462527D01*
X461653Y337016D01*
X460984Y336347D01*
X460622Y335473D01*
Y334527D01*
X460984Y333653D01*
X461653Y332984D01*
X462527Y332622D01*
X463473D01*
X464347Y332984D01*
X465016Y333653D01*
X465378Y334527D01*
Y335473D01*
X465016Y336347D01*
X464347Y337016D01*
X463473Y337378D01*
D02*
G37*
G36*
X428378Y336784D02*
X427432D01*
X426558Y336421D01*
X425890Y335753D01*
X425528Y334878D01*
Y333932D01*
X425890Y333059D01*
X426558Y332390D01*
X427432Y332028D01*
X428378D01*
X429252Y332390D01*
X429921Y333059D01*
X430283Y333932D01*
Y334878D01*
X429921Y335753D01*
X429252Y336421D01*
X428378Y336784D01*
D02*
G37*
G36*
X505520Y337953D02*
X504480D01*
X503474Y337683D01*
X502573Y337163D01*
X501837Y336427D01*
X501317Y335526D01*
X501047Y334520D01*
Y333480D01*
X501317Y332474D01*
X501837Y331573D01*
X502573Y330837D01*
X503474Y330317D01*
X504480Y330047D01*
X505520D01*
X506526Y330317D01*
X507427Y330837D01*
X508163Y331573D01*
X508683Y332474D01*
X508953Y333480D01*
Y334520D01*
X508683Y335526D01*
X508163Y336427D01*
X507427Y337163D01*
X506526Y337683D01*
X505520Y337953D01*
D02*
G37*
G36*
X330973Y332878D02*
X330027D01*
X329153Y332516D01*
X328484Y331847D01*
X328122Y330973D01*
Y330027D01*
X328484Y329153D01*
X329153Y328484D01*
X330027Y328122D01*
X330973D01*
X331847Y328484D01*
X332516Y329153D01*
X332878Y330027D01*
Y330973D01*
X332516Y331847D01*
X331847Y332516D01*
X330973Y332878D01*
D02*
G37*
G36*
X486973Y329378D02*
X486027D01*
X485153Y329016D01*
X484484Y328347D01*
X484122Y327473D01*
Y326527D01*
X484484Y325653D01*
X485153Y324984D01*
X486027Y324622D01*
X486973D01*
X487847Y324984D01*
X488516Y325653D01*
X488878Y326527D01*
Y327473D01*
X488516Y328347D01*
X487847Y329016D01*
X486973Y329378D01*
D02*
G37*
G36*
X480375Y327886D02*
X479625D01*
X478932Y327599D01*
X478401Y327068D01*
X478114Y326375D01*
Y325625D01*
X478401Y324932D01*
X478932Y324401D01*
X479625Y324114D01*
X480375D01*
X481068Y324401D01*
X481599Y324932D01*
X481886Y325625D01*
Y326375D01*
X481599Y327068D01*
X481068Y327599D01*
X480375Y327886D01*
D02*
G37*
G36*
X505520Y327953D02*
X504480D01*
X503474Y327683D01*
X502573Y327163D01*
X501837Y326427D01*
X501317Y325526D01*
X501047Y324520D01*
Y323480D01*
X501317Y322474D01*
X501837Y321573D01*
X502573Y320837D01*
X503474Y320317D01*
X504480Y320047D01*
X505520D01*
X506526Y320317D01*
X507427Y320837D01*
X508163Y321573D01*
X508683Y322474D01*
X508953Y323480D01*
Y324520D01*
X508683Y325526D01*
X508163Y326427D01*
X507427Y327163D01*
X506526Y327683D01*
X505520Y327953D01*
D02*
G37*
G36*
X441875Y312386D02*
X441125D01*
X440432Y312099D01*
X439901Y311568D01*
X439614Y310875D01*
Y310125D01*
X439901Y309432D01*
X440432Y308901D01*
X441125Y308614D01*
X441875D01*
X442568Y308901D01*
X443099Y309432D01*
X443386Y310125D01*
Y310875D01*
X443099Y311568D01*
X442568Y312099D01*
X441875Y312386D01*
D02*
G37*
G36*
X481973Y309878D02*
X481027D01*
X480153Y309516D01*
X479484Y308847D01*
X479122Y307973D01*
Y307027D01*
X479484Y306153D01*
X480153Y305484D01*
X481027Y305122D01*
X481973D01*
X482847Y305484D01*
X483516Y306153D01*
X483878Y307027D01*
Y307973D01*
X483516Y308847D01*
X482847Y309516D01*
X481973Y309878D01*
D02*
G37*
G36*
X436375Y305386D02*
X435625D01*
X434932Y305099D01*
X434401Y304568D01*
X434114Y303875D01*
Y303125D01*
X434401Y302432D01*
X434932Y301901D01*
X435625Y301614D01*
X436375D01*
X437068Y301901D01*
X437599Y302432D01*
X437886Y303125D01*
Y303875D01*
X437599Y304568D01*
X437068Y305099D01*
X436375Y305386D01*
D02*
G37*
G36*
X372375Y304754D02*
X371625D01*
X370932Y304467D01*
X370401Y303936D01*
X370114Y303243D01*
Y302493D01*
X370401Y301800D01*
X370932Y301269D01*
X371625Y300982D01*
X372375D01*
X373068Y301269D01*
X373599Y301800D01*
X373886Y302493D01*
Y303243D01*
X373599Y303936D01*
X373068Y304467D01*
X372375Y304754D01*
D02*
G37*
G36*
X343331Y305541D02*
X342385D01*
X341511Y305179D01*
X340842Y304510D01*
X340480Y303636D01*
Y302690D01*
X340842Y301816D01*
X341511Y301147D01*
X342385Y300785D01*
X343331D01*
X344205Y301147D01*
X344874Y301816D01*
X345236Y302690D01*
Y303636D01*
X344874Y304510D01*
X344205Y305179D01*
X343331Y305541D01*
D02*
G37*
G36*
X361973Y305378D02*
X361027D01*
X360153Y305016D01*
X359484Y304347D01*
X359122Y303473D01*
Y302527D01*
X359484Y301653D01*
X360153Y300984D01*
X361027Y300622D01*
X361973D01*
X362847Y300984D01*
X363516Y301653D01*
X363878Y302527D01*
Y303473D01*
X363516Y304347D01*
X362847Y305016D01*
X361973Y305378D01*
D02*
G37*
G36*
X352973D02*
X352027D01*
X351153Y305016D01*
X350484Y304347D01*
X350122Y303473D01*
Y302527D01*
X350484Y301653D01*
X351153Y300984D01*
X352027Y300622D01*
X352973D01*
X353847Y300984D01*
X354516Y301653D01*
X354878Y302527D01*
Y303473D01*
X354516Y304347D01*
X353847Y305016D01*
X352973Y305378D01*
D02*
G37*
G36*
X333473D02*
X332527D01*
X331653Y305016D01*
X330984Y304347D01*
X330622Y303473D01*
Y302527D01*
X330984Y301653D01*
X331653Y300984D01*
X332527Y300622D01*
X333473D01*
X334347Y300984D01*
X335016Y301653D01*
X335378Y302527D01*
Y303473D01*
X335016Y304347D01*
X334347Y305016D01*
X333473Y305378D01*
D02*
G37*
G36*
X505520Y306453D02*
X504480D01*
X503474Y306183D01*
X502573Y305663D01*
X501837Y304927D01*
X501317Y304026D01*
X501047Y303020D01*
Y301980D01*
X501317Y300974D01*
X501837Y300073D01*
X502573Y299337D01*
X503474Y298817D01*
X504480Y298547D01*
X505520D01*
X506526Y298817D01*
X507427Y299337D01*
X508163Y300073D01*
X508683Y300974D01*
X508953Y301980D01*
Y303020D01*
X508683Y304026D01*
X508163Y304927D01*
X507427Y305663D01*
X506526Y306183D01*
X505520Y306453D01*
D02*
G37*
G36*
X418375Y300386D02*
X417625D01*
X416932Y300099D01*
X416401Y299568D01*
X416114Y298875D01*
Y298125D01*
X416401Y297432D01*
X416932Y296901D01*
X417625Y296614D01*
X418375D01*
X419068Y296901D01*
X419599Y297432D01*
X419886Y298125D01*
Y298875D01*
X419599Y299568D01*
X419068Y300099D01*
X418375Y300386D01*
D02*
G37*
G36*
X481973Y300878D02*
X481027D01*
X480153Y300516D01*
X479484Y299847D01*
X479122Y298973D01*
Y298027D01*
X479484Y297153D01*
X480153Y296484D01*
X481027Y296122D01*
X481973D01*
X482847Y296484D01*
X483516Y297153D01*
X483878Y298027D01*
Y298973D01*
X483516Y299847D01*
X482847Y300516D01*
X481973Y300878D01*
D02*
G37*
G36*
X489875Y296386D02*
X489125D01*
X488432Y296099D01*
X487901Y295568D01*
X487614Y294875D01*
Y294125D01*
X487901Y293432D01*
X488432Y292901D01*
X489125Y292614D01*
X489875D01*
X490568Y292901D01*
X491099Y293432D01*
X491386Y294125D01*
Y294875D01*
X491099Y295568D01*
X490568Y296099D01*
X489875Y296386D01*
D02*
G37*
G36*
X435473Y295878D02*
X434527D01*
X433653Y295516D01*
X432984Y294847D01*
X432622Y293973D01*
Y293027D01*
X432984Y292153D01*
X433653Y291484D01*
X434527Y291122D01*
X435473D01*
X436347Y291484D01*
X437016Y292153D01*
X437378Y293027D01*
Y293973D01*
X437016Y294847D01*
X436347Y295516D01*
X435473Y295878D01*
D02*
G37*
G36*
X481973Y294378D02*
X481027D01*
X480153Y294016D01*
X479484Y293347D01*
X479122Y292473D01*
Y291527D01*
X479484Y290653D01*
X480153Y289984D01*
X481027Y289622D01*
X481973D01*
X482847Y289984D01*
X483516Y290653D01*
X483878Y291527D01*
Y292473D01*
X483516Y293347D01*
X482847Y294016D01*
X481973Y294378D01*
D02*
G37*
G36*
X505520Y296453D02*
X504480D01*
X503474Y296183D01*
X502573Y295663D01*
X501837Y294927D01*
X501317Y294026D01*
X501047Y293020D01*
Y291980D01*
X501317Y290974D01*
X501837Y290073D01*
X502573Y289337D01*
X503474Y288817D01*
X504480Y288547D01*
X505520D01*
X506526Y288817D01*
X507427Y289337D01*
X508163Y290073D01*
X508683Y290974D01*
X508953Y291980D01*
Y293020D01*
X508683Y294026D01*
X508163Y294927D01*
X507427Y295663D01*
X506526Y296183D01*
X505520Y296453D01*
D02*
G37*
G36*
X492875Y284386D02*
X492125D01*
X491432Y284099D01*
X490901Y283568D01*
X490614Y282875D01*
Y282125D01*
X490901Y281432D01*
X491432Y280901D01*
X492125Y280614D01*
X492875D01*
X493568Y280901D01*
X494099Y281432D01*
X494386Y282125D01*
Y282875D01*
X494099Y283568D01*
X493568Y284099D01*
X492875Y284386D01*
D02*
G37*
G36*
X505520Y286453D02*
X504480D01*
X503474Y286183D01*
X502573Y285663D01*
X501837Y284927D01*
X501317Y284026D01*
X501047Y283020D01*
Y281980D01*
X501317Y280974D01*
X501837Y280073D01*
X502573Y279337D01*
X503474Y278817D01*
X504480Y278547D01*
X505520D01*
X506526Y278817D01*
X507427Y279337D01*
X508163Y280073D01*
X508683Y280974D01*
X508953Y281980D01*
Y283020D01*
X508683Y284026D01*
X508163Y284927D01*
X507427Y285663D01*
X506526Y286183D01*
X505520Y286453D01*
D02*
G37*
G36*
X412973Y277878D02*
X412027D01*
X411153Y277516D01*
X410536Y276899D01*
X410250Y276870D01*
X409964Y276899D01*
X409347Y277516D01*
X408473Y277878D01*
X407527D01*
X406653Y277516D01*
X405984Y276847D01*
X405622Y275973D01*
Y275027D01*
X405984Y274153D01*
X406653Y273484D01*
X407527Y273122D01*
X408473D01*
X409347Y273484D01*
X409964Y274101D01*
X410250Y274130D01*
X410536Y274101D01*
X411153Y273484D01*
X412027Y273122D01*
X412973D01*
X413847Y273484D01*
X414516Y274153D01*
X414878Y275027D01*
Y275973D01*
X414516Y276847D01*
X413847Y277516D01*
X412973Y277878D01*
D02*
G37*
G36*
X455973Y277378D02*
X455027D01*
X454153Y277016D01*
X453500Y276363D01*
X452847Y277016D01*
X451973Y277378D01*
X451027D01*
X450153Y277016D01*
X449484Y276347D01*
X449122Y275473D01*
Y274527D01*
X449484Y273653D01*
X450153Y272984D01*
X451027Y272622D01*
X451973D01*
X452847Y272984D01*
X453500Y273637D01*
X454153Y272984D01*
X455027Y272622D01*
X455973D01*
X456847Y272984D01*
X457516Y273653D01*
X457878Y274527D01*
Y275473D01*
X457516Y276347D01*
X456847Y277016D01*
X455973Y277378D01*
D02*
G37*
G36*
X482973Y280878D02*
X482027D01*
X481153Y280516D01*
X480484Y279847D01*
X480122Y278973D01*
Y278027D01*
X480484Y277153D01*
X481153Y276484D01*
X482027Y276122D01*
X482973D01*
X483847Y276484D01*
X484516Y277153D01*
X484878Y278027D01*
Y278973D01*
X484516Y279847D01*
X483847Y280516D01*
X482973Y280878D01*
D02*
G37*
G36*
X473973D02*
X473027D01*
X472153Y280516D01*
X471484Y279847D01*
X471122Y278973D01*
Y278027D01*
X471484Y277153D01*
X472153Y276484D01*
X473027Y276122D01*
X473973D01*
X474847Y276484D01*
X475516Y277153D01*
X475878Y278027D01*
Y278973D01*
X475516Y279847D01*
X474847Y280516D01*
X473973Y280878D01*
D02*
G37*
G36*
X438973Y280378D02*
X438027D01*
X437153Y280016D01*
X436484Y279347D01*
X436122Y278473D01*
Y277527D01*
X436484Y276653D01*
X437153Y275984D01*
X438027Y275622D01*
X438973D01*
X439847Y275984D01*
X440516Y276653D01*
X440878Y277527D01*
Y278473D01*
X440516Y279347D01*
X439847Y280016D01*
X438973Y280378D01*
D02*
G37*
G36*
X429973D02*
X429027D01*
X428153Y280016D01*
X427484Y279347D01*
X427122Y278473D01*
Y277527D01*
X427484Y276653D01*
X428153Y275984D01*
X429027Y275622D01*
X429973D01*
X430847Y275984D01*
X431516Y276653D01*
X431878Y277527D01*
Y278473D01*
X431516Y279347D01*
X430847Y280016D01*
X429973Y280378D01*
D02*
G37*
G36*
X365473Y278878D02*
X364527D01*
X363653Y278516D01*
X362984Y277847D01*
X362622Y276973D01*
Y276027D01*
X362984Y275153D01*
X363653Y274484D01*
X364527Y274122D01*
X365473D01*
X366347Y274484D01*
X367016Y275153D01*
X367378Y276027D01*
Y276973D01*
X367016Y277847D01*
X366347Y278516D01*
X365473Y278878D01*
D02*
G37*
G36*
X374875Y282886D02*
X374125D01*
X373432Y282599D01*
X372901Y282068D01*
X372614Y281375D01*
Y280625D01*
X372901Y279932D01*
X373432Y279401D01*
X374125Y279114D01*
X374454D01*
X374614Y278875D01*
Y278125D01*
X374901Y277432D01*
X375432Y276901D01*
X376125Y276614D01*
X376454D01*
X376614Y276375D01*
Y275625D01*
X376901Y274932D01*
X377432Y274401D01*
X378125Y274114D01*
X378454D01*
X378614Y273875D01*
Y273125D01*
X378901Y272432D01*
X379432Y271901D01*
X380125Y271614D01*
X380875D01*
X381568Y271901D01*
X382099Y272432D01*
X382386Y273125D01*
Y273875D01*
X382099Y274568D01*
X381568Y275099D01*
X380875Y275386D01*
X380546D01*
X380386Y275625D01*
Y276375D01*
X380099Y277068D01*
X379568Y277599D01*
X378875Y277886D01*
X378546D01*
X378386Y278125D01*
Y278875D01*
X378099Y279568D01*
X377568Y280099D01*
X376875Y280386D01*
X376546D01*
X376386Y280625D01*
Y281375D01*
X376099Y282068D01*
X375568Y282599D01*
X374875Y282886D01*
D02*
G37*
G36*
X505520Y276453D02*
X504480D01*
X503474Y276183D01*
X502573Y275663D01*
X501837Y274927D01*
X501317Y274026D01*
X501047Y273020D01*
Y271980D01*
X501317Y270974D01*
X501837Y270073D01*
X502573Y269337D01*
X503474Y268817D01*
X504480Y268547D01*
X505520D01*
X506526Y268817D01*
X507427Y269337D01*
X508163Y270073D01*
X508683Y270974D01*
X508953Y271980D01*
Y273020D01*
X508683Y274026D01*
X508163Y274927D01*
X507427Y275663D01*
X506526Y276183D01*
X505520Y276453D01*
D02*
G37*
G36*
X508953Y266453D02*
X501047D01*
Y258547D01*
X508953D01*
Y266453D01*
D02*
G37*
G36*
X472375Y258386D02*
X471625D01*
X470932Y258099D01*
X470401Y257568D01*
X470114Y256875D01*
Y256125D01*
X470401Y255432D01*
X470932Y254901D01*
X471625Y254614D01*
X472375D01*
X473068Y254901D01*
X473599Y255432D01*
X473886Y256125D01*
Y256875D01*
X473599Y257568D01*
X473068Y258099D01*
X472375Y258386D01*
D02*
G37*
G36*
X465875D02*
X465125D01*
X464432Y258099D01*
X463901Y257568D01*
X463614Y256875D01*
Y256125D01*
X463901Y255432D01*
X464432Y254901D01*
X465125Y254614D01*
X465875D01*
X466568Y254901D01*
X467099Y255432D01*
X467386Y256125D01*
Y256875D01*
X467099Y257568D01*
X466568Y258099D01*
X465875Y258386D01*
D02*
G37*
G36*
X428875D02*
X428125D01*
X427432Y258099D01*
X426901Y257568D01*
X426614Y256875D01*
Y256125D01*
X426901Y255432D01*
X427432Y254901D01*
X428125Y254614D01*
X428875D01*
X429568Y254901D01*
X430099Y255432D01*
X430386Y256125D01*
Y256875D01*
X430099Y257568D01*
X429568Y258099D01*
X428875Y258386D01*
D02*
G37*
G36*
X422375D02*
X421625D01*
X420932Y258099D01*
X420401Y257568D01*
X420114Y256875D01*
Y256125D01*
X420401Y255432D01*
X420932Y254901D01*
X421625Y254614D01*
X422375D01*
X423068Y254901D01*
X423599Y255432D01*
X423886Y256125D01*
Y256875D01*
X423599Y257568D01*
X423068Y258099D01*
X422375Y258386D01*
D02*
G37*
G36*
X380733Y258618D02*
X379787D01*
X378913Y258256D01*
X378244Y257587D01*
X377882Y256713D01*
Y255767D01*
X378244Y254893D01*
X378913Y254224D01*
X379787Y253862D01*
X380733D01*
X381607Y254224D01*
X382276Y254893D01*
X382638Y255767D01*
Y256713D01*
X382276Y257587D01*
X381607Y258256D01*
X380733Y258618D01*
D02*
G37*
G36*
X370879Y251878D02*
X369933D01*
X369058Y251516D01*
X368390Y250847D01*
X368028Y249973D01*
Y249027D01*
X368390Y248153D01*
X369058Y247484D01*
X369933Y247122D01*
X370879D01*
X371753Y247484D01*
X372421Y248153D01*
X372783Y249027D01*
Y249973D01*
X372421Y250847D01*
X371753Y251516D01*
X370879Y251878D01*
D02*
G37*
G36*
X465473Y242378D02*
X464527D01*
X463653Y242016D01*
X463000Y241363D01*
X462347Y242016D01*
X461473Y242378D01*
X460527D01*
X459653Y242016D01*
X458984Y241347D01*
X458622Y240473D01*
Y239527D01*
X458984Y238653D01*
X459653Y237984D01*
X460527Y237622D01*
X461473D01*
X462347Y237984D01*
X463000Y238637D01*
X463653Y237984D01*
X464527Y237622D01*
X465473D01*
X466347Y237984D01*
X467016Y238653D01*
X467378Y239527D01*
Y240473D01*
X467016Y241347D01*
X466347Y242016D01*
X465473Y242378D01*
D02*
G37*
G36*
X423473D02*
X422527D01*
X421653Y242016D01*
X421000Y241363D01*
X420347Y242016D01*
X419473Y242378D01*
X418527D01*
X417653Y242016D01*
X416984Y241347D01*
X416622Y240473D01*
Y239527D01*
X416984Y238653D01*
X417653Y237984D01*
X418527Y237622D01*
X419473D01*
X420347Y237984D01*
X421000Y238637D01*
X421653Y237984D01*
X422527Y237622D01*
X423473D01*
X424347Y237984D01*
X425016Y238653D01*
X425378Y239527D01*
Y240473D01*
X425016Y241347D01*
X424347Y242016D01*
X423473Y242378D01*
D02*
G37*
G36*
X337730Y245838D02*
X336980D01*
X336287Y245551D01*
X335756Y245021D01*
X335469Y244327D01*
Y243577D01*
X335756Y242884D01*
X336287Y242354D01*
X336980Y242066D01*
X337310D01*
X337469Y241827D01*
Y241077D01*
X337756Y240384D01*
X338287Y239854D01*
X338980Y239566D01*
X339310D01*
X339469Y239327D01*
Y238577D01*
X339756Y237884D01*
X340287Y237353D01*
X340980Y237066D01*
X341309D01*
X341469Y236827D01*
Y236077D01*
X341756Y235384D01*
X342287Y234854D01*
X342980Y234566D01*
X343730D01*
X344423Y234854D01*
X344954Y235384D01*
X345241Y236077D01*
Y236827D01*
X344954Y237521D01*
X344423Y238051D01*
X343730Y238338D01*
X343401D01*
X343241Y238577D01*
Y239327D01*
X342954Y240020D01*
X342423Y240551D01*
X341730Y240838D01*
X341401D01*
X341241Y241077D01*
Y241827D01*
X340954Y242520D01*
X340423Y243051D01*
X339730Y243338D01*
X339401D01*
X339241Y243577D01*
Y244327D01*
X338954Y245021D01*
X338423Y245551D01*
X337730Y245838D01*
D02*
G37*
G36*
X328391Y263968D02*
X327609D01*
X326854Y263766D01*
X326177Y263375D01*
X325625Y262823D01*
X325234Y262146D01*
X325031Y261391D01*
Y260609D01*
X325234Y259854D01*
X325625Y259177D01*
X325969Y258833D01*
X326121Y258500D01*
X325969Y258167D01*
X325625Y257823D01*
X325234Y257146D01*
X325031Y256391D01*
Y255609D01*
X325234Y254854D01*
X325625Y254177D01*
X325969Y253833D01*
X326121Y253500D01*
X325969Y253167D01*
X325625Y252823D01*
X325234Y252146D01*
X325031Y251391D01*
Y250609D01*
X325234Y249854D01*
X325625Y249177D01*
X325969Y248833D01*
X326121Y248500D01*
X325969Y248167D01*
X325625Y247823D01*
X325234Y247146D01*
X325031Y246391D01*
Y245609D01*
X325234Y244854D01*
X325625Y244177D01*
X325969Y243833D01*
X326121Y243500D01*
X325969Y243167D01*
X325625Y242823D01*
X325234Y242146D01*
X325031Y241391D01*
Y240609D01*
X325234Y239854D01*
X325625Y239177D01*
X325969Y238833D01*
X326121Y238500D01*
X325969Y238167D01*
X325625Y237823D01*
X325234Y237146D01*
X325031Y236391D01*
Y235609D01*
X325234Y234854D01*
X325625Y234177D01*
X325969Y233833D01*
X326121Y233500D01*
X325969Y233167D01*
X325625Y232823D01*
X325234Y232146D01*
X325031Y231391D01*
Y230609D01*
X325234Y229854D01*
X325625Y229177D01*
X326177Y228625D01*
X326854Y228234D01*
X327609Y228031D01*
X328391D01*
X329146Y228234D01*
X329823Y228625D01*
X330375Y229177D01*
X330766Y229854D01*
X330968Y230609D01*
Y231391D01*
X330766Y232146D01*
X330375Y232823D01*
X330031Y233167D01*
X329879Y233500D01*
X330031Y233833D01*
X330375Y234177D01*
X330766Y234854D01*
X330968Y235609D01*
Y236391D01*
X330766Y237146D01*
X330375Y237823D01*
X330031Y238167D01*
X329879Y238500D01*
X330031Y238833D01*
X330375Y239177D01*
X330766Y239854D01*
X330968Y240609D01*
Y241391D01*
X330766Y242146D01*
X330375Y242823D01*
X330031Y243167D01*
X329879Y243500D01*
X330031Y243833D01*
X330375Y244177D01*
X330766Y244854D01*
X330968Y245609D01*
Y246391D01*
X330766Y247146D01*
X330375Y247823D01*
X330031Y248167D01*
X329879Y248500D01*
X330031Y248833D01*
X330375Y249177D01*
X330766Y249854D01*
X330968Y250609D01*
Y251391D01*
X330766Y252146D01*
X330375Y252823D01*
X330031Y253167D01*
X329879Y253500D01*
X330031Y253833D01*
X330375Y254177D01*
X330766Y254854D01*
X330968Y255609D01*
Y256391D01*
X330766Y257146D01*
X330375Y257823D01*
X330031Y258167D01*
X329879Y258500D01*
X330031Y258833D01*
X330375Y259177D01*
X330766Y259854D01*
X330968Y260609D01*
Y261391D01*
X330766Y262146D01*
X330375Y262823D01*
X329823Y263375D01*
X329146Y263766D01*
X328391Y263968D01*
D02*
G37*
G36*
X500473Y236378D02*
X499527D01*
X498653Y236016D01*
X497984Y235347D01*
X497622Y234473D01*
Y233527D01*
X497984Y232653D01*
X498653Y231984D01*
X499168Y231771D01*
Y231229D01*
X498653Y231016D01*
X497984Y230347D01*
X497622Y229473D01*
Y228527D01*
X497984Y227653D01*
X498653Y226984D01*
X499527Y226622D01*
X500473D01*
X501347Y226984D01*
X502016Y227653D01*
X502378Y228527D01*
Y229473D01*
X502016Y230347D01*
X501347Y231016D01*
X500832Y231229D01*
Y231771D01*
X501347Y231984D01*
X502016Y232653D01*
X502378Y233527D01*
Y234473D01*
X502016Y235347D01*
X501347Y236016D01*
X500473Y236378D01*
D02*
G37*
G36*
X486473D02*
X485527D01*
X484653Y236016D01*
X483984Y235347D01*
X483622Y234473D01*
Y233527D01*
X483984Y232653D01*
X484653Y231984D01*
X485168Y231771D01*
Y231229D01*
X484653Y231016D01*
X483984Y230347D01*
X483622Y229473D01*
Y228527D01*
X483984Y227653D01*
X484653Y226984D01*
X485527Y226622D01*
X486473D01*
X487347Y226984D01*
X488016Y227653D01*
X488378Y228527D01*
Y229473D01*
X488016Y230347D01*
X487347Y231016D01*
X486832Y231229D01*
Y231771D01*
X487347Y231984D01*
X488016Y232653D01*
X488378Y233527D01*
Y234473D01*
X488016Y235347D01*
X487347Y236016D01*
X486473Y236378D01*
D02*
G37*
G36*
X476473D02*
X475527D01*
X474653Y236016D01*
X473984Y235347D01*
X473622Y234473D01*
Y233527D01*
X473984Y232653D01*
X474653Y231984D01*
X475168Y231771D01*
Y231229D01*
X474653Y231016D01*
X473984Y230347D01*
X473622Y229473D01*
Y228527D01*
X473984Y227653D01*
X474653Y226984D01*
X475527Y226622D01*
X476473D01*
X477347Y226984D01*
X478016Y227653D01*
X478378Y228527D01*
Y229473D01*
X478016Y230347D01*
X477347Y231016D01*
X476832Y231229D01*
Y231771D01*
X477347Y231984D01*
X478016Y232653D01*
X478378Y233527D01*
Y234473D01*
X478016Y235347D01*
X477347Y236016D01*
X476473Y236378D01*
D02*
G37*
%LPD*%
D50*
X471500Y359500D02*
D03*
D54*
X328000Y266000D02*
D03*
D55*
X352223Y309013D02*
D03*
X342835Y308968D02*
D03*
X333000Y309000D02*
D03*
X360500Y312500D02*
D03*
X338000Y271500D02*
D03*
X428000Y320000D02*
D03*
X424000Y295000D02*
D03*
X350000Y271500D02*
D03*
X451000Y300500D02*
D03*
X332000Y359000D02*
D03*
X356000D02*
D03*
X380300D02*
D03*
X420500D02*
D03*
X404500D02*
D03*
X472500Y339000D02*
D03*
X506500Y371000D02*
D03*
X489500D02*
D03*
X494000Y408000D02*
D03*
X476000D02*
D03*
D56*
X496500Y390000D02*
D03*
X429500Y272000D02*
D03*
Y267000D02*
D03*
X425000D02*
D03*
M02*
